<?xml version="1.0" encoding="utf-8"?>
<!-- Generator: Adobe Illustrator 21.0.0, SVG Export Plug-In . SVG Version: 6.00 Build 0)  -->
<svg version="1.1" id="Calque_1" xmlns="http://www.w3.org/2000/svg" xmlns:xlink="http://www.w3.org/1999/xlink" x="0px" y="0px"
	 viewBox="0 0 56.7 56.7" style="enable-background:new 0 0 56.7 56.7;" xml:space="preserve">
<style type="text/css">
	.st0{fill:#FFFFFF;}
</style>
<path class="st0" d="M13.4,18.2l-2.7-2.7c-0.1-0.1-0.2,0-0.2,0.1L8.9,30.1c0,0.1,0,0.1,0.1,0.1l14.5-1.5c0.1,0,0.1-0.1,0.1-0.2
	L21,25.8v-0.1c5.7-5.7,13.4-8.3,20.9-7.8c0.1,0,0.1-0.1,0.1-0.2c-8.1-7.3-20.6-7.1-28.4,0.6C13.5,18.2,13.4,18.2,13.4,18.2z"/>
<path class="st0" d="M43.3,38.8l2.7,2.7c0.1,0.1,0.2,0,0.2-0.1l1.5-14.5c0-0.1,0-0.1-0.1-0.1l-14.5,1.5c-0.1,0-0.1,0.1-0.1,0.2
	l2.7,2.7v0.1C30,37,22.3,39.6,14.8,39.1c-0.1,0-0.1,0.1-0.1,0.2c8.1,7.3,20.6,7.1,28.4-0.6C43.2,38.7,43.3,38.7,43.3,38.8z"/>
<g>
	<path class="st0" d="M-117.1,12.8c-0.4,0-0.7,0-1.1,0c0.2,0.1,0.3,0.3,0.5,0.4C-117.5,13.1-117.3,12.9-117.1,12.8z"/>
	<path class="st0" d="M-135.5,19.8c0.2-0.1,0.5-0.2,0.7-0.4c0.3-0.4,0.7-1,1.1-1.5c0.4,0.6,0.9,1.1,1.2,1.8c0.3,0.6,0.6,1.3,0.8,2
		c0.2-0.1,0.4-0.1,0.7-0.2c-0.1-1.2-0.2-2.3-0.2-3.5c0,0,0-0.1,0-0.1c-0.3,0.2-0.5,0.5-0.8,0.7c-0.1-0.1-0.2-0.1-0.2-0.1l-2.7-2.7
		c-0.1-0.1-0.2,0-0.2,0.1"/>
	<path class="st0" d="M-127.3,23.4c1.4,0.4,2.7,0.9,4.1,1.4c0.3-0.3,0.6-0.5,1-0.8c-0.6-1.3-1.6-1.8-3.2-1.8c-0.7,0-1.4-0.4-2.2-0.7
		c0.6-0.5,1.1-1,2-1.7c0.1-1.6,0.1-1.7,2.2-1.3c0.2-0.3,0.2-0.7,0.5-0.9c0.3-0.4,0.8-0.6,1.2-1c0.1,0.6,0.4,1.2,0.2,1.6
		c-1,2.1-0.2,3.4,0.9,4.6c0.6-0.4,1.2-0.8,1.8-1.1c-0.2-1.9-0.5-3.8-0.8-5.7c-0.1-0.6-0.9-1.3-1.5-1.6c-0.7-0.3-1.4-0.6-2.1-0.8
		c-2.3,0.7-4.4,1.7-6.4,3.2c0.2,1.5,0.4,2.9,0.5,4.3C-129.1,22.3-128.6,23-127.3,23.4z"/>
	<path class="st0" d="M-117.6,17.8c0.2,1,0.3,2,0.4,3.1c0.6-0.3,1.1-0.5,1.7-0.7c0-0.6-0.1-1.2-0.5-1.9c-0.3-0.6-0.2-1.5-0.2-2.2
		c0.7,0.2,1.3,0.4,2.1,0.7c0.4-0.2,1.1-0.6,2.1-1.2c-0.1,1,0,1.6,0,2.2c0.1,0.1,0.3,0.2,0.5,0.2c0.5,0.3,1,0.5,1.5,0.7
		c0.9-0.2,1.8-0.3,2.7-0.3c0-0.6-0.1-1.2-0.1-1.7c0-0.5-0.1-1-0.2-1.5c-2.1-1.1-4.2-1.8-6.5-2.1c-0.5,0.4-1,0.8-1.6,1
		C-117.8,14.7-118,16.1-117.6,17.8z"/>
	<path class="st0" d="M-104.9,17c-0.3-0.2-0.6-0.4-0.9-0.6c0.1,0.5,0.2,0.9,0.3,1.4C-105.2,17.6-105,17.3-104.9,17z"/>
	<path class="st0" d="M-129.3,28c0-0.4,0-1,0-1.4c0.5,0.1,1.2,0,1.3,0.3c1.5,2.6,3.6,2.2,5.8,1.8l-2.3-2.4c-0.4-0.1-0.7-0.3-1-0.4
		c-3.3-1.9-5.8-0.6-8,1.9c-0.2,0.2-0.5,0.5-0.7,0.7c-0.4,0.1-0.8,0.1-1.2,0.2c0-0.4-0.1-1,0.2-1.2c1-1.1,2.1-2.3,3-3.7
		c-1.2,0.3-2.5,0.7-3.7,1.1l-0.6,5.8c0,0.1,0,0.1,0.1,0.1l7-0.7c0.2-0.3,0.5-0.6,0.8-1C-129,28.7-129.3,28.4-129.3,28z"/>
	<path class="st0" d="M-135.8,22l-0.1,0.8c0.1-0.1,0.3-0.2,0.4-0.3C-135.6,22.3-135.7,22.1-135.8,22z"/>
	<path class="st0" d="M-129.6,39.5c-0.1,0.3-0.3,0.6-0.4,0.8c0.8,0.7,1.7,1.3,2.6,1.8c-0.3-0.9-0.5-1.8-0.7-2.7
		C-128.7,39.5-129.1,39.5-129.6,39.5z"/>
	<path class="st0" d="M-117.1,43.8c-0.5,0.4-1.1,0.8-1.6,1.1c0.5,0,0.9,0.1,1.4,0.1c0.2-0.3,0.4-0.5,0.6-0.7
		C-116.8,44.1-117,43.9-117.1,43.8z"/>
	<path class="st0" d="M-117.1,36.8c-0.5,0.3-1.1,0.5-1.6,0.7c0.1,0.3,0.3,0.6,0.4,0.9c0.2,0.4,0.2,0.9,0.2,1.4
		c-0.4,0-0.9,0.2-1.3,0.1c-0.6-0.1-1.3-0.2-2.2-0.4c-0.1-0.2-0.2-0.5-0.3-1c-1.4,0.4-2.9,0.6-4.3,0.8c0.1,0.5,0.2,1.1,0.4,1.6
		c0.2,0.5,0.3,1,0.3,1.5c0,0.2-0.1,0.3-0.2,0.4c1.5,0.7,3.1,1.2,4.8,1.6c0-0.1,0.1-0.1,0.2-0.1C-117.4,42.8-116.6,40.1-117.1,36.8z"
		/>
	<path class="st0" d="M-115.1,43.2c0.3,0.4,0.6,1,1,1.3c0.1,0.1,0.2,0.1,0.3,0.2c0.8-0.1,1.6-0.3,2.4-0.5c-1.1-0.5-2.2-1.1-3.2-1.6
		C-114.8,42.9-115,43-115.1,43.2z"/>
	<path class="st0" d="M-104.6,28.7c0,0.5-0.1,0.9-0.2,1.4c-0.5-0.1-1.2-0.2-1.5-0.5c-0.5-0.7-1.1-1.2-1.7-1.4l-2.8,0.3
		c-0.3,0.1-0.6,0.3-0.9,0.4c2.3,0.9,4.6,2,6.9,2.6c0.6,0.1,1.6-0.9,2.4-1.5c0.8-0.6,1.4-1.3,2.3-1.8c0.4-0.2,0.9,0,1.4-0.1
		c-0.2,0.4-0.2,1-0.5,1.3c-1.1,1-2.3,1.8-3.5,2.7c0.1,0.2,0.1,0.5,0.1,0.7c0.8,0,1.7,0,2.5-0.1c0.5,0,1-0.1,1.5-0.2l0.6-5.4
		c0-0.1,0-0.1-0.1-0.1l-6.7,0.7c0,0,0,0,0,0C-104.7,28-104.5,28.3-104.6,28.7z"/>
	<path class="st0" d="M-99.3,37.2c-0.2,0.4-0.5,1.2-0.8,1.9c-0.2,0-0.3,0-0.5,0c-0.6-1.5-1.2-3-1.8-4.5c-0.2,0-0.3,0.1-0.6,0.2
		c-0.3,1.4,0.5,2.9,0.4,4.4c0.1-0.1,0.1-0.1,0.2-0.2c0.1,0,0.2,0,0.2,0.1l2.7,2.7c0.1,0.1,0.2,0,0.2-0.1l0.5-4.7
		C-99,37.1-99.2,37.2-99.3,37.2z"/>
	<path class="st0" d="M-107.5,32.3c-0.9-0.3-1.8-0.7-2.7-1.1l0.3,0.3v0.1c-0.6,0.6-1.3,1.2-2,1.8c0.9,1,2.2,0.7,3.4,0.7
		c0.4,0,0.8,0.4,1.2,0.6c-0.2,0.3-0.5,0.8-0.7,1c-0.3,0.2-0.7,0.3-0.9,0.4c0.1,1,0.2,1.8,0.3,2.6c-0.7-0.1-1.5-0.3-2.4-0.5
		c0,0-0.1,0.3-0.3,0.6c-0.3,0.4-0.7,0.7-1.1,0.9c-0.2-0.4-0.5-0.9-0.4-1.3c0.1-1.8,0-2.9-0.6-3.9c-0.8,0.5-1.5,1-2.3,1.5
		c0.1,1.4,0.2,2.7,0.4,4c0.1,0.4,0.9,0.8,1.4,1c1.4,0.7,2.9,1.1,4.3,1.9c0.2,0.1,0.3,0.3,0.4,0.5c1.8-0.7,3.6-1.7,5.2-3
		c-0.5-2-0.9-3.8-1.2-5.5C-105.5,33.5-106.2,32.8-107.5,32.3z"/>
</g>
</svg>
