<?xml version="1.0" encoding="utf-8"?>
<!-- Generator: Adobe Illustrator 21.0.0, SVG Export Plug-In . SVG Version: 6.00 Build 0)  -->
<svg version="1.1" id="Calque_1" xmlns="http://www.w3.org/2000/svg" xmlns:xlink="http://www.w3.org/1999/xlink" x="0px" y="0px"
	 viewBox="0 0 56.7 56.7" style="enable-background:new 0 0 56.7 56.7;" xml:space="preserve">
<style type="text/css">
	.st0{fill:none;stroke:#FFFFFF;stroke-width:1.5;stroke-linejoin:round;stroke-miterlimit:10;}
</style>
<path class="st0" d="M13.4,18.2l-2.7-2.7c-0.1-0.1-0.2,0-0.2,0.1L8.9,30.1c0,0.1,0,0.1,0.1,0.1l14.5-1.5c0.1,0,0.1-0.1,0.1-0.2
	L21,25.8v-0.1c5.7-5.7,13.4-8.3,20.9-7.8c0.1,0,0.1-0.1,0.1-0.2c-8.1-7.3-20.6-7.1-28.4,0.6C13.5,18.2,13.4,18.2,13.4,18.2z"/>
<path class="st0" d="M43.3,38.8l2.7,2.7c0.1,0.1,0.2,0,0.2-0.1l1.5-14.5c0-0.1,0-0.1-0.1-0.1l-14.5,1.5c-0.1,0-0.1,0.1-0.1,0.2
	l2.7,2.7v0.1c-5.7,5.7-13.4,8.3-20.9,7.8c-0.1,0-0.1,0.1-0.1,0.2c8.1,7.3,20.6,7.1,28.4-0.6C43.2,38.7,43.3,38.7,43.3,38.8z"/>
</svg>
