<?xml version="1.0" encoding="utf-8"?>
<!-- Generator: Adobe Illustrator 21.0.0, SVG Export Plug-In . SVG Version: 6.00 Build 0)  -->
<svg version="1.1" xmlns="http://www.w3.org/2000/svg" xmlns:xlink="http://www.w3.org/1999/xlink" x="0px" y="0px"
	 viewBox="0 0 841.9 595.3" style="enable-background:new 0 0 841.9 595.3;" xml:space="preserve">
<style type="text/css">
	.st0{opacity:0.2;fill:url(#SVGID_1_);}
	.st1{opacity:0.2;fill:url(#SVGID_2_);}
	.st2{opacity:4.000000e-02;}
	.st3{fill:#FFFFFF;}
</style>
<g id="Calque_1">
	<linearGradient id="SVGID_1_" gradientUnits="userSpaceOnUse" x1="0" y1="297.64" x2="114.1129" y2="297.64">
		<stop  offset="0" style="stop-color:#FFFFFF"/>
		<stop  offset="1" style="stop-color:#FFFFFF;stop-opacity:0"/>
	</linearGradient>
	<rect class="st0" width="114.1" height="595.3"/>
	<linearGradient id="SVGID_2_" gradientUnits="userSpaceOnUse" x1="841.89" y1="297.64" x2="727.7771" y2="297.64">
		<stop  offset="0" style="stop-color:#FFFFFF"/>
		<stop  offset="1" style="stop-color:#FFFFFF;stop-opacity:0"/>
	</linearGradient>
	<rect x="727.8" class="st1" width="114.1" height="595.3"/>
</g>
<g id="Calque_2">
	<g id="WBVflh_1_" class="st2">
		<g>
			<g>
				<g>
					<path class="st3" d="M681.1,352.2c0.9-0.8,1.7-1.3,2.5-2.2c0.5-0.5,0.6-1.2,0.9-1.7c0.6-0.7,1.5-1.1,2.2-1.6c0,0.8,0,1.7,0,2.5
						c-0.1,0.3-0.3,0.7-0.3,1c1,0.7,1.9,1.3,2.7,1.9c-0.8,0.7-1.6,1.2-2.7,2.1c0.5,0.4,1.1,0.8,1.5,1.4c0.3,0.5,0.4,1.1,0.6,1.6
						c-0.7,0.1-1.5,0.6-1.9,0.4c-1.2-0.6-2-1.7-3.1-2.3c-0.8-0.5-1.8-0.8-2.8-1.1c-0.2,0.4-0.4,0.6-0.6,1c1.5,1.5,3.2,3,4.6,4.6
						c0.7,0.8,1,1.8,1.5,2.8c-1-0.2-2.4-0.1-3.1-0.7c-1.8-1.5-3.4-3.4-5.1-5c-0.7-0.6-1.7-1.3-2.5-1.1c-3.2,0.7-6.4,1.8-9.6,3.1
						c2.9,0.7,5.7,3.2,8.8,0.4c0.4-0.4,1.2-0.2,1.7-0.3c-0.1,0.9-0.1,1.9-0.2,2.6c0.5,0.7,0.9,1.5,1.3,2.2c-0.8,0.4-1.7,0.9-2.7,1.4
						c0,0.3,0.3,0.9,0.1,1.3c-0.2,0.6-0.6,1.2-0.8,1.9c-0.5-0.4-1.5-0.7-1.5-1.1c-0.5-4.9-4.5-5-7.9-5.8c-0.5-0.1-1-0.2-2.6-0.3
						c1.3,1.3,2.1,2.2,2.9,2.9c1.3,1.1,2.8,1.9,3.8,3.3c3.3,4.3,7.2,4,11.5,2c0.4-0.2,0.9-0.4,1.3-0.5c0.6,0,1.1,0.3,1.6,0.4
						c-0.3,0.5-0.4,1.3-0.9,1.5c-1.9,0.9-4,1.8-6,3.3c2.3,0.3,4.7,0.6,7,0.8c0,0.4,0.1,0.8,0,1.3c-1.2,0.4-2.4,0.8-3.5,1.2
						c0.2,1.1,0.5,2.2,0.6,3.2c-1,0.1-2,0.2-3.1,0.3c-0.6,0.4-1.4,0.9-2.2,1.4c-0.2-1-0.5-2-0.6-3c-0.1-1,0-2,0-3
						c-0.3-0.1-0.6-0.1-0.9-0.2c-0.5,1.6-1.1,3.1-1.7,4.6c-0.6,1.4-0.6,3.6-3.4,3.4c0.8-3,1.5-5.7,2.3-8.4c0.6-1.7,0.4-2.9-1.1-4.1
						c-2.1-1.7-4.1-3.5-6.2-5.4c-0.6,3.4,0.3,4.9,3,6c1,0.4,1.7,1.4,2.5,2c-1.1,0.4-2,0.7-3.5,1.2c-1,2.1-1.1,2.1-3.6,0.5
						c-0.4,0.3-0.7,0.7-1.2,1c-0.6,0.3-1.4,0.4-2.1,0.6c0.2-0.8,0.1-1.8,0.6-2.2c3.5-3.2,1.3-6.3,0.4-9.4c-0.3-0.1-0.6-0.1-0.9-0.2
						c-1.1,3.8-2.2,7.6-3.1,11.5c-0.2,0.9,0.5,2.2,1.1,2.9c1.3,1.5,2.9,2.5,4.3,4c0.5,0.5,0.4,1.6,0.6,2.4c-0.8-0.1-1.6,0-2.2-0.3
						c-1.1-0.7-2-1.6-3.7-3c0.6,1.4,1.1,2.1,1.2,2.8c0.1,0.8-0.3,1.8-0.3,2.7c-0.7-0.4-1.3-0.8-2-1.3c-0.3-0.2-0.4-0.6-0.6-0.9
						c-2.9,2-2.9,2-3.8-1.5c-0.7,0.1-1.4,0.5-2.1,0.5c-0.7,0-1.3-0.3-1.9-0.5c0.5-0.6,0.8-1.3,1.4-1.7c0.8-0.4,1.8-0.4,2.6-0.8
						c0.7-0.4,1.3-1.1,2-1.7c-0.2-0.3-0.3-0.7-0.5-1.1c-1.9,0.4-3.8,1-5.7,1.2c-0.9,0.2-1.8-0.2-2.7-0.2c0.7-0.7,1.4-1.6,2.2-2
						c1.4-0.6,2.9-1,4.3-1c2.9,0.1,3.8-1.6,4.4-4.1c0.5-2.3,1.3-4.6,2.1-7.6c-2.7,1.8-4.3,3.3-4,6.2c0.1,1-0.6,2-0.9,3
						c-0.7-0.7-1.5-1.3-2.4-2.1c-0.7,0.1-1.8,0.2-3.3,0.4c0.6-1.3,0.9-2,1.3-2.8c-0.1-0.2-0.3-0.4-0.5-0.5c-0.6-0.7-1.2-1.3-1.8-2
						c0.9-0.2,2-0.8,2.7-0.5c2,0.7,3.3,0.2,4.6-1.5c1.1-1.4,2.3-2.6,3.4-3.9c-0.1-0.2-0.2-0.5-0.3-0.7c-4.3,1.4-8.6,2.6-12.7,4.3
						c-1,0.4-1.4,2.5-1.8,3.8c-0.5,1.5-0.7,3.1-1.3,4.6c-0.2,0.5-1,0.8-1.6,1.1c-0.2-0.6-0.8-1.1-0.7-1.6c0.4-2.2,0.9-4.3,1.4-6.7
						c-2.8,0.5-2.1,5-5.7,4.3c0.2-1,0.4-2,0.7-3.1c-1.3,0-2.6-0.2-3.7-0.2c-0.1-0.2-0.3-0.6-0.4-0.8c1.1-0.8,2.2-1.5,3.5-2.4
						c-0.4-0.4-0.9-0.8-1.2-1.4c-0.2-0.7-0.2-1.4-0.3-2.2c0.8,0.1,1.6-0.1,2.1,0.3c1.3,0.8,2.6,1.9,3.9,2.8c0.3-0.3,0.5-0.6,0.8-0.9
						c-1.4-1.7-2.9-3.4-4.3-5.2c-0.4-0.6-0.5-1.4-0.7-2c0.8,0,2-0.3,2.5,0.2c1.6,1.5,2.9,3.5,4.5,4.9c0.7,0.6,2.1,1,3,0.8
						c2.8-0.5,5.5-1.5,8.5-2.2c-4-3.5-6.9-0.6-9.9,1.3c-0.3-0.2-0.5-0.5-0.7-0.7c0.6-1.1,1.2-2.1,1.6-3.1c-0.8-0.9-1.9-1.9-2.9-2.9
						c1-0.3,1.9-0.8,3.2-1.2c0-0.1-0.1-0.7,0.1-1.1c0.3-0.6,0.7-1.2,1-1.7c0.6,0.5,1.5,0.9,1.7,1.4c0.8,3.5,3.2,4.2,6.6,3.8
						c-2.5-2.5-4.9-5.1-7.6-7.2c-0.7-0.5-2.6,0.3-3.9,0.6s-2.6,0.9-4,1.1c-0.6,0.1-1.2-0.5-1.8-0.7c0.5-0.5,0.8-1.3,1.4-1.5
						c2-0.7,4-1.1,6.1-1.7c0.1-0.3,0.2-0.7,0.2-1c-1.1-0.4-2.2-1-3.3-1.3c-1-0.3-2.2-0.6-3.2-0.8c0.7-0.7,1.4-1.5,2-2.1
						c-0.2-1-0.3-2.2-0.5-3.3c1,0.1,2,0.2,3.2,0.3c0.5-0.5,1.3-1.2,2.1-2c0.3,0.1,0.4,0.2,0.7,0.3c0,2.3-0.1,4.6-0.1,6.9
						c0.3,0.1,0.5,0,0.9,0.1c1.7-2.4,0.3-6.7,4.8-8.4c-0.6,3.5-1,6.5-1.7,9.4c-0.5,2,0.1,3.3,1.5,4.7c2.5,2.4,4.9,5,8,7.3
						c-0.5-1.9-1.1-3.8-1.5-5.7c-0.4-2.5-2.5-2.7-4.2-3.4c-0.5-0.2-0.9-1-1.2-1.5c0.5-0.3,1-0.8,1.5-0.9c0.5-0.1,1,0,1.3,0
						c0.4-1.4,0.7-2.5,1-3.6c0.9,0.6,1.8,1.2,2.9,1.9c0,0,0.3-0.4,0.7-0.6c0.6-0.3,1.3-0.5,2-0.6c0,0.7,0.1,1.4-0.2,2
						c-2,4.3-1.9,5.5,0.7,10.4c1.3-3.9,2.6-7.5,3.6-11.1c0.1-0.5-0.7-1.5-1.3-2.2c-1.5-1.6-3.2-3.1-4.6-4.8
						c-0.4-0.5-0.2-1.6-0.2-2.3c0.8,0.3,1.7,0.3,2.2,0.8c1.6,1.5,2.9,3.2,4.3,4.7c0.3-0.2,0.6-0.3,0.9-0.5c-0.2-0.7-0.2-1.6-0.6-2.2
						c-0.6-1.1-1.6-2-2.2-3.2c-0.3-0.6-0.1-1.4-0.1-2.1c0.8,0.2,1.6,0.1,2.2,0.5c0.6,0.4,0.9,1,1.4,1.6c0.9-1.2,1.7-2.3,2.5-3.4
						c0.3,0.1,0.6,0.3,0.9,0.4c-0.1,1.3-0.2,2.6-0.3,3.9c0.3,0.1,0.5,0.3,0.6,0.3c1.1,0,2.2-0.1,3.3-0.1c-0.9,0.8-1.6,1.8-2.6,2.4
						c-0.7,0.6-1.6,1-2.5,1.4c0.1,0.2,0.2,0.6,0.3,0.8c1.7-0.3,3.3-0.8,4.9-0.9c0.8-0.1,1.5,0.5,2.3,0.8c-0.6,0.5-1.2,1.3-1.8,1.4
						c-6.1,0.2-8.5,3.9-9.4,9.3c-0.3,1.6-1.1,3.1-1.7,4.9c3.6-1.9,4.8-4.3,4.3-7.7c-0.1-0.7,0.3-1.3,0.5-2c0.6,0.2,1.3,0.3,1.8,0.6
						c0.8,0.4,1.6,1,2.7,1.7c0,0.4-0.1,1.2-0.1,2.1c0.7,0.2,1.5,0.2,2.1,0.5c0.4,0.2,1.1,0.9,1,1.1c-0.2,0.5-0.8,0.9-1.2,1.2
						c-0.2,0.2-0.8,0-1.1-0.1c-3.4-0.7-5.1,1.2-6.9,4.6c2.5-0.7,4.4-1.5,6.3-1.8c4.3-0.7,6.2-3,6.4-7.3c0-0.8,0.1-1.5,0.5-2.2
						c0.3-0.5,1-0.6,1.5-1c0.2,0.5,0.8,1,0.7,1.5c-0.2,2-0.5,3.9-0.7,5.7C680.6,351.6,680.9,352,681.1,352.2z"/>
				</g>
			</g>
		</g>
	</g>
	<g class="st2">
		<g>
			<path class="st3" d="M678.7,81.6c-0.3-0.1-0.5-0.4-0.7-0.4c-1.1-0.4-1.3-0.8-0.9-1.9c0.1-0.3,0-0.7,0-0.9c0-0.3-0.1-0.6-0.1-1.1
				c0.9,0.8,1.6,1.3,2.2,1.9c0.2,0.2,0.1,0.7,0.1,1c0,0.4,0.1,0.8,0.1,1.3c0.1,0,0.2,0.1,0.3,0.1c0.1-0.3,0.3-0.5,0.5-0.7
				c0.2-0.2,0.5-0.5,0.7-0.4c0.3,0.1,0.5,0.5,0.4,0.7c-0.1,0.8-0.4,1.6-0.5,2.3c-0.1,0.3-0.3,0.5-0.2,0.7c0.2,0.5,0.5,1,0.8,1.4
				c0.2-0.4,0.4-0.8,0.6-1.2c0.1-0.3,0.2-0.6,0.3-1c0.1,0,0.2,0.1,0.3,0.1c0,0.5-0.2,1-0.1,1.5c0,0.3,0.1,0.6,0.3,0.6
				c0.2,0.1,0.5-0.1,0.6-0.3c0.5-0.6,0.7-1.2,0.4-2c-0.2-0.5-0.4-1.1-0.3-1.6c0-0.3,0.3-0.6,0.4-0.9c0.3,0.1,0.5,0.3,0.8,0.5
				c0.2,0.2,0.3,0.6,0.5,0.8c0.1,0,0.2,0.1,0.3,0.1c0.1-0.5,0.3-1,0.3-1.5c0-0.8,0.3-1.2,1.1-1.5c0.5-0.1,0.9-0.6,1.4-0.9
				c0,0.2,0,0.4,0,0.6c0,0.4-0.3,0.9-0.2,1.4c0,0.8-0.3,1.3-1.1,1.5c-0.3,0-0.6,0.2-0.9,0.3c0,0.1,0,0.2,0.1,0.2
				c0.3,0.1,0.5,0,0.8,0.1c0.3,0.1,0.6,0.5,0.8,0.6c-0.2,0.3-0.4,0.7-0.8,0.9c-0.6,0.3-1.1,0.4-1.7,0.6c-0.8,0.2-1.1,0.8-1.4,1.3
				c-0.1,0.2-0.1,0.5,0.1,0.6c0.2,0.2,0.4,0.2,0.7,0.1c0.7-0.1,1.2-0.5,1.9-0.6c0.1,0.1,0.1,0.2,0.2,0.2c-0.2,0.2-0.2,0.4-0.4,0.5
				c-0.2,0.2-0.6,0.2-0.8,0.3c-0.3,0.2-0.7,0.5-1,0.8c0.1,0.2,0.3,0.4,0.5,0.5c0.5,0,1.1,0.1,1.6-0.2c0.7-0.2,1.2-0.8,1.8-1.1
				c0.2-0.1,0.7,0.1,1,0.2c-0.1,0.3-0.1,0.7-0.2,1c-0.1,0.3-0.4,0.5-0.4,1.1c0.3,0,0.8,0,1.1-0.2c1.3-0.8,1.7-0.7,2.5,0.5
				c0.1,0.2,0.5,0.3,0.8,0.4c0.2,0.1,0.3,0.3,0.4,0.5c-0.2,0.1-0.3,0.3-0.5,0.3c-0.6,0.1-1.2,0.2-1.8,0.2c-0.4,0-0.8-0.3-1.1-0.4
				c-0.3-0.1-0.5-0.3-0.9-0.6c0,0.4,0.1,0.7,0.1,0.8c-0.1,0.4-0.2,0.9-0.4,1.1s-0.8-0.1-1-0.3c-0.5-0.4-0.8-0.9-1.1-1.4
				c-0.5-0.9-1.3-0.8-2.1-0.6c0.4,0.3,0.7,0.6,1,1c0.1,0.2,0.1,0.4,0.1,0.7c-0.3-0.1-0.4,0-0.7-0.1c-0.1,0-0.2-0.2-0.3-0.2
				c-0.4-0.1-0.7-0.3-1.1-0.3c-0.1,0-0.4,0.5-0.3,0.6c0.2,0.4,0.5,0.8,0.8,0.9c0.6,0.4,1.4,0.6,2.1,0.9c0.4,0.2,0.9,0.5,0.5,1.1
				c-0.2,0.3-0.8,0.4-1.2,0.6c-0.2,0.1-0.4,0-0.8,0c0.7,0.6,1.8,0.8,1.9,1.9c0,0.8,0,1.8,0.1,2.6c-0.7-0.6-1.5-1-2.1-1.6
				c-0.3-0.3-0.4-1-0.5-1.5c-0.1-0.4-0.1-0.8-0.1-1.3c-0.1,0-0.2-0.1-0.3-0.1c-0.1,0.3-0.3,0.5-0.4,0.7c-0.2,0.2-0.5,0.2-0.7,0.3
				c-0.1-0.2-0.3-0.5-0.3-0.6c0.1-0.5,0.1-1.1,0.4-1.6c0.4-0.7,0.4-1.5-0.1-2.1c-0.1-0.2-0.5-0.4-0.6-0.5c-0.1,0.3-0.3,0.5-0.4,0.7
				c-0.1,0.5-0.2,1-0.3,1.6c-0.1,0-0.3-0.1-0.3-0.1c0-0.8,0-1.4,0-2.4c-0.8,0.4-1.2,0.9-1,1.6c0.1,0.7,0.2,1.3,0.1,2
				c0,0.4-0.4,0.9-0.6,1.2c-0.3-0.3-0.7-0.6-0.9-0.9c-0.1-0.1-0.1-0.2-0.3-0.6c-0.3,1-0.3,1.9-0.8,2.4c-0.5,0.6-1.4,0.8-2,1.1
				c0-0.8-0.1-1.5,0-2.2c0.1-0.8,0.6-1.2,1.4-1.2c0.6,0,0.9-0.3,1-0.9c-0.5,0-0.9,0.1-1.3,0c-0.3-0.1-0.6-0.3-0.9-0.4
				c0.1-0.4,0.3-0.8,0.5-0.9c0.9-0.3,1.8-0.5,2.7-0.8c0.3-0.1,0.7-0.2,1-0.5c0.2-0.1,0.2-0.6,0.1-0.8c-0.1-0.2-0.5-0.3-0.7-0.3
				c-0.6,0.1-1.2,0.2-1.7,0.3c-0.1-0.2-0.1-0.2-0.2-0.4c0.3-0.2,0.6-0.3,1-0.5c0.3-0.2,0.6-0.4,0.9-0.6c-0.3-0.1-0.5-0.4-0.9-0.4
				c-0.6-0.3-1.2-0.1-1.8,0.3c-0.4,0.4-1,0.6-1.5,0.7c-0.3,0.1-0.8,0-1-0.2c-0.1-0.2,0-0.7,0.2-0.9c0.1-0.3,0.3-0.5,0.4-0.6
				c0-0.1,0-0.3-0.1-0.3c-0.3,0-0.8,0.1-1,0.3c-0.6,0.4-1.2,0.5-1.5,0c-0.4-1-1.2-1.2-2.1-1.2c0.2-1.1,1-0.7,1.5-0.7
				c0.6-0.1,1.2-0.3,1.8-0.2c0.5,0.1,1,0.7,1.6,1.3c-0.1-0.7-0.1-1,0-1.3c0.1-0.3,0.3-0.7,0.4-0.7c0.2-0.1,0.8,0,0.9,0.2
				c0.4,0.5,0.6,1,1,1.5c0.4,0.5,0.8,0.9,1.3,1.2c0.2,0.1,0.6-0.1,0.8-0.2c-0.1-0.3-0.1-0.7-0.3-0.9c-0.2-0.2-0.6-0.4-0.8-0.7
				c-0.2-0.2-0.2-0.5-0.3-0.8c0.3,0.1,0.5,0,0.8,0.1c0.4,0.2,0.6,0.5,1,0.8c0.2,0.1,0.4,0.1,0.6,0.1c0.2-0.1,0.1-0.4,0.1-0.6
				c-0.2-0.7-0.4-1.3-1.3-1.4c-0.6,0-1.1-0.5-1.7-0.9c-0.3-0.1-0.5-0.6-0.3-0.9c0.1-0.3,0.6-0.4,0.9-0.5
				C678.2,81.4,678.6,81.6,678.7,81.6C678.7,81.8,678.7,81.7,678.7,81.6z"/>
		</g>
	</g>
	<g class="st2">
		<g>
			<path class="st3" d="M653.3,192.9c0.6,0.6,1,1.1,1.8,1.7c0.3-1.2,0.6-2.1,0.8-3c0.2,0.1,0.3,0.1,0.4,0.1c-0.1,0.9-0.2,2-0.2,3.1
				c0.7-0.2,1.3-0.3,2.1-0.6c-0.8,1.3-3.5,0.8-2.9,3.2c1.1-0.4,2.1-0.8,3.1-1.1c-1.1,1.3-3.2,1.1-4.1,3.3c0.9-0.2,1.5-0.3,2.3-0.4
				c-1,0.7-2.1,1-2.5,1.8c-0.6,0.7-0.6,1.9-0.9,3.1c2.1-0.6,4.4-0.5,5-3.4c0.1,0.1,0.2,0.2,0.3,0.2c-0.1,0.4-0.2,0.9-0.3,1.6
				c2.2-0.2,1.6-2.4,2.7-3.1c-0.2,0.8-0.4,1.6-0.6,2.4c1.9,0.7,1.9-1.3,3-2c-0.2,0.7-0.3,1.1-0.4,1.7c0.8,0,1.6,0,2.3,0
				c0,0.2,0,0.2,0,0.3c-0.7,0.1-1.2,0.3-2.1,0.5c0.5,0.7,1,1.3,1.6,2.3c-1.9-0.2-2.2-3-4.4-1.8c0.9,0.9,1.6,1.9,2.5,2.7
				c-0.1,0.1-0.2,0.2-0.1,0.3c-0.4-0.1-0.8-0.3-1.1-0.6c-0.6-0.5-1.1-1.1-1.6-1.7c-0.5-0.7-1-0.8-1.9-0.2c0.7,0.6,1.2,1.2,1.8,1.9
				c-0.2,0.2-0.1,0.3-0.3,0.5c-0.6-0.4-1.5-0.8-1.9-1.3c-0.6-0.8-1.2-0.7-1.9-0.5c-0.8,0.2-1.6,0.6-2.8,0.9c1.2,1,2,2.1,3,2.4
				c1,0.3,2.3-0.2,3.5-0.2c-0.7,0.3-1.6,0.6-2.5,1c2.1,2.1,3.8,0,5.8,0.2c-1.1,0.4-2.4,0.9-3.6,1.3c0.8,1.8,2.3,0.5,3.3,1.1
				c-0.5,0.2-1.1,0.3-1.7,0.6c0.8,0.9,1.4,1.6,2.2,2.5c-0.2,0.2-0.2,0.3-0.4,0.5c-0.7-0.6-1.4-1.1-2.1-1.8c-0.3,0.7-0.5,1.3-0.7,2.1
				c-0.8-1.4,0.9-3-1-3.9c-0.5,1.1-0.9,2.1-1.3,3.1c-0.7-1.5,1.6-3.1-0.6-4.6c-0.4,0.6-0.6,1-0.9,1.5c-0.2,0.1-0.2,0.1-0.4,0.2
				c1.1-2.9-1.2-3.6-2.7-4.8c-1.7,2.4-0.8,4.3,1.5,5.8c-0.2,0.2-0.4,0.2-0.6,0.4c-0.7-0.6-1.4-1.1-2.3-1.7c-0.7,2.5,2.2,2.9,2.6,4.6
				c-0.2,0.2-0.2,0.2-0.3,0.4c-0.9-0.8-1.8-1.5-2.7-2.2c-0.7,0.7-0.3,1.2,0.2,1.7c0.5,0.4,0.8,0.9,1.1,1.3c-0.2,0.2-0.1,0.3-0.3,0.4
				c-0.5-0.4-1-0.8-1.7-1.3c-0.1,0.5-0.2,1-0.4,1.4c-0.1,0.4-0.3,0.8-0.5,1.1c-0.2-0.1-0.2-0.1-0.4-0.1c0.2-0.9,0.3-1.7,0.5-2.8
				c-0.7,0.2-1.3,0.3-2,0.4c0.7-1.2,3-0.7,2.2-3c-0.9,0.3-1.9,0.5-2.9,0.8c-0.1-0.2-0.1-0.2-0.2-0.3c0.9-0.3,1.8-0.8,2.7-0.9
				c0.8-0.2,1.1-0.6,0.9-1.6c-0.7,0.2-1.5,0.6-2.1,0.8c0-0.1-0.1-0.2-0.1-0.2c1-0.6,2.2-1,2.8-1.9c0.6-0.9,0.7-2.2,1.1-3.6
				c-2.4,0.6-4.6,0.6-4.9,3.6c-0.2-0.2-0.3-0.2-0.5-0.3c0.1-0.6,0.2-1.2,0.3-1.8c-2.5,0-1.6,2.7-3.1,3.7c0.3-1.1,0.6-2,0.8-3.1
				c-2-0.2-1.5,1.5-2.5,2.2c0.1-0.7,0.1-1.2,0.3-2.1c-1.1,0.1-2.2,0.3-3.2,0.4c0-0.2-0.1-0.2-0.1-0.3c0.9-0.3,1.7-0.5,2.7-0.8
				c-0.4-0.6-0.8-1.1-1.1-1.6c0.1-0.2,0.2-0.2,0.2-0.4c1,0.7,2,1.3,2.9,2c0.2-0.2,0.2-0.3,0.3-0.4c-0.5-0.7-1.1-1.4-1.5-2.1
				c1.5,0.1,1.7,2.2,3.6,1.9c-0.3-0.6-0.5-1.1-0.8-1.6c0.1-0.1,0.2-0.2,0.2-0.2c0.4,0.2,0.7,0.4,1,0.8c0.5,0.7,1.1,0.8,1.9,0.5
				c0.8-0.2,1.6-0.6,2.7-0.9c-1.6-1.6-2.6-3.7-5.5-2.6c0.1-0.2,0.1-0.3,0.1-0.4c0.6-0.2,1.2-0.4,1.7-0.6c-0.5-1.1-1.3-0.8-2.2-0.6
				c-0.7,0.2-1.5,0.4-2.3,0.6c0-0.2-0.1-0.2-0.1-0.4c1-0.3,2-0.6,3-1c0.1-0.2,0.1-0.3,0.1-0.4c-0.6-0.3-1.2-0.7-1.8-0.8
				c-0.7-0.1-1.3,0.3-1.9,0.4c0-0.2-0.1-0.2-0.1-0.3c0.6-0.2,1.1-0.4,1.8-0.6c-0.5-1.1-2.1-1.4-2-3.1c1,0.8,1.8,1.5,2.8,2.2
				c0.4-0.7,0.6-1.2,0.8-1.9c0.7,1.1-1.1,2.8,1.1,3.5c0.4-1,0.8-2,1.2-3.1c0.6,1.6-1.4,3.1,0.3,4.8c0.4-0.7,0.7-1.3,1-1.8
				c0.2,0,0.3,0,0.5,0c-1.7,2.9,0.5,3.9,2.2,5.5c0.6-2.3,2.2-4.2-0.4-6.1c0.2-0.1,0.4-0.2,0.6-0.2c0.5,0.3,1,0.6,1.4,0.9
				c0.2-0.1,0.2-0.2,0.3-0.2c-0.5-1.4-1.9-2.3-2.6-3.8c1.7,0,1.6,1.9,2.8,2.2C655.6,194.9,652.9,194.6,653.3,192.9z"/>
		</g>
	</g>
	<g class="st2">
		<g>
			<path class="st3" d="M6.9,282.3c1.2-1.7,1.8-2.8,2.7-3.6c0.5-0.4,1.3-0.6,2-0.8c-0.1,0.7-0.1,1.3-0.3,1.9
				c-0.4,0.9-0.9,1.8-1.6,2.6c-2.1,2.8-1.5,5.4,0.4,8.4c1-1.3,1.8-2.6,2.9-3.7c1-1,2.1-1.8,3.3-2.7c0.2,0.3,0.5,0.6,0.8,0.8
				c-0.5,0.7-0.9,1.3-1.4,2c-1.3,1.9-2.8,3.7-3.8,5.7c-1.5,2.8,0.4,6.7,3.5,7.3c0.7,0.2,1.5,0.3,2.1,0.5c4.2,1,8-2.5,7.3-6.7
				c-0.3-1.8-1-3.5-1.3-5.3c-0.1-0.6,0.4-1.2,0.6-1.8c0.5,0.3,1.3,0.6,1.5,1.1c0.8,1.8,1.3,3.8,1.9,5.7c3.8-2,4.5-3.4,3.9-7.4
				c-0.2-1-0.6-2-0.6-3c0-0.6,0.4-1.2,0.7-1.8c0.6,0.4,1.4,0.8,1.6,1.3c0.5,1.3,0.7,2.6,0.9,4.2c2-1.5,3.7-2.7,5.5-4
				c0.3,0.3,0.6,0.6,0.9,0.9c-1.6,1.7-3.2,3.5-4.9,5.4c2.1,0.8,3.9,1.5,5.7,2.2c0,0.2,0.1,0.5,0.1,0.7c-0.6,0.3-1.2,0.7-1.9,0.8
				c-0.7,0-1.4-0.3-2.1-0.5c-4.7-1.2-5.7-0.8-8.3,4.2c2.1,0.5,4.2,0.9,6.3,1.5c0.8,0.2,1.4,0.8,2.1,1.2c-0.8,0.4-1.5,1.1-2.3,1
				c-2.3-0.2-4.8-0.4-7-1.2c-2.3-0.8-3,0.9-4,2c-0.6,0.7-0.9,2-0.8,3c0.2,1.3,0.9,2.6,1.3,3.9c0.4,1.4-0.1,3.3,2.2,3.5
				c2.2,0.3,4.5,1.1,6.3-1c1.3-1.6,2.7-2.9,4.2-4.3c0.7-0.6,1.6-0.9,2.4-1.3c0.2,0.3,0.5,0.6,0.6,0.9c-1.9,2.2-3.9,4.4-5.9,6.6
				c3,1.9,4.4,1.8,6.8-0.6c1-0.9,2-1.9,3.1-2.7c0.6-0.4,1.5-0.4,2.2-0.6c0.1,0.3,0.2,0.5,0.4,0.7c-1.6,1.6-3.1,3.2-5,5.1
				c2.7,1,5,2,7.3,2.9c-0.1,0.4-0.1,0.8-0.2,1.2c-1.1,0-2.2,0.1-3.2-0.1c-1.2-0.3-2.4-0.7-4.4-1.4c0.7,1.8,1.2,2.9,1.5,4.2
				c0.1,0.8,0,1.6-0.1,2.4c-0.7-0.5-1.5-0.7-2-1.4c-0.7-0.9-1.4-2-1.6-3.2c-0.6-3.5-3.1-3.8-6.6-3.9c0.8,1.9,1.5,3.5,2.1,5.1
				c0.3,0.8,0.8,1.5,1,2.3c0.1,0.6-0.3,1.2-0.4,1.9c-0.6-0.3-1.4-0.5-1.7-0.9c-1.2-2.4-2.6-4.8-3.4-7.5c-0.5-1.7-1.7-2-3.1-2.2
				c-1.5-0.2-3.2-1.4-4.5,0.6c-0.6,0.9-1.4,1.7-2.2,2.5c-3,3.4-1.7,7.4,2.7,8.7c2.5,0.8,5,1.5,7.4,2.8c-3,2-5.7-0.8-9-0.3
				c0.3,2.2,0.4,4.4,3.3,5.1c1.4,0.4,2.7,1.1,4,1.8c0.4,0.2,0.6,1,0.9,1.4c-0.6,0.2-1.3,0.7-1.9,0.6c-1.2-0.3-2.3-0.9-3.9-1.6
				c0.4,2.4,0.8,4.2,1,6.1c0,0.6-0.6,1.3-0.9,2c-0.4-0.5-1.1-0.9-1.3-1.5c-0.5-1.6-0.7-3.3-1.3-5.6c-1.4,1.7-2.2,3-3.3,4
				c-0.5,0.5-1.4,0.6-2,0.9c0.1-0.7,0-1.5,0.4-2.1c0.6-1.1,1.4-2.2,2.1-3.2c2.3-3,2.2-4-0.1-7.5c-2.2,2-4.3,4-6.5,5.9
				c-0.3-0.2-0.6-0.4-0.8-0.7c0.4-0.7,0.6-1.5,1.1-2.1c1.1-1.3,2.4-2.5,3.6-3.7c2.9-3.3,2.1-6.6-2.1-8.1c-1.1-0.4-2.1-0.7-3.2-1
				c-4.4-1-7.1,1.5-6.3,5.9c0.4,1.9,0.8,3.8,1,5.7c0.1,0.9-0.5,1.9-0.7,2.9c-0.5-0.8-1.3-1.6-1.6-2.4c-0.5-1.8-0.7-3.7-1.1-5.7
				c-4,2.4-4.2,2.8-3.8,7.1c0.2,1.4-0.4,2.8-0.7,4.2c-2.3-0.5-1.1-2.5-1.6-3.8c-0.2-0.5-0.3-1-0.6-1.9c-1.4,1.3-2.5,2.4-3.8,3.5
				c-0.4,0.3-1.1,0.2-1.7,0.3c0.1-0.6,0-1.3,0.3-1.7c1-1.2,2.1-2.5,3.6-4c-2-0.7-3.6-1.3-5.2-2c-0.6-0.3-1-1-1.5-1.6
				c0.7-0.2,1.5-0.5,2.2-0.5c1,0.1,2.1,0.5,3.2,0.9c4,1.5,4.2,1.4,7.1-2.5c-2.8-1.1-5.5-2.1-8.2-3.1c0-0.4,0-0.7,0.1-1.1
				c0.9-0.1,1.9-0.4,2.7-0.3c1.8,0.4,3.5,1,5.2,1.7c2,0.8,3.2-0.1,4.4-1.6c1.1-1.4,1.4-2.4,0.5-4.1c-0.8-1.5-0.9-3.3-1.6-4.9
				c-0.5-1-1.3-2.3-2.3-2.6c-0.7-0.2-2,0.6-2.9,1.2c-2.2,1.5-4.2,3.2-6.4,4.7c-0.4,0.3-1.1,0.1-1.7,0.1c-0.1-0.2-0.2-0.4-0.3-0.6
				c2.4-1.9,4.7-3.8,7.2-5.8c-3.4-2.5-5.4-2.5-8.3-0.7c-1.9,1.2-3.9,2.2-6.2,3.6c0.1-3.9,3.6-3.7,5.1-6c-2.5-0.8-4.9-1.7-7.6-2.6
				c1.2-2.2,2.6-1.2,3.9-0.9c1.3,0.3,2.6,0.6,4.7,1.1c-0.8-2.1-1.5-3.5-1.8-5.1c-0.2-0.6,0.3-1.4,0.5-2.1c0.5,0.3,1.3,0.6,1.6,1
				c0.7,1.2,1.2,2.5,1.6,3.8c1,3.7,1.9,4.4,6.7,4.3c-0.8-2.1-1.6-3.9-2.2-5.8c-0.2-0.7,0-1.6,0-2.5c0.7,0.5,1.8,0.8,2.1,1.5
				c1,2,1.8,4,2.4,6.1c0.9,2.8,3.4,3.6,5.6,1.7c0.8-0.7,1.8-1.4,2.5-2.1c1-1,2.7-2.3,2.6-3.3c-0.2-2.4-0.7-5.1-4-5.8
				c-2.2-0.5-4.4-1.5-6.5-2.4c-0.6-0.3-1-1.1-1.5-1.6c0.8-0.2,1.7-0.7,2.3-0.5c2.2,0.7,4.3,1.6,6.7,2.6c-0.3-4.3-1.2-5.5-4.4-6.4
				c-1.7-0.5-3.2-1.1-4.9-1.7c0.9-1.6,0.9-1.6,6.6-0.6c-0.2-2-0.4-4-0.4-5.9c0-0.8,0.6-1.5,0.9-2.3c0.5,0.6,1.2,1.3,1.4,2
				C6.5,278.4,6.6,280,6.9,282.3z M16.3,308.8c0.1,0.3,0.2,0.6,0.2,0.9c1.8,0.3,3.7,0.6,6.2,1c-0.9-2.3-1.5-3.9-2.2-6
				C18.8,306.2,17.6,307.5,16.3,308.8z M12.6,308.4c-0.6-2-1.1-3.5-1.8-5.4c-1.7,1.3-3.1,2.3-5,3.7C8.5,307.4,10.3,307.9,12.6,308.4
				z M4.8,309.2c0.9,2.4,1.6,4,2.5,6.2c1.6-1.9,2.6-3.1,3.8-4.7C9,310.2,7.4,309.8,4.8,309.2z M9.7,316.2c2.3,0.6,3.9,0.9,5.9,1.4
				c-0.8-2.2-1.3-3.8-2.1-6C12.1,313.4,11.1,314.6,9.7,316.2z M21.5,312.9c-1.8-0.3-3.2-0.5-5-0.8c0.6,1.8,1,3,1.6,4.8
				C19.3,315.4,20.2,314.4,21.5,312.9z M14.9,307.1c1.3-1.6,2.2-2.5,3.2-3.7c-1.7-0.4-2.8-0.7-4.5-1C14.1,304,14.4,305.1,14.9,307.1
				z"/>
		</g>
	</g>
	<g class="st2">
		<g>
			<path class="st3" d="M163.9,261.1c-0.2,1.1-0.5,1.8-0.6,2.6c-0.7-0.5-1.4-1-2.3-1.6c0,0.1-0.1,0.7-0.4,1
				c-0.3,0.3-0.8,0.4-1.2,0.7c-0.1-0.4-0.5-0.8-0.5-1.2c0.1-0.7,0.2-1.4,0.6-2c0.6-1,0.1-1.6-0.9-2.3c-0.2,0.8-0.3,1.6-0.5,2.1
				c-0.2,0.4-0.8,0.7-1.3,1c-0.2-0.4-0.6-0.9-0.6-1.3c0-0.8,0.2-1.5,0.5-2.2c0.6-2.5-0.9-3.9-3.2-3.3c-0.4,0.1-0.9,0.2-1.3,0.3
				c-1.3,0.2-1.7,0.9-1.3,2.1c0.5,1.3,1,2.7,1.4,4c0.1,0.5-0.1,1.1-0.1,1.7c-0.5-0.3-1.1-0.4-1.5-0.8c-0.5-0.6-0.6-1.4-1-2.1
				c-0.9,0.7-1.1,1.5-0.6,2.5c0.4,0.7,0.8,1.5,0.9,2.3c0.1,0.6-0.2,1.1-0.4,1.7c-0.5-0.3-0.9-0.7-1.4-1c-0.2-0.1-0.3-0.4-0.3-0.4
				c-0.8,0.4-1.5,0.8-2.1,1.1c0-0.9-0.2-1.7-0.2-2.6c-0.2,0-0.5,0.1-0.9,0c-0.6-0.1-1.2-0.3-1.8-0.4c0.5-0.4,0.9-0.8,1.5-1.1
				c0.3-0.2,0.7-0.2,1.1-0.3c1.3-0.2,1.9-1,2.1-2.5c-0.9,0.3-1.6,0.6-2.4,0.7c-0.4,0.1-0.9-0.1-1.3-0.2c0.2-0.4,0.4-1.1,0.7-1.2
				c0.9-0.5,2-0.8,3-1.2c1.1-0.5,1.9-2.1,1.6-3.3c-0.6-2-1.5-2.9-3.1-2.7c-0.5,0.1-1,0.4-1.4,0.7c-1,1.1-1.9,2.3-2.9,3.4
				c-0.3,0.3-0.9,0.4-1.3,0.6c0-0.5-0.2-1.2,0-1.5c0.5-0.9,1.3-1.6,2-2.6c-1.3-0.3-2.3-0.1-3,1c-0.1,0.2-0.3,0.5-0.5,0.7
				c-0.7,0.5-1.3,1.1-2,1.6c-0.1-0.8-0.1-1.6-0.1-2.3c-0.6-0.3-1.3-0.6-2.1-0.9c0.7-0.5,1.4-1,2.3-1.6c-0.4-0.3-0.9-0.7-1.3-1.3
				c-0.2-0.4-0.3-0.8-0.4-1.2c0.5,0,1.2-0.3,1.6-0.1c0.8,0.5,1.5,1.2,2.3,1.8c0.6,0.4,1.3,0.6,2,0.9c0.1-0.2,0.3-0.5,0.5-0.7
				c-0.6-0.6-1.2-1.1-1.7-1.7c-0.3-0.4-0.4-0.9-0.6-1.4c0.6,0,1.3-0.3,1.7,0c0.8,0.5,1.7,1.1,2.2,1.9c1.1,1.5,2.6,1.3,3.8,0.8
				c0.8-0.3,1.3-1.6,1.6-2.5c0.4-1-0.9-2.4-2-2.6c-1.5-0.2-3-0.5-4.5-0.8c-0.4-0.1-0.6-0.6-1-0.9c0.4-0.3,0.8-0.7,1.2-0.7
				c1.1,0.1,2.3,0.4,3.8,0.7c-0.6-1.7-1.2-3-3.1-2.9c-0.6,0-1.2,0-1.8-0.2c-0.4-0.1-0.8-0.5-1.2-0.7c0.4-0.3,0.8-0.7,1.4-0.9
				c0.4-0.1,0.9,0,1.9-0.1c-0.7-0.8-1.2-1.4-1.5-2.1c-0.2-0.4-0.2-1-0.2-1.4c0.5,0,1.2-0.1,1.6,0.2c0.6,0.4,1.1,1,1.7,1.7
				c0.4-0.6,0.5-1,0.8-1.4c0.4-0.4,0.9-0.5,1.4-0.8c0.1,0.5,0.2,1,0.2,1.4c0,0.3-0.2,0.6-0.4,0.9c-1,1.6-0.2,2.9,1.2,4.4
				c0.2-1.4,0.2-2.5,0.4-3.5c0.1-0.5,0.6-1,0.9-1.5c0.4,0.5,1,1,0.9,1.4c-0.1,1.6-0.2,3.2-0.8,4.6c-0.4,1.2-0.1,2.1,0.6,2.8
				c0.4,0.3,1.2,0.3,1.9,0.2c2.9-0.5,3.8-2.3,2.5-5c-0.3-0.5-0.7-1-0.8-1.6c-0.1-0.4,0.1-0.9,0.2-1.4c0.4,0.1,1,0.1,1.4,0.4
				c0.4,0.3,0.7,0.8,1.3,1.1c-0.4-0.7-0.8-1.4-1.1-2.1c-0.3-0.6-0.7-1.2-0.7-1.8c-0.1-0.4,0.3-1,0.6-1.1c0.3-0.1,0.9,0.2,1.1,0.5
				c0.4,0.5,0.6,1.1,0.8,1.5c0.9-0.6,1.6-1,2.3-1.4c0.1,0.8,0.2,1.6,0.4,2.8c0.6-0.3,1.2-0.8,1.9-1c0.3-0.1,0.7,0.2,1.1,0.4
				c-0.2,0.4-0.3,0.9-0.6,1c-1,0.6-2.1,1.1-3.1,1.5c-1.2,0.4-1.6,1.2-1.5,2.5c1.2-0.4,2.2-0.8,3.2-1c0.5-0.1,1.1,0.3,1.7,0.4
				c-0.4,0.4-0.7,0.8-1.2,1c-1.4,0.6-2.8,1.2-4.2,1.8c-1.1,0.5-1.4,1.2-0.6,2.2c0.7,0.9,0.6,2.8,2.6,2.3c0.6-0.2,1.3-0.6,1.8-1.1
				c0.8-0.9,1.4-2,2.1-2.9c0.3-0.3,0.9-0.3,1.4-0.5c0,0.5,0.2,1-0.1,1.4c-0.4,0.8-1,1.5-1.7,2.5c1.8,0,3.4,0.3,4.2-1.5
				c0.3-0.5,0.5-1,0.9-1.3c0.4-0.3,0.9-0.3,1.3-0.6c0.1,0.5,0.2,1,0.1,1.4c-0.1,0.4-0.4,0.8-0.9,1.5c0.8-0.1,1.3-0.2,1.9-0.1
				c0.3,0.1,0.6,0.3,0.9,0.4c-0.2,0.3-0.3,0.8-0.6,1c-0.6,0.3-1.3,0.4-2.3,0.7c0.5,0.5,1,0.8,1.3,1.3s0.3,1,0.4,1.5
				c-0.6-0.1-1.3,0.1-1.7-0.1c-1-0.5-1.7-1.4-2.6-1.9c-0.7-0.4-1.6-0.3-2.5-0.5c0,0.2-0.2,0.4-0.2,0.6c0.7,0.5,1.5,1,2.1,1.7
				c0.3,0.4,0.3,1,0.3,1.5c-0.5,0-1.2,0.1-1.5-0.2c-1.1-0.8-2.1-1.8-3.4-2.6c-0.5-0.3-1.7-0.4-2.2-0.1c-1.4,0.8-1.6,3.5-0.5,4.7
				c0.4,0.5,1.2,0.8,1.9,1c1.2,0.3,2.6,0.3,3.9,0.5c0.4,0.1,0.6,0.6,0.9,1c-0.4,0.2-0.8,0.7-1.1,0.7c-0.9,0-1.7-0.1-2.9-0.2
				c0.6,1.3,1.2,2,2.5,2.2c0.7,0.1,1.4,0.5,2,0.8C164.7,260.5,164.1,260.9,163.9,261.1z M150.2,248.2c-0.7,1.5,0.1,4.2,1.4,4.8
				c1.1,0.5,3.4-0.7,4.1-2.2c0.7-1.7,0.2-4.3-1-4.8C153.1,245.4,151.1,246.3,150.2,248.2z"/>
		</g>
	</g>
	<g class="st2">
		<g>
			<path class="st3" d="M787.3,307.3c0.6,0.4,1.3,0.8,1.8,1.4c0.5,0.6,0.6,1.5,0.9,2.3c-0.8,0-1.8,0.2-2.5,0
				c-0.9-0.3-1.8-0.8-2.3-1.5c-2.3-2.8-4.8-1.4-7.3-0.6c1.3,3.4,3.2,4.7,6.5,4.7c0.8,0,1.5-0.1,2.3,0.1c0.6,0.2,1,0.8,1.5,1.1
				c-0.5,0.5-0.9,1.2-1.5,1.4c-0.6,0.3-1.4,0.1-2.2,0.2c-0.1,0.3,0,0.4-0.1,0.6c0.7,0.2,1.5,0.5,2.2,0.5c2.4,0.4,4,2.1,3.9,4.1
				c-0.1,1.9-1.9,3.6-3.5,3.6c-2.1-0.1-4.3-2.1-4.3-4.3c-0.1-0.8-0.2-1.6-0.4-2.4c-0.3,0-0.4,0-0.7,0.1c-0.2,1.1-0.4,2.2-0.8,3.4
				c-0.2,0.5-1,0.8-1.4,1.2c-0.3-0.6-0.7-1.1-0.8-1.7c-0.1-0.8,0-1.5,0.3-2.3c1.4-3.9-1.4-5.9-3.9-8.3c-0.9,2.5-2.8,4.6-0.4,7.2
				c1,1.1,1.4,2.7,1.8,4.2c0.2,0.6-0.4,1.3-0.6,2c-0.6-0.4-1.4-0.5-1.7-1c-0.6-1-0.9-2-1.4-3.4c-1.3,1.6-0.9,2.5-0.3,4
				c0.5,1.1,0.6,3.1,0,4.1c-0.7,1.1-2.6,1.9-3.9,1.9c-1.1-0.1-2.6-1.4-3-2.6c-0.8-1.9,0.3-3.5,2-4.4c1.4-0.8,2.3-1.6,1.9-3.5
				c-0.8,0.3-1.6,0.6-2.4,0.7c-0.5,0-1.1-0.2-1.6-0.4c0.2-0.6,0.3-1.4,0.7-1.8c0.5-0.5,1.2-0.6,1.9-0.9c3.2-1.1,3.9-2.1,3.9-6.1
				c-2.5,0.9-5.4,0.9-6.5,4c-0.8,0.8-1.4,1.8-2.2,2.7c-0.4,0.5-1.1,0.4-1.8,0.8c-0.1-0.7-0.3-1.3,0-1.9c0.3-0.9,0.9-1.7,1.4-2.6
				c-0.2-0.2-0.3-0.4-0.5-0.6c-1,0.6-2,1-2.7,1.8c-1.7,1.7-3.8,2.2-5.5,1c-1.5-1-1.7-3.5-0.6-5c1.4-1.7,3.8-2.1,5.8-0.7
				c0.6,0.4,1.3,0.6,2,0.8c0.1-0.3,0.2-0.4,0.4-0.7c-0.8-0.9-1.8-1.5-2.5-2.6c-0.3-0.6-0.1-1.4-0.2-2.2c0.7,0.1,1.4,0,2.1,0.2
				c0.5,0.2,1,0.8,1.5,1.1c3.4,3,4.8,2.9,9.2,0.2c-1.3-1.4-2.6-2.9-4-4.2c-0.4-0.3-1.1-0.4-1.7-0.3c-1.6,0.2-3.2,0.6-4.8,0.7
				c-0.6,0.1-1.1-0.2-1.7-0.4c0.4-0.7,0.6-1.6,1.3-1.9c1.2-0.5,2.6-0.7,3.9-1c0-0.3,0-0.4,0-0.7c-0.7-0.1-1.3-0.2-2.1-0.3
				c-2.2,0-3.8-1.5-3.8-3.5c0-1.9,1.7-3.6,3.7-3.7c2,0,3.5,1.4,3.7,3.7c0.1,0.8,0.3,1.5,0.5,2.3c0.3,0,0.6-0.1,0.8-0.1
				c0.1-1.2,0.3-2.6,0.6-3.8c0.3-0.9,0.9-1.6,1.5-2.5c0.3,0.9,0.8,1.8,0.9,2.6c0,1.4-0.1,3-0.7,4.3c-0.8,1.7-0.3,2.7,1,3.8
				c1,0.8,1.9,1.8,3,2.6c2.3-3,2.4-4.5,0.4-7.1c-0.7-1-1.2-2-1.6-3.1c-0.1-0.4,0.4-1.1,0.5-1.6c0.5,0.2,1.1,0.3,1.5,0.7
				c0.8,0.9,1.4,1.9,2.1,2.8c1.6-1.4,1-2.6,0.2-3.8c-1.3-2-0.5-4.5,1.5-5.7c1.7-1,4-0.3,5.2,1.5c1.2,1.9,0.3,4.3-1.7,5.5
				c-0.9,0.5-1.5,1.3-2.3,2.1c0.2,0.2,0.3,0.6,0.5,0.9c1.2-0.3,2.4-0.7,3.5-0.7c0.5,0,1.2,0.6,1.6,0.9c-0.3,0.5-0.6,1.3-0.9,1.6
				c-0.8,0.4-1.8,0.5-2.7,0.8c-3.6,0.8-4.5,2-4.6,5.9c4.3,0.3,6-0.8,7.6-4.1c0.4-0.7,1.3-1.2,1.9-1.8c0.1,0.8,0.2,1.8,0.2,2.6
				c0,0.4-0.2,0.9,0.1,1.8c0.6-0.5,1.4-0.8,1.9-1.4c1.3-2,3.1-2.6,4.9-1.7c1.2,0.6,2.4,1.8,2.7,3c0.2,0.8-0.7,2.4-1.6,3
				c-1.2,0.9-2.7,1.4-4.3,0.2c-0.7-0.6-1.9-0.6-2.9-0.8C787.4,306.6,787.2,307,787.3,307.3z"/>
		</g>
	</g>
	<g class="st2">
		<g>
			<path class="st3" d="M103.7,145.2c-0.6-0.3-1.2-0.5-1.7-0.8c-0.3-0.2-0.4-0.8-0.6-1.1c0.4-0.1,0.8-0.3,1.2-0.1
				c3.7,1.6,3.7,1.6,7.1-0.4c0.1-0.1,0.2-0.2,0.4-0.4c-1.4-0.8-2.6-1.9-4-2.3c-1.4-0.4-2.9,0-4.5,0c0-1.3,1.5-0.8,2.1-1.5
				c-0.7-0.7-1.3-1.3-1.9-2c-0.2-0.3-0.1-0.8-0.1-1.2c0.4,0,0.9,0,1.2,0.2c0.7,0.5,1.3,1.1,2,1.8c0.5-1-0.1-2.6,1.8-2.8
				c-1.2,3.7,1.1,5,3.8,6.1c1.1-1.7,0.9-3.6-0.5-5c-0.4-0.4-0.8-0.7-1-1.1c-0.2-0.3-0.1-0.6-0.2-1c0.4-0.1,0.8-0.2,1.1-0.1
				c0.5,0.3,1,0.9,1.5,1.4c1-0.9-0.1-2.9,1.9-3.3c-0.2,1.4-0.3,2.6-0.5,3.9c0.1,0,0.2,0.1,0.3,0.1c0.5-0.4,0.9-0.7,1.4-1.1
				c0.4-0.3,1-0.6,1.5-0.8c0.1,0.1,0.2,0.2,0.2,0.3c-0.2,0.3-0.3,0.6-0.6,0.9c-0.6,0.5-1.2,1.1-1.8,1.4c-1.3,0.6-1.7,1.6-1.7,2.9
				c0,0.8-0.2,1.7-0.3,2.8c1.7-0.6,3.4-1,4.8-1.9c0.6-0.4,0.7-1.7,1.1-2.5c0.2-0.5,0.6-0.9,0.8-1.4c0.1,0.1,0.3,0.1,0.4,0.2
				c-0.1,0.9-0.2,1.8-0.4,2.9c1.2-0.4,2.1-0.8,3.1-1.2c0.1,0.1,0.1,0.3,0.2,0.4c-0.4,1.4-2.1,1.1-3.1,2.1c0.8,0.3,1.5,0.6,2.1,1
				c0.3,0.1,0.5,0.5,0.7,0.8c-0.4,0.1-0.9,0.6-1.3,0.5c-0.8-0.2-1.7-0.5-2.4-0.9c-1.1-0.6-2.1-0.5-3.2,0.1c-0.5,0.3-1.2,0.4-1.9,0.7
				c1.6,1.3,2.6,2.9,4.9,2.7c1.2-0.1,2.5,0.2,3.8,0.4c-0.8,1.7-2.2,0.6-3.4,1c0.9,0.6,1.6,1.1,2.3,1.8c0.3,0.2,0.3,0.8,0.5,1.1
				c-0.5,0.1-1,0.2-1.2,0c-0.7-0.4-1.3-0.9-2-1.4c-0.9,1,0.8,2.8-1.5,3.3c0.1-3.3-0.7-6.2-4.3-7.4c-0.1,2.2-1.2,4.5,1.1,6.4
				c0.5,0.3,0.9,0.8,1.1,1.3c0.2,0.3,0,0.8,0,1.1c-0.4-0.1-0.9,0-1-0.1c-0.5-0.4-0.9-0.9-1.6-1.6c-0.2,0.9-0.3,1.6-0.4,2.1
				c-0.1,0.7-0.2,1.3-1.4,1.4c0.1-1.3,0.3-2.6,0.5-3.9c-0.1-0.1-0.2-0.1-0.3-0.2c-0.8,0.5-1.7,1.1-2.5,1.6c-0.1-0.1-0.2-0.2-0.3-0.4
				c0.2-0.3,0.3-0.7,0.6-0.9c3.2-1.5,2.6-4.3,2.7-7c-2.4,0.1-4.5,1.9-5.3,4.5c-0.2,0.5-0.6,0.9-0.9,1.5c-0.2-0.1-0.4-0.2-0.6-0.3
				c0.3-1,0.6-1.9,0.9-3.2c-1.3,0.5-2.4,0.9-3.6,1.2c-0.1-0.2-0.2-0.3-0.3-0.4C101,145.9,102.8,146.4,103.7,145.2z"/>
		</g>
	</g>
	<g class="st2">
		<g>
			<path class="st3" d="M182.9,360.7c-0.3,1-0.3,2-0.7,2.4c-0.4,0.3-1.5,0.1-2.1-0.2c-0.7-0.3-1.4-0.8-1.9-1.3
				c-1.1-1.2-2.3-1.3-4-0.9c0.3,1.2,1.2,2.6,0.8,3.5c-0.3,0.8-2,0.9-3.4,1.5c0.6,1.3,1,3,2.9,3.5c0.2,0,0.5,0.1,0.7,0.3
				c0.8,0.6,1.6,1.3,2.2,2c-0.7,0.5-1.4,1-2.2,1.6c0.6,1.3,1.2,2.9,1.7,4.4c0.2,0.6-0.2,1.3-0.3,1.9c-0.6-0.4-1.5-0.6-1.8-1.1
				c-0.8-1.4-1.2-2.9-1.8-4.4c-0.3,0-0.5,0-0.6,0c-0.6,0.1-1.3,0.2-2,0.3c-0.1-0.7-0.4-1.5-0.2-2c0.7-1.7,0.9-3.3-0.6-4.7
				c-0.1-0.1-0.2-0.1-0.3-0.2c-2.4,2.3-4.1,2-6.5,0.1c-1.2,0.8-1.7,1.9-1.1,3.4c0.1,0.3,0.2,0.5,0.1,0.8c-0.1,0.8-0.3,1.7-0.5,2.6
				c-0.8-0.2-1.5-0.6-2.5-0.9c-0.7,1.1-1.4,2.5-2.3,3.7c-0.3,0.5-1.1,0.6-1.7,0.9c0-0.6-0.2-1.3,0.1-1.9c0.6-1.3,1.4-2.5,2-3.7
				c-0.2-0.2-0.2-0.4-0.4-0.4c-0.6-0.4-1.2-0.6-1.9-1c0.6-0.5,1.1-1.3,1.9-1.5c2.2-0.5,3.8-1.6,4.3-3.5c-1.2-0.7-2.5-1.2-3.1-2
				c-0.4-0.9,0-2.2,0.1-3.5c-1.3-0.3-2.8-0.7-4.2,0.8c-0.2,0.3-0.5,0.5-0.8,0.6c-0.7,0.2-1.5,0.5-2.2,0.4c-0.3-0.1-0.4-1.2-0.6-2.1
				c-2.2-0.2-4.5-0.4-6.8-0.6c0-0.3,0-0.5,0-0.9c1.9-2.2,4.7,0.1,6.7-0.8c0.3-0.8,0.6-1.5,0.9-2.2c0.8,0.3,1.8,0.5,2.3,1.1
				c1.3,1.4,2.8,1.7,4,1.5c0.2-1.5-0.1-3,0.5-3.9c0.6-0.9,2.2-1,3.5-1.5c-0.4-1.2-1-2.7-2.9-2.8c-0.1,0-0.1,0-0.2,0
				c-0.9-0.6-1.6-1.3-2.5-1.9c0.6-0.6,1.2-1.3,2-2.1c-0.5-1.1-1.3-2.5-1.7-4c-0.2-0.7,0-1.6,0.1-2.4c0.7,0.5,1.5,0.9,1.9,1.5
				c0.6,0.8,0.8,1.9,1.4,2.8c0.2,0.4,0.9,0.9,1.3,0.9c1.6-0.1,1.8,0.8,1.5,2c-0.6,1.9,0.1,3.2,1.3,4.6c2.8-2.2,3.9-2.1,6.1,0.5
				c1.3-1.1,1.9-2.3,1.6-4c-0.4-2.3-0.1-2.6,2.2-2.8c0.4-0.1,0.8-0.4,1-0.7c0.6-0.9,1-1.9,1.7-2.6c0.4-0.5,1.2-0.7,1.8-1.1
				c0,0.7,0.2,1.5,0,2.1c-0.6,1.3-1.4,2.4-2.3,3.8c0.3,0.3,0.6,0.5,0.8,0.7c1.4,1.1,1.3,1.7-0.3,2.2c-1.9,0.8-4,1.4-4.4,4
				c1.2,0.3,2.9,0.3,3.7,1.2c0.5,0.7,0,2.3-0.1,3.8c1.1,0.3,2.4,0.5,3.6-0.9c0.1-0.1,0.3-0.3,0.5-0.4c0.8-0.3,1.5-0.5,2.3-0.8
				c0.2,0.6,0.4,1.4,0.6,2.4c1.3,0.1,2.9,0.2,4.5,0.4c0.7,0.1,1.2,0.6,1.9,1c-0.6,0.3-1.2,0.8-1.9,0.8
				C185.4,360.9,184.1,360.7,182.9,360.7z M159.9,362.8c3,0.5,3.4,0.3,4.2-2.3C161.4,359.8,160.9,360,159.9,362.8z M166.4,361.8
				c-1.8,1.8-1.7,3.2,0.2,4.9C168.5,364.5,168.5,364.1,166.4,361.8z M166.6,356.5c1.8-1.4,1.8-2.4-0.1-4.3
				C164.7,354,164.7,354.7,166.6,356.5z M168.8,358c2.7,0.6,3.1,0.4,4.4-2C170.7,355.6,169.6,356.1,168.8,358z M160.4,355.9
				c0.7,2.4,1.5,2.8,3.8,1.8C163.3,355.5,163.2,355.4,160.4,355.9z M172,362.8c-0.9-1.1-0.9-3.1-3.2-2.3
				C169.5,361.9,169.7,363.5,172,362.8z"/>
		</g>
	</g>
	<g id="WBVflh_2_" class="st2">
		<g>
			<g>
				<g>
					<path class="st3" d="M792.1,217.3c-0.4-0.2-0.9-0.4-1.4-0.5c-0.3-0.1-0.6,0.1-0.8,0c-0.4-0.1-0.7-0.4-1.1-0.6
						c0.3-0.2,0.6-0.3,1-0.5c0.2,0,0.3,0,0.4,0c0-0.5,0.1-1,0.2-1.5c0.4,0.1,0.8,0.3,1.4,0.6c0.1-0.3,0.1-0.6,0.3-0.9
						c0.2-0.2,0.3-0.4,0.5-0.6c0.2,0.2,0.6,0.5,0.6,0.7c0.1,0.6-0.2,1.1-0.3,1.7c0,0.4,0.1,0.9,0.1,1.3c0.2,0,0.3,0,0.5,0
						c0.3-0.9,0.5-1.9,0.8-2.8c0.1-0.4,0.5-0.8,0.8-1.2c0.1,0.5,0.4,1,0.4,1.4c-0.2,1-0.7,2-0.9,3c-0.1,0.4-0.2,0.9,0.1,1.2
						c1,1.1,2.1,2.2,3.3,3.2c-0.3-1.3,0.1-2.9-1.7-3.6c-0.3-0.1-0.3-0.4-0.5-0.6c0.4-0.2,0.7-0.3,1.1-0.5c0.1-0.4,0.4-0.7,0.6-1
						c0.4,0.2,0.7,0.4,1.2,0.7c0.2-0.1,0.3-0.3,0.5-0.3c0.3,0,0.6-0.1,0.9-0.1c-0.1,0.3,0.1,0.8-0.1,0.9c-1.8,1.3-1,2.8-0.6,4.3
						c0,0.3,0.1,0.4,0.4,1.1c0.3-0.8,0.4-1.3,0.5-1.7c0.2-0.8,0.2-1.5,0.5-2.2c1.1-2.2,0.1-3.6-1.7-4.9c-0.2-0.2-0.4-0.2-0.5-0.4
						c-0.1-0.2-0.1-0.5-0.2-0.7c0.3,0,0.6-0.1,0.8,0c0.8,0.6,1.6,1.2,2.5,1.6c-0.3-1-0.8-2-1.2-2.9c0.2-0.1,0.3-0.2,0.5-0.3
						c0.4,0.4,0.8,0.8,1.2,1.2c0.4-0.3,0.8-0.7,1.2-1c0.3,0.4,0.5,0.7,0.8,1.2c0.3,0.1,0.6,0.4,1,0.6c-0.4,0.3-0.7,0.7-1,0.9
						c-0.4,0.3-0.8,0.4-1.2,0.6c0,0.2,0.1,0.2,0.1,0.4c0.7-0.2,1.5-0.2,2.2-0.3s1.6-0.5,2,0.7c-1.3,0.3-2.6,0.6-3.8,0.9
						c-0.8,0.2-1.2,0.5-1.4,1.3c-0.2,1.2-0.5,2.3-0.8,3.5c1.5-0.5,1.8-1.1,1.7-2.4c0-0.5,0.2-0.9,0.3-1.4c0.4,0.3,0.7,0.7,1.2,1.2
						c1-0.1,1.1,0,1,1.3c0.2,0.1,0.4,0.1,0.6,0.3c0.3,0.2,0.5,0.5,0.7,0.7c-0.3,0.1-0.7,0.3-1,0.3c-2-0.7-2.8,0.8-3.8,1.8
						c0,0.2,0.1,0.2,0.1,0.4c1.7-0.4,3.5-0.7,5.1-1.2c0.4-0.1,0.8-0.7,0.9-1c0.3-0.8,0.3-1.7,0.7-2.5c0.1-0.3,0.5-0.5,0.9-0.8
						c0.1,0.3,0.3,0.6,0.3,0.9c0,0.6-0.2,1.1-0.4,2.1c0.4-0.5,0.6-0.9,0.8-1c0.3-0.2,0.7-0.2,1.1-0.4c-0.1,0.3,0,0.7-0.1,1
						c-0.1,0.2-0.1,0.3-0.2,0.4c1.4,0.7,1.4,0.7,0.2,1.8c0.2,0.2,0.5,0.5,0.6,0.7s0.1,0.6,0.2,0.8c-0.3-0.1-0.7,0-0.9-0.2
						c-0.4-0.2-0.6-0.6-0.8-0.9c-0.3-0.2-0.7-0.3-1.1-0.4c-0.1,0.2-0.2,0.3-0.3,0.5c0.6,0.6,1.1,1.3,1.7,2c0.3,0.3,0.3,0.7,0.4,1.1
						c-0.4-0.1-0.9-0.3-1.2-0.5c-0.6-0.5-1-0.9-1.3-1.5c-0.6-1.1-1.5-1.1-2.5-0.9c-1.1,0.3-2.1,0.5-3.5,0.8c1.3,0.7,2.2,1.1,3.2,0.3
						c0.4-0.3,0.9-0.2,1.4-0.3c-0.1,0.4-0.2,0.9-0.3,1.4c0.2,0.2,0.4,0.6,0.9,1.3c-0.7,0.1-1,0.1-1.3,0.1c-0.1,0.1-0.1,0.2-0.1,0.3
						c-0.1,0.4-0.3,0.8-0.4,1.1c-0.3-0.3-0.7-0.6-0.8-0.9c-0.1-0.9-0.6-1.4-1.5-1.5c-0.8-0.1-1.5-0.4-2.3-0.5
						c-0.1,0.1-0.2,0.2-0.2,0.3c1.5,1.4,2.8,2.9,4.4,4.1c0.4,0.3,1.3,0,1.9-0.1c0.7-0.1,1.4-0.4,2.1-0.5c0.3,0,0.5,0.2,0.8,0.4
						c-0.2,0.2-0.3,0.5-0.5,0.6c-0.9,0.3-1.9,0.6-3,0.9c0.8,1,2.4-0.2,2.9,1.3c-0.5,0.1-0.9,0.3-1.4,0.4c0.2,0.5,0.4,1.1,0.7,1.5
						c-0.1,0.1-0.1,0.3-0.2,0.4c-0.5-0.3-1.1-0.6-1.7-0.9c-0.1,0.3-0.1,0.5-0.3,0.8c-0.2,0.2-0.5,0.4-0.8,0.6
						c-0.1-0.3-0.4-0.6-0.3-0.9c0-0.7,0.2-1.5,0.3-2.1c-0.2-0.1-0.3-0.1-0.5-0.1c-0.4,1-0.7,1.8-1.2,2.8c-0.1,0.3-0.5,0.5-0.7,0.7
						c-0.2-0.3-0.5-0.7-0.4-1c0.2-1,0.8-1.8,1-2.8c0-0.4-0.1-1-0.3-1.3c-0.8-1-1.7-1.9-2.6-2.9c-0.5,2.3,1.2,2.8,2.6,3.6
						c-0.1,0.2-0.1,0.3-0.1,0.4c-0.5,0-1.1,0-1.6,0c-0.1,0.5-0.3,1.1-0.5,1.7c-0.4-0.3-0.7-0.6-1.2-1c0,0-0.2,0.2-0.5,0.2
						c-0.3,0-0.6,0-0.9-0.1c0.1-0.3,0-0.8,0.2-1c1.2-1,1-2.1,0.1-3.4c-0.5,1.5-1,3-1.3,4.5c0,0.4,0.7,1,1.1,1.4s0.9,0.8,1.3,1.3
						c0.1,0.2,0.1,0.6,0.1,0.8c-0.3-0.1-0.7,0-0.9-0.3c-0.7-0.6-1.3-1.3-2-2c-0.2,0-0.3,0-0.5,0.1c0,0.5,0.1,1.1,0.2,1.6
						c0.1,0.5,0.3,1,0.4,1.4c-0.4-0.1-0.9-0.3-1.3-0.3c-0.4,0.3-0.8,0.6-1.2,0.9c-0.2-0.4-0.3-0.8-0.5-1.3c-0.3-0.1-0.8-0.3-1.2-0.4
						c0-0.1,0-0.3,0-0.3c0.9-0.4,1.9-0.9,2.7-1.4c0-0.1-0.1-0.2-0.1-0.3c-1.3-0.1-2.7,1.3-4.3-0.1c1.5-0.5,2.8-0.9,4-1.3
						c0.9-0.3,1.3-0.7,1.5-1.6c0.5-1.5,1-3,1.2-4.7c-0.6,0.6-1.2,1.2-1.9,1.8c-0.9,0.7-0.5,1.6-0.4,2.4c0,0.3-0.2,0.5-0.3,0.8
						c-0.2-0.2-0.5-0.2-0.7-0.4c-0.2-0.2-0.2-0.4-0.3-0.6c-0.7,0.1-1.2,0.3-1.7,0.4c0-0.5,0.1-0.9,0.2-1.5c0,0-0.2-0.1-0.4-0.1
						c-0.3-0.2-0.5-0.4-0.7-0.6c0.2-0.1,0.6-0.4,0.8-0.3c2.1-0.1,2.6-0.4,4-2.4c-1.8,0.3-3.5,0.6-5.2,0.9c-0.3,0-0.4,0.6-0.6,1
						c-0.3,1-0.6,1.9-0.9,2.8c-0.1,0.3-0.6,0.4-0.9,0.6c0-0.3-0.2-0.7-0.2-1c0.2-1,0.7-1.8,0.9-2.7c-0.2-0.1-0.3-0.2-0.4-0.2
						c-0.2,0.2-0.6,0.4-0.8,0.7c-0.3,0.5-0.5,1.1-0.8,1.5c-0.1,0.3-0.6,0.4-0.8,0.5c-0.1-0.3-0.3-0.6-0.3-1c0.1-0.3,0.2-0.6,0.3-0.9
						c-0.7-0.1-1.3-0.2-1.8-0.3c0-0.2,0-0.3,0-0.4c0.6-0.2,1.1-0.5,1.6-0.7c0-0.2,0.1-0.3,0-0.3c-0.2-0.4-0.5-0.8-0.7-1.3
						c0.5,0.1,1,0.2,1.5,0.5c0.4,0.1,0.7,0.4,1.1,0.7c0.1-0.1,0.2-0.2,0.2-0.3c-0.5-0.5-1-1.1-1.3-1.7c-0.2-0.3-0.1-0.7-0.2-1.1
						c0.4,0.1,0.8,0.2,0.9,0.4c1.4,2.3,3.3,2.6,5.7,1.7c0.7-0.2,1.5-0.2,2.2-0.4c-1.5-1-2.7-1-3.9-0.1c-0.2,0.2-0.6,0.1-0.9,0.3
						c0-0.3-0.1-0.6-0.2-0.8c0-0.4,0.1-0.9,0.1-1.4c0.2-0.1,0.5-0.2,0.9-0.4c0-0.3-0.2-0.7-0.3-0.9s0.1-0.6,0.2-0.6
						c0.3,0,0.5,0.1,0.7,0.3c0.1,0.1,0.1,0.3,0.2,0.5c0.4,1.5,1.5,1.8,3.3,1.7c-0.8-0.9-1.5-1.5-2.1-2.1c-1.2-1.5-2.5-1.8-4.2-1
						c-0.3,0.1-0.6,0.3-1,0.3c-0.3-0.1-0.4-0.2-0.7-0.4c0.2-0.2,0.2-0.5,0.4-0.6c0.8-0.3,1.6-0.7,2.5-0.9
						C791.9,217.6,792,217.4,792.1,217.3z"/>
				</g>
			</g>
		</g>
	</g>
	<g class="st2">
		<g>
			<path class="st3" d="M821.2,70.1c-0.1,0.5-0.3,1-0.3,1.5c0.1,2.2-0.4,2.8-2.5,2.9c-0.5,0-1.1,0.4-1.6,0.7c-0.4,0.2-0.9,0.5-1.7,1
				c0.6-2.2,1-3.7,1.6-5.2c0.2-0.5,1-0.6,1.6-0.9c0.7-0.4,1.4-0.7,2.1-1c0-0.1-0.1-0.3-0.1-0.5c-0.5-0.1-1.1-0.2-1.6-0.4
				c-0.5-0.2-1.1-0.7-1.1-0.9c0-0.5,0.5-1.2,0.9-1.2c1.4-0.4,3-0.5,4.4-0.7c0.5-0.1,1.1,0.1,1.3-0.2c0.7-0.7,1.2-1.6,1.8-2.5
				c-0.8-0.1-1.7-0.2-2.7-0.2c-0.6,0-1.2,0.1-1.8,0.1c0-0.2-0.1-0.4-0.1-0.6c0.9-0.3,1.8-0.5,2.8-0.9c0.4-0.2,0.9-0.7,0.9-1
				c0-0.3-0.6-0.8-0.9-0.9c-1.3-0.3-2.6-0.4-3.7,0.7c-0.7,0.7-1.5,1.3-2.5,1.7c-0.5,0.2-1.2-0.1-1.8-0.1c0.1-0.5,0-1.1,0.3-1.6
				c0.2-0.5,0.7-1,1-1.4c0-0.2-0.1-0.4-0.1-0.5c-0.9,0.2-1.8,0.2-2.7,0.4c-1.3,0.5-2.4,0.4-3.3-0.8c-0.5-0.7-1.6-1-2.6-1.7
				c0.3-0.1,0.7-0.3,1-0.4c0.8-0.2,1.7-0.3,2.5-0.6c1.3-0.6,2.5-0.4,3.3,0.8c0.3,0.5,0.8,0.8,1.2,1.3c0.1-0.1,0.3-0.2,0.4-0.3
				c-0.1-0.4-0.3-0.9-0.3-1.3c0.1-0.6,0.3-1.3,0.5-1.9c0.7,0.2,1.5,0.2,2.1,0.6c0.8,0.7,1.6,1.6,2.2,2.7c0.8,1.3,2.1,1.3,3.3,1.4
				c0.4,0,0.9-0.2,1-0.5c0.1-0.4,0-0.9-0.3-1.2c-0.7-0.9-1.6-1.8-2.4-2.8c0.1-0.2,0.2-0.3,0.3-0.5c0.4,0.1,0.8,0.1,1.1,0.3
				c0.4,0.3,0.7,0.8,1.1,1.1c0.6,0.4,1.3,0.8,2.1,1.1c0.2-0.3,0.5-0.8,0.4-1c-0.4-0.9-0.7-1.9-1.4-2.7c-0.9-0.9-2.3-1.4-3.2-2.3
				c-0.4-0.4-0.4-1.2-0.5-1.9c0.6-0.1,1.2-0.3,1.8-0.3c0.6,0,1.1,0.2,2.1,0c-0.4-0.6-0.6-1.3-1-1.7c-2.3-1.6-2.4-2.5-0.8-4.6
				c0.3-0.4,0.1-1.1,0.2-1.6c0.1-0.3,0.4-0.6,0.5-0.9c0.3,0.2,0.7,0.3,0.9,0.6c0.6,0.9,1.2,1.8,1.5,3c0.3,0.7,0.2,1.5,0.1,2.3
				c0,0.5-0.2,1.1-0.3,2.1c0.7-0.4,1-0.6,1.3-0.7c0.7-0.1,1.7-0.4,2.2,0c0.4,0.3,0.4,1.4,0.2,2.1c-0.3,1-0.9,1.9-1.6,2.8
				c-1.2,1.4-0.4,2.8,0.4,4.1c0.3-0.8,0.5-1.6,0.9-2.5c0.2-0.3,0.7-0.5,1-0.7c0.1,0.4,0.3,0.8,0.3,1.2c0,0.2-0.2,0.5-0.2,0.7
				c0.1,0.7,0.1,1.4,0.3,2.2c0,0.1,1,0.3,1.2,0.1c0.5-0.6,1-1.3,1-2.1c0.2-1.4,0-2.9,0.1-4.3c0.1-0.8,0.2-1.9,1.4-1.6
				c0.7,0.2,1.3,1,1.8,1.6c0.2,0.3,0.2,0.8,0.5,1.3c0.6-1.6-0.1-3.7,1.9-4.6c1.4-0.7,3-1.3,4.4-1.9c-0.4,1.7-0.6,3.3-1.2,4.7
				c-0.3,0.8-1.3,1.4-2.1,1.8c-0.6,0.4-1.4,0.7-2.1,1c0,0.2,0.1,0.3,0.1,0.5c0.5,0.1,1.1,0,1.6,0.2c0.4,0.2,0.7,0.6,1.1,0.9
				c-0.3,0.3-0.6,0.9-0.9,0.9c-1,0.3-2.1,0.5-3.1,0.4c-1.5-0.1-2.7,0.4-3.6,1.6c-0.3,0.4-0.3,1-0.5,1.5c0.5,0,1,0.2,1.4,0.1
				c1-0.2,1.9-0.5,3-0.7c0.1,0.2,0.1,0.4,0.2,0.7c-1.2,0.5-2.5,1-4,1.6c1.2,1,2.3,1.3,3.6,0.6c1.1-0.7,2.2-1.3,3.4-1.7
				c0.8-0.3,1.7,0.1,2.6,0.1c-0.3,0.7-0.5,1.5-0.8,2.3c-0.1,0.3-0.4,0.4-0.9,0.9c1.8-0.2,3.5-0.7,4.8-0.4c1.3,0.4,2.4,1.8,3.4,2.7
				c-1.2,0.5-2.5,1.1-3.8,1.5s-2.6-0.1-3.1-1.5c-0.3-1-1-1.3-2.3-1c0.4,0.8,0.8,1.4,1,2.2c0.1,0.5-0.1,1.2-0.1,1.8
				c-0.6-0.1-1.6,0.1-1.9-0.2c-1.1-1.2-2.2-2.8-3.3-4c-0.4-0.5-0.9-1-1.5-1.3c-0.3-0.1-1.1,0.1-1.3,0.4c-0.2,0.3-0.2,1,0,1.4
				c0.5,0.9,1.2,1.8,1.8,2.8c-0.2,0.2-0.4,0.3-0.5,0.5c-0.5-0.4-1-0.9-1.6-1.3c-0.5-0.4-1.1-0.8-1.6-1.1c0,0.6-0.2,1.2-0.2,1.8
				c0.1,1.3,0.6,2.2,1.8,2.9c0.8,0.5,1.6,1.2,2.3,2.1c0.4,0.5,0.6,1.3,0.4,1.8c-0.1,0.3-1.1,0.4-1.7,0.4c-0.4,0-0.9-0.2-1.4-0.3
				c-0.1,0.1-0.3,0.2-0.5,0.4c0.4,0.5,0.6,1.2,1.1,1.5c1.1,0.6,1.8,1.7,1,2.7c-1.3,1.4-1.2,2.9-0.5,4.6c-2.2,0.4-1.8-1.2-2.4-2.2
				c-0.5-0.9-1.4-1.9-1.5-3c-0.2-1,0.4-2.2,0.8-3.7c-1.1,0.5-1.6,0.9-2.3,1.1c-0.5,0.1-1.3,0.1-1.6-0.2c-0.4-0.4-0.5-1.3-0.3-1.7
				c0.5-1,1.3-1.8,1.8-2.9c0.5-0.9,0.9-2.1,1.1-3.1c0.1-0.3-0.6-0.8-0.9-1.3c-0.4,0.4-1,0.7-1.2,1.2c-0.3,0.5-0.3,1.3-0.5,1.8
				c-0.2,0.4-0.7,0.7-1.1,1c-0.1-0.4-0.4-0.9-0.3-1.3c0.1-0.7,0.4-1.5,0.5-2.3c0.1-0.3-0.1-0.9-0.3-1.1c-0.2-0.2-0.8,0-1.1,0.2
				c-1.1,0.7-1.9,1.6-1.4,3.3c0.3,1,0,2.4-0.2,3.6c-0.1,0.5-0.8,1.2-1.2,1.2c-0.5,0-1-0.6-1.4-1.1c-0.3-0.4-0.4-0.9-0.6-1.4
				C821.6,70.1,821.4,70.1,821.2,70.1z"/>
		</g>
	</g>
	<g class="st2">
		<g>
			<path class="st3" d="M713.1,241.6c0.1-0.4,0.3-0.9,0.4-1.4c-0.7,0.1-1.2,0.3-1.8,0.4c0-0.1-0.1-0.2-0.1-0.2
				c0.6-0.2,1.1-0.4,1.7-0.8c-0.3-0.3-0.6-0.6-0.9-1c0.9,0,1.3,1.6,2.5,0.6c-0.5-0.5-1-0.8-1.5-1.3c0.9,0.2,1.5,1.4,2.9,1.2
				c-0.4-0.5-0.6-0.7-0.9-1.1c0.6,0.3,1.1,0.8,1.6,0.9c0.5,0.1,1.2-0.2,1.9-0.4c-0.9-1-1.5-2.1-3.1-1.7c0-0.1,0.1-0.2,0.1-0.2
				c0.2-0.1,0.5-0.1,0.9-0.3c-0.7-1-1.6-0.2-2.4-0.5c0.5-0.1,1-0.3,1.4-0.4c-0.2-1.2-1.2-0.7-1.9-1.1c0.4-0.1,0.7-0.1,1-0.3
				c-0.2-0.4-0.4-0.8-0.6-1.2c0.1,0,0.1-0.1,0.2-0.1c0.2,0.3,0.5,0.5,0.8,0.9c0.2-0.4,0.4-0.9,0.8-1.4c0.4,1.1-0.9,1.9,0.3,2.8
				c0.3-0.7,0.5-1.4,0.7-2c0.1,0,0.2,0,0.2,0c0,0.3,0.1,0.5,0,0.7c-0.1,0.4-0.3,0.9-0.5,1.3c-0.2,0.4-0.2,0.8,0.4,1.1
				c0.1-0.5,0.3-1,0.5-1.5c0.1,0,0.2,0,0.3,0.1c0,0.4,0,1-0.2,1.4c-0.2,0.5-0.1,0.8,0.3,1.2c0.4,0.3,0.7,0.7,1.2,1.2
				c0.2-0.9,0.5-1.7,0.4-2.2c-0.1-0.6-0.8-1.1-1-1.8c0.4,0.3,0.7,0.6,1.2,1.1c0.5-1.7-1.1-2-1.5-3.1c0.6,0.5,1.1,1,1.7,1.5
				c0.8-0.9-0.4-1.3-0.4-2.1c0.2,0.2,0.5,0.5,0.8,0.8c0.3-0.6,0.5-1.2,0.7-1.8c0.1,0,0.2,0.1,0.3,0.1c-0.1,0.5-0.2,1-0.4,1.6
				c0.4,0,0.8-0.2,1.3-0.2c-0.5,0.8-1.8,0.4-1.7,1.7c0.7-0.1,1.3-0.1,2-0.2c-0.6,0.8-2.1,0-2.2,1.6c0.4,0,0.7,0,1,0.1
				c0.1,0.1,0.1,0.1,0.2,0.2c-1.8,0.3-1.5,1.6-1.8,2.7c1.8,0.3,2.5-0.7,2.7-2.4c0.1,0.1,0.2,0.2,0.4,0.2c-0.1,0.5-0.2,1-0.3,1.6
				c1.5-0.4,0.9-1.9,1.7-2.6c0.1,0,0.2,0.1,0.3,0.1c-0.1,0.7-0.3,1.3-0.4,2c0.5,0.2,0.7-0.1,0.9-0.6c0.1-0.3,0.3-0.6,0.4-1
				c0.1,0,0.2,0,0.3,0.1c-0.1,0.3-0.1,0.8-0.1,1.2c0.3,0,0.6-0.1,0.8-0.2c0.3,0,0.5,0,0.8-0.1c0,0.1,0,0.1,0,0.2
				c-0.5,0.1-1,0.3-1.6,0.6c0.3,0.3,0.6,0.6,0.8,0.9c-0.8,0-1.2-1.3-2.1-0.3c0.4,0.4,0.8,0.9,1.2,1.2c-0.1,0.1-0.1,0.1-0.2,0.2
				c-0.5-0.4-0.9-0.8-1.3-1.1s-0.6-0.4-1.1-0.1c0.4,0.3,0.7,0.6,1,0.9l-0.1,0.1c-0.6-0.4-1.1-0.9-1.7-0.9c-0.6-0.1-1.3,0.2-2.2,0.5
				c1,1.1,1.6,2.2,3.3,1.5c0,0.1-0.1,0.2-0.1,0.3c-0.3,0.1-0.7,0.2-1.1,0.4c0.7,1.3,1.9,0.1,2.8,0.6c-0.7,0.1-1.2,0.3-1.8,0.4
				c0.4,1.1,1.2,0.4,1.8,0.7c-0.3,0.1-0.7,0.2-1.2,0.5c0.4,0.6,0.8,1,1.1,1.5c-0.1,0-0.1,0.1-0.2,0.1c-0.4-0.4-0.8-0.8-1.1-1.2
				c-0.1,0.4-0.4,0.7-0.5,1.1c-0.1,0-0.2-0.1-0.3-0.1c0.1-0.7,0.1-1.4,0.2-2.1c-0.1,0-0.2-0.1-0.3-0.1c-0.2,0.4-0.5,1-0.7,1.3
				c-0.3-0.8,0.7-1.5-0.1-2.4c-0.2,0.4-0.4,0.6-0.6,0.9c-0.1,0-0.1-0.1-0.2-0.1c0.1-0.3,0-0.5,0.1-0.7c0.2-0.4,0.2-0.8-0.3-1.2
				c-0.4-0.3-0.7-0.7-1.2-1.2c-0.4,1.3-1.2,2.4,0.2,3.6c-0.1,0-0.2,0-0.3,0c-0.3-0.2-0.5-0.5-0.8-0.8c-0.5,0.6-0.1,0.9,0.3,1.3
				c0.3,0.3,0.7,0.7,1,1c-0.1,0-0.1,0.1-0.2,0.2c-0.5-0.4-0.8-0.9-1.3-1.3c-0.1,0-0.2,0-0.3,0c0,0.4-0.1,0.8,0.1,1.1
				c0.1,0.3,0.5,0.6,0.8,0.9c-0.1,0-0.1,0.1-0.2,0.1c-0.3-0.2-0.6-0.5-0.8-0.8c-0.5,0.6-0.2,1.5-1.1,2c0.2-0.8,0.3-1.4,0.4-2.1
				c-0.5,0-0.8,0.1-1.3,0.1c0.4-0.7,1.8-0.3,1.5-1.5c-0.7,0.1-1.3,0.1-1.9,0.2c0.7-0.7,2-0.1,2.5-1.5c-0.5,0-0.8,0-1.2,0
				c-0.1-0.1-0.1-0.2-0.2-0.2c2,0.1,1.9-1.4,2.3-2.8c-1.3,0.3-2.8,0-3.1,2c-0.1-0.1-0.2-0.2-0.3-0.2c0-0.3,0-0.7,0.1-0.9
				c-0.1-0.1-0.1-0.1-0.2-0.2c-0.6,0.7-0.6,1.6-1.3,2.4c-0.5-0.9,0.5-1.4,0.3-2.1C713.7,239.8,714.2,241.3,713.1,241.6z"/>
		</g>
	</g>
	<g class="st2">
		<g>
			<path class="st3" d="M51.9,94.9c-0.9-0.1-1.4-0.2-2-0.3c-0.3-0.1-0.5-0.4-0.7-0.6c0.3-0.1,0.6-0.3,0.8-0.3c0.5-0.1,0.9,0,1.4,0.1
				c1.6,0.3,2.4-0.6,3.2-1.9c-0.7-0.1-1.4-0.2-2.1-0.4c-0.6-0.2-1.1-0.5-1.8-0.8c0-0.1,0.1-0.3,0.1-0.5c0.4,0,0.7,0.1,1.1,0.1
				c1,0.1,2,0.3,3.1,0.4c1.5,0,2.5-1.5,2.2-2.9c-0.1-0.3-0.2-0.6-0.3-1c-0.5-1.9-2.7-2.6-4.1-1.4c-0.6,0.5-1.2,1.1-1.8,1.6
				c-0.2,0.2-0.6,0.1-0.8,0.1c0.1-0.3,0-0.6,0.1-0.8c0.6-0.7,1.2-1.3,1.9-2c-1.6-1.1-2.3-1-3.8,0c-0.4,0.2-0.7,0.6-1,0.9
				c-0.3,0.1-0.6,0.1-0.9,0.1c0.1-0.3,0-0.8,0.2-1c0.4-0.4,0.9-0.8,1.4-1.2c-1-0.4-1.9-0.9-2.8-1.4c0-0.2,0.1-0.4,0.2-0.5
				c1,0.3,2,0.5,3.1,0.8c-0.2-1-0.2-1.8-0.3-2.7c0.1-0.1,0.2-0.1,0.3-0.2c0.2,0.2,0.5,0.3,0.7,0.5c0.2,0.3,0.2,0.6,0.3,1
				c0.5,2.1,0.9,2.4,3.4,2.3c-0.3-1-0.5-1.9-0.7-2.8c-0.1-0.4,0-0.8,0-1.1c0.3,0.2,0.8,0.4,0.8,0.7c0.4,0.9,0.9,2,1,3.1
				c0.2,1,1,1,1.6,1.2c0.4,0.1,1-0.1,1.4-0.3c0.5-0.4,0.8-0.9,1.3-1.3s1.3-0.6,1-1.6c-0.3-0.9-0.5-2-1.7-2.3
				c-0.9-0.2-1.7-0.5-2.6-0.8c-0.4-0.2-0.7-0.5-1-0.7c0-0.1,0.2-0.4,0.2-0.4c1.2,0.3,2.5,0.6,3.8,0.9c0.1-1.6-0.2-2.1-1.7-2.6
				c-0.6-0.2-1.2-0.4-1.7-0.7c-0.3-0.1-0.4-0.5-0.7-0.8c0.1-0.1,0.2-0.2,0.2-0.3c0.9,0.3,1.9,0.6,3,0.9C57,73,57,71.9,56.8,70.8
				c0.2,0,0.3-0.2,0.5-0.2c0.2,0.4,0.5,0.9,0.6,1.3c0.2,0.6,0.2,1.1,0.3,2c0.6-0.6,0.9-1.1,1.3-1.5c0.3-0.2,0.6-0.3,0.9-0.5
				c0,0.4,0.1,0.8-0.1,1.1c-0.2,0.5-0.5,1-0.9,1.3c-1.3,1-0.8,2-0.1,3.4c0.6-0.7,1-1.3,1.6-1.9c0.2-0.3,0.4-0.6,0.7-0.8
				c0.2-0.2,0.6-0.2,0.8-0.2c0,0.3,0.1,0.6,0,0.8c-0.7,1-1.4,2-2.2,2.9c-0.6,0.6-0.4,1.1-0.2,1.6c0.2,0.7,0.1,1.6,1.2,1.6
				c0.5,0,1,0.2,1.5,0.3c2,0.4,3.2-0.8,2.8-2.8c-0.2-1.1-0.4-2.3-0.5-3.5c1.4,0.8,0.9,2.4,1.8,3.6c0.8-0.6,1.6-1,1.4-2.4
				c-0.2-0.6-0.1-1.3-0.1-1.9c0-0.2,0.3-0.5,0.4-0.7c0.2,0.2,0.5,0.3,0.6,0.6c0.1,0.6,0.1,1.1,0.2,1.9c0.8-0.7,1.5-1.2,2.2-1.7
				c0.3-0.1,0.6,0,0.9-0.1c-0.1,0.3-0.1,0.7-0.3,0.8c-0.6,0.6-1.1,1-2,1.7c1,0.2,1.6,0.3,2.3,0.5c0.3,0.1,0.5,0.4,0.8,0.6
				C73,78.8,72.6,79,72.3,79c-0.5,0-1.1-0.1-1.7-0.1c-1.7-0.3-2.1-0.1-2.9,1.6c1.2,0.4,2.5,0.8,3.7,1.3c0,0.1-0.1,0.3-0.1,0.5
				c-0.4,0-0.7,0.1-1,0c-0.7-0.2-1.5-0.5-2.2-0.6c-1.9-0.5-3,0.6-2.8,2.5c0.1,0.5,0.2,1,0.3,1.4c0.5,1.9,2.1,2.4,3.6,1.2
				c0.7-0.5,1.3-1.1,2-1.6c0.4-0.2,0.8-0.2,1.3-0.3c-0.2,0.3-0.3,0.8-0.6,1.1c-0.6,0.6-1.3,1.1-2,1.6c1.8,1.1,2,1,3.6,0
				c0.5-0.3,1.2-0.4,1.8-0.6c0.3,1.1-0.7,1-1.2,1.4c-0.2,0.2-0.3,0.3-0.6,0.6c0.8,0.2,1.5,0.5,2.1,0.8c0.2,0.1,0.3,0.4,0.5,0.6
				c-0.3,0.1-0.5,0.3-0.7,0.2c-0.7-0.1-1.4-0.3-2.3-0.6c0.1,0.9,0.2,1.7,0.3,2.5c0,0.3-0.2,0.6-0.3,0.9c-0.2-0.3-0.5-0.5-0.6-0.7
				c-0.1-0.4-0.3-1-0.3-1.4c-0.3-1.9-0.4-1.9-2.5-2.2c0.2,1.3,0.4,2.6,0.5,3.9c-0.2,0-0.3,0.2-0.4,0.2c-0.2-0.3-0.5-0.7-0.6-1
				c-0.2-0.7-0.3-1.6-0.5-2.4c-0.1-0.9-0.7-1.2-1.5-1.4c-0.8-0.2-1.3,0-1.8,0.7c-0.4,0.6-1.1,1.1-1.6,1.7c-0.3,0.4-0.6,1-0.5,1.4
				c0.1,0.3,0.7,0.7,1.1,0.9c1,0.5,2.2,1,3.2,1.5c0.2,0.1,0.3,0.4,0.4,0.6c0,0.1-0.1,0.2-0.1,0.3c-1.3-0.6-2.5-1.1-3.8-1.7
				c-0.2,1.9,0.1,2.6,1.5,3.4c0.9,0.5,1.7,1.1,2.7,1.7c-1.6,0.8-2.2-0.6-3.4-0.7c0.2,1.2,0.3,2.3,0.6,3.5c-1.1,0-1.1-0.8-1.2-1.3
				c-0.2-0.6-0.3-1.1-0.5-2.1c-0.6,0.8-1,1.3-1.6,1.8c-0.2,0.2-0.6,0.2-0.9,0.3c0.1-0.3,0-0.6,0.1-0.8c0.3-0.5,0.7-1,1.2-1.4
				c1.2-1.1,1.3-1.6,0.3-3.5c-0.6,0.8-1.2,1.4-1.8,2.1c-0.2,0.3-0.6,0.3-0.9,0.5c0-0.4,0-0.9,0.2-1.2c0.6-0.8,1.2-1.6,1.9-2.3
				c0.9-1,0.7-2.1-0.5-2.6c-0.4-0.2-0.9-0.4-1.3-0.5c-0.6-0.2-1.5-0.6-1.8-0.3c-0.9,0.6-1.8,1.4-1.5,2.8c0.3,1,0.3,2,0.4,3.1
				c0,0.3-0.2,0.6-0.4,0.9c-0.2-0.3-0.7-0.5-0.7-0.8c-0.2-1-0.2-2-0.4-3.2c-1.6,1-1.9,1.6-1.6,3c0.2,0.7,0.2,1.5,0.3,2.3
				c-0.8,0-0.8,0-1.6-2.5c-0.8,0.5-1.4,1-2.2,1.4c-0.3,0.2-0.7,0.1-1.1,0.1c0.2-0.4,0.2-0.7,0.5-1C50.4,95.9,51.1,95.5,51.9,94.9z
				 M60.4,85.7c0.1-0.1,0.2-0.2,0.3-0.2c-0.3-0.8-0.6-1.6-1-2.7c-0.7,0.8-1.2,1.4-1.9,2.1C58.9,85.2,59.6,85.4,60.4,85.7z M61,87.2
				c-0.7,0.7-1.1,1.1-1.8,1.8c0.9,0.4,1.5,0.7,2.5,1.2C61.4,89,61.3,88.2,61,87.2z M63,90c0.7-0.9,1.2-1.5,1.9-2.3
				c-1.1-0.2-1.8-0.4-2.7-0.5C62.4,88.2,62.7,88.9,63,90z M64.7,86.7c-0.3-1-0.5-1.7-0.7-2.6c-0.7,0.8-1.2,1.3-1.9,2
				C63.1,86.3,63.7,86.4,64.7,86.7z M60.9,82.7c0.3,0.8,0.5,1.3,0.7,2.1c0.6-0.6,1-1,1.6-1.7C62.3,83,61.7,82.9,60.9,82.7z M60,86.5
				c-0.9-0.2-1.5-0.3-2.1-0.5c0.2,0.7,0.3,1.2,0.5,1.9C59,87.5,59.4,87.1,60,86.5z"/>
		</g>
	</g>
	<g class="st2">
		<g>
			<path class="st3" d="M48.5,204.3c0.6-0.2,1-0.2,1.5-0.4c0,0.5-0.1,1-0.2,1.6c0.1-0.1,0.4-0.1,0.6,0c0.2,0,0.5,0.3,0.7,0.5
				c-0.2,0.2-0.3,0.5-0.4,0.6c-0.3,0.2-0.8,0.3-1.2,0.3c-0.7,0-0.8,0.4-0.9,1.1c0.5-0.1,0.8-0.3,1.2-0.3c0.3,0,0.6,0.3,0.8,0.4
				c-0.1,0.2-0.3,0.6-0.5,0.7c-0.4,0.2-0.8,0.3-1.2,0.3c-1.5,0.4-1.7,1.5-0.8,2.5c0.2,0.2,0.4,0.4,0.5,0.6c0.4,0.6,0.9,0.6,1.4,0.1
				c0.5-0.6,1.1-1.2,1.6-1.8c0.2-0.2,0.6-0.3,0.9-0.4c0,0.3,0.1,0.7,0,1c-0.2,0.4-0.5,0.7-0.8,1c0.6,0.3,1,0.1,1.5-0.4
				c0.2-0.4,0.6-0.8,0.9-1c0.3-0.2,0.6-0.2,1-0.3c-0.1,0.3-0.1,0.7-0.1,1c0,0.1-0.1,0.3-0.1,0.3c0.4,0.3,0.8,0.6,1.1,0.8
				c-0.4,0.3-0.8,0.6-1.3,0.8c0.1,0.1,0.2,0.2,0.3,0.4c0.2,0.3,0.2,0.7,0.3,1.1c-0.3-0.1-0.6-0.3-1-0.4c-0.2-0.1-0.3-0.3-0.4-0.5
				c-0.4-0.6-1-0.7-1.8-0.4c0.4,0.4,0.7,0.6,1,1c0.1,0.2,0.2,0.5,0.2,0.7c-0.3,0-0.6,0.1-0.8,0c-0.5-0.3-1-0.8-1.4-1.2
				c-0.5-0.4-1.6-0.4-2.1,0.1c-0.9,0.8-1.1,1.5-0.6,2.3c0.2,0.3,0.4,0.4,0.7,0.5c0.8,0.2,1.7,0.4,2.5,0.5c0.2,0,0.5,0.3,0.7,0.5
				c-0.3,0.2-0.5,0.4-0.8,0.4c-0.6-0.1-1.2-0.2-1.8-0.3c0.2,0.7,0.6,1.2,1.3,1.3c0.1,0,0.3,0,0.5,0c0.4,0.2,0.9,0.4,1.4,0.6
				c-0.4,0.2-0.8,0.4-1.1,0.7c0,0.4,0,0.9,0.1,1.3c-0.5-0.3-0.9-0.5-1.4-0.8c-0.1,0.3-0.1,0.7-0.3,1c-0.1,0.2-0.3,0.4-0.5,0.6
				c-0.2-0.3-0.5-0.6-0.4-0.8c0-0.5,0.2-1.1,0.3-1.6c0-0.4,0-0.9-0.1-1.3c-0.1,0-0.3,0-0.5,0c-0.2,0.4-0.2,1-0.4,1.3
				c-0.1,0.3-0.3,0.5-0.5,0.7c-0.2-0.3-0.5-0.6-0.5-0.9c0-0.5,0.1-1.1,0.3-1.6c0.4-1,0-1.7-0.6-2.1c-0.3-0.3-1.1-0.2-1.7-0.1
				c-0.6,0.1-1,1.2-0.8,1.8c0.3,0.8,0.6,1.7,0.8,2.6c0,0.2-0.1,0.5-0.2,0.7c-0.3-0.1-0.6-0.2-0.7-0.5c-0.3-0.6-0.4-1.3-0.7-2.1
				c-0.7,0.8-1.2,1.4-0.6,2.4c0.2,0.3,0.3,0.6,0.4,0.9c0.1,0.3,0,0.5,0,0.8c-0.3-0.1-0.6-0.2-0.8-0.4c-0.2-0.2-0.3-0.4-0.6-1
				c-0.3,0.6-0.4,1-0.7,1.3c-0.1,0.2-0.5,0.4-0.6,0.5c-0.1-0.3-0.3-0.6-0.4-0.8c0-0.4,0.2-0.8,0.4-1.4c-0.4,0-0.7,0-0.9,0
				c-0.3-0.1-0.5-0.3-0.7-0.5c0.3-0.2,0.5-0.4,0.7-0.5c0.2-0.1,0.4-0.1,0.6-0.1c1.1,0.1,1.5-0.7,1.9-1.8c-0.8,0.3-1.3,0.6-1.9,0.7
				c-0.3,0.1-0.7,0-1-0.1c0.1-0.3,0.2-0.8,0.4-0.8c0.8-0.4,1.7-0.7,2.6-0.8c0.7-0.2,1.1-0.5,1.2-1.1c0.1-0.3-0.2-0.7-0.4-1
				c-1.1-1.4-2.2-1.3-3.2,0.1c-0.2,0.3-0.3,0.6-0.6,0.9c-0.2,0.2-0.5,0.2-0.8,0.3c-0.1-0.3-0.2-0.6-0.2-0.8c0.1-0.3,0.3-0.6,0.2-1
				c-0.2,0.4-0.5,0.7-0.8,1.1c-0.2,0.3-0.5,0.7-0.7,0.8c-0.2,0.1-0.6,0.1-0.8,0c-0.1-0.1-0.1-0.5-0.1-0.7c0.1-0.3,0.4-0.6,0.6-0.8
				c-0.6-0.3-1-0.5-1.4-0.8c0.4-0.3,0.8-0.5,1.4-0.9c-0.3-0.2-0.8-0.4-1-0.7c-0.1-0.1-0.1-0.4-0.1-0.7c0.2,0,0.5-0.1,0.7,0
				c0.5,0.3,1.1,0.8,1.6,1.2c0.5,0.5,1.1,0.5,1.7,0.1c-0.5-0.5-1-0.9-1.4-1.4c-0.2-0.2-0.2-0.6-0.3-1c0.3,0.1,0.7,0.1,0.8,0.3
				c0.7,0.5,1.4,1.1,2,1.7c0.5,0.4,1,0.4,1.3-0.3c0.3-0.6,1.2-1.1,0.5-2c-0.2-0.3-0.7-0.5-1-0.6c-0.7-0.1-1.4-0.2-2.1-0.3
				c-0.2,0-0.4-0.4-0.6-0.6c0.3-0.1,0.5-0.4,0.8-0.4c0.5,0,1,0.1,1.7,0.1c-0.5-0.9-0.8-1.8-1.9-1.7c-0.3,0-0.6,0-0.9-0.1
				c-0.3-0.1-0.4-0.4-0.7-0.5c0.3-0.2,0.5-0.4,0.7-0.4c0.3-0.1,0.5,0,1,0.1c-0.2-0.4-0.5-0.6-0.6-0.9c0-0.2,0-0.4,0-0.5
				c0.2,0,0.5,0,0.7,0c0.3,0.2,0.6,0.6,0.9,1c0.1-0.4,0.2-0.7,0.3-1c0.1-0.3,0.4-0.4,0.6-0.6c0.2,0.3,0.4,0.6,0.4,0.9
				c0,0.6-0.3,1.2-0.2,1.9c0,0.5,0.3,0.9,0.4,1.4c0.2,0,0.2,0,0.3-0.1c0.1-0.5,0.1-1,0.3-1.6c0.1-0.3,0.4-0.4,0.7-0.5
				c0.1,0.3,0.4,0.5,0.3,0.8c-0.1,0.8-0.3,1.6-0.4,2.4c0,0.4,0.3,1,0.5,1.1c0.8,0.5,2.2-0.1,2.5-1.1c0.2-0.4,0.1-0.8,0-1.2
				c-0.2-0.7-0.6-1.4-0.9-2.1c0-0.2,0.1-0.5,0.2-0.7c0.2,0.1,0.6,0.2,0.7,0.4c0.3,0.4,0.4,0.9,0.7,1.5c0.5-0.7,0.7-1.2,0.5-1.9
				c-0.1-0.4-0.1-0.9-0.1-1.3C48,204.1,48.3,204.3,48.5,204.3z M45.6,214.8c1,0,2.1-1.2,2-2c-0.1-0.7-1.3-1.6-2.2-1.5
				c-1.1,0.1-2.2,1.1-2.2,1.8C43.5,214.1,44.4,214.9,45.6,214.8z"/>
		</g>
	</g>
	<g class="st2">
		<g>
			<path class="st3" d="M743.2,119c0.1-0.6,0-1.4,0.2-1.9c0.3-0.6,0.9-1,1.4-1.6c0.3,0.6,0.8,1.3,0.9,1.9c0.2,0.7,0.1,1.7-0.2,2.4
				c-1.2,2.9,0.8,4.2,2.5,5.8c2.1-2.4,2.2-4.3,1-6.7c-0.3-0.6-0.7-1.1-0.8-1.8c-0.1-0.5,0.2-1,0.3-1.6c0.5,0.2,1.2,0.2,1.7,0.5
				c0.5,0.4,0.7,1,1,1.6c0.2,0,0.3-0.1,0.5-0.1c-0.1-0.6-0.3-1.2-0.5-1.8c-0.7-2-0.1-3.9,1.5-4.6c1.5-0.6,3.5-0.1,4.2,1.2
				c0.8,1.6,0,4.1-1.6,5c-0.6,0.4-1.1,0.8-1.7,1.3c0.1,0.2,0.2,0.3,0.3,0.5c0.9-0.3,1.8-0.6,2.9-0.7c0.5,0,1,0.4,1.5,0.6
				c-0.3,0.5-0.6,1-1,1.2c-0.6,0.4-1.2,0.6-1.9,0.7c-3.6,0.5-3.8,3.4-4.7,6.3c2.3-0.4,4.6,0.2,5.6-2.6c0.5-1.1,1.6-2.2,2.4-3.1
				c0.3-0.4,1.2-0.3,1.7-0.3c0,0.6,0.1,1.3-0.1,1.7c-0.4,0.8-1.2,1.5-2,2.5c1.6,0.4,2.3-0.3,3.2-1.4c0.7-0.9,2-1.7,3.1-1.6
				c1.1,0.1,2.5,1.2,3,2.2c0.3,0.9-0.1,2.5-0.8,3.4c-1.1,1.3-2.8,1.1-4.2,0.2c-1.1-0.7-2-1.1-3.4,0c0.6,0.5,1.1,1,1.5,1.5
				c0.2,0.3,0.3,0.9,0.4,1.4c-0.5,0-1.2,0.4-1.6,0.2c-0.5-0.1-1-0.7-1.5-1c-2.1-1.9-3.2-2.1-6.2-0.5c1.7,1.5,2.8,3.7,5.6,3.3
				c1-0.2,2,0,3,0.2c0.5,0.1,0.8,0.7,1.3,1.1c-0.5,0.3-0.9,0.8-1.4,0.8c-0.8,0.1-1.7,0-2.5,0c-0.1,0.2-0.1,0.4-0.3,0.6
				c0.8,0.4,1.5,1.1,2.4,1.4c2,0.6,3.2,2,3,3.8c-0.2,1.5-1.9,2.6-3.6,2.5c-1.9-0.3-3.1-2-2.8-4c0-0.6-0.1-1.2-0.2-1.8
				c-0.3,0-0.4,0-0.7,0c-0.3,1-0.4,2-0.9,2.9c-0.3,0.5-1,0.7-1.6,1c-0.2-0.6-0.5-1.1-0.7-1.6c0-0.5,0.2-1,0.3-1.5
				c0.8-3.7,0.3-4.8-3.5-7c-0.5,1.6-1.1,3.2-1.6,4.6c0,0.4,0.2,1,0.5,1.5c0.8,1.2,1.6,2.2,2.4,3.4c0.3,0.4,0.3,1,0.4,1.5
				c-0.7,0-1.5,0.1-2-0.2c-0.9-0.7-1.5-1.6-2.3-2.6c-0.2,0.1-0.3,0.2-0.6,0.3c0.2,0.5,0.4,1.1,0.6,1.6c0.8,1.7,0.4,3.4-1.1,4.3
				c-1.4,0.8-3.4,0.2-4.3-1.3c-0.9-1.5-0.3-3.3,1.3-4.3c0.6-0.4,1-0.9,1.6-1.3c-0.1-0.2-0.3-0.4-0.4-0.6c-1,0.3-2,0.9-3,1
				c-0.7,0.2-1.6-0.1-2.5-0.1c0.5-0.6,1-1.4,1.6-1.8c1.1-0.5,2.4-1.1,3.5-1.2c1.6-0.2,2.2-0.9,2.5-2.3c0.2-1.1,0.6-2.2,0.8-3.3
				c-3.2-0.5-4.2,0-5.5,2.6c-0.4,0.9-1,1.7-1.6,2.4c-0.2,0.3-0.9,0.1-1.4,0.2c0-0.5-0.3-1-0.1-1.4c0.3-0.9,0.8-1.8,1.3-2.7
				c-1.7-0.6-2.3,0.2-2.9,1.4c-1,1.8-3.2,2.2-4.9,1.2c-1.4-0.9-1.9-2.9-0.9-4.6c1-1.7,3.1-2,4.8-1c0.7,0.4,1.7,0.6,2.5,0.9
				c0.1-0.3,0.3-0.5,0.4-0.7c-0.7-0.8-1.4-1.5-1.9-2.4c-0.2-0.3,0-1.1-0.1-1.6c0.5,0,1.2-0.1,1.6,0.1c0.6,0.4,1.1,1.2,1.7,1.7
				c2.1,2.3,3.4,2.6,6.3,1.1c-1.5-3.3-3-4.2-6.1-4.1c-0.7,0.1-1.4-0.5-2.2-0.7c0.6-0.4,1.3-0.8,1.9-1.2c0.3-0.1,0.7-0.2,1.3-0.8
				c-0.6-0.3-1.2-0.7-1.8-0.8c-2-0.2-3.2-1.2-3.3-3.1c-0.1-1.1,0.4-2.5,1.1-3.2c0.5-0.5,2.1-0.5,2.9,0c1.2,0.6,2.1,1.5,1.9,3.2
				c-0.1,0.8,0.3,1.7,0.5,2.5C742.6,119.1,743,119.1,743.2,119z"/>
		</g>
	</g>
	<g class="st2">
		<g>
			<path class="st3" d="M103.9,283.6c0,0.3,0,0.5,0,0.9c0,0.1-0.2,0.3-0.3,0.5c-0.1-0.2-0.2-0.3-0.3-0.4c-0.2-1.8-0.2-1.8-1.6-2.7
				c-0.1,0-0.1,0-0.3-0.1c-0.1,0.7-0.2,1.5-0.1,2.1c0.2,0.6,0.6,1.1,0.9,1.7c-0.5,0.3-0.6-0.4-1-0.5c-0.1,0.4-0.2,0.8-0.4,1.2
				c-0.1,0.1-0.3,0.2-0.4,0.3c0-0.2-0.2-0.4-0.2-0.5c0.1-0.4,0.2-0.7,0.3-1.2c-0.5,0-1,0.6-1.5-0.1c1.7-0.3,1.7-1.5,1.6-2.8
				c-0.9,0-1.6,0.4-1.9,1.2c0,0.2-0.1,0.4-0.2,0.6c-0.1,0.1-0.3,0.2-0.4,0.2c-0.1-0.2-0.2-0.3-0.3-0.4c0.1-0.3,0.1-0.6,0.3-0.9
				c-0.6-0.2-1.1,0.6-1.7-0.1c0.6-0.3,1.1-0.5,1.6-0.7c0,0,0-0.1,0-0.1c-0.2-0.1-0.5-0.2-0.7-0.3s-0.4-0.2-0.6-0.4
				c0-0.1,0-0.1,0-0.1c0.1,0,0.3,0,0.5,0c0.3,0.1,0.7,0.2,1,0.4c0.4,0.4,1,0.3,1.4,0.1c0.3-0.2,0.8-0.3,1.2-0.5
				c-0.6-0.6-1.1-1.2-1.8-1.5c-0.3-0.1-0.8,0.1-1.3,0.1c-0.2,0-0.5,0-0.7-0.1c0-0.1,0-0.1,0-0.2c0.4-0.1,0.8-0.3,1.2-0.4
				c-0.4-0.4-0.8-0.6-1.1-1c0-0.1,0.1-0.1,0.1-0.1c0.6-0.2,0.9,0.6,1.4,0.8c-0.1-0.4-0.1-0.7-0.1-1c0-0.1,0.1-0.3,0.2-0.4
				c0.1,0.1,0.4,0.2,0.4,0.4c0.1,0.3,0.2,0.7,0.1,1.1c0,0.5,0.3,0.9,0.7,1.2c0.2,0.1,0.4,0.4,0.7,0.6c0.1-0.9,0.6-1.6,0.1-2.5
				c-0.3-0.4-0.4-1-0.7-1.6c0.9,0,0.7,0.8,1.1,1.2c0.1-0.4,0.1-0.9,0.2-1.3c0-0.1,0.2-0.3,0.3-0.4c0.1,0.2,0.2,0.4,0.3,0.4
				c0,0.4-0.1,0.7-0.1,1.1c0.6,0.1,1-0.9,1.6-0.1c-1.4,0.6-2.3,1.6-2,3.2c0.9-0.4,2-0.5,2.3-1.7c0-0.2,0.1-0.5,0.3-0.7
				c0.1-0.1,0.3-0.2,0.4-0.2c0,0.2,0.2,0.3,0.1,0.4c-0.1,0.3-0.2,0.5-0.3,0.9c0.4-0.1,0.7-0.2,0.9-0.3c0.3-0.1,0.6-0.2,0.9,0.3
				c-0.6,0.3-1.1,0.5-1.6,0.7c0,0.1,0,0.1,0,0.1c0.3,0.2,0.8,0.4,1.2,0.6c0,0.1,0,0.1-0.1,0.2c-0.1,0-0.3,0-0.4-0.1
				c-1.2-1-2.3-0.1-3.3,0.4c0.6,1,1.7,1.4,2.8,1.1c0.2,0,0.5,0,0.7,0.1c0,0.1,0,0.2,0,0.3c-0.5,0.1-0.9,0.2-1.4,0.3
				c0.4,0.4,0.8,0.8,1.2,1.1c0,0.1-0.1,0.1-0.1,0.2C104.7,284.5,104.6,283.7,103.9,283.6z"/>
		</g>
	</g>
	<g class="st2">
		<g>
			<path class="st3" d="M198.4,114.8c0.5-0.1,0.8-0.3,1.1-0.2c0.2,0.1,0.3,0.5,0.4,0.8c0,0.3,0,0.8-0.1,1c-0.2,0.7,0,1.1,0.5,1.7
				c0.4-0.4,0.8-1.1,1.2-1c0.4-0.1,0.8,0.6,1.3,1c0.4-0.5,1-1,0.8-1.9c-0.1-0.1,0-0.2,0-0.3c0.1-0.4,0.2-0.9,0.4-1.3
				c0.4,0.2,0.7,0.3,1.1,0.5c0.4-0.5,0.9-1.1,1.4-1.6c0.2-0.2,0.5-0.2,0.8-0.3c0,0.3,0.1,0.7,0,0.9c-0.4,0.6-0.9,1.1-1.3,1.6
				c0.1,0.1,0.1,0.2,0.1,0.3c0.2,0.3,0.4,0.5,0.5,0.7c-0.3,0.2-0.5,0.4-0.8,0.5c-0.8,0.1-1.5,0.4-1.7,1.2c0,0.1,0,0.1,0,0.1
				c1.4,0.5,1.7,1.2,1.4,2.5c0.6,0.3,1.1,0.2,1.6-0.3c0.1-0.1,0.2-0.2,0.3-0.2c0.3-0.2,0.7-0.2,1.2-0.4c0.1,0.4,0.1,0.7,0.1,1.2
				c0.6,0.1,1.2,0,2,0.1c0.2,0,0.5,0.3,0.7,0.5c-0.3,0.1-0.5,0.4-0.8,0.4c-0.6,0-1.3,0-1.9,0c0,0.1-0.1,0.1,0,0.2c0,0.3,0,0.6,0,0.9
				c-0.4-0.2-0.7-0.2-1-0.4c-0.7-0.8-1.4-1.2-2.2-0.9c-0.1,0.6,0,1.2-0.1,1.7c-0.2,0.3-0.9,0.4-1.4,0.7c0.2,0.6,0.3,1.3,1.2,1.5
				c0.1,0,0.3,0.1,0.4,0.2c0.3,0.2,0.5,0.5,0.6,0.8c0,0.2-0.4,0.4-0.7,0.7c0.3,0.9,0.8,1.8,1.2,2.8c-0.1,0.1-0.2,0.1-0.3,0.2
				c-1.2-0.3-1-1.9-1.7-2.4c-0.4,0.1-0.7,0.1-1.1,0.1c-0.1-0.4-0.1-0.8-0.1-1.2c0.2-0.8,0.1-1.4-0.3-1.9c-0.6,0.3-1.1,0.7-1.7,0.6
				c-0.4-0.1-0.9-0.6-1.3-1c-0.4,0.4-0.8,1-0.5,1.7c0,0,0,0.1,0.1,0.1c-0.1,0.4-0.1,0.9-0.2,1.4c-0.4-0.1-0.7-0.2-1.2-0.3
				c-0.3,0.5-0.7,1.1-1.2,1.5c-0.2,0.3-0.6,0.3-0.9,0.5c0-0.4,0-0.8,0.1-1c0.2-0.4,0.6-0.7,0.9-1.1c0.1-0.2,0.2-0.5,0.1-0.7
				c-0.4-0.6,0-0.9,0.4-1c0.9-0.1,1.2-0.7,1.6-1.5c-1.5-0.6-1.7-1.1-1.1-2.5c-0.7-0.3-1.3-0.3-2,0.2c-0.8,0.7-1,0.5-1.6-0.3
				c-0.1-0.2-0.3-0.2-0.5-0.3c-0.5,0-0.9,0-1.3-0.1c-0.3-0.1-0.5-0.3-0.8-0.5c0.3-0.2,0.5-0.4,0.8-0.4c0.6,0,1.3,0,2,0.1
				c0-0.2,0.1-0.4,0.1-0.5c0.2-0.7,0.3-0.8,0.9-0.3c0.7,0.6,1.4,1.3,2.5,0.8c-0.1-0.6-0.5-1.3-0.3-1.7c0.2-0.4,0.9-0.5,1.5-0.7
				c-0.1-0.5-0.3-1.1-1.1-1.2c-0.1,0-0.2,0-0.2-0.1c-0.3-0.2-0.5-0.5-0.8-0.7c0.2-0.2,0.5-0.4,0.8-0.8c-0.2-0.5-0.5-1.2-0.8-1.9
				c-0.1-0.3,0-0.6,0-0.9c0.3,0.1,0.5,0.3,0.7,0.5C197.9,113.8,198.1,114.3,198.4,114.8z M204,123.4c-0.4-1.3-0.6-1.4-1.8-1.2
				C202.5,123.4,202.7,123.6,204,123.4z M202.3,121c1.1,0.3,1.6,0,1.9-1.1C202.9,119.7,202.8,119.7,202.3,121z M200.1,122.1
				c-1-0.4-1.3-0.2-1.7,0.9C199.6,123.3,199.8,123.2,200.1,122.1z M200.2,120.9c-0.3-1.2-0.5-1.3-1.7-1.3
				C198.9,120.7,199.4,121,200.2,120.9z M201.2,124.6c0.8-0.8,0.8-1.1-0.1-1.9C200.4,123.6,200.4,123.7,201.2,124.6z M201.5,118.6
				c-0.3,0.6-1.1,1-0.2,1.7C201.7,119.8,202.2,119.4,201.5,118.6z"/>
		</g>
	</g>
</g>
</svg>
