<?xml version="1.0" encoding="utf-8"?>
<!-- Generator: Adobe Illustrator 21.0.0, SVG Export Plug-In . SVG Version: 6.00 Build 0)  -->
<svg version="1.1" id="Calque_1" xmlns="http://www.w3.org/2000/svg" xmlns:xlink="http://www.w3.org/1999/xlink" x="0px" y="0px"
	 viewBox="0 0 841.9 595.3" style="enable-background:new 0 0 841.9 595.3;" xml:space="preserve">
<style type="text/css">
	.st0{opacity:0.6;}
	.st1{fill:#FFFFFF;}
	.st2{opacity:0.5;}
	.st3{opacity:0.7;}
	.st4{opacity:0.2;}
	.st5{opacity:0.4;}
	.st6{opacity:0.65;fill:url(#SVGID_1_);enable-background:new    ;}
</style>
<g id="WBVflh_1_" class="st0">
	<g>
		<g>
			<g>
				<path class="st1" d="M143,70.6c-1,0.7-2.1,1.3-3,2.2c-0.6,0.5-0.7,1.3-1.2,1.8c-0.7,0.7-1.8,1-2.6,1.5c0.1-0.9,0.2-1.9,0.3-2.7
					c0.1-0.4,0.4-0.7,0.5-1c-1-0.8-2-1.6-2.8-2.3c0.9-0.7,1.9-1.2,3.2-2.1c-0.5-0.5-1.1-1-1.5-1.7c-0.3-0.6-0.3-1.2-0.5-1.9
					c0.7-0.1,1.7-0.6,2.2-0.2c1.2,0.7,2.1,2.1,3.2,2.9c0.8,0.7,2,1,3,1.5c0.3-0.4,0.5-0.7,0.7-1c-1.5-1.9-3.2-3.6-4.6-5.6
					c-0.7-0.9-0.9-2.2-1.3-3.3c1.1,0.4,2.6,0.4,3.4,1.1c1.9,1.9,3.4,4.1,5.1,6.1c0.7,0.7,1.8,1.6,2.6,1.5c3.6-0.5,7.3-1.3,10.9-2.4
					c-3.2-1.1-6-4.1-9.7-1.4c-0.5,0.4-1.3,0.1-2,0.2c0.2-1,0.3-2.1,0.5-2.9c-0.5-0.8-0.8-1.8-1.2-2.6c0.9-0.4,2-0.8,3.2-1.3
					c0-0.4-0.2-1,0-1.5c0.3-0.7,0.7-1.3,1.1-2c0.6,0.5,1.6,0.9,1.6,1.4c0.1,5.4,4.4,6,8.1,7.2c0.6,0.2,1.1,0.3,2.8,0.7
					c-1.3-1.6-2.1-2.6-2.9-3.6c-1.3-1.4-2.9-2.4-3.8-4c-3.2-5.1-7.6-5.1-12.5-3.4c-0.5,0.2-1,0.4-1.5,0.4c-0.7-0.1-1.2-0.5-1.8-0.7
					c0.4-0.6,0.6-1.4,1.1-1.6c2.2-0.8,4.6-1.6,6.9-3c-2.5-0.6-5.1-1.1-7.7-1.6c0-0.5,0-0.9,0.1-1.4c1.3-0.3,2.7-0.7,4-0.9
					c-0.1-1.2-0.3-2.4-0.4-3.6c1.1,0,2.2,0,3.5,0c0.7-0.4,1.7-0.8,2.6-1.3c0.1,1.1,0.4,2.2,0.4,3.4s-0.2,2.2-0.3,3.4
					c0.4,0.1,0.7,0.2,1,0.3c0.7-1.7,1.5-3.4,2.3-5c0.8-1.5,1-3.9,4.1-3.4c-1.2,3.2-2.2,6.2-3.5,9.1c-0.8,1.9-0.7,3.2,0.7,4.7
					c2.2,2.1,4.1,4.3,6.3,6.6c1-3.6,0.2-5.4-2.7-6.9c-1-0.6-1.7-1.7-2.5-2.5c1.2-0.3,2.3-0.6,4-0.9c1.3-2.2,1.4-2.2,4-0.2
					c0.5-0.3,0.8-0.7,1.4-0.9c0.7-0.3,1.6-0.3,2.4-0.5c-0.3,0.8-0.3,2-0.8,2.3c-4.2,3.2-2.2,6.8-1.4,10.4c0.4,0.1,0.7,0.2,1,0.3
					c1.6-4.1,3.3-8.1,4.6-12.3c0.3-0.9-0.3-2.4-0.9-3.4c-1.3-1.8-3-3.1-4.3-4.9c-0.5-0.7-0.3-1.8-0.4-2.7c0.8,0.2,1.8,0.2,2.4,0.6
					c1.1,0.8,2.1,2,3.7,3.6c-0.6-1.6-1-2.4-1-3.2c0-0.9,0.5-2,0.7-2.9c0.7,0.6,1.4,1,2.1,1.6c0.3,0.3,0.4,0.7,0.6,1
					c3.5-1.9,3.5-1.9,4,2.1c0.7-0.1,1.6-0.4,2.3-0.3c0.7,0.1,1.4,0.5,2.1,0.7c-0.6,0.6-1,1.4-1.7,1.7c-0.9,0.4-2.1,0.3-3,0.7
					c-0.8,0.4-1.6,1.1-2.3,1.7c0.2,0.4,0.3,0.8,0.5,1.2c2.2-0.3,4.3-0.7,6.5-0.7c1-0.1,2,0.4,3,0.6c-0.8,0.7-1.7,1.6-2.6,2
					c-1.6,0.5-3.3,0.8-4.9,0.7c-3.2-0.4-4.4,1.4-5.2,4c-0.8,2.5-1.9,5-3.1,8.2c3.2-1.7,5.1-3.2,5.1-6.5c0-1.1,0.8-2.2,1.3-3.3
					c0.7,0.8,1.5,1.6,2.4,2.5c0.7,0,2,0,3.7-0.1c-0.8,1.4-1.2,2.2-1.7,3c0.1,0.2,0.3,0.5,0.5,0.7c0.6,0.8,1.2,1.6,1.8,2.4
					c-1,0.1-2.2,0.7-3,0.3c-2.2-1-3.6-0.6-5.2,1.1c-1.3,1.4-2.8,2.6-4.2,3.9c0.1,0.3,0.2,0.6,0.3,0.8c4.9-1.1,9.7-2,14.5-3.4
					c1.1-0.4,1.8-2.6,2.4-4c0.7-1.6,1.1-3.4,1.9-5c0.3-0.6,1.2-0.7,1.9-1c0.2,0.7,0.7,1.3,0.6,1.9c-0.7,2.3-1.4,4.7-2.2,7.3
					c3.2-0.3,2.8-5.3,6.7-4.2c-0.4,1.1-0.7,2.2-1.1,3.4c1.4,0.2,2.8,0.5,4.1,0.7c0.1,0.3,0.3,0.7,0.4,0.9c-1.3,0.7-2.6,1.4-4.1,2.2
					c0.4,0.5,0.9,1,1.2,1.7c0.2,0.7,0.1,1.6,0.1,2.4c-0.8-0.2-1.8-0.1-2.3-0.6c-1.4-1-2.7-2.3-4-3.6c-0.4,0.3-0.7,0.6-1,0.9
					c1.4,2.1,2.9,4,4.2,6.2c0.4,0.7,0.4,1.6,0.6,2.3c-0.9-0.1-2.2,0.1-2.7-0.5c-1.6-1.9-2.8-4.1-4.5-5.9c-0.7-0.7-2.2-1.3-3.3-1.2
					c-3.2,0.3-6.3,1-9.6,1.6c4,4.3,7.6,1.4,11.1-0.4c0.3,0.3,0.5,0.6,0.7,0.8c-0.7,1.1-1.5,2.2-2.2,3.3c0.8,1,1.9,2.2,2.9,3.5
					c-1.1,0.3-2.2,0.7-3.6,1c0,0.1,0,0.7-0.3,1.2c-0.4,0.7-0.8,1.2-1.3,1.8c-0.6-0.6-1.6-1.1-1.7-1.8c-0.5-3.9-3.1-5-6.9-4.9
					c2.5,3,4.9,6.2,7.7,8.8c0.7,0.7,2.9-0.1,4.4-0.3c1.5-0.2,3-0.7,4.6-0.8c0.7,0,1.3,0.7,2,0.9c-0.6,0.5-1,1.3-1.7,1.5
					c-2.2,0.6-4.6,0.8-6.9,1.2c-0.1,0.4-0.3,0.7-0.4,1.1c1.1,0.6,2.3,1.3,3.6,1.8c1.1,0.5,2.3,0.8,3.5,1.2c-0.8,0.7-1.7,1.5-2.4,2.2
					c0.1,1.1,0.1,2.4,0.2,3.7c-1.1-0.2-2.2-0.4-3.6-0.7c-0.6,0.5-1.6,1.2-2.5,2c-0.3-0.1-0.5-0.3-0.7-0.4c0.3-2.5,0.6-5.1,0.8-7.6
					c-0.3-0.1-0.6-0.1-0.9-0.2c-2.2,2.5-1,7.4-6.2,8.8c1-3.8,1.8-7.1,2.9-10.2c0.7-2.2,0.3-3.6-1.1-5.3c-2.5-2.9-4.9-6.1-8-8.9
					c0.4,2.2,0.8,4.3,1,6.5c0.2,2.8,2.4,3.3,4.3,4.2c0.6,0.3,0.8,1.2,1.2,1.8c-0.6,0.3-1.2,0.7-1.8,0.8c-0.6,0.1-1.1-0.1-1.5-0.1
					c-0.6,1.5-1,2.7-1.5,3.9c-0.9-0.7-1.9-1.5-3-2.4c0,0-0.4,0.4-0.8,0.6c-0.7,0.3-1.5,0.4-2.2,0.5c0.1-0.7,0-1.6,0.4-2.2
					c2.6-4.6,2.7-5.9,0.4-11.6c-1.9,4.2-3.6,8-5.1,11.9c-0.2,0.6,0.7,1.8,1.2,2.5c1.5,2,3.2,3.7,4.6,5.8c0.4,0.6,0,1.8,0,2.6
					c-0.8-0.4-1.9-0.6-2.3-1.1c-1.6-1.8-2.9-3.8-4.3-5.7c-0.4,0.2-0.7,0.3-1,0.5c0.1,0.8,0.1,1.8,0.4,2.5c0.6,1.3,1.6,2.4,2.2,3.7
					c0.3,0.7,0,1.6-0.1,2.3c-0.8-0.3-1.8-0.3-2.4-0.7c-0.7-0.5-0.9-1.2-1.4-2c-1.1,1.2-2.2,2.3-3.1,3.5c-0.3-0.2-0.7-0.4-0.9-0.6
					c0.3-1.4,0.5-2.9,0.7-4.3c-0.3-0.2-0.5-0.4-0.7-0.4c-1.2-0.1-2.4-0.1-3.6-0.2c1-0.8,2-1.8,3.1-2.4c0.8-0.6,1.9-0.9,2.9-1.3
					c-0.1-0.3-0.2-0.7-0.3-0.9c-1.9,0.2-3.7,0.6-5.5,0.5c-0.8,0-1.6-0.7-2.4-1.1c0.7-0.5,1.5-1.3,2.2-1.3c6.7,0.4,9.8-3.4,11.4-9.3
					c0.5-1.8,1.5-3.4,2.3-5.2c-4.2,1.7-5.8,4.2-5.6,8c0,0.7-0.5,1.4-0.7,2.2c-0.7-0.3-1.4-0.5-2-0.8c-0.8-0.6-1.7-1.3-2.8-2.2
					c0.1-0.5,0.2-1.3,0.4-2.3c-0.7-0.3-1.6-0.4-2.2-0.7c-0.5-0.3-1.1-1.1-0.9-1.3c0.3-0.6,0.9-0.9,1.5-1.2c0.3-0.2,0.8,0.1,1.2,0.2
					c3.6,1.1,5.8-0.7,8.1-4.4c-2.8,0.6-5.1,1.2-7.2,1.3c-4.8,0.3-7.2,2.7-7.9,7.4c-0.1,0.8-0.3,1.7-0.7,2.3
					c-0.4,0.5-1.1,0.6-1.8,0.9c-0.2-0.6-0.7-1.2-0.7-1.8c0.4-2.2,0.9-4.2,1.4-6.3C143.4,71.3,143.2,70.9,143,70.6z"/>
			</g>
		</g>
	</g>
</g>
<g class="st0">
	<g>
		<path class="st1" d="M33.5,32.2c0.8,0.7,1.5,1.6,2.4,2c3.9,1.8,4.5,3.5,2.8,7.2c-0.5,1-0.4,2.4-0.4,3.6c0,1,0,2.2,0.1,4.1
			c-3.2-3.2-5.7-5.4-7.8-8c-0.7-0.8-0.1-2.5-0.1-3.8c0-1.6,0.1-3.2,0.1-4.8c-0.3-0.1-0.7-0.2-0.9-0.3c-0.7,0.8-1.4,1.9-2.3,2.5
			c-0.8,0.7-2.3,1.4-2.8,1.1c-0.8-0.6-1.7-2.1-1.4-2.9c0.7-3,1.9-5.8,3-8.7c0.3-0.9,1.3-1.9,1-2.6c-0.7-2-1.8-3.8-2.6-5.7
			c-0.9,1.5-2,3-2.8,4.6c-0.6,1.1-1,2.2-1.5,3.5c-0.4-0.1-0.7-0.2-1.1-0.4c0.4-2,0.8-3.9,1-5.9c0.1-0.9-0.4-2.3-0.9-2.6
			c-0.7-0.3-2.1,0.3-2.6,0.8c-1.9,2.1-3.2,4.2-2.2,7.3c0.7,2,0.9,4.1,0.7,6.2c-0.1,1.1-1.3,2.2-2,3.2c-0.9-0.7-2.1-1.2-2.7-2.1
			c-0.7-0.9-1.1-2.2-1.6-3.2c-0.4-0.1-0.7-0.2-1.1-0.3c-0.6,1.8-1.5,3.6-1.8,5.3c-0.4,2.9-1.5,4.6-4.7,5.1c-1.9,0.3-3.5,1.9-5.6,3
			c0.1-0.7,0.1-1.5,0.3-2.2c0.4-1.7,1.1-3.4,1.3-5.1c0.2-3.1,1.6-4.8,4.7-5.1c1.2-0.1,2.3-0.7,3.6-1c-0.1-0.3-0.1-0.7-0.2-0.9
			c-0.9-0.2-2-0.3-2.7-0.7c-1.1-0.7-2.1-1.8-3-2.7c1-1.1,1.9-2.6,3.1-3.2c2.2-0.8,4.5-1.3,6.8-1.4c3.1-0.2,4.4-2.4,5.7-4.6
			c0.4-0.7,0.5-1.9,0.1-2.3c-0.6-0.6-1.7-0.9-2.5-0.7c-2.4,0.5-4.9,1.1-7.3,1.7c-0.2-0.4-0.4-0.7-0.6-1.1c0.6-0.7,1-1.4,1.8-1.8
			C7.8,8.9,9,8.9,10,8.3c1.4-0.7,2.7-1.7,4.1-2.6c-0.5-0.7-0.9-1.8-1.4-1.8c-2.1-0.2-4.2-0.6-6.1,0C4.1,4.6,2,6.5-0.5,7.5
			c-1.1,0.4-2.6-0.5-4-0.8C-4.1,5.4-3.9,4.1-3.4,3c0.6-1,1.5-1.9,2.1-3.7c-1.4,0.1-3-0.3-4.1,0.3c-5.1,2.4-6.7,1.9-9.2-3
			c-0.5-0.9-2-1.2-2.8-2c-0.6-0.5-0.8-1.3-1.2-1.9c0.7-0.4,1.3-1,2.1-1.1c2.2-0.2,4.6-0.4,6.8,0c1.5,0.2,2.9,1.1,4.2,2
			C-4.6-5.9-3.7-5.1-2.1-4c0-1.7-0.2-2.5,0-3.2c0.5-1.4,0.9-3.5,2-3.8s3,0.7,3.9,1.7c1.5,1.6,2.6,3.6,3.5,5.6
			c1.5,3.6,4.5,3.5,7.8,3.1c-1.2-1.3-2.5-2.6-3.5-4c-0.5-0.7-0.2-1.8-0.3-2.6c0.8,0.2,1.7,0.3,2.5,0.6c0.4,0.2,0.7,0.8,1,1
			c1.3,0.6,2.7,1.3,4.1,1.5c0.3,0.1,1.5-1.7,1.3-2.2c-0.7-1.5-1.5-3.1-2.7-3.9c-2.4-1.7-5.1-2.8-7.7-4.3c-1.5-0.9-3.3-2.3-1.6-4.1
			c1-1.1,3.1-1.4,4.7-1.8c0.7-0.2,1.7,0.5,2.9,0.4c-2.2-2.7-6.7-3.4-6.5-7.9c0.2-3.3,0.5-6.6,0.7-9.8c2.7,2.4,5.4,4.3,7.3,6.7
			c1.1,1.4,1.2,3.7,1.4,5.6c0.2,1.6-0.1,3.2-0.2,4.8c0.4,0.1,0.7,0.2,1,0.3c0.7-0.9,1.1-2.1,2-2.7c0.7-0.6,1.9-0.7,2.8-1
			c0.3,0.8,1,1.9,0.8,2.6c-0.5,2.1-1.1,4.1-2.2,5.9c-1.7,2.7-1.8,5.3-0.5,8c0.5,0.9,1.5,1.6,2.3,2.3c0.6-0.8,1.3-1.6,1.7-2.5
			c0.7-2,1-4,1.6-6c0.5,0.1,0.9,0.2,1.4,0.3c-0.3,2.8-0.5,5.5-0.8,8.8c3.1-1.2,4.7-2.8,4.5-5.9c-0.2-2.6-0.3-5.2,0.2-7.8
			c0.3-1.7,1.8-3.1,2.7-4.6c1.1,1.2,2.2,2.4,3.3,3.7c0.4,0.5,0.4,1.1,0.8,2.6c1.5-3.6,2-7,3.9-9.1c2-2,5.5-2.5,8-3.6
			c-0.3,2.8-0.3,5.6-0.9,8.3c-0.7,2.8-2.6,4.5-5.7,4c-2.2-0.4-3.4,0.6-4,3.1c1.8,0.1,3.4-0.1,4.9,0.3c1.1,0.3,2.2,1.3,3.2,2
			c-0.7,1.1-1.3,3-2.3,3.3C44-7.3,40.3-7,36.9-6.2c-1.3,0.3-2.8,0.7-3.8,1.6c-0.6,0.5-0.9,2.2-0.6,2.8c0.4,0.7,1.8,1.3,2.6,1.3
			c2.2,0,4.5-0.4,6.8-0.6c0.2,0.5,0.3,1,0.5,1.5c-1.3,0.6-2.6,1-3.9,1.6c-1.2,0.6-2.4,1.2-3.6,1.8c1,0.7,2.1,1.5,3.2,2.1
			c2.4,1.1,4.6,0.9,6.9-0.7c1.7-1.1,3.8-1.9,5.8-2.2c1.2-0.2,3,0.3,3.7,1.1c0.5,0.6-0.4,2.4-0.9,3.6c-0.4,0.8-1.2,1.5-1.9,2.2
			c0.1,0.4,0.1,0.8,0.2,1.2c1.3-0.2,2.9,0.1,3.9-0.6c2.2-1.4,4.9-1.6,5.7,0.7c1.4,3.7,4,5.1,7.8,5.4c-1.3,4.3-4,2.2-6.2,2.2
			c-2.2,0-4.9,0.7-6.8-0.1c-2.1-0.6-3.5-2.8-5.8-5.1c-0.1,2.5,0.1,3.9-0.2,5.1c-0.3,1-1.1,2.5-2,2.7c-1.1,0.3-2.9-0.3-3.6-1.1
			c-1.4-1.9-2.1-4.2-3.4-6.1c-1.2-1.9-2.8-3.6-4.5-5c-0.6-0.5-2.1,0.3-3.2,0.4c0.3,1.2,0.3,2.5,0.9,3.5c0.7,1.1,2.2,1.8,2.9,2.8
			c0.6,0.8,0.6,2.1,0.8,3.1c-0.9-0.2-2.1-0.2-2.8-0.7c-1.3-0.8-2.3-2.2-3.6-3.1c-0.6-0.5-1.7-0.7-2.2-0.6C29.2,15,28.9,16.2,29,17
			c0.3,2.8,1,5.1,4.5,5.7c2.2,0.5,4.3,2.2,6.2,3.8c0.8,0.7,1.5,2.6,1.1,3.4c-0.5,0.8-2.2,1.2-3.4,1.5c-1,0.2-2.2-0.2-3.3-0.3
			C33.9,31.6,33.7,31.9,33.5,32.2z"/>
	</g>
</g>
<g class="st2">
	<g>
		<path class="st1" d="M178.3,336.9c0.3,0.1,0.6,0.3,0.9,0.3c1.2,0.2,1.5,0.6,1.4,1.8c-0.1,0.3,0.1,0.7,0.2,1
			c0.1,0.3,0.2,0.6,0.3,1.2c-1.2-0.6-2.1-1.1-2.8-1.6c-0.3-0.2-0.2-0.7-0.3-1.1c-0.1-0.4-0.3-0.9-0.4-1.3c-0.1,0-0.2,0-0.3,0
			c-0.1,0.3-0.2,0.6-0.4,0.9c-0.2,0.3-0.5,0.6-0.7,0.6c-0.3-0.1-0.6-0.5-0.6-0.7c-0.1-0.9,0.1-1.8,0.1-2.7c0-0.3,0.2-0.6,0.1-0.8
			c-0.3-0.5-0.8-0.9-1.2-1.4c-0.1,0.5-0.3,1-0.4,1.5c-0.1,0.3-0.1,0.7-0.2,1.1c-0.1,0-0.2,0-0.3,0c-0.1-0.6,0-1.2-0.2-1.7
			c-0.1-0.3-0.3-0.6-0.5-0.6s-0.5,0.2-0.6,0.5c-0.4,0.7-0.6,1.4,0,2.2c0.3,0.5,0.6,1.1,0.7,1.7c0.1,0.3-0.2,0.7-0.3,1.1
			c-0.3-0.1-0.6-0.2-1-0.4c-0.3-0.2-0.5-0.6-0.7-0.8c-0.1,0-0.2,0-0.4,0c0,0.6-0.2,1.1,0,1.7c0.1,0.8-0.1,1.4-0.9,1.8
			c-0.5,0.2-0.8,0.8-1.3,1.3c-0.1-0.2-0.1-0.4-0.1-0.7c0-0.5,0.1-1-0.1-1.5c-0.2-0.9,0.1-1.5,0.9-1.8c0.4-0.1,0.6-0.4,0.9-0.6
			c0-0.1-0.1-0.2-0.2-0.2c-0.3,0-0.6,0.1-0.9,0.1c-0.3-0.1-0.7-0.4-1-0.5c0.2-0.3,0.3-0.9,0.6-1.2c0.6-0.5,1.2-0.7,1.8-1
			c0.9-0.3,1.1-1.1,1.3-1.7c0-0.2,0-0.6-0.2-0.6c-0.2-0.1-0.5-0.1-0.8,0c-0.7,0.3-1.2,0.7-1.9,1c-0.1-0.1-0.1-0.2-0.3-0.2
			c0.1-0.2,0.2-0.4,0.3-0.7c0.2-0.3,0.6-0.4,0.8-0.5c0.3-0.3,0.7-0.7,1-1.1c-0.1-0.2-0.4-0.4-0.6-0.4c-0.6,0.1-1.2,0.2-1.7,0.5
			c-0.7,0.4-1.1,1.1-1.7,1.6c-0.2,0.2-0.8,0-1.2,0c0-0.4,0-0.8,0.1-1.1c0.1-0.3,0.3-0.7,0.2-1.2c-0.4,0.1-0.8,0.1-1.1,0.4
			c-1.2,1.1-1.7,1.1-2.8-0.1c-0.2-0.2-0.6-0.2-1-0.3c-0.2,0-0.4-0.3-0.5-0.4c0.2-0.1,0.3-0.4,0.5-0.4c0.6-0.2,1.2-0.5,1.9-0.5
			c0.5,0,0.9,0.1,1.3,0.2c0.3,0.1,0.6,0.2,1.1,0.5c-0.1-0.4-0.3-0.7-0.3-0.9c0.1-0.4,0-1.1,0.2-1.2c0.2-0.2,0.9-0.1,1.2,0.1
			c0.6,0.3,1,0.8,1.5,1.3c0.7,0.9,1.5,0.6,2.4,0.3c-0.5-0.3-0.9-0.5-1.3-0.9c-0.1-0.2-0.2-0.4-0.3-0.7c0.3,0,0.5,0,0.8,0
			c0.1,0,0.2,0.1,0.3,0.2c0.4,0.1,0.8,0.2,1.3,0.1c0.1,0,0.3-0.6,0.2-0.7c-0.3-0.4-0.7-0.8-1-0.9c-0.8-0.3-1.7-0.4-2.5-0.5
			c-0.5-0.1-1.1-0.4-0.8-1c0.2-0.3,0.8-0.6,1.2-0.9c0.2-0.1,0.5,0,0.8-0.1c-0.8-0.5-2.2-0.4-2.4-1.7c-0.2-0.9-0.4-1.9-0.6-2.8
			c0.9,0.5,1.9,0.7,2.6,1.3c0.4,0.3,0.7,1,0.8,1.5c0.2,0.4,0.3,0.9,0.4,1.3c0.1,0,0.2,0,0.3,0c0.1-0.3,0.2-0.6,0.3-0.9
			c0.1-0.2,0.5-0.3,0.7-0.5c0.2,0.2,0.4,0.5,0.5,0.6c0,0.6,0.1,1.2-0.2,1.8c-0.2,0.8-0.1,1.7,0.6,2.3c0.2,0.2,0.6,0.3,0.8,0.4
			c0.1-0.3,0.2-0.6,0.2-0.8c0-0.6,0-1.2,0-1.8c0.1,0,0.3,0,0.4,0c0.1,0.8,0.3,1.6,0.5,2.6c0.8-0.6,1.1-1.2,0.8-2
			c-0.2-0.7-0.5-1.4-0.5-2.2c0-0.5,0.3-1.1,0.4-1.5c0.4,0.3,0.8,0.5,1.2,0.8c0.1,0.1,0.2,0.2,0.5,0.6c0.2-1.1,0-2.1,0.4-2.8
			s1.3-1.2,2-1.6c0.1,0.8,0.4,1.6,0.4,2.4c0.1,0.9-0.4,1.5-1.3,1.6c-0.7,0.1-0.9,0.5-0.9,1.2c0.5-0.2,1-0.3,1.4-0.3s0.7,0.2,1.1,0.3
			c-0.1,0.4-0.1,0.9-0.4,1.1c-0.9,0.6-1.9,0.9-2.8,1.4c-0.3,0.2-0.8,0.4-0.9,0.8c-0.2,0.1-0.1,0.7,0.1,0.9c0.1,0.2,0.6,0.2,0.8,0.2
			c0.6-0.2,1.2-0.5,1.8-0.7c0.1,0.2,0.2,0.2,0.3,0.4c-0.3,0.3-0.6,0.5-0.9,0.8c-0.3,0.3-0.6,0.6-0.8,0.8c0.3,0.1,0.7,0.3,1.1,0.3
			c0.7,0.2,1.3-0.1,1.9-0.8c0.3-0.5,0.9-0.9,1.4-1.1c0.3-0.2,0.8-0.1,1.2,0c0.1,0.2,0.1,0.7,0,1.1c0,0.3-0.2,0.6-0.4,0.8
			c0,0.1,0.1,0.3,0.2,0.3c0.4-0.1,0.8-0.2,1-0.5c0.5-0.5,1.2-0.8,1.7-0.3c0.7,1,1.6,1.1,2.6,0.9c0,1.3-1,1-1.5,1.1
			c-0.6,0.2-1.3,0.6-1.9,0.5c-0.6,0-1.2-0.5-2.1-1.1c0.2,0.7,0.3,1.1,0.3,1.5c0,0.3-0.2,0.8-0.3,0.9c-0.2,0.2-0.8,0.1-1.1,0
			c-0.5-0.4-0.9-1-1.4-1.4c-0.5-0.4-1.1-0.8-1.7-1.1c-0.2,0-0.6,0.3-0.9,0.3c0.2,0.3,0.3,0.7,0.6,0.9c0.3,0.2,0.8,0.3,1,0.6
			c0.3,0.2,0.3,0.5,0.5,0.8c-0.3,0-0.6,0.1-0.9,0.1c-0.4-0.2-0.8-0.4-1.2-0.6c-0.2,0-0.5,0-0.7,0c-0.2,0.1-0.1,0.4,0,0.7
			c0.3,0.8,0.7,1.4,1.7,1.3c0.7-0.1,1.4,0.3,2,0.6c0.3,0.1,0.7,0.6,0.6,0.9c0,0.3-0.5,0.5-0.9,0.7c-0.2,0.2-0.7,0.1-0.9,0.2
			C178.3,336.7,178.3,336.8,178.3,336.9z"/>
	</g>
</g>
<g class="st2">
	<g>
		<path class="st1" d="M156.9,249.7c-0.6-0.7-1-1.3-1.8-2.1c-0.5,1.3-0.8,2.2-1.2,3.3c-0.2-0.1-0.4-0.1-0.5-0.2
			c0.2-1,0.4-2.2,0.6-3.4c-0.7,0.2-1.5,0.2-2.4,0.5c1-1.4,3.9-0.5,3.6-3.3c-1.2,0.3-2.4,0.7-3.6,0.9c1.3-1.3,3.6-0.9,4.9-3.3
			c-1,0.1-1.7,0.2-2.6,0.2c1.1-0.7,2.4-0.9,3-1.7c0.7-0.7,0.8-2.1,1.3-3.4c-2.4,0.5-5,0.1-5.9,3.2c-0.1-0.1-0.2-0.2-0.3-0.3
			c0.2-0.5,0.3-1,0.5-1.8c-2.4,0-2.1,2.4-3.4,3.2c0.3-0.8,0.7-1.8,0.9-2.6c-2.1-1-2.2,1.2-3.6,1.9c0.3-0.7,0.5-1.2,0.7-1.9
			c-0.9-0.1-1.8-0.2-2.5-0.2c0-0.2,0-0.2,0-0.4c0.7-0.1,1.4-0.2,2.3-0.3c-0.5-0.8-0.9-1.6-1.5-2.7c2.1,0.5,2.2,3.6,4.7,2.4
			c-0.8-1.1-1.6-2.2-2.4-3.3c0.1-0.1,0.2-0.2,0.2-0.3c0.4,0.2,0.8,0.4,1.1,0.7c0.6,0.7,1.1,1.3,1.6,2.1c0.5,0.8,1,1,2.1,0.5
			c-0.7-0.7-1.2-1.5-1.8-2.2c0.2-0.2,0.2-0.3,0.4-0.5c0.7,0.6,1.6,1,2,1.7c0.6,0.9,1.2,0.9,2.1,0.7c0.9-0.2,1.9-0.5,3.2-0.7
			c-1.2-1.2-2-2.5-3.1-3c-1-0.5-2.5,0-3.8-0.2c0.8-0.3,1.8-0.5,2.9-0.8c-2.1-2.5-4.2-0.4-6.4-0.8c1.3-0.4,2.7-0.7,4.1-1
			c-0.7-2.1-2.4-0.8-3.6-1.6c0.6-0.2,1.2-0.2,2-0.5c-0.7-1-1.4-2-2.2-3c0.2-0.2,0.3-0.3,0.5-0.5c0.7,0.7,1.4,1.4,2.2,2.2
			c0.4-0.7,0.7-1.4,1-2.2c0.7,1.6-1.3,3.3,0.7,4.4c0.7-1.1,1.2-2.2,1.8-3.3c0.7,1.8-2.2,3.3,0.2,5.1c0.5-0.7,0.7-1,1.1-1.6
			c0.2-0.1,0.3-0.1,0.5-0.2c-1.5,3.1,0.9,4.1,2.4,5.6c2.2-2.5,1.3-4.7-1-6.5c0.2-0.2,0.5-0.2,0.7-0.4c0.7,0.7,1.4,1.3,2.3,2.2
			c1-2.7-2.2-3.5-2.4-5.3c0.2-0.2,0.2-0.2,0.4-0.4c0.9,0.9,1.8,1.9,2.7,2.7c0.8-0.7,0.5-1.3,0-1.9c-0.5-0.5-0.7-1-1-1.6
			c0.2-0.2,0.2-0.3,0.4-0.4c0.5,0.5,1,0.9,1.8,1.6c0.2-0.6,0.4-1,0.6-1.5c0.2-0.5,0.5-0.8,0.7-1.2c0.2,0.1,0.2,0.1,0.4,0.2
			c-0.3,0.9-0.6,1.9-0.8,3.1c0.8-0.2,1.5-0.2,2.2-0.3c-0.8,1.2-3.4,0.5-2.7,3.1c1-0.2,2.2-0.4,3.3-0.6c0.1,0.2,0.1,0.2,0.2,0.4
			c-1,0.3-2.1,0.7-3.1,0.7c-0.9,0.2-1.3,0.6-1.2,1.7c0.8-0.2,1.7-0.5,2.4-0.7c0,0.1,0.1,0.2,0.1,0.2c-1.1,0.6-2.5,0.8-3.3,1.8
			c-0.7,0.9-1,2.3-1.6,3.8c2.7-0.4,5.1-0.2,5.8-3.5c0.2,0.2,0.3,0.3,0.5,0.4c-0.2,0.7-0.4,1.3-0.6,2c2.7,0.3,2.1-2.8,3.8-3.7
			c-0.5,1.2-0.8,2.2-1.2,3.4c2.2,0.5,1.9-1.5,3-2.2c-0.2,0.7-0.3,1.3-0.6,2.3c1.2,0,2.4-0.1,3.6-0.1c0,0.2,0.1,0.2,0.1,0.4
			c-1,0.2-2,0.4-3.1,0.6c0.4,0.7,0.7,1.3,1,1.9c-0.1,0.2-0.2,0.2-0.3,0.4c-1-0.8-2.1-1.7-3-2.5c-0.2,0.2-0.3,0.3-0.4,0.4
			c0.5,0.8,1,1.7,1.4,2.5c-1.7-0.3-1.7-2.6-3.8-2.4c0.3,0.7,0.5,1.3,0.7,1.9c-0.1,0.1-0.2,0.2-0.3,0.2c-0.4-0.3-0.7-0.6-1-0.9
			c-0.5-0.8-1.1-1-2.1-0.7c-0.9,0.2-1.9,0.5-3.1,0.7c1.6,2,2.5,4.4,5.8,3.5c-0.1,0.2-0.1,0.3-0.2,0.5c-0.7,0.2-1.3,0.3-2,0.5
			c0.5,1.3,1.4,1,2.3,0.9c0.8-0.2,1.7-0.3,2.6-0.5c0,0.2,0.1,0.3,0.1,0.5c-1.1,0.3-2.2,0.5-3.4,0.7c-0.1,0.2-0.2,0.3-0.2,0.5
			c0.7,0.4,1.2,0.9,1.9,1c0.7,0.2,1.5-0.2,2.2-0.3c0,0.2,0.1,0.2,0.1,0.4c-0.7,0.2-1.3,0.4-2.1,0.5c0.5,1.3,2.2,1.8,1.9,3.6
			c-1-1-1.9-1.9-2.9-2.7c-0.5,0.7-0.7,1.3-1.1,2.1c-0.7-1.3,1.5-3-0.8-3.9c-0.6,1-1.1,2.2-1.7,3.3c-0.5-1.8,1.9-3.3,0.2-5.3
			c-0.5,0.7-0.9,1.3-1.3,1.9c-0.2,0-0.4,0-0.6,0c2.2-3-0.2-4.4-1.9-6.4c-0.9,2.4-2.9,4.4-0.2,6.8c-0.2,0.1-0.5,0.2-0.7,0.2
			c-0.5-0.4-1-0.7-1.4-1.1c-0.2,0.1-0.2,0.2-0.4,0.2c0.4,1.6,1.9,2.7,2.4,4.5c-1.9-0.2-1.6-2.2-2.9-2.7
			C154.7,247.1,157.6,247.8,156.9,249.7z"/>
	</g>
</g>
<g class="st3">
	<g>
		<path class="st1" d="M833,76.9c-0.9,2-1.3,3.3-2,4.4c-0.4,0.6-1.3,0.9-1.9,1.3c0-0.7-0.2-1.5-0.1-2.1c0.2-1,0.6-2.1,1-3.1
			c1.5-3.4,0.3-6.1-2.3-8.7c-0.7,1.6-1.3,3.1-2.2,4.5c-0.8,1.3-1.9,2.3-2.8,3.6c-0.3-0.2-0.6-0.5-1-0.6c0.3-0.8,0.6-1.6,1-2.4
			c1-2.3,2.1-4.5,2.7-6.9c1-3.3-1.9-6.9-5.3-6.9c-0.8,0-1.6,0-2.3-0.1c-4.7-0.1-7.9,4.4-6.1,8.7c0.7,1.9,1.9,3.5,2.6,5.3
			c0.2,0.6-0.2,1.4-0.2,2c-0.6-0.2-1.5-0.3-1.9-0.8c-1.2-1.8-2.2-3.7-3.3-5.6c-3.6,3-4,4.6-2.4,8.7c0.4,1,1,1.9,1.3,3
			c0.2,0.6-0.2,1.4-0.3,2.1c-0.7-0.3-1.7-0.5-2-1c-0.8-1.2-1.3-2.6-1.9-4.2c-1.8,2-3.3,3.7-4.9,5.5c-0.4-0.2-0.7-0.5-1.1-0.7
			c1.3-2.2,2.6-4.4,4-6.8c-2.4-0.3-4.4-0.6-6.5-1c-0.1-0.2-0.2-0.5-0.2-0.7c0.6-0.4,1.1-1,1.8-1.3c0.7-0.2,1.5,0,2.3,0.1
			c5.2,0.2,6.1-0.5,7.8-6.3c-2.3-0.1-4.7,0-6.9-0.2c-0.9-0.1-1.7-0.5-2.5-0.8c0.7-0.6,1.4-1.5,2.2-1.5c2.5-0.3,5.2-0.6,7.7-0.3
			c2.6,0.3,3-1.6,3.8-3c0.5-0.9,0.5-2.3,0.2-3.3c-0.5-1.4-1.5-2.5-2.3-3.8c-0.7-1.4-0.6-3.5-3.1-3.2c-2.4,0.2-5-0.2-6.5,2.5
			c-1,1.9-2.2,3.7-3.5,5.5c-0.6,0.8-1.5,1.3-2.3,1.9c-0.3-0.2-0.6-0.6-0.9-0.8c1.5-2.7,3.1-5.5,4.7-8.2c-3.6-1.3-5-0.9-7,2.2
			c-0.8,1.2-1.7,2.5-2.7,3.6c-0.6,0.6-1.5,0.7-2.2,1.1c-0.2-0.2-0.3-0.5-0.6-0.6c1.3-2,2.6-4,4.1-6.5c-3.1-0.5-5.7-1-8.4-1.4
			c0-0.4-0.1-0.9-0.1-1.3c1.1-0.2,2.3-0.6,3.4-0.6c1.4,0,2.7,0.2,4.9,0.5c-1.1-1.8-1.9-2.8-2.6-4.1c-0.3-0.8-0.3-1.7-0.5-2.6
			c0.8,0.3,1.8,0.4,2.4,1c1,0.8,1.9,1.8,2.4,3c1.5,3.6,4.1,3.3,7.8,2.6c-1.3-1.9-2.3-3.4-3.4-4.9c-0.5-0.7-1.2-1.4-1.5-2.2
			c-0.2-0.6,0-1.4,0-2.1c0.6,0.2,1.6,0.2,2,0.6c1.9,2.3,3.8,4.5,5.2,7.1c1,1.7,2.3,1.7,3.7,1.6c1.6-0.1,3.6,0.7,4.6-1.6
			c0.4-1.1,1.1-2.1,1.7-3.1c2.3-4.3,0.2-8.2-4.8-8.6c-2.8-0.2-5.7-0.5-8.5-1.3c2.7-2.8,6.2-0.5,9.5-1.7c-0.8-2.3-1.4-4.5-4.6-4.7
			c-1.5-0.1-3.1-0.6-4.6-1c-0.5-0.2-0.9-0.9-1.3-1.3c0.6-0.3,1.2-1,1.9-1c1.3,0.1,2.6,0.4,4.4,0.8c-1-2.4-1.9-4.3-2.4-6.2
			c-0.2-0.6,0.3-1.5,0.5-2.3c0.6,0.4,1.4,0.7,1.7,1.3c0.9,1.6,1.5,3.3,2.7,5.7c1-2.1,1.7-3.6,2.6-5c0.4-0.6,1.3-1,1.9-1.5
			c0.1,0.7,0.3,1.6,0.1,2.3c-0.4,1.3-1,2.6-1.5,3.9c-1.7,3.7-1.5,4.8,1.8,7.8c1.9-2.6,3.6-5.2,5.5-7.7c0.3,0.2,0.7,0.3,1,0.6
			c-0.2,0.8-0.2,1.7-0.6,2.4c-0.9,1.6-2,3.1-3,4.8c-2.3,4.1-0.7,7.4,4,8.1c1.2,0.2,2.3,0.3,3.6,0.3c4.8,0.1,7.1-3.2,5.2-7.7
			c-0.8-1.9-1.7-3.8-2.3-5.7c-0.3-1,0.1-2.1,0.1-3.2c0.7,0.7,1.7,1.4,2.2,2.2c1,1.8,1.6,3.7,2.4,5.7c3.7-3.4,3.8-4,2.4-8.4
			c-0.5-1.5-0.2-3.1-0.2-4.6c2.6,0,1.7,2.4,2.5,3.6c0.3,0.5,0.6,1,1,1.9c1.2-1.7,2.1-3.1,3.2-4.5c0.3-0.4,1.1-0.5,1.7-0.7
			c0.1,0.6,0.3,1.4,0.1,1.9c-0.7,1.5-1.7,3.1-2.9,5c2.3,0.3,4.1,0.6,6,1c0.7,0.2,1.3,0.8,1.9,1.3c-0.7,0.3-1.5,0.9-2.2,1
			c-1.1,0.1-2.3-0.1-3.6-0.2c-4.5-0.6-4.8-0.5-6.9,4.3c3.2,0.5,6.3,1,9.4,1.4c0.1,0.4,0.2,0.7,0.2,1.1c-0.9,0.3-1.9,0.9-2.7,0.9
			c-1.9,0-4-0.2-5.9-0.6c-2.3-0.4-3.3,0.8-4.3,2.7c-0.9,1.7-1,2.9,0.4,4.4c1.2,1.4,1.7,3.3,2.8,4.8c0.7,1,1.9,2.1,3,2.2
			c0.8,0.1,1.9-1.1,2.7-1.9c1.9-2.1,3.7-4.4,5.7-6.4c0.3-0.4,1.1-0.3,1.8-0.5c0.2,0.2,0.3,0.4,0.5,0.6c-2.1,2.6-4.1,5.1-6.3,7.8
			c4.2,1.9,6.2,1.5,8.9-1.1c1.7-1.7,3.6-3.2,5.7-5.2c0.8,4.1-3,4.7-4,7.5c2.8,0.3,5.6,0.6,8.6,1c-0.7,2.6-2.5,1.9-3.9,1.9
			c-1.5,0-2.9-0.1-5.2-0.1c1.3,2,2.3,3.4,3.1,4.9c0.3,0.6,0,1.5,0,2.3c-0.6-0.2-1.5-0.3-1.9-0.7c-1-1.1-1.9-2.3-2.5-3.6
			c-1.9-3.6-3-4.2-8-3c1.3,2,2.6,3.8,3.6,5.7c0.4,0.7,0.4,1.7,0.6,2.6c-0.9-0.3-2.1-0.5-2.6-1.1c-1.5-1.9-2.8-3.8-4-5.9
			c-1.5-2.7-4.4-3.1-6.3-0.6c-0.7,0.9-1.5,1.9-2.2,2.8c-0.8,1.3-2.3,3.1-2,4c0.8,2.5,1.9,5.2,5.6,5.2c2.4,0,4.9,0.6,7.3,1
			c0.7,0.2,1.3,0.9,1.9,1.4c-0.8,0.4-1.6,1.1-2.3,1c-2.5-0.2-4.9-0.7-7.7-1.2c1.3,4.4,2.5,5.5,6.1,5.7c1.9,0.2,3.6,0.5,5.6,0.7
			c-0.6,1.9-0.6,1.9-6.9,2.1c0.6,2.1,1.4,4.1,1.8,6.1c0.2,0.8-0.2,1.7-0.4,2.6c-0.6-0.6-1.5-1-1.9-1.8
			C834.3,80.9,833.8,79.2,833,76.9z M817.1,51.1c-0.2-0.3-0.3-0.6-0.4-0.9c-2,0.1-4,0.2-6.8,0.4c1.5,2.3,2.4,3.8,3.7,5.8
			C815,54.3,816.1,52.7,817.1,51.1z M821.1,50.7c1.1,1.9,1.9,3.4,3.1,5.2c1.5-1.8,2.7-3.1,4.4-5.1C825.6,50.8,823.6,50.7,821.1,50.7
			z M829.1,48c-1.5-2.3-2.6-3.9-4-6c-1.2,2.3-2,3.9-3,5.8C824.5,48,826.2,48,829.1,48z M822.4,41.7c-2.5-0.1-4.4-0.1-6.5-0.2
			c1.3,2.1,2.3,3.7,3.6,5.8C820.4,45.3,821.2,43.8,822.4,41.7z M810.7,48c2-0.1,3.5-0.2,5.4-0.2c-1-1.8-1.7-3-2.7-4.7
			C812.4,44.8,811.7,46.1,810.7,48z M819,52.6c-1,1.9-1.7,3.1-2.5,4.6c1.9,0.1,3.1,0.1,4.9,0.1C820.5,55.6,819.9,54.5,819,52.6z"/>
	</g>
</g>
<g class="st3">
	<g>
		<path class="st1" d="M672.4,134.8c0-1.2,0.1-2,0.1-2.9c0.9,0.3,1.7,0.7,2.7,1.1c0-0.2,0-0.7,0.2-1.1c0.2-0.4,0.7-0.6,1.1-1
			c0.2,0.4,0.7,0.7,0.8,1.1c0.1,0.7,0.1,1.5-0.2,2.3c-0.4,1.2,0.2,1.7,1.5,2.3c0-0.9-0.1-1.7,0.1-2.3c0.2-0.5,0.7-0.9,1.1-1.4
			c0.3,0.4,0.8,0.8,0.9,1.3c0.2,0.8,0.1,1.6,0,2.4c-0.1,2.7,1.8,3.9,4.1,2.7c0.4-0.2,0.9-0.4,1.3-0.6c1.3-0.5,1.5-1.4,0.9-2.5
			c-0.8-1.3-1.7-2.6-2.4-3.9c-0.2-0.5-0.2-1.2-0.2-1.9c0.6,0.2,1.3,0.2,1.8,0.5c0.6,0.5,1,1.3,1.5,2c0.8-1,0.8-1.9,0.1-2.7
			c-0.6-0.6-1.1-1.4-1.5-2.2c-0.2-0.6,0-1.2,0-1.9c0.6,0.2,1.1,0.5,1.7,0.7c0.2,0.1,0.4,0.4,0.4,0.4c0.7-0.6,1.4-1.1,2-1.6
			c0.2,0.9,0.6,1.8,0.8,2.7c0.2-0.1,0.5-0.2,0.9-0.2c0.6-0.1,1.4,0,2,0c-0.4,0.5-0.8,1-1.3,1.5c-0.3,0.2-0.7,0.4-1,0.6
			c-1.3,0.5-1.8,1.5-1.6,3.1c0.9-0.5,1.5-1,2.3-1.3c0.4-0.2,1-0.1,1.5-0.1c-0.2,0.5-0.2,1.2-0.5,1.5c-0.9,0.7-1.9,1.3-2.9,1.9
			c-1,0.7-1.5,2.7-1,3.8c1,2,2.3,2.7,3.9,2.2c0.5-0.2,1-0.6,1.3-1c0.8-1.4,1.5-2.8,2.3-4.2c0.2-0.4,0.8-0.6,1.2-1
			c0.2,0.6,0.5,1.2,0.3,1.6c-0.3,1-1,2-1.5,3.1c1.5,0,2.4-0.4,2.9-1.7c0.1-0.2,0.2-0.6,0.3-0.8c0.6-0.7,1.1-1.5,1.8-2.2
			c0.2,0.8,0.5,1.6,0.6,2.3c0.7,0.2,1.5,0.3,2.4,0.5c-0.6,0.7-1.3,1.4-2.1,2.2c0.5,0.2,1.1,0.6,1.7,1c0.3,0.3,0.5,0.8,0.7,1.2
			c-0.6,0.2-1.2,0.6-1.6,0.5c-1-0.3-1.9-1-2.8-1.4c-0.7-0.2-1.5-0.3-2.3-0.5c-0.1,0.2-0.2,0.6-0.3,0.8c0.7,0.5,1.5,0.9,2.2,1.4
			c0.4,0.3,0.6,0.9,1,1.4c-0.6,0.2-1.3,0.6-1.8,0.4c-1-0.3-2-0.8-2.7-1.5c-1.5-1.3-3-0.8-4.2,0c-0.7,0.5-1,1.9-1.1,3
			c-0.2,1.1,1.5,2.3,2.7,2.3c1.6-0.1,3.3-0.2,4.9-0.2c0.4,0,0.8,0.5,1.2,0.7c-0.4,0.4-0.7,1-1.1,1c-1.2,0.2-2.5,0.1-4.1,0.2
			c1,1.7,1.9,2.9,4,2.3c0.6-0.2,1.3-0.3,1.9-0.2c0.5,0,1,0.3,1.5,0.5c-0.4,0.4-0.7,1-1.2,1.3c-0.4,0.2-1,0.2-1.9,0.5
			c0.9,0.7,1.6,1.2,2.1,1.9c0.3,0.3,0.4,1,0.6,1.5c-0.6,0.1-1.2,0.3-1.7,0.2c-0.7-0.2-1.4-0.8-2.2-1.5c-0.2,0.7-0.3,1.2-0.6,1.6
			c-0.3,0.5-0.9,0.7-1.3,1.1c-0.2-0.5-0.4-1-0.5-1.5c-0.1-0.3,0.1-0.7,0.2-1c0.7-1.9-0.4-3.1-2.3-4.4c0.2,1.5,0.4,2.7,0.3,3.8
			c0,0.6-0.4,1.2-0.6,1.8c-0.5-0.4-1.3-0.8-1.3-1.2c-0.2-1.7-0.5-3.4-0.2-5c0.2-1.4-0.4-2.3-1.3-2.8c-0.5-0.2-1.4,0-2,0.2
			c-3,1.2-3.5,3.2-1.5,5.8c0.4,0.5,1,0.9,1.2,1.5c0.2,0.4,0.1,1,0.2,1.5c-0.5,0-1.1,0.1-1.5-0.1c-0.5-0.2-0.9-0.7-1.6-0.9
			c0.6,0.6,1.1,1.3,1.6,1.9c0.4,0.6,1,1.1,1.1,1.8c0.2,0.4-0.1,1.1-0.4,1.3c-0.2,0.2-1,0-1.3-0.2c-0.5-0.4-0.9-1-1.1-1.4
			c-0.8,0.8-1.5,1.5-2.1,2c-0.3-0.8-0.6-1.7-1-2.9c-0.6,0.5-1.1,1.1-1.8,1.5c-0.3,0.2-0.8-0.1-1.3-0.2c0.1-0.4,0.1-1,0.4-1.2
			c0.9-0.8,1.9-1.6,2.9-2.3c1.1-0.7,1.4-1.6,1-3c-1.1,0.6-2.1,1.4-3.1,1.8c-0.5,0.2-1.2-0.1-1.9-0.1c0.3-0.5,0.6-1,1-1.4
			c1.3-1,2.7-1.9,4-2.8c1-0.7,1.2-1.6,0.2-2.4c-1-0.8-1.3-2.8-3.2-1.9c-0.6,0.3-1.3,0.9-1.6,1.5c-0.6,1.1-1,2.4-1.5,3.6
			c-0.2,0.4-0.9,0.6-1.4,0.8c-0.1-0.5-0.4-1-0.2-1.5c0.2-1,0.7-1.8,1.2-3.1c-1.9,0.4-3.6,0.5-4,2.5c-0.2,0.6-0.3,1.1-0.6,1.6
			c-0.3,0.4-0.9,0.6-1.3,0.9c-0.2-0.5-0.4-1-0.4-1.5c0-0.5,0.2-1,0.6-1.8c-0.8,0.2-1.4,0.5-1.9,0.6c-0.3,0-0.7-0.2-1-0.2
			c0.2-0.4,0.2-1,0.4-1.2c0.6-0.5,1.3-0.7,2.3-1.2c-0.6-0.4-1.2-0.6-1.6-1c-0.4-0.4-0.6-1-0.8-1.5c0.6-0.1,1.3-0.4,1.9-0.2
			c1.1,0.3,2.1,1.1,3.2,1.5c0.8,0.2,1.8,0,2.7,0c0-0.2,0.1-0.4,0.1-0.6c-0.9-0.4-1.8-0.7-2.6-1.3c-0.4-0.3-0.5-1-0.6-1.5
			c0.6-0.1,1.2-0.4,1.6-0.2c1.4,0.6,2.7,1.5,4.1,1.9c0.6,0.2,1.9,0.1,2.3-0.4c1.3-1.2,0.9-4-0.6-5.1c-0.6-0.4-1.5-0.6-2.3-0.6
			c-1.4,0-2.8,0.3-4.2,0.4c-0.4,0-0.8-0.5-1.1-0.8c0.3-0.3,0.6-0.9,1-1c0.9-0.2,1.9-0.2,3.1-0.4c-0.9-1.3-1.8-1.9-3.1-1.8
			c-0.8,0.1-1.6-0.2-2.3-0.4C671.7,135.6,672.2,135,672.4,134.8z M689.7,145.2c0.4-1.8-1-4.4-2.6-4.8c-1.3-0.2-3.5,1.5-3.8,3.2
			c-0.4,1.9,0.8,4.6,2.2,4.8C687.3,148.9,689.2,147.4,689.7,145.2z"/>
	</g>
</g>
<g class="st3">
	<g>
		<path class="st1" d="M20.9,109.1c-0.7-0.6-1.4-1-1.9-1.7c-0.5-0.7-0.5-1.7-0.7-2.6c0.9,0.1,2,0,2.7,0.3c0.9,0.4,1.9,1.1,2.4,1.9
			c2.2,3.4,5.1,2.1,8,1.4c-1.1-3.9-3-5.5-6.6-5.9c-0.8-0.1-1.7-0.1-2.5-0.4c-0.7-0.3-1-0.9-1.6-1.4c0.7-0.5,1.1-1.2,1.8-1.4
			c0.7-0.3,1.6,0,2.4,0c0.1-0.3,0.1-0.5,0.2-0.7c-0.7-0.3-1.6-0.7-2.3-0.7c-2.6-0.7-4.2-2.7-3.9-5c0.3-2.1,2.4-3.8,4.3-3.6
			c2.3,0.3,4.5,2.8,4.3,5.2c0,0.8,0.1,1.8,0.2,2.7c0.3,0,0.5,0,0.7,0c0.4-1.2,0.7-2.4,1.2-3.6c0.3-0.6,1.2-0.7,1.7-1.2
			c0.3,0.7,0.7,1.3,0.7,2c0,0.8-0.2,1.7-0.6,2.5c-2,4.2,0.9,6.6,3.5,9.6c1.2-2.7,3.6-4.8,1.2-8c-0.9-1.3-1.2-3.2-1.6-4.9
			c-0.2-0.7,0.6-1.4,0.8-2.2c0.7,0.5,1.5,0.7,1.8,1.3c0.6,1.1,0.7,2.3,1.2,3.9c1.6-1.6,1.3-2.7,0.7-4.4c-0.5-1.3-0.4-3.5,0.5-4.5
			c0.9-1.1,3.1-1.9,4.5-1.7c1.2,0.3,2.7,1.9,3.1,3.2c0.7,2.2-0.7,3.8-2.7,4.7c-1.6,0.7-2.7,1.5-2.4,3.6c0.9-0.3,1.8-0.5,2.7-0.6
			c0.6,0,1.2,0.4,1.8,0.6c-0.3,0.7-0.5,1.5-0.9,1.9c-0.6,0.5-1.4,0.6-2.2,0.7c-3.6,0.9-4.5,2-5,6.4c2.9-0.7,6.1-0.4,7.6-3.7
			c0.9-0.8,1.8-1.9,2.7-2.7c0.5-0.5,1.3-0.4,2.1-0.7c0,0.7,0.2,1.5-0.2,2.1c-0.5,0.9-1.2,1.8-1.8,2.7c0.2,0.3,0.3,0.5,0.5,0.7
			c1.1-0.6,2.3-0.8,3.2-1.7c2.1-1.7,4.5-2.1,6.2-0.6c1.5,1.3,1.5,4,0.1,5.6c-1.7,1.8-4.4,1.9-6.5,0.2c-0.7-0.5-1.4-0.7-2.2-1.1
			c-0.2,0.3-0.3,0.5-0.5,0.7c0.8,1,1.9,1.9,2.5,3.1c0.3,0.7,0,1.6,0,2.4c-0.7-0.2-1.6-0.2-2.2-0.5c-0.6-0.3-1-0.9-1.5-1.4
			c-3.5-3.6-5-3.7-10.1-1.2c1.3,1.7,2.6,3.5,3.9,5.1c0.4,0.4,1.2,0.6,1.9,0.6c1.8,0,3.6-0.3,5.4-0.3c0.7,0,1.2,0.4,1.9,0.7
			c-0.5,0.7-0.8,1.7-1.6,2c-1.4,0.5-2.9,0.5-4.4,0.7c0,0.3,0,0.5-0.1,0.7c0.7,0.2,1.4,0.4,2.2,0.6c2.4,0.3,4,2.1,3.8,4.3
			c-0.2,2.2-2.2,3.8-4.5,3.6s-3.7-2-3.6-4.5c0-0.8-0.2-1.7-0.3-2.6c-0.3,0-0.7,0-0.9,0c-0.3,1.3-0.6,2.8-1,4.1
			c-0.4,0.9-1.2,1.7-1.9,2.6c-0.3-1-0.7-2.1-0.7-3c0.2-1.6,0.5-3.3,1.2-4.7c1-1.8,0.7-3-0.7-4.3c-1-1-2-2.2-3-3.2
			c-2.9,3.1-3.1,4.7-1.2,7.8c0.7,1.1,1.1,2.3,1.4,3.6c0.1,0.5-0.6,1.1-0.7,1.7c-0.6-0.3-1.2-0.5-1.6-0.9c-0.7-1-1.3-2.2-2.1-3.4
			c-1.9,1.4-1.4,2.7-0.7,4.2c1.2,2.3,0.1,5.1-2.2,6.2c-2,0.9-4.5-0.1-5.6-2.2c-1.1-2.2,0.1-4.8,2.4-5.9c1-0.5,1.8-1.3,2.7-2.1
			c-0.2-0.3-0.3-0.7-0.5-1c-1.3,0.2-2.7,0.5-3.9,0.4c-0.6,0-1.2-0.7-1.7-1.1c0.4-0.6,0.7-1.4,1.2-1.7c0.9-0.4,2.1-0.4,3.1-0.6
			c4-0.6,5.1-1.8,5.7-6.1c-4.7-0.7-6.7,0.3-8.8,3.7c-0.5,0.7-1.6,1.2-2.3,1.8c0-0.9,0-2,0.1-2.9c0.1-0.5,0.3-0.9,0.1-2
			c-0.7,0.5-1.7,0.7-2.2,1.3c-1.6,2.1-3.6,2.5-5.6,1.3c-1.2-0.7-2.4-2.2-2.7-3.6c-0.2-0.9,1-2.5,2.1-3.2c1.4-0.8,3.2-1.2,4.8,0.3
			c0.7,0.7,2.1,0.8,3.1,1.2C20.7,109.8,20.9,109.4,20.9,109.1z"/>
	</g>
</g>
<g class="st0">
	<g>
		<path class="st1" d="M762.1,243.3c0.7,0.2,1.4,0.2,1.9,0.5c0.4,0.2,0.6,0.7,0.9,1c-0.4,0.2-0.8,0.5-1.2,0.4
			c-4.2-0.8-4.2-0.8-7.3,2c-0.1,0.1-0.2,0.2-0.3,0.6c1.6,0.6,3.2,1.5,4.8,1.5c1.5,0.1,3.1-0.6,4.8-1c0.3,1.4-1.4,1.2-1.9,2.1
			c0.9,0.6,1.7,1,2.5,1.7c0.2,0.2,0.2,0.8,0.4,1.2c-0.4,0.1-1,0.2-1.3,0.1c-0.8-0.4-1.6-0.9-2.5-1.5c-0.3,1.2,0.7,2.7-1.3,3.4
			c0.4-4.1-2.3-5-5.4-5.6c-0.7,2-0.1,4,1.6,5.2c0.5,0.3,1,0.6,1.3,0.9c0.2,0.2,0.2,0.6,0.4,1c-0.4,0.2-0.8,0.4-1.1,0.3
			c-0.6-0.2-1.2-0.7-1.9-1.1c-0.8,1.1,0.7,3-1.3,3.9c-0.2-1.5-0.2-2.8-0.4-4.2c-0.1,0-0.2-0.1-0.3-0.1c-0.4,0.5-0.8,1-1.2,1.5
			c-0.4,0.4-0.9,0.8-1.4,1.2c-0.1-0.1-0.2-0.2-0.3-0.2c0.2-0.3,0.2-0.7,0.4-1c0.5-0.6,1-1.5,1.6-1.9c1.2-0.9,1.4-2.1,1.1-3.4
			c-0.2-0.9-0.2-1.9-0.3-3.1c-1.7,1-3.4,1.9-4.6,3.1c-0.6,0.6-0.3,1.9-0.6,2.9c-0.1,0.6-0.4,1-0.6,1.6c-0.2-0.1-0.3-0.1-0.5-0.2
			c-0.1-1-0.2-1.9-0.2-3.1c-1.1,0.7-2,1.3-3,1.9c-0.1-0.1-0.2-0.2-0.3-0.3c0.1-1.5,2-1.6,2.7-2.9c-0.9-0.2-1.7-0.3-2.4-0.6
			c-0.3-0.1-0.6-0.4-0.9-0.6c0.4-0.2,0.8-0.8,1.2-0.8c0.9,0,1.9,0.2,2.7,0.4c1.3,0.4,2.3,0,3.3-0.8c0.5-0.4,1.1-0.7,1.9-1.2
			c-2-1-3.4-2.5-5.8-1.8c-1.2,0.4-2.7,0.3-4.1,0.4c0.5-2,2.2-1.1,3.4-1.9c-1-0.5-1.9-0.8-2.8-1.4c-0.3-0.2-0.5-0.7-0.7-1
			c0.5-0.2,1-0.4,1.3-0.3c0.8,0.2,1.6,0.6,2.4,1c0.7-1.2-1.5-2.7,0.8-3.8c0.6,3.6,2.2,6.4,6.2,6.9c-0.4-2.3,0.2-5-2.6-6.5
			c-0.6-0.2-1.1-0.6-1.5-1.1c-0.2-0.3-0.2-0.8-0.2-1.2c0.4,0,0.9-0.2,1.1-0.1c0.6,0.3,1.1,0.7,2,1.3c0-1-0.1-1.7-0.1-2.3
			c-0.1-0.7-0.1-1.5,1.1-1.8c0.2,1.5,0.2,2.8,0.4,4.2c0.2,0.1,0.2,0.1,0.4,0.2c0.7-0.7,1.5-1.5,2.3-2.3c0.2,0.1,0.2,0.2,0.4,0.3
			c-0.2,0.3-0.2,0.8-0.5,1c-3.1,2.3-1.8,5.2-1.3,8c2.5-0.6,4.3-3,4.5-5.9c0.1-0.6,0.4-1.1,0.6-1.8c0.2,0.1,0.4,0.1,0.6,0.2
			c-0.1,1.1-0.2,2.2-0.2,3.6c1.3-0.8,2.3-1.5,3.5-2.1c0.2,0.2,0.2,0.2,0.4,0.4C764.8,241.9,762.8,241.8,762.1,243.3z"/>
	</g>
</g>
<g class="st2">
	<g>
		<path class="st1" d="M629.8,34.1c0.1-1.1-0.2-2.2,0.2-2.7c0.4-0.4,1.5-0.4,2.3-0.2c0.8,0.2,1.7,0.5,2.3,1c1.5,1,2.7,0.8,4.4,0
			c-0.6-1.2-1.9-2.5-1.6-3.5c0.2-0.9,1.9-1.5,3.2-2.3c-0.9-1.3-1.7-3-3.9-3.1c-0.2,0-0.6,0-0.8-0.2c-1-0.5-1.9-1-2.8-1.6
			c0.6-0.6,1.2-1.4,1.9-2.2c-0.9-1.3-1.9-2.7-2.8-4.3c-0.3-0.6-0.1-1.4-0.1-2.1c0.7,0.2,1.7,0.2,2.1,0.7c1.1,1.3,1.9,2.7,2.9,4.2
			c0.3-0.1,0.5-0.1,0.6-0.2c0.6-0.2,1.4-0.5,2-0.7c0.2,0.7,0.7,1.5,0.6,2.1c-0.3,1.9-0.2,3.6,1.7,4.8c0.1,0.1,0.2,0.1,0.4,0.2
			c2-3,3.9-3.1,6.9-1.6c1-1.1,1.4-2.4,0.4-3.8c-0.2-0.2-0.3-0.5-0.3-0.8c-0.1-0.9-0.1-1.9-0.1-2.8c0.9,0.1,1.7,0.2,2.8,0.4
			c0.5-1.3,0.9-2.9,1.6-4.4c0.2-0.6,1-0.9,1.6-1.3c0.2,0.6,0.5,1.4,0.3,2c-0.3,1.5-0.9,3-1.3,4.4c0.2,0.2,0.3,0.3,0.5,0.3
			c0.7,0.2,1.5,0.4,2.2,0.6c-0.6,0.6-0.9,1.6-1.6,2c-2.2,1-3.6,2.5-3.7,4.6c1.4,0.5,2.9,0.6,3.7,1.5c0.6,0.8,0.5,2.3,0.6,3.7
			c1.5,0,3.1,0.1,4.2-1.8c0.2-0.3,0.4-0.6,0.7-0.8c0.7-0.4,1.5-0.9,2.3-0.9c0.3,0,0.6,1.1,1.1,2c2.3-0.2,4.8-0.6,7.3-0.9
			c0.1,0.3,0.2,0.6,0.2,0.9c-1.5,2.7-5,1-6.9,2.3c-0.2,1-0.3,1.8-0.5,2.6c-0.9-0.2-2-0.2-2.7-0.6c-1.7-1.2-3.3-1.2-4.6-0.6
			c0.2,1.6,0.8,3.1,0.3,4.2c-0.5,1-2.1,1.5-3.4,2.3c0.7,1.2,1.6,2.6,3.7,2.3c0.1,0,0.2,0,0.2,0c1,0.5,2,1,3.1,1.5
			c-0.5,0.8-1,1.6-1.6,2.7c0.8,1,1.9,2.3,2.7,3.8c0.4,0.7,0.3,1.7,0.5,2.6c-0.8-0.3-1.8-0.6-2.3-1.1c-0.8-0.7-1.3-1.9-2.1-2.7
			c-0.3-0.4-1.1-0.7-1.5-0.6c-1.7,0.5-2.1-0.5-2-1.8c0.2-2.2-0.9-3.4-2.4-4.5c-2.4,3-3.6,3.1-6.5,0.8c-1.1,1.5-1.5,2.8-0.8,4.6
			c1,2.3,0.6,2.7-1.7,3.5c-0.4,0.2-0.7,0.6-0.9,1c-0.4,1-0.6,2.2-1.2,3.1c-0.3,0.6-1.1,1-1.7,1.5c-0.2-0.7-0.6-1.5-0.5-2.2
			c0.3-1.5,1-2.9,1.5-4.5c-0.4-0.2-0.7-0.4-1-0.6c-1.7-0.8-1.8-1.5-0.2-2.4c1.9-1.3,3.9-2.4,3.7-5.2c-1.4-0.1-3.1,0.3-4.1-0.4
			c-0.7-0.6-0.6-2.4-0.8-4c-1.2-0.1-2.7,0-3.6,1.8c-0.1,0.2-0.2,0.4-0.4,0.5c-0.7,0.5-1.5,0.9-2.3,1.4c-0.3-0.6-0.7-1.4-1.2-2.3
			c-1.4,0.2-3.1,0.5-4.8,0.6c-0.7,0-1.5-0.4-2.2-0.6c0.6-0.5,1.1-1.1,1.8-1.3C627.1,34.5,628.6,34.4,629.8,34.1z M653.5,26.7
			c-3.3,0.2-3.6,0.5-3.9,3.4C652.6,30.2,653.1,29.9,653.5,26.7z M646.9,29.3c1.5-2.3,1-3.8-1.3-5.1
			C644.2,26.9,644.2,27.3,646.9,29.3z M647.9,34.9c-1.6,1.9-1.4,3,1.1,4.5C650.4,37.1,650.3,36.4,647.9,34.9z M645.3,33.8
			c-3,0-3.4,0.3-4.2,3.1C643.8,36.7,644.9,36,645.3,33.8z M654.6,34.1c-1.3-2.3-2.2-2.6-4.4-1C651.6,35.2,651.7,35.3,654.6,34.1z
			 M640.8,29.5c1.2,1,1.6,3.1,3.9,1.7C643.7,29.8,643.1,28.2,640.8,29.5z"/>
	</g>
</g>
<g id="WBVflh_2_" class="st4">
	<g>
		<g>
			<g>
				<path class="st1" d="M47.3,206.9c0.5,0.3,0.9,0.6,1.5,0.7c0.3,0.1,0.7,0,0.9,0.1c0.4,0.2,0.7,0.5,1.1,0.7
					c-0.4,0.2-0.7,0.3-1.1,0.5c-0.2,0-0.4,0-0.5,0c-0.1,0.6-0.2,1.1-0.4,1.6c-0.5-0.2-0.8-0.5-1.5-0.8c-0.1,0.3-0.2,0.7-0.4,0.9
					c-0.2,0.2-0.4,0.4-0.7,0.6c-0.2-0.3-0.6-0.6-0.6-0.8c0-0.7,0.4-1.2,0.5-1.9c0.1-0.5,0-1,0-1.5c-0.2,0-0.4,0-0.6-0.1
					c-0.5,0.9-0.7,2.1-1.2,3c-0.2,0.5-0.7,0.8-1,1.2c-0.1-0.6-0.4-1.1-0.3-1.6c0.4-1.1,0.9-2.2,1.3-3.3c0.2-0.4,0.3-1,0-1.3
					c-0.9-1.3-2.1-2.6-3.3-3.8c0.2,1.5-0.4,3.2,1.5,4.1c0.3,0.1,0.3,0.5,0.5,0.7c-0.5,0.2-0.8,0.3-1.2,0.5c-0.2,0.4-0.6,0.7-0.7,1
					c-0.4-0.3-0.7-0.6-1.2-0.9c-0.2,0.1-0.4,0.3-0.6,0.3c-0.3,0-0.7,0-1,0c0.1-0.3,0-0.8,0.2-0.9c2.2-1.2,1.4-3,1.1-4.7
					c0-0.3-0.1-0.5-0.4-1.2c-0.4,0.8-0.6,1.4-0.7,1.9c-0.3,0.8-0.4,1.7-0.7,2.3c-1.4,2.3-0.5,4,1.3,5.6c0.2,0.2,0.4,0.3,0.5,0.5
					c0.1,0.3,0.1,0.6,0.1,0.8c-0.3,0-0.7,0.1-0.8-0.1c-0.8-0.7-1.6-1.5-2.6-2.1c0.3,1.1,0.7,2.2,1,3.4c-0.2,0.1-0.4,0.2-0.6,0.3
					c-0.4-0.5-0.8-0.9-1.2-1.4c-0.5,0.3-0.9,0.7-1.4,0.9c-0.3-0.5-0.5-0.8-0.7-1.4c-0.3-0.2-0.7-0.5-1-0.7c0.5-0.3,0.8-0.7,1.2-0.8
					c0.5-0.3,0.9-0.4,1.4-0.6c0-0.2-0.1-0.3-0.1-0.5c-0.8,0.1-1.7,0.1-2.4,0.1c-0.7,0-1.8,0.4-2.2-0.9c1.5-0.2,2.9-0.4,4.3-0.6
					c0.9-0.1,1.4-0.4,1.7-1.3c0.4-1.3,0.8-2.5,1.3-3.8c-1.7,0.4-2.2,1-2.2,2.5c0,0.6-0.3,1-0.5,1.5c-0.4-0.4-0.7-0.8-1.2-1.4
					c-1.1,0-1.2-0.1-0.9-1.5c-0.2-0.1-0.5-0.2-0.7-0.4c-0.3-0.3-0.5-0.6-0.7-0.8c0.4-0.1,0.8-0.3,1.1-0.2c2.2,1,3.2-0.6,4.4-1.6
					c0-0.2-0.1-0.3-0.1-0.5c-2,0.3-3.9,0.4-5.8,0.7c-0.5,0.1-0.9,0.7-1.1,1c-0.5,0.8-0.6,1.9-1,2.7c-0.2,0.3-0.7,0.5-1,0.7
					c-0.1-0.4-0.3-0.7-0.3-1c0.1-0.7,0.4-1.2,0.7-2.2c-0.5,0.6-0.7,0.9-1,1c-0.4,0.2-0.8,0.2-1.3,0.4c0.1-0.4,0.1-0.7,0.2-1.1
					c0.1-0.2,0.2-0.3,0.3-0.5c-1.5-0.9-1.5-0.9,0-2.1c-0.2-0.3-0.5-0.6-0.6-0.8c-0.1-0.3-0.1-0.7-0.1-0.9c0.4,0.1,0.7,0.1,1,0.3
					c0.4,0.3,0.6,0.7,0.8,1c0.3,0.3,0.7,0.4,1.1,0.6c0.1-0.2,0.3-0.3,0.4-0.5c-0.6-0.7-1.1-1.6-1.7-2.3c-0.3-0.4-0.3-0.8-0.4-1.3
					c0.5,0.2,0.9,0.4,1.3,0.7c0.6,0.6,1,1.1,1.3,1.8c0.6,1.3,1.5,1.4,2.7,1.2c1.2-0.2,2.3-0.3,3.9-0.5c-1.3-0.9-2.3-1.4-3.6-0.7
					c-0.5,0.3-1,0.1-1.6,0.2c0.2-0.5,0.3-0.9,0.5-1.5c-0.2-0.3-0.4-0.7-0.8-1.5c0.7,0,1.1,0,1.5,0c0.1-0.1,0.1-0.2,0.2-0.3
					c0.2-0.4,0.4-0.8,0.6-1.2c0.3,0.4,0.7,0.7,0.7,1.1c0,1,0.6,1.6,1.5,1.9c0.8,0.2,1.6,0.6,2.4,0.8c0.1-0.1,0.2-0.2,0.3-0.3
					c-1.5-1.7-2.8-3.5-4.4-5c-0.4-0.4-1.4-0.2-2.1-0.1c-0.7,0-1.6,0.3-2.3,0.3c-0.3,0-0.6-0.3-0.8-0.6c0.2-0.2,0.4-0.6,0.7-0.7
					c1-0.2,2.2-0.5,3.4-0.7c-0.7-1.2-2.7,0-3.1-1.8c0.6-0.1,1-0.2,1.6-0.3c-0.2-0.6-0.4-1.2-0.6-1.8c0.1-0.1,0.2-0.3,0.3-0.4
					c0.6,0.4,1.1,0.7,1.8,1.1c0.1-0.3,0.2-0.6,0.4-0.8c0.3-0.2,0.6-0.4,0.9-0.6c0.1,0.4,0.4,0.7,0.3,1c-0.1,0.7-0.4,1.6-0.6,2.3
					c0.2,0.1,0.4,0.1,0.6,0.2c0.6-1,0.9-2,1.6-3c0.2-0.3,0.6-0.5,0.8-0.7c0.2,0.4,0.5,0.8,0.4,1.1c-0.4,1-1,2-1.4,3
					c-0.1,0.5,0,1.1,0.2,1.5c0.7,1.2,1.7,2.2,2.6,3.5c0.8-2.5-1-3.3-2.5-4.3c0.1-0.2,0.1-0.3,0.2-0.5c0.6,0.1,1.2,0.1,1.8,0.2
					c0.2-0.6,0.5-1.2,0.7-1.9c0.4,0.4,0.7,0.7,1.2,1.2c0,0,0.3-0.2,0.6-0.2c0.4,0,0.7,0.1,0.9,0.2c-0.1,0.4-0.1,0.8-0.4,1
					c-1.4,1-1.3,2.2-0.5,3.7c0.7-1.6,1.4-3.2,1.9-4.9c0.1-0.5-0.7-1.1-1-1.7s-0.9-1-1.3-1.6c-0.1-0.3,0-0.7,0-0.9
					c0.3,0.1,0.7,0.1,0.9,0.4c0.7,0.7,1.3,1.6,2,2.4c0.2,0,0.4,0,0.6-0.1c0-0.6,0-1.2,0-1.8c-0.1-0.6-0.2-1.1-0.3-1.6
					c0.5,0.2,0.9,0.4,1.4,0.5c0.5-0.3,0.9-0.6,1.4-0.8c0.2,0.5,0.3,0.9,0.5,1.5c0.3,0.1,0.8,0.4,1.3,0.6c0,0.1,0,0.3,0,0.4
					c-1,0.4-2.2,0.8-3.2,1.2c0,0.1,0.1,0.3,0.1,0.4c1.4,0.3,3.1-1.1,4.8,0.6c-1.7,0.4-3.2,0.7-4.6,1c-1,0.2-1.5,0.7-1.9,1.6
					c-0.7,1.6-1.4,3.2-1.8,5.1c0.7-0.6,1.5-1.2,2.3-1.8c1-0.7,0.7-1.7,0.7-2.6c0-0.3,0.3-0.6,0.5-0.8c0.2,0.2,0.6,0.3,0.7,0.6
					c0.2,0.3,0.2,0.5,0.3,0.7c0.7-0.1,1.3-0.2,1.9-0.3c-0.1,0.6-0.2,1-0.4,1.7c0,0,0.2,0.1,0.4,0.2c0.3,0.3,0.5,0.5,0.7,0.7
					c-0.3,0.1-0.7,0.4-0.9,0.3c-2.3-0.1-2.9,0.2-4.7,2.2c2.1-0.2,3.9-0.3,5.8-0.5c0.3,0,0.6-0.7,0.7-1c0.5-1,0.8-2.1,1.3-3
					c0.2-0.3,0.7-0.4,1-0.6c0,0.4,0.2,0.8,0.1,1.1c-0.4,1-0.9,2-1.3,2.9c0.2,0.1,0.3,0.3,0.4,0.3c0.3-0.2,0.7-0.4,0.9-0.7
					c0.4-0.5,0.7-1.1,1-1.6c0.2-0.3,0.7-0.4,0.9-0.5c0.1,0.4,0.3,0.7,0.2,1.1c-0.1,0.4-0.3,0.7-0.5,0.9c0.7,0.2,1.4,0.4,2,0.5
					c0,0.2,0,0.4,0,0.5c-0.7,0.2-1.2,0.5-1.9,0.7c0,0.2-0.1,0.3,0,0.4c0.2,0.5,0.5,0.9,0.7,1.5c-0.6-0.2-1.1-0.4-1.6-0.7
					c-0.4-0.2-0.7-0.6-1.1-0.8c-0.1,0.1-0.2,0.2-0.3,0.3c0.5,0.7,1,1.3,1.3,2.1c0.2,0.4,0,0.7,0.1,1.2c-0.4-0.2-0.8-0.3-0.9-0.6
					c-1.3-2.7-3.4-3.2-6.1-2.5c-0.8,0.2-1.7,0.1-2.5,0.2c1.6,1.3,2.9,1.4,4.3,0.6c0.3-0.2,0.7-0.1,1-0.2c0,0.3,0.1,0.7,0.1,0.9
					c0,0.5-0.2,0.9-0.3,1.6c-0.2,0.1-0.6,0.2-1,0.4c0,0.4,0.2,0.7,0.2,1c0,0.3-0.2,0.7-0.3,0.7c-0.3,0-0.6-0.2-0.7-0.4
					c-0.1-0.1-0.1-0.4-0.2-0.6c-0.3-1.7-1.5-2.2-3.5-2.2c0.8,1,1.5,1.8,2.1,2.5c1.1,1.8,2.6,2.2,4.6,1.5c0.4-0.1,0.7-0.3,1.1-0.2
					c0.3,0.1,0.5,0.3,0.7,0.5c-0.2,0.2-0.3,0.6-0.6,0.7c-0.9,0.3-1.9,0.6-2.8,0.7C47.5,206.6,47.4,206.8,47.3,206.9z"/>
			</g>
		</g>
	</g>
</g>
<g class="st4">
	<g>
		<path class="st1" d="M69.5,422.8c0-0.5,0-1-0.1-1.4c-0.6-1.9-0.3-2.5,1.4-3.1c0.4-0.1,0.9-0.6,1.3-1c0.3-0.3,0.7-0.7,1.3-1.3
			c0,2,0,3.5-0.1,5c0,0.5-0.7,0.8-1.2,1.2c-0.5,0.5-1.1,1-1.5,1.4c0,0.1,0.2,0.2,0.2,0.4c0.5,0,1-0.1,1.5-0.1c0.5,0,1.2,0.3,1.2,0.5
			c0.1,0.4-0.1,1.2-0.5,1.3c-1.2,0.7-2.5,1.2-3.7,1.7c-0.4,0.2-1,0.2-1.1,0.5c-0.4,0.8-0.7,1.8-1,2.6c0.7-0.1,1.6-0.3,2.4-0.5
			c0.5-0.2,1.1-0.4,1.6-0.6c0.1,0.2,0.2,0.3,0.2,0.5c-0.7,0.5-1.5,0.9-2.2,1.5c-0.3,0.3-0.6,0.9-0.5,1.1s0.7,0.6,1,0.6
			c1.2-0.1,2.4-0.3,3.1-1.6c0.4-0.8,1-1.6,1.7-2.2c0.4-0.3,1.1-0.2,1.6-0.4c0,0.5,0.3,1,0.1,1.5c0,0.5-0.4,1.1-0.5,1.5
			c0.1,0.2,0.2,0.3,0.2,0.4c0.8-0.4,1.6-0.6,2.2-1c1-0.8,2-1,3.1-0.1c0.6,0.5,1.7,0.5,2.7,0.9c-0.2,0.2-0.6,0.5-0.8,0.6
			c-0.7,0.4-1.4,0.7-2,1.2c-1,0.9-2.1,1-3.1,0.1c-0.4-0.4-0.9-0.5-1.4-0.9c-0.1,0.1-0.2,0.3-0.3,0.4c0.2,0.3,0.5,0.7,0.6,1.1
			c0.1,0.6,0.1,1.2,0,1.8c-0.7,0-1.4,0.2-2,0c-0.9-0.4-1.9-1-2.6-1.8c-1.1-1-2.1-0.6-3.2-0.4c-0.4,0.1-0.8,0.4-0.8,0.7
			c0,0.4,0.2,0.8,0.6,1c0.9,0.6,1.9,1.2,2.8,1.8c0,0.2-0.1,0.3-0.1,0.5c-0.4,0-0.7,0.1-1.1,0c-0.4-0.2-0.8-0.5-1.3-0.7
			c-0.6-0.2-1.4-0.4-2.1-0.5c-0.1,0.3-0.2,0.8-0.1,1c0.6,0.7,1.1,1.5,1.9,2c1,0.6,2.3,0.7,3.4,1.2c0.5,0.3,0.7,1,0.9,1.6
			c-0.5,0.2-1,0.6-1.5,0.7c-0.5,0.2-1,0.1-1.8,0.5c0.5,0.4,0.9,1,1.3,1.3c2.4,0.9,2.7,1.6,1.9,3.8c-0.2,0.4,0.2,1,0.2,1.5
			c0,0.3-0.2,0.6-0.2,0.9c-0.3-0.1-0.7-0.1-1-0.3c-0.8-0.7-1.5-1.3-2.1-2.2c-0.5-0.6-0.6-1.3-0.7-2c-0.1-0.4-0.1-1-0.3-1.9
			c-0.5,0.5-0.7,0.8-1,1c-0.6,0.3-1.4,0.8-1.9,0.5c-0.4-0.2-0.7-1.2-0.7-1.7c0-1,0.3-1.9,0.7-2.8c0.7-1.6-0.3-2.5-1.4-3.5
			c-0.1,0.8,0,1.6-0.2,2.4c-0.1,0.3-0.5,0.6-0.7,0.9c-0.2-0.3-0.5-0.6-0.6-1c-0.1-0.2,0-0.5,0-0.7c-0.3-0.6-0.5-1.2-0.8-1.8
			c0-0.1-1,0-1.1,0.2c-0.3,0.7-0.6,1.4-0.4,2.1c0.2,1.3,0.7,2.5,1,3.8c0.1,0.7,0.3,1.8-0.8,1.8c-0.7,0-1.4-0.6-2-1
			c-0.3-0.2-0.4-0.7-0.8-1c-0.1,1.6,1,3.2-0.5,4.5c-1.1,1-2.3,1.9-3.4,2.8c-0.1-1.6-0.3-3-0.1-4.4c0.1-0.8,0.8-1.6,1.3-2.1
			c0.4-0.5,1.1-1,1.5-1.4c-0.1-0.2-0.2-0.2-0.2-0.4c-0.5,0-1,0.3-1.5,0.2c-0.4-0.1-0.8-0.4-1.2-0.5c0.2-0.3,0.3-1,0.6-1
			c0.8-0.5,1.7-1,2.6-1.1c1.4-0.3,2.2-1,2.7-2.3c0.2-0.4,0-1,0.1-1.5c-0.4,0.1-1,0.1-1.3,0.3c-0.8,0.4-1.6,0.9-2.4,1.4
			c-0.1-0.2-0.2-0.3-0.4-0.6c0.9-0.8,1.9-1.5,3.1-2.5c-1.3-0.6-2.3-0.6-3.3,0.4c-0.8,0.9-1.5,1.7-2.5,2.4c-0.6,0.5-1.6,0.4-2.3,0.6
			c0.1-0.7,0.1-1.5,0.1-2.2c0-0.3,0.3-0.5,0.6-1c-1.6,0.6-2.9,1.5-4.1,1.6c-1.3,0-2.5-1-3.6-1.5c0.9-0.8,1.9-1.6,2.9-2.3
			c1.1-0.7,2.3-0.6,3.1,0.6c0.5,0.8,1.2,0.9,2.2,0.3c-0.6-0.6-1.1-1.1-1.4-1.6c-0.2-0.4-0.2-1.1-0.4-1.6c0.6-0.1,1.4-0.5,1.8-0.3
			c1.3,0.8,2.6,1.9,3.9,2.7c0.5,0.3,1.1,0.7,1.7,0.8c0.3,0,1-0.4,1.1-0.7c0.1-0.3-0.1-1-0.4-1.3c-0.7-0.7-1.5-1.3-2.3-2
			c0.1-0.2,0.3-0.4,0.3-0.6c0.6,0.2,1.1,0.5,1.8,0.8c0.6,0.2,1.2,0.4,1.7,0.6c-0.2-0.5-0.1-1.1-0.3-1.7c-0.4-1.1-1.1-1.7-2.3-2
			c-0.8-0.2-1.8-0.7-2.5-1.2c-0.5-0.3-0.9-1-0.8-1.5c0-0.3,0.9-0.6,1.4-0.8c0.4-0.1,0.9-0.1,1.3-0.1c0.1-0.1,0.2-0.3,0.3-0.5
			c-0.5-0.3-0.9-0.9-1.4-1.1c-1.1-0.3-2.1-1.1-1.6-2.1c0.8-1.6,0.4-2.8-0.7-4.2c1.8-0.9,1.9,0.6,2.6,1.3s1.8,1.3,2.1,2.2
			c0.4,0.8,0.2,2,0.2,3.4c0.9-0.7,1.2-1.2,1.7-1.6c0.4-0.2,1.1-0.4,1.5-0.2c0.5,0.3,0.8,1,0.7,1.4c-0.2,1-0.7,2-0.9,3
			c-0.2,0.9-0.3,2-0.2,3c0,0.3,0.7,0.6,1.1,0.9c0.3-0.5,0.7-0.9,0.8-1.4c0.1-0.5-0.1-1.2,0-1.7c0.1-0.4,0.4-0.8,0.7-1.2
			c0.2,0.3,0.6,0.7,0.6,1.1c0.1,0.7,0,1.5,0.1,2.1c0,0.3,0.3,0.8,0.6,0.9c0.2,0.1,0.7-0.2,0.9-0.5c0.8-0.9,1.3-1.9,0.4-3.2
			c-0.5-0.8-0.6-2.1-0.7-3.2c0-0.5,0.4-1.3,0.8-1.4c0.4-0.1,1.1,0.3,1.5,0.6c0.4,0.3,0.6,0.7,0.9,1.1
			C69.1,422.9,69.3,422.8,69.5,422.8z"/>
	</g>
</g>
<g class="st4">
	<g>
		<path class="st1" d="M207.7,372.9c-0.1-0.2,0-0.3,0-0.4c-0.2-0.5-0.1-0.7,0.4-0.9c0.2-0.1,0.2-0.2,0.4-0.3
			c0.1-0.1,0.2-0.2,0.4-0.4c0,0.6,0,1.1-0.1,1.5c-0.1,0.1-0.2,0.3-0.4,0.4c-0.2,0.1-0.3,0.3-0.5,0.4l0,0.1c0.2-0.1,0.3-0.1,0.5,0
			c0.1,0.1,0.3,0.1,0.3,0.2c0.1,0.2-0.1,0.3-0.2,0.3c-0.3,0.2-0.7,0.3-1.1,0.5c-0.1,0-0.3,0.1-0.4,0.1c-0.1,0.2-0.3,0.5-0.3,0.8
			c0.3-0.1,0.4-0.1,0.7-0.1c0.2-0.1,0.3-0.1,0.4-0.1l0,0.1c-0.2,0.2-0.4,0.2-0.6,0.5c-0.1,0.1-0.2,0.3-0.2,0.3
			c0,0.1,0.2,0.1,0.3,0.2c0.4,0,0.7-0.1,0.9-0.5c0.1-0.2,0.3-0.5,0.5-0.6c0.1-0.1,0.4-0.1,0.4-0.1c0.1,0.2,0.1,0.3,0,0.5
			c-0.1,0.1-0.1,0.3-0.2,0.4c0,0,0,0.1,0.1,0.2c0.3-0.1,0.4-0.1,0.7-0.4c0.3-0.2,0.6-0.3,0.9,0c0.2,0.1,0.5,0.1,0.8,0.3
			c-0.1,0-0.2,0.1-0.2,0.2c-0.2,0.1-0.4,0.2-0.6,0.4c-0.3,0.3-0.6,0.3-0.9,0c-0.1-0.2-0.2-0.1-0.4-0.3c0,0-0.1,0-0.1,0.1
			c0,0.1,0.2,0.2,0.2,0.3c0.1,0.2,0,0.4,0,0.5c-0.2,0-0.4,0-0.6,0c-0.3-0.1-0.6-0.3-0.7-0.5c-0.3-0.3-0.6-0.2-0.9-0.1
			c-0.1,0-0.3,0.1-0.2,0.2c0,0.1,0.1,0.3,0.2,0.3c0.3,0.2,0.6,0.3,0.8,0.5c0,0.1-0.1,0.1-0.1,0.1c-0.1,0-0.2,0.1-0.3,0
			c-0.1-0.1-0.2-0.1-0.3-0.2c-0.2,0-0.4-0.1-0.6-0.1c-0.1,0.1,0,0.2,0,0.3c0.2,0.2,0.3,0.5,0.5,0.5c0.3,0.2,0.6,0.2,1,0.3
			c0.1,0.1,0.2,0.3,0.2,0.4c-0.2,0.1-0.3,0.2-0.4,0.2c-0.2,0.1-0.3,0-0.5,0.2c0.1,0.2,0.2,0.3,0.4,0.4c0.8,0.3,0.8,0.4,0.6,1.1
			c-0.1,0.1,0.1,0.3,0.1,0.4c0,0.1,0,0.2-0.1,0.3c-0.1-0.1-0.2,0-0.2-0.1c-0.2-0.2-0.4-0.4-0.6-0.6c-0.1-0.2-0.1-0.4-0.2-0.5
			c-0.1-0.2-0.1-0.3-0.1-0.6c-0.2,0.1-0.2,0.3-0.3,0.3c-0.2,0.1-0.4,0.2-0.5,0.2c-0.1-0.1-0.2-0.3-0.2-0.5c0-0.3,0.1-0.5,0.2-0.8
			c0.2-0.4-0.1-0.7-0.4-1.1c0,0.2,0,0.5-0.1,0.7c-0.1,0.1-0.2,0.1-0.2,0.3c0-0.1-0.1-0.2-0.2-0.3c0,0,0-0.1,0-0.2
			c-0.1-0.2-0.1-0.4-0.2-0.5c0,0-0.3,0-0.4,0.1c-0.1,0.2-0.2,0.4-0.1,0.6c0.1,0.4,0.2,0.7,0.3,1.1c0.1,0.3,0,0.5-0.2,0.6
			c-0.2,0-0.4-0.2-0.7-0.3c-0.1-0.1-0.1-0.2-0.2-0.3c-0.1,0.4,0.3,1-0.2,1.3c-0.3,0.3-0.7,0.6-1,0.9c0-0.5-0.1-0.9-0.1-1.2
			c0-0.2,0.3-0.5,0.4-0.6c0.2-0.1,0.3-0.3,0.5-0.4l0-0.1c-0.2,0.1-0.3,0.1-0.4,0c-0.1-0.1-0.2-0.1-0.3-0.2c0.1-0.1,0.1-0.2,0.2-0.3
			c0.3-0.1,0.5-0.3,0.8-0.3c0.4-0.1,0.7-0.3,0.8-0.7c0.1-0.1,0-0.3,0-0.4c-0.2,0.1-0.3,0-0.4,0.1c-0.3,0.1-0.4,0.2-0.8,0.4
			c0,0,0-0.1-0.1-0.2c0.3-0.2,0.6-0.5,0.9-0.8c-0.4-0.2-0.7-0.2-1,0.1c-0.2,0.3-0.4,0.5-0.8,0.7c-0.2,0.1-0.4,0.1-0.7,0.1
			c0-0.2,0.1-0.4,0.1-0.6c0-0.1,0.1-0.1,0.2-0.3c-0.4,0.1-0.8,0.4-1.2,0.5c-0.4,0-0.8-0.3-1.1-0.5c0.3-0.2,0.6-0.5,0.9-0.6
			c0.3-0.2,0.6-0.2,0.9,0.1c0.2,0.2,0.4,0.3,0.7,0.1c-0.1-0.2-0.3-0.3-0.4-0.5c-0.1-0.2-0.1-0.4-0.1-0.4c0.2-0.1,0.4-0.1,0.5,0
			c0.4,0.3,0.7,0.6,1.1,0.8c0.1,0.1,0.3,0.2,0.5,0.3c0.1,0.1,0.3-0.1,0.3-0.2c0.1-0.1,0-0.3-0.1-0.4c-0.2-0.2-0.4-0.4-0.7-0.6
			c0.1-0.1,0.1-0.1,0.1-0.2c0.2,0,0.3,0.2,0.5,0.3c0.1,0.1,0.3,0.1,0.5,0.1c-0.1-0.2,0-0.3-0.1-0.4c-0.1-0.4-0.3-0.5-0.7-0.6
			c-0.3,0-0.5-0.1-0.8-0.4c-0.1-0.1-0.2-0.3-0.2-0.5c0.1-0.1,0.2-0.2,0.4-0.2c0.1,0,0.3,0,0.4,0l0.1-0.1c-0.1-0.2-0.3-0.3-0.4-0.3
			c-0.3-0.1-0.6-0.3-0.5-0.6c0.3-0.5,0.2-0.8-0.2-1.2c0.5-0.2,0.6,0.2,0.8,0.4c0.2,0.2,0.5,0.3,0.6,0.6c0.1,0.3,0.1,0.6,0,1.1
			c0.2-0.3,0.4-0.4,0.6-0.5c0.1,0,0.4-0.1,0.4,0c0.1,0.1,0.2,0.3,0.2,0.4c-0.1,0.3-0.2,0.6-0.2,0.8c-0.1,0.3,0,0.6,0,0.9
			c0,0.1,0.3,0.2,0.3,0.3c0.1-0.1,0.2-0.3,0.3-0.4c0.1-0.1-0.1-0.4,0-0.5c0.1-0.1,0.1-0.2,0.2-0.3c0,0.1,0.2,0.2,0.2,0.3
			c0.1,0.2,0,0.4,0,0.6c0,0.1,0.1,0.2,0.2,0.2c0.1,0.1,0.2-0.1,0.2-0.2c0.2-0.3,0.4-0.6,0.1-0.9c-0.2-0.2-0.2-0.6-0.2-0.9
			c-0.1-0.2,0.1-0.4,0.3-0.4c0.1,0,0.3,0.1,0.4,0.2C207.6,372.7,207.7,372.9,207.7,372.9C207.6,373,207.6,373,207.7,372.9z"/>
	</g>
</g>
<g class="st4">
	<g>
		<path class="st1" d="M95.9,189.5c-0.2,0.5-0.4,0.9-0.6,1.5c0.7-0.1,1.4-0.2,2.1-0.3c0,0.1,0.1,0.2,0.1,0.3c-0.7,0.2-1.2,0.4-2,0.7
			c0.3,0.4,0.6,0.7,0.9,1.2c-1-0.1-1.3-2-2.7-0.9c0.5,0.6,1,1,1.5,1.6c-1-0.3-1.5-1.7-3.1-1.6c0.4,0.6,0.6,0.8,0.8,1.3
			c-0.7-0.4-1.1-1-1.7-1.1c-0.6-0.2-1.3,0.1-2.2,0.3c0.9,1.2,1.4,2.5,3.3,2.2c0,0.1-0.1,0.2-0.1,0.2c-0.3,0.1-0.6,0.1-1,0.2
			c0.7,1.2,1.8,0.4,2.6,0.8c-0.6,0.1-1.1,0.2-1.6,0.3c0.1,1.3,1.2,0.8,2,1.4c-0.5,0.1-0.7,0.1-1.1,0.2c0.2,0.5,0.4,0.9,0.6,1.4
			c-0.1,0-0.1,0.1-0.2,0.1c-0.2-0.4-0.5-0.7-0.7-1.1c-0.3,0.5-0.6,0.9-1,1.5c-0.4-1.2,1.2-2.1-0.1-3.1c-0.4,0.7-0.7,1.5-1,2.2
			c-0.1,0-0.2,0-0.2,0c0-0.3-0.1-0.6,0.1-0.7c0.2-0.5,0.4-0.9,0.7-1.4c0.3-0.5,0.3-0.8-0.3-1.2c-0.2,0.6-0.5,1-0.7,1.6
			c-0.1,0-0.2,0-0.3-0.1c0.1-0.5,0.1-1.1,0.4-1.5c0.3-0.6,0.2-0.8-0.2-1.3c-0.4-0.4-0.7-0.8-1.2-1.5c-0.3,0.9-0.7,1.8-0.7,2.4
			s0.7,1.3,0.9,2.1c-0.4-0.4-0.7-0.7-1.2-1.3c-0.7,1.8,1,2.3,1.3,3.6c-0.6-0.6-1.1-1.2-1.7-1.9c-0.9,0.9,0.3,1.5,0.2,2.3
			c-0.2-0.3-0.5-0.6-0.7-0.9c-0.4,0.7-0.7,1.3-0.9,2c-0.1,0-0.2-0.1-0.4-0.1c0.2-0.6,0.4-1.1,0.6-1.8c-0.5,0-0.9,0.1-1.5,0.1
			c0.7-0.8,2.1-0.3,2.1-1.7c-0.7,0-1.5,0-2.2,0c0.7-0.8,2.3,0.2,2.6-1.5c-0.5,0-0.7-0.1-1.1-0.2c-0.1-0.1-0.1-0.1-0.2-0.2
			c2.1-0.1,1.9-1.6,2.2-2.8c-2-0.5-2.8,0.6-3.2,2.3c-0.1-0.1-0.2-0.2-0.4-0.3c0.2-0.6,0.3-1.1,0.5-1.8c-1.7,0.3-1.2,2.1-2.2,2.7
			c-0.1,0-0.2-0.1-0.3-0.1c0.2-0.7,0.5-1.4,0.7-2.2c-0.6-0.3-0.7,0.1-1,0.6c-0.1,0.4-0.4,0.7-0.6,1c-0.1,0-0.2,0-0.3-0.1
			c0.1-0.4,0.2-0.8,0.3-1.3c-0.4,0-0.7,0.1-0.9,0.1s-0.6,0-0.8,0c0-0.1,0-0.1,0-0.2c0.6-0.1,1.1-0.3,1.9-0.5
			c-0.3-0.4-0.6-0.7-0.7-1.1c0.8,0.1,1.2,1.6,2.3,0.6c-0.4-0.5-0.7-1-1.2-1.5c0.1-0.1,0.1-0.1,0.2-0.2c0.5,0.5,0.9,0.9,1.3,1.4
			c0.4,0.5,0.7,0.6,1.2,0.2c-0.4-0.4-0.7-0.7-1-1.1l0.1-0.1c0.7,0.5,1.1,1.1,1.8,1.2c0.7,0.2,1.5-0.1,2.4-0.3
			c-0.9-1.3-1.5-2.6-3.5-2.1c0-0.1,0.1-0.2,0.1-0.3c0.4-0.1,0.7-0.2,1.2-0.3c-0.7-1.5-2.1-0.3-3-0.9c0.7-0.1,1.4-0.2,2.1-0.3
			c-0.4-1.2-1.3-0.6-2-0.9c0.4-0.1,0.7-0.2,1.4-0.4c-0.4-0.7-0.7-1.2-1-1.8c0.1,0,0.1-0.1,0.2-0.1c0.4,0.5,0.7,0.9,1.1,1.5
			c0.2-0.4,0.5-0.7,0.7-1.1c0.1,0,0.2,0.1,0.3,0.1c-0.2,0.7-0.3,1.5-0.5,2.2c0.1,0,0.2,0.1,0.3,0.1c0.3-0.5,0.7-1,0.9-1.4
			c0.3,0.9-0.9,1.6-0.2,2.7c0.3-0.4,0.6-0.7,0.7-0.9c0.1,0,0.1,0.1,0.2,0.1c-0.1,0.3-0.1,0.6-0.2,0.7c-0.3,0.5-0.3,0.8,0.2,1.3
			c0.4,0.4,0.7,0.8,1.2,1.4c0.6-1.4,1.6-2.5,0.2-4c0.1,0,0.2,0,0.3,0c0.3,0.3,0.5,0.6,0.7,0.9c0.6-0.6,0.2-1-0.2-1.5
			c-0.3-0.4-0.7-0.8-1-1.2c0.1,0,0.1-0.1,0.3-0.2c0.5,0.5,0.8,1,1.3,1.6c0.1,0,0.2,0,0.3,0c0-0.5,0.2-0.8,0-1.2
			c-0.1-0.4-0.5-0.7-0.7-1c0.1,0,0.1-0.1,0.2-0.1c0.3,0.3,0.6,0.6,0.8,0.9c0.6-0.6,0.4-1.6,1.4-2.1c-0.3,0.8-0.5,1.5-0.7,2.2
			c0.6,0,0.9,0,1.4,0c-0.6,0.7-2,0.1-1.9,1.5c0.7,0,1.5,0,2.2,0c-0.8,0.7-2.2-0.1-2.9,1.4c0.6,0,0.9,0.1,1.3,0.1
			c0.1,0.1,0.1,0.2,0.2,0.3c-2.2-0.3-2.2,1.3-2.8,2.8c1.5-0.2,3.1,0.3,3.6-1.9c0.1,0.1,0.2,0.2,0.3,0.3c0,0.4-0.1,0.7-0.2,1
			c0.1,0.1,0.1,0.1,0.2,0.2c0.7-0.7,0.8-1.7,1.7-2.5c0.5,1-0.7,1.5-0.6,2.2C95.2,191.4,94.7,189.7,95.9,189.5z"/>
	</g>
</g>
<g class="st4">
	<g>
		<path class="st1" d="M828,284.5c1-0.1,1.5-0.2,2.2-0.2c0.3,0,0.6,0.3,0.9,0.5c-0.3,0.2-0.6,0.4-0.8,0.5c-0.5,0.2-1,0.2-1.5,0.2
			c-1.7,0.1-2.4,1.1-2.9,2.7c0.8-0.1,1.5-0.2,2.3-0.1c0.6,0.1,1.3,0.2,2,0.4c0,0.2-0.1,0.3,0,0.6c-0.4,0.1-0.8,0.1-1.1,0.2
			c-1.1,0.1-2.2,0.2-3.3,0.3c-1.5,0.3-2.3,2.2-1.6,3.6c0.2,0.3,0.3,0.6,0.5,1c1,1.9,3.4,2.2,4.7,0.6c0.6-0.6,1-1.5,1.5-2.1
			c0.2-0.2,0.6-0.2,0.8-0.3c0,0.3,0.2,0.6,0.1,0.9c-0.5,0.9-1,1.6-1.5,2.5c1.9,0.8,2.7,0.6,4-0.9c0.3-0.3,0.6-0.8,0.9-1.1
			c0.2-0.2,0.6-0.2,0.9-0.3c0,0.3,0.2,0.8,0,1c-0.3,0.6-0.7,1-1.2,1.6c1.1,0.2,2.2,0.5,3.2,0.8c0,0.2,0,0.4-0.1,0.6
			c-1.1-0.1-2.3-0.1-3.5-0.2c0.4,1,0.6,1.9,1,2.7c-0.1,0.1-0.2,0.2-0.2,0.2c-0.2-0.2-0.6-0.2-0.9-0.4c-0.2-0.2-0.3-0.6-0.5-1
			c-1-2.1-1.5-2.3-4.1-1.7c0.5,1,1,1.9,1.4,2.7c0.2,0.4,0.2,0.8,0.2,1.1c-0.4-0.2-0.9-0.2-1-0.6c-0.6-0.9-1.4-1.9-1.8-3
			c-0.4-1-1.3-0.8-1.9-0.9c-0.5,0-1,0.3-1.4,0.6c-0.4,0.5-0.6,1.1-1,1.7c-0.4,0.6-1.2,1-0.6,1.9c0.6,0.9,1,2,2.3,2
			c1,0,1.9,0.1,2.9,0.2c0.4,0.1,0.8,0.3,1.2,0.5c0,0.2-0.1,0.4-0.2,0.5c-1.4,0-2.8-0.1-4.2-0.1c0.2,1.7,0.7,2.2,2.3,2.3
			c0.6,0.1,1.4,0.2,1.9,0.3c0.3,0.1,0.6,0.4,0.9,0.6c-0.1,0.1-0.2,0.2-0.2,0.3c-1-0.1-2.1-0.2-3.4-0.2c0.5,1.3,0.8,2.4,1.2,3.6
			c-0.2,0.1-0.3,0.2-0.5,0.3c-0.3-0.4-0.7-0.8-1-1.2c-0.3-0.6-0.5-1.1-0.8-2c-0.5,0.8-0.7,1.4-1,1.9c-0.2,0.3-0.6,0.5-0.9,0.7
			c-0.1-0.4-0.2-0.8-0.2-1.1c0.1-0.6,0.3-1.1,0.6-1.6c1.1-1.3,0.4-2.3-0.6-3.6c-0.5,0.9-0.8,1.6-1.2,2.3c-0.2,0.3-0.3,0.7-0.6,1
			c-0.2,0.2-0.6,0.3-0.8,0.4c-0.1-0.3-0.2-0.6-0.2-0.9c0.5-1.2,1-2.4,1.7-3.6c0.5-0.7,0.2-1.2-0.2-1.8c-0.4-0.6-0.5-1.6-1.6-1.5
			c-0.6,0.1-1,0-1.6,0c-2.2,0-3.2,1.6-2.3,3.6c0.5,1.1,1,2.3,1.3,3.6c-1.7-0.5-1.5-2.3-2.7-3.4c-0.7,0.8-1.5,1.5-0.9,2.8
			c0.3,0.6,0.4,1.4,0.6,2c0,0.2-0.2,0.6-0.2,0.8c-0.2-0.2-0.6-0.2-0.8-0.5c-0.2-0.6-0.4-1.1-0.6-1.9c-0.7,0.9-1.3,1.6-1.9,2.3
			c-0.2,0.2-0.6,0.2-1,0.3c0-0.3,0-0.7,0.2-1c0.5-0.7,1-1.3,1.7-2.3c-1,0-1.8,0.1-2.5,0c-0.3,0-0.6-0.3-1-0.5
			c0.2-0.2,0.6-0.5,0.9-0.5c0.6-0.1,1.2-0.2,1.9-0.2c1.9-0.1,2.2-0.4,2.7-2.3c-1.4-0.2-2.8-0.3-4.2-0.6c0-0.2,0-0.3,0-0.6
			c0.4-0.1,0.7-0.2,1-0.2c0.8,0,1.7,0.2,2.5,0.2c2.1,0.1,3.1-1.3,2.3-3.3c-0.2-0.5-0.4-1-0.6-1.5c-1-1.9-2.7-2.1-4.1-0.5
			c-0.6,0.7-1.1,1.5-1.8,2.1c-0.3,0.3-0.8,0.4-1.3,0.6c0.2-0.4,0.2-1,0.4-1.3c0.5-0.7,1.1-1.5,1.8-2.2c-2.1-0.7-2.3-0.6-3.8,0.8
			c-0.5,0.5-1.1,0.7-1.8,1c-0.6-1,0.6-1.2,0.9-1.8c0.2-0.2,0.2-0.4,0.5-0.8c-0.9-0.1-1.7-0.2-2.4-0.3c-0.2-0.1-0.4-0.3-0.6-0.5
			c0.2-0.2,0.5-0.4,0.7-0.4c0.7,0,1.5,0,2.6,0.1c-0.3-1-0.6-1.8-0.9-2.6c-0.1-0.3,0.1-0.6,0.1-1c0.2,0.2,0.6,0.4,0.8,0.6
			c0.2,0.4,0.5,1,0.6,1.5c0.7,1.9,0.8,1.9,3.1,1.8c-0.5-1.4-1-2.7-1.5-4c0.2-0.1,0.2-0.2,0.4-0.3c0.3,0.2,0.7,0.6,0.9,0.9
			c0.4,0.7,0.7,1.6,1,2.4c0.3,1,1,1.1,1.9,1.1s1.4-0.2,1.7-1.1c0.3-0.7,1-1.4,1.3-2.1c0.2-0.5,0.4-1.2,0.2-1.6
			c-0.2-0.3-0.9-0.6-1.4-0.6c-1.2-0.3-2.5-0.6-3.7-0.9c-0.2-0.1-0.4-0.4-0.6-0.6c0-0.1,0.1-0.2,0.1-0.3c1.5,0.3,2.8,0.6,4.4,0.9
			c-0.2-2-0.7-2.7-2.3-3.2c-1-0.3-2-0.7-3.2-1.2c1.5-1.2,2.5,0.2,3.8,0c-0.5-1.2-0.9-2.3-1.4-3.6c1.1-0.2,1.3,0.6,1.5,1.1
			c0.3,0.6,0.6,1.1,1,2.1c0.5-1,0.8-1.6,1.3-2.3c0.2-0.2,0.6-0.3,0.9-0.5c0,0.3,0.2,0.6,0.1,0.9c-0.2,0.6-0.6,1.2-0.9,1.8
			c-1,1.5-1,2,0.5,3.8c0.5-1,1-1.8,1.5-2.6c0.2-0.3,0.6-0.5,0.9-0.7c0.1,0.4,0.2,0.9,0.1,1.3c-0.4,1-0.9,1.9-1.5,2.8
			c-0.7,1.2-0.3,2.3,1.1,2.6c0.5,0.1,1,0.2,1.5,0.2c0.6,0.1,1.7,0.2,2-0.1c0.8-0.8,1.6-1.9,0.9-3.3c-0.5-1-0.8-2-1.1-3.1
			c-0.1-0.3,0.1-0.7,0.2-1c0.3,0.2,0.8,0.4,0.9,0.7c0.4,1,0.7,2.1,1.1,3.3c1.5-1.5,1.6-2.1,1-3.6c-0.3-0.7-0.6-1.5-0.9-2.3
			c0.9-0.2,0.9-0.2,2.3,2.3c0.7-0.7,1.3-1.4,2-2c0.3-0.2,0.7-0.2,1.1-0.4c-0.1,0.4-0.1,0.8-0.3,1.1
			C829.4,283.2,828.8,283.7,828,284.5z M821.2,296.2c-0.1,0.2-0.2,0.2-0.2,0.3c0.5,0.8,1,1.5,1.6,2.6c0.6-1,1-1.8,1.5-2.7
			C822.9,296.3,822.1,296.2,821.2,296.2z M820.3,294.7c0.6-0.9,0.9-1.5,1.5-2.3c-1-0.2-1.8-0.4-2.9-0.6
			C819.4,292.9,819.7,293.7,820.3,294.7z M817.5,292.1c-0.6,1.1-1,1.9-1.5,2.8c1.2,0,1.9,0,2.9-0.1
			C818.5,294,818.1,293.3,817.5,292.1z M816.5,296.1c0.5,1,0.9,1.7,1.3,2.6c0.6-1,1-1.7,1.5-2.6
			C818.2,296.1,817.5,296.2,816.5,296.1z M821.3,299.4c-0.5-0.8-0.8-1.3-1.2-2.1c-0.5,0.8-0.8,1.3-1.3,2.1
			C819.8,299.4,820.4,299.4,821.3,299.4z M821.4,295.2c1,0,1.6,0,2.3,0c-0.3-0.7-0.6-1.2-1-1.9C822.3,293.9,821.9,294.4,821.4,295.2
			z"/>
	</g>
</g>
<g class="st4">
	<g>
		<path class="st1" d="M806.8,168.4c-0.6,0.3-1,0.5-1.5,0.7c-0.1-0.6-0.1-1-0.2-1.7c-0.1,0.1-0.4,0.2-0.6,0.2
			c-0.2,0-0.6-0.2-0.8-0.3c0.2-0.2,0.2-0.6,0.3-0.7c0.3-0.2,0.7-0.5,1.2-0.6c0.7-0.2,0.8-0.6,0.7-1.4c-0.5,0.2-0.8,0.5-1.2,0.6
			c-0.3,0.1-0.6-0.2-1-0.2c0.1-0.2,0.2-0.6,0.4-0.8c0.4-0.3,0.8-0.5,1.2-0.6c1.5-0.7,1.5-1.9,0.2-2.8c-0.2-0.2-0.5-0.3-0.6-0.5
			c-0.6-0.6-1.1-0.4-1.5,0.2c-0.4,0.7-0.9,1.5-1.3,2.3c-0.2,0.2-0.6,0.4-0.9,0.6c-0.1-0.3-0.2-0.7-0.2-1c0.1-0.5,0.4-0.8,0.6-1.3
			c-0.7-0.2-1.1,0.1-1.5,0.7c-0.2,0.5-0.4,1-0.7,1.3c-0.2,0.2-0.6,0.3-1,0.5c0-0.3-0.1-0.7-0.1-1c0-0.2,0.1-0.3,0.1-0.3
			c-0.5-0.2-1-0.4-1.4-0.6c0.4-0.4,0.7-0.8,1.2-1.1c-0.1-0.1-0.2-0.2-0.4-0.4c-0.2-0.3-0.4-0.7-0.6-1c0.3,0.1,0.7,0.2,1.1,0.2
			c0.2,0.1,0.4,0.2,0.6,0.4c0.6,0.6,1.2,0.5,2,0c-0.5-0.3-0.9-0.5-1.3-0.8c-0.2-0.2-0.3-0.5-0.4-0.7c0.3-0.1,0.6-0.2,0.9-0.2
			c0.6,0.2,1.2,0.6,1.8,1c0.6,0.3,1.8,0.1,2.2-0.6c0.7-1,0.8-1.9,0.1-2.6c-0.2-0.2-0.6-0.3-0.9-0.4c-0.9,0-1.9,0-2.7,0
			c-0.2,0-0.6-0.2-0.8-0.3c0.2-0.2,0.5-0.6,0.7-0.6c0.6-0.1,1.3-0.1,2-0.1c-0.4-0.7-0.9-1.1-1.6-1c-0.2,0-0.3,0.1-0.5,0.1
			c-0.5-0.1-1-0.2-1.6-0.3c0.3-0.3,0.7-0.6,1-1c-0.1-0.4-0.2-0.9-0.4-1.4c0.6,0.2,1,0.3,1.7,0.5c0-0.3,0-0.7,0.1-1.1
			c0.1-0.2,0.2-0.5,0.4-0.7c0.2,0.2,0.6,0.5,0.6,0.7c0.1,0.6,0,1.2,0.1,1.8c0.1,0.4,0.2,0.9,0.4,1.3c0.2,0,0.3-0.1,0.5-0.1
			c0.1-0.5,0-1,0.1-1.5c0.1-0.3,0.2-0.6,0.4-0.9c0.2,0.3,0.6,0.5,0.7,0.8c0.1,0.6,0.2,1.2,0,1.8c-0.2,1.1,0.4,1.8,1.1,2.1
			c0.4,0.2,1.2,0,1.9-0.2s0.8-1.5,0.4-2c-0.5-0.8-1-1.6-1.5-2.5c-0.1-0.2,0-0.6,0.1-0.8c0.3,0.1,0.7,0.1,0.8,0.3
			c0.4,0.6,0.7,1.3,1.2,2c0.6-1,1-1.8,0.1-2.7c-0.2-0.3-0.5-0.6-0.6-0.9c-0.2-0.2-0.1-0.6-0.2-0.9c0.3,0.1,0.7,0.1,1,0.2
			c0.2,0.2,0.4,0.4,0.8,0.9c0.2-0.6,0.2-1.1,0.4-1.5c0.1-0.2,0.4-0.5,0.6-0.6c0.2,0.2,0.5,0.6,0.6,0.8c0.1,0.4,0,0.9-0.2,1.5
			c0.4-0.1,0.7-0.2,1-0.2c0.3,0,0.6,0.2,0.9,0.3c-0.2,0.2-0.4,0.5-0.6,0.6c-0.2,0.2-0.4,0.2-0.6,0.2c-1.2,0.2-1.5,1-1.6,2.3
			c0.7-0.5,1.2-1,1.9-1.2c0.3-0.2,0.7-0.2,1-0.2c-0.1,0.3-0.1,0.9-0.2,1c-0.8,0.6-1.6,1.1-2.5,1.5c-0.7,0.3-1,0.8-1,1.5
			c0,0.3,0.4,0.7,0.6,1c1.5,1.2,2.6,0.9,3.4-0.8c0.2-0.3,0.2-0.7,0.4-1c0.2-0.2,0.5-0.3,0.7-0.5c0.2,0.2,0.3,0.6,0.4,0.8
			c0,0.3-0.2,0.6,0,1c0.2-0.5,0.3-0.9,0.6-1.4c0.2-0.3,0.3-0.8,0.6-1c0.2-0.2,0.6-0.2,0.8-0.2c0.2,0.1,0.2,0.5,0.2,0.7
			c-0.1,0.3-0.3,0.7-0.4,1c0.6,0.2,1.1,0.3,1.6,0.5c-0.3,0.4-0.7,0.7-1.2,1.3c0.4,0.2,0.9,0.2,1.2,0.5c0.2,0.1,0.2,0.4,0.2,0.7
			c-0.2,0.1-0.5,0.2-0.7,0.2c-0.6-0.2-1.4-0.6-1.9-0.9c-0.6-0.4-1.2-0.2-1.8,0.2c0.6,0.4,1.3,0.7,1.8,1.1c0.2,0.2,0.3,0.6,0.5,1
			c-0.3,0-0.7,0-1-0.2c-0.8-0.4-1.7-0.9-2.5-1.3c-0.6-0.3-1.1-0.2-1.3,0.6c-0.2,0.7-1,1.5-0.1,2.2c0.3,0.2,0.8,0.4,1.2,0.4
			c0.7,0,1.5-0.2,2.3-0.2c0.2,0,0.6,0.3,0.8,0.5c-0.2,0.2-0.4,0.5-0.7,0.6c-0.6,0.2-1.1,0.1-1.9,0.2c0.7,0.9,1.2,1.7,2.3,1.4
			c0.3-0.1,0.6-0.2,1-0.1c0.3,0.1,0.6,0.3,0.8,0.4c-0.2,0.2-0.4,0.5-0.6,0.6c-0.2,0.2-0.6,0.2-1,0.2c0.3,0.3,0.6,0.6,0.8,0.8
			c0.1,0.2,0.1,0.4,0.2,0.6c-0.2,0-0.6,0.2-0.7,0.2c-0.4-0.2-0.7-0.5-1.2-0.8c0,0.4,0,0.8-0.1,1.1c-0.1,0.3-0.3,0.6-0.5,0.8
			c-0.2-0.3-0.6-0.6-0.6-0.9c-0.2-0.6,0-1.4-0.2-2c-0.1-0.5-0.5-0.9-0.7-1.4c-0.2,0.1-0.2,0.1-0.3,0.2c0,0.6,0.1,1.1,0.1,1.7
			c-0.1,0.3-0.3,0.5-0.6,0.7c-0.2-0.2-0.6-0.5-0.5-0.8c-0.1-0.9,0-1.8-0.2-2.6c-0.1-0.4-0.5-1-0.8-1c-1-0.3-2.3,0.6-2.4,1.7
			c-0.1,0.4,0.1,0.9,0.3,1.3c0.4,0.7,1,1.4,1.4,2c0.1,0.2,0,0.6-0.1,0.8c-0.2-0.1-0.6-0.1-0.8-0.2c-0.4-0.4-0.6-0.9-1-1.5
			c-0.4,0.8-0.5,1.4-0.1,2.1c0.2,0.4,0.3,0.9,0.4,1.3C807.4,168.6,807,168.4,806.8,168.4z M807.5,156.7c-1,0.2-1.9,1.8-1.7,2.6
			c0.2,0.7,1.7,1.4,2.7,1c1.1-0.3,2.1-1.7,1.9-2.4C809.9,157,808.7,156.4,807.5,156.7z"/>
	</g>
</g>
<g class="st5">
	<g>
		<path class="st1" d="M100.2,309.5c0,0.7,0.2,1.5,0.1,2.1c-0.2,0.7-0.8,1.3-1.2,2c-0.5-0.6-1.1-1.2-1.4-1.8
			c-0.3-0.8-0.4-1.8-0.3-2.6c0.7-3.4-1.7-4.4-3.9-5.8c-1.8,3-1.5,5.1,0.3,7.5c0.5,0.6,1,1.1,1.3,1.8c0.2,0.5,0,1.2,0,1.8
			c-0.6-0.1-1.4,0-1.9-0.2c-0.6-0.3-1-1-1.4-1.5c-0.2,0.1-0.3,0.2-0.5,0.2c0.3,0.6,0.6,1.3,0.9,1.9c1.2,2,0.9,4.2-0.7,5.4
			c-1.5,1-3.8,0.8-4.8-0.5c-1.2-1.6-0.9-4.4,0.7-5.7c0.5-0.5,1.1-1.1,1.5-1.7c-0.1-0.2-0.3-0.3-0.4-0.5c-0.9,0.5-1.8,1-3,1.4
			c-0.5,0.2-1.1-0.3-1.8-0.4c0.2-0.6,0.4-1.2,0.8-1.5c0.5-0.5,1.2-0.9,1.9-1.1c3.8-1.3,3.5-4.5,3.9-7.8c-2.5,0.9-5.1,0.7-5.6,4
			c-0.3,1.4-1.3,2.7-2,3.9c-0.3,0.5-1.2,0.5-1.8,0.7c-0.1-0.7-0.4-1.3-0.3-1.9c0.3-1,1-1.9,1.6-3.1c-1.9,0-2.5,0.8-3.2,2.2
			c-0.5,1.1-1.9,2.3-3,2.3c-1.2,0.1-3-0.8-3.7-1.7c-0.6-0.9-0.4-2.8,0.2-3.8c0.9-1.6,2.8-1.8,4.5-1.1c1.3,0.6,2.5,0.7,3.7-0.7
			c-0.7-0.5-1.4-0.9-1.9-1.3c-0.3-0.3-0.5-0.9-0.7-1.4c0.5-0.2,1.2-0.6,1.7-0.6c0.6,0,1.2,0.5,1.8,0.8c2.7,1.6,3.9,1.6,6.9-0.7
			c-2.1-1.3-3.8-3.5-6.8-2.4c-1.1,0.4-2.2,0.4-3.3,0.4c-0.6,0-1-0.6-1.6-0.9c0.5-0.4,0.8-1,1.3-1.2c0.9-0.3,1.8-0.3,2.7-0.5
			c0-0.2,0-0.5,0.2-0.7c-1-0.3-1.9-0.9-2.9-1c-2.3-0.2-3.9-1.5-4-3.5c-0.1-1.7,1.6-3.3,3.4-3.4c2.1,0,3.8,1.5,3.9,3.8
			c0.1,0.7,0.4,1.3,0.6,2c0.3-0.1,0.5,0,0.7-0.1c0.2-1.1,0-2.2,0.4-3.3c0.2-0.6,1-1,1.5-1.4c0.4,0.6,0.8,1,1.1,1.6
			c0.2,0.5,0,1.2,0,1.7c-0.1,4.2,0.6,5.3,5.3,6.9c0.3-1.8,0.6-3.7,0.8-5.4c0-0.5-0.4-1.1-0.8-1.5c-1.1-1.1-2.3-2.1-3.4-3.2
			c-0.4-0.4-0.5-1-0.7-1.5c0.7-0.1,1.6-0.5,2.2-0.2c1.1,0.5,2,1.5,3,2.3c0.2-0.1,0.3-0.3,0.6-0.5c-0.3-0.5-0.6-1.1-1-1.7
			c-1.3-1.7-1.2-3.7,0.3-5c1.4-1.2,3.6-1,4.9,0.5s1,3.5-0.5,4.9c-0.5,0.5-0.9,1.1-1.4,1.8c0.2,0.2,0.4,0.4,0.6,0.6
			c1-0.6,2-1.4,3.1-1.8c0.8-0.3,1.8-0.2,2.7-0.4c-0.5,0.7-0.8,1.7-1.4,2.3c-1,0.8-2.3,1.7-3.6,2c-1.7,0.5-2.2,1.4-2.3,3
			c0,1.3-0.2,2.5-0.2,3.8c3.6-0.1,4.6-0.9,5.5-3.9c0.3-1.1,0.8-2.1,1.3-3c0.2-0.3,1-0.3,1.5-0.5c0.2,0.5,0.5,1,0.4,1.6
			c-0.2,1-0.6,2.1-0.8,3.3c1.9,0.3,2.5-0.7,2.9-2.1c0.7-2.2,3-3,5.1-2.3c1.8,0.7,2.6,2.7,2,4.8c-0.8,2.1-3,2.8-5.1,2
			c-0.9-0.3-1.9-0.3-2.9-0.4c-0.1,0.3-0.2,0.6-0.3,0.9c0.9,0.7,1.8,1.3,2.6,2.2c0.3,0.3,0.2,1.2,0.4,1.7c-0.6,0.1-1.3,0.4-1.8,0.2
			c-0.8-0.4-1.5-1-2.2-1.5c-2.8-2.1-4.2-2.1-7.1,0.1c2.3,3.3,4.2,4,7.5,3.2c0.7-0.2,1.6,0.3,2.5,0.3c-0.6,0.6-1.2,1.1-1.8,1.7
			c-0.3,0.2-0.8,0.4-1.2,1.1c0.7,0.2,1.4,0.6,2.1,0.6c2.2-0.2,3.7,0.7,4.2,2.7c0.3,1.2,0.1,2.8-0.6,3.8c-0.5,0.6-2.2,0.9-3.1,0.6
			c-1.4-0.4-2.6-1.2-2.7-3.1c-0.1-0.9-0.7-1.7-1-2.6C100.8,309.2,100.4,309.3,100.2,309.5z"/>
	</g>
</g>
<g class="st4">
	<g>
		<path class="st1" d="M730.5,97.4c-0.1-0.3-0.2-0.6-0.2-0.9c0-0.2,0.2-0.4,0.2-0.6c0.2,0.2,0.3,0.2,0.4,0.4
			c0.6,1.9,0.6,1.9,2.3,2.5c0.1,0,0.2,0,0.3,0c-0.1-0.7-0.1-1.6-0.4-2.2s-0.9-1-1.4-1.6c0.5-0.4,0.7,0.3,1.2,0.3
			c0-0.5,0.1-0.9,0.2-1.4c0.1-0.2,0.2-0.2,0.4-0.4c0.1,0.2,0.3,0.3,0.3,0.5c0,0.4,0,0.8-0.1,1.3c0.6-0.2,0.9-0.9,1.6-0.2
			c-1.7,0.7-1.5,1.9-1,3.3c1-0.2,1.6-0.8,1.7-1.7c0-0.2,0-0.5,0.1-0.7c0.1-0.2,0.2-0.2,0.3-0.3c0.2,0.2,0.3,0.2,0.4,0.4
			c0,0.3,0,0.6-0.1,1c0.6,0.1,1-0.9,1.8-0.3c-0.6,0.4-1,0.7-1.5,1c0,0,0,0.1,0,0.2c0.2,0.1,0.6,0.1,0.8,0.2c0.2,0.1,0.5,0.2,0.7,0.3
			c0,0.1,0,0.2,0,0.2c-0.2,0-0.3,0.1-0.5,0.1c-0.3-0.1-0.8-0.1-1.1-0.2c-0.6-0.3-1.1-0.1-1.5,0.2c-0.3,0.2-0.7,0.5-1.1,0.8
			c0.8,0.5,1.5,1,2.2,1.1c0.3,0.1,0.8-0.2,1.3-0.4c0.2-0.1,0.5-0.1,0.7-0.1c0,0.1,0,0.2,0,0.2c-0.4,0.2-0.7,0.5-1.2,0.7
			c0.5,0.3,1,0.5,1.4,0.8c0,0.1-0.1,0.1-0.1,0.2c-0.6,0.3-1-0.5-1.7-0.5c0.2,0.4,0.2,0.7,0.3,1c0,0.2,0,0.3-0.1,0.5
			c-0.2-0.1-0.5-0.2-0.6-0.3c-0.2-0.3-0.3-0.7-0.4-1.1c-0.1-0.6-0.5-0.9-1-1.1c-0.2-0.1-0.5-0.3-0.9-0.5c0.1,1-0.2,1.9,0.5,2.7
			c0.4,0.4,0.6,1,1,1.5c-0.9,0.2-0.9-0.6-1.5-1c0,0.5,0.1,1,0.1,1.4c0,0.2-0.2,0.3-0.2,0.5c-0.2-0.2-0.3-0.3-0.4-0.4
			c-0.1-0.4-0.1-0.8-0.2-1.1c-0.6,0-0.8,1.1-1.7,0.5c1.3-1,2-2.2,1.4-3.9c-0.8,0.6-2,1-2,2.3c0,0.2,0,0.6-0.2,0.8
			c-0.1,0.2-0.3,0.2-0.4,0.3c-0.1-0.2-0.2-0.3-0.2-0.4c0-0.3,0.1-0.6,0.1-1c-0.4,0.2-0.6,0.4-0.9,0.5c-0.2,0.2-0.6,0.3-1-0.1
			c0.6-0.4,1-0.7,1.5-1c0-0.1,0-0.1,0-0.2c-0.4-0.2-0.9-0.2-1.4-0.4c0-0.1,0-0.2,0.1-0.2c0.2,0,0.3-0.1,0.5,0
			c1.5,0.7,2.4-0.4,3.4-1.1c-0.8-0.9-2.1-1-3.2-0.6c-0.2,0.1-0.6,0.1-0.8,0.1c0-0.1-0.1-0.2-0.1-0.3c0.5-0.2,0.9-0.4,1.5-0.6
			c-0.6-0.3-1-0.6-1.5-0.9c0-0.1,0.1-0.2,0.1-0.2C729.4,96.7,729.7,97.5,730.5,97.4z"/>
	</g>
</g>
<g class="st4">
	<g>
		<path class="st1" d="M669.2,296.7c-0.5,0.2-0.8,0.5-1.1,0.5c-0.2-0.1-0.5-0.5-0.6-0.8s-0.2-0.8-0.1-1.1c0.1-0.8-0.2-1.2-0.9-1.7
			c-0.3,0.5-0.6,1.3-1,1.4c-0.4,0.2-1-0.5-1.6-0.8c-0.3,0.6-0.8,1.3-0.4,2.2c0.1,0.1,0.1,0.2,0.1,0.3c0,0.5,0,1-0.1,1.5
			c-0.4-0.1-0.8-0.2-1.3-0.3c-0.3,0.6-0.6,1.4-1.1,2c-0.2,0.2-0.5,0.3-0.8,0.5c-0.1-0.3-0.2-0.7-0.2-1c0.2-0.7,0.6-1.4,1-2
			c-0.1-0.1-0.2-0.2-0.2-0.2c-0.2-0.2-0.5-0.4-0.7-0.6c0.2-0.2,0.4-0.6,0.7-0.7c0.8-0.2,1.5-0.7,1.5-1.7c0-0.1,0-0.1,0-0.2
			c-1.6-0.2-2-0.9-2.1-2.3c-0.6-0.2-1.2,0-1.6,0.6c-0.1,0.1-0.2,0.2-0.2,0.3c-0.3,0.2-0.7,0.4-1.1,0.6c-0.2-0.4-0.2-0.7-0.4-1.2
			c-0.6,0.1-1.3,0.2-2.1,0.3c-0.2,0-0.6-0.2-0.8-0.4c0.2-0.2,0.4-0.5,0.7-0.6c0.6-0.2,1.4-0.2,2-0.4c0-0.2,0.1-0.2,0-0.2
			c-0.1-0.3-0.2-0.6-0.2-1c0.4,0.1,0.8,0,1.1,0.2c0.9,0.6,1.8,0.9,2.6,0.5c-0.1-0.6-0.3-1.3-0.2-1.8c0.2-0.4,0.8-0.6,1.3-1
			c-0.3-0.6-0.6-1.3-1.6-1.3c-0.2,0-0.3,0-0.5-0.1c-0.3-0.2-0.6-0.4-0.8-0.7c-0.1-0.2,0.3-0.5,0.6-0.9c-0.6-0.9-1.2-1.8-1.9-2.7
			c0.1-0.1,0.2-0.2,0.3-0.2c1.4,0,1.5,1.8,2.3,2.2c0.4-0.2,0.7-0.2,1.1-0.3c0.2,0.4,0.3,0.8,0.3,1.2c-0.1,0.9,0.2,1.5,0.7,1.9
			c0.6-0.4,1-1,1.6-1c0.5,0,1,0.5,1.6,0.8c0.3-0.6,0.6-1.2,0.1-1.9c0,0,0-0.1-0.1-0.1c0-0.5-0.1-1-0.1-1.5c0.4,0,0.8,0.1,1.4,0.1
			c0.2-0.6,0.5-1.3,0.9-1.9c0.2-0.3,0.6-0.5,0.9-0.7c0.1,0.4,0.2,0.8,0.1,1.1c-0.1,0.5-0.5,0.9-0.6,1.4c-0.1,0.2-0.1,0.6,0.1,0.7
			c0.6,0.6,0.2,0.9-0.2,1.1c-0.9,0.3-1.1,1-1.3,1.9c1.7,0.3,2,0.8,1.7,2.4c0.8,0.2,1.5,0,2-0.6c0.7-0.9,1-0.8,1.7-0.1
			c0.2,0.2,0.4,0.2,0.6,0.2c0.5-0.1,1-0.2,1.5-0.2c0.3,0,0.6,0.2,1,0.3c-0.2,0.2-0.5,0.6-0.7,0.6c-0.6,0.2-1.4,0.2-2.1,0.3
			c0,0.2,0,0.4,0,0.6c0,0.8-0.2,1-0.9,0.6c-0.9-0.5-1.8-1-2.8-0.3c0.2,0.6,0.8,1.2,0.7,1.7c-0.1,0.4-0.8,0.7-1.5,1.1
			c0.2,0.5,0.6,1,1.5,1c0.1,0,0.2,0,0.2,0.1c0.3,0.2,0.6,0.4,1,0.6c-0.2,0.2-0.4,0.6-0.6,1c0.3,0.5,0.8,1.1,1.3,1.8
			c0.2,0.3,0.2,0.6,0.2,1c-0.3-0.1-0.6-0.2-0.9-0.4C669.9,297.7,669.6,297.2,669.2,296.7z M661.3,289c0.7,1.3,1,1.3,2.2,0.8
			C662.9,288.6,662.6,288.5,661.3,289z M663.7,291.1c-1.2-0.1-1.7,0.4-1.7,1.6C663.4,292.6,663.4,292.5,663.7,291.1z M665.7,289.5
			c1.1,0.2,1.5-0.1,1.5-1.4C666,288,665.8,288.2,665.7,289.5z M665.9,290.8c0.6,1.2,0.8,1.3,2.1,1
			C667.3,290.7,666.8,290.4,665.9,290.8z M664,287c-0.6,1-0.6,1.4,0.5,1.9C665.1,287.9,665.1,287.8,664,287z M665.1,293.4
			c0.2-0.6,0.9-1.3-0.2-1.9C664.6,292.2,664.1,292.8,665.1,293.4z"/>
	</g>
</g>
<radialGradient id="SVGID_1_" cx="355.5279" cy="320.7365" r="453.2673" gradientTransform="matrix(2.5031 0 0 -1.5548 -468.9219 718.0811)" gradientUnits="userSpaceOnUse">
	<stop  offset="1.095871e-03" style="stop-color:#AD8D89;stop-opacity:0.4"/>
	<stop  offset="4.715526e-02" style="stop-color:#B1837F;stop-opacity:0.3816"/>
	<stop  offset="0.2272" style="stop-color:#BE615F;stop-opacity:0.3095"/>
	<stop  offset="0.4113" style="stop-color:#C84746;stop-opacity:0.2357"/>
	<stop  offset="0.599" style="stop-color:#CF3433;stop-opacity:0.1606"/>
	<stop  offset="0.7923" style="stop-color:#D42929;stop-opacity:8.316076e-02"/>
	<stop  offset="1" style="stop-color:#D52525;stop-opacity:0"/>
</radialGradient>
<ellipse class="st6" cx="421" cy="219.4" rx="895" ry="827.2"/>
</svg>
