<?xml version="1.0" encoding="utf-8"?>
<!-- Generator: Adobe Illustrator 21.0.0, SVG Export Plug-In . SVG Version: 6.00 Build 0)  -->
<svg version="1.1" id="Calque_1" xmlns="http://www.w3.org/2000/svg" xmlns:xlink="http://www.w3.org/1999/xlink" x="0px" y="0px"
	 viewBox="0 0 319.3 60.7" style="enable-background:new 0 0 319.3 60.7;" xml:space="preserve">
<style type="text/css">
	.st0{opacity:0.3;}
	.st1{fill:#FFFFFF;}
</style>
<g id="WBVflh_1_" class="st0">
	<g>
		<g>
			<g>
				<path class="st1" d="M56,11c-0.7,0.6-1.4,1.2-1.9,1.9c-0.3,0.4-0.4,1-0.7,1.4c-0.5,0.5-1.1,0.9-1.7,1.4c0-0.7-0.1-1.4-0.1-2
					c0-0.3,0.2-0.5,0.2-0.8c-0.8-0.5-1.5-0.9-2.3-1.3c0.6-0.5,1.2-1.1,2-1.8c-0.4-0.3-0.9-0.6-1.3-1.1c-0.3-0.3-0.4-0.8-0.5-1.3
					c0.5-0.2,1.1-0.5,1.5-0.4C52.3,7.5,53,8.3,54,8.7c0.7,0.4,1.5,0.5,2.3,0.8c0.2-0.3,0.3-0.5,0.5-0.8c-1.3-1.1-2.6-2.3-3.9-3.5
					c-0.6-0.6-0.9-1.4-1.4-2.2c0.8,0.2,1.9,0,2.5,0.5c1.6,1.1,2.9,2.6,4.4,3.8c0.5,0.5,1.4,0.9,2,0.8c2.6-0.8,5.1-1.7,7.5-2.9
					c-2.4-0.5-4.8-2.3-7.1,0.1c-0.3,0.3-0.9,0.2-1.4,0.4c0-0.8,0-1.4,0-2.1c-0.4-0.6-0.8-1.1-1.2-1.7c0.7-0.4,1.3-0.8,2.1-1.3
					C60.2,0.1,60-0.3,60-0.7c0.1-0.5,0.4-1,0.6-1.5c0.5,0.3,1.2,0.5,1.3,0.8c0.7,3.8,3.8,3.8,6.6,4.2c0.5,0.1,0.8,0.1,2,0.2
					c-1.1-1-1.8-1.7-2.5-2.2C67,0,65.7-0.6,64.9-1.6c-2.9-3.3-6-2.9-9.3-1.1c-0.3,0.2-0.7,0.4-1.1,0.5c-0.5,0-0.9-0.2-1.4-0.3
					c0.2-0.5,0.3-1.1,0.6-1.3c1.5-0.9,3.1-1.7,4.6-2.9c-1.9-0.1-3.8-0.2-5.7-0.3c0-0.3-0.1-0.7-0.1-1c0.9-0.4,1.9-0.8,2.7-1.1
					c-0.2-0.8-0.5-1.7-0.7-2.6c0.8-0.2,1.6-0.2,2.5-0.4c0.5-0.4,1.1-0.8,1.7-1.2c0.2,0.8,0.5,1.6,0.6,2.3c0.2,0.8,0.1,1.7,0.2,2.4
					c0.2,0,0.5,0.1,0.8,0.1c0.4-1.3,0.7-2.6,1.1-3.8c0.5-1.1,0.3-2.9,2.6-2.9c-0.5,2.4-0.9,4.7-1.5,6.9c-0.4,1.4-0.2,2.3,1.1,3.2
					c1.7,1.2,3.4,2.6,5.2,4c0.3-2.7-0.5-3.8-2.7-4.7c-0.8-0.3-1.4-1-2.1-1.5c0.8-0.3,1.7-0.7,2.7-1.1c0.7-1.7,0.8-1.7,2.9-0.6
					c0.3-0.3,0.5-0.7,0.9-0.8c0.5-0.3,1.1-0.4,1.7-0.6c-0.1,0.6,0,1.4-0.3,1.7c-2.6,2.7-0.8,5.1,0.2,7.5c0.2,0.1,0.5,0.1,0.8,0.2
					c0.7-3.1,1.4-6.2,1.9-9.3c0.1-0.7-0.5-1.7-1.1-2.3c-1.1-1.1-2.5-1.9-3.6-2.9c-0.4-0.4-0.4-1.2-0.5-1.9c0.6,0.1,1.3-0.1,1.8,0.2
					c0.9,0.5,1.7,1.2,3,2.2c-0.5-1.1-1-1.6-1.1-2.2c-0.1-0.7,0.1-1.4,0.2-2.2c0.5,0.3,1.1,0.6,1.7,0.9c0.2,0.2,0.4,0.5,0.5,0.7
					c2.3-1.7,2.3-1.7,3.1,1c0.5-0.2,1.1-0.5,1.7-0.5s1.1,0.2,1.6,0.3c-0.4,0.5-0.6,1.1-1.1,1.4c-0.6,0.4-1.4,0.5-2,0.8
					c-0.6,0.4-1,1-1.5,1.5c0.2,0.3,0.3,0.5,0.5,0.8c1.5-0.5,2.9-0.9,4.5-1.3c0.7-0.2,1.4,0.1,2.2,0.1c-0.5,0.6-1,1.4-1.7,1.7
					c-1.1,0.5-2.3,1-3.4,1c-2.3,0.1-2.9,1.4-3.2,3.4c-0.3,1.9-0.8,3.8-1.3,6.2c2-1.6,3.3-2.8,2.9-5.2c-0.2-0.8,0.4-1.7,0.5-2.5
					c0.6,0.5,1.3,1,2,1.6c0.5-0.1,1.4-0.2,2.6-0.5c-0.5,1.1-0.7,1.7-0.9,2.3c0.2,0.2,0.2,0.3,0.4,0.5c0.5,0.5,1.1,1,1.5,1.5
					c-0.7,0.2-1.5,0.7-2.1,0.5c-1.7-0.5-2.7,0-3.6,1.4c-0.8,1.1-1.7,2.2-2.6,3.2c0.1,0.2,0.2,0.4,0.3,0.5c3.3-1.3,6.7-2.5,10-4
					c0.8-0.4,1-2,1.3-3.2c0.3-1.2,0.4-2.5,0.8-3.7c0.2-0.4,0.8-0.7,1.2-1c0.2,0.5,0.7,0.9,0.6,1.3c-0.2,1.7-0.5,3.5-0.8,5.4
					c2.3-0.5,1.4-4.1,4.4-3.8c-0.2,0.8-0.2,1.6-0.4,2.6c1.1,0,2,0,3,0c0.2,0.2,0.2,0.5,0.4,0.6c-0.8,0.7-1.7,1.3-2.7,2
					c0.3,0.3,0.8,0.6,1.1,1.1C94.9,0,94.9,0.6,95,1.2c-0.6-0.1-1.3,0.1-1.7-0.2c-1.1-0.6-2.2-1.4-3.2-2c-0.2,0.2-0.4,0.5-0.6,0.8
					c1.2,1.3,2.5,2.6,3.7,3.9c0.4,0.4,0.5,1.1,0.7,1.6c-0.7,0-1.6,0.3-2,0c-1.4-1.1-2.5-2.6-3.8-3.7c-0.6-0.5-1.7-0.8-2.5-0.5
					c-2.2,0.6-4.4,1.4-6.7,2.3c3.3,2.6,5.5,0.2,7.9-1.5c0.2,0.2,0.4,0.3,0.6,0.5c-0.4,0.9-0.8,1.7-1.1,2.6c0.8,0.7,1.6,1.4,2.4,2.1
					C87.7,7.3,87,7.7,86,8.1c0,0.1,0.1,0.5-0.1,0.9c-0.2,0.5-0.5,1-0.8,1.4c-0.5-0.4-1.2-0.6-1.4-1.1c-0.8-2.7-2.7-3.2-5.5-2.6
					c2.1,1.9,4.2,3.8,6.4,5.4c0.6,0.4,2-0.4,3.1-0.7c1.1-0.3,2.1-0.8,3.2-1.1c0.5-0.1,1,0.3,1.5,0.5c-0.3,0.5-0.6,1.1-1.1,1.2
					c-1.6,0.6-3.2,1.1-4.8,1.7c-0.1,0.3-0.1,0.6-0.2,0.9c0.9,0.3,1.8,0.7,2.7,0.9c0.8,0.2,1.7,0.3,2.6,0.5c-0.5,0.6-1.1,1.2-1.5,1.8
					c0.2,0.8,0.4,1.7,0.5,2.6c-0.8,0-1.6-0.1-2.6-0.1c-0.4,0.4-1,1.1-1.6,1.7c-0.2-0.1-0.4-0.2-0.5-0.2c-0.1-1.8-0.2-3.6-0.2-5.5
					c-0.2,0-0.5,0-0.7,0c-1.2,2,0.1,5.4-3.4,6.9c0.3-2.9,0.5-5.3,0.9-7.6c0.3-1.7-0.2-2.6-1.4-3.6c-2.1-1.8-4.2-3.8-6.7-5.4
					c0.5,1.5,1.1,2.9,1.4,4.5c0.5,2,2,2,3.5,2.5c0.5,0.2,0.8,0.8,1.1,1.1c-0.4,0.3-0.8,0.6-1.2,0.8c-0.4,0.2-0.8,0.1-1.1,0.1
					c-0.2,1.1-0.5,2-0.6,2.9c-0.8-0.5-1.5-0.9-2.4-1.4c0,0-0.2,0.3-0.5,0.5c-0.5,0.2-1,0.4-1.5,0.6c0-0.5-0.2-1.1,0-1.6
					c1.4-3.5,1.3-4.5-1-8.3c-0.9,3.2-1.7,6.1-2.3,9.1c-0.1,0.5,0.7,1.2,1.1,1.7c1.3,1.2,2.7,2.3,3.9,3.6c0.4,0.4,0.2,1.3,0.3,1.9
					c-0.6-0.2-1.4-0.2-1.8-0.5c-1.3-1.1-2.5-2.4-3.7-3.6c-0.2,0.2-0.5,0.3-0.7,0.5c0.2,0.6,0.2,1.3,0.6,1.7c0.6,0.8,1.4,1.6,2,2.4
					c0.3,0.5,0.2,1.1,0.2,1.7c-0.6-0.1-1.3,0-1.8-0.3c-0.5-0.2-0.8-0.8-1.3-1.2c-0.7,1.1-1.3,1.9-1.8,2.8c-0.2-0.1-0.5-0.2-0.8-0.3
					c0-1.1,0.1-2.1,0.1-3.1c-0.2-0.1-0.4-0.2-0.5-0.2c-0.9,0.1-1.7,0.2-2.6,0.2c0.6-0.7,1.2-1.4,2-2.1c0.5-0.5,1.3-0.8,1.9-1.3
					c-0.1-0.2-0.2-0.5-0.3-0.7c-1.3,0.3-2.6,0.8-3.9,1c-0.6,0.1-1.2-0.4-1.9-0.5c0.5-0.4,0.9-1.1,1.4-1.1c4.8-0.5,6.6-3.5,7.1-7.9
					c0.2-1.3,0.7-2.6,1.1-4c-2.8,1.7-3.7,3.6-3.1,6.3c0.1,0.5-0.2,1.1-0.3,1.6c-0.5-0.2-1.1-0.2-1.5-0.4c-0.7-0.3-1.4-0.7-2.3-1.2
					c0-0.4,0-1,0-1.7c-0.5-0.1-1.1-0.1-1.7-0.3c-0.4-0.2-0.9-0.7-0.8-0.8c0.2-0.4,0.5-0.8,1-1.1c0.2-0.2,0.6-0.1,0.9,0
					c2.7,0.4,4.1-1.2,5.4-4c-2,0.7-3.5,1.4-5,1.7c-3.4,0.7-4.8,2.8-4.8,6.1c0,0.6,0,1.2-0.3,1.7c-0.2,0.4-0.8,0.5-1.1,0.8
					c-0.2-0.4-0.7-0.8-0.7-1.2c0-1.6,0.2-3.1,0.3-4.6C56.5,11.3,56.3,11.1,56,11z"/>
			</g>
		</g>
	</g>
</g>
<g class="st0">
	<g>
		<path class="st1" d="M248.4,70.2c-1.5,0.4-2.5,0.8-3.4,0.9c-0.5,0-1.1-0.3-1.6-0.5c0.4-0.4,0.7-0.8,1.2-1c0.7-0.4,1.5-0.7,2.2-0.9
			c2.6-0.7,3.5-2.6,3.8-5.4c-1.3,0.3-2.4,0.8-3.5,0.9c-1.1,0.1-2.2,0-3.3,0.1c0-0.3-0.1-0.6-0.1-0.9c0.6-0.2,1.2-0.4,1.8-0.6
			c1.7-0.5,3.5-1,5.1-1.6c2.3-1,3-4.3,1.4-6.2c-0.3-0.4-0.7-0.9-1.1-1.4c-2.1-2.6-6.2-2.3-7.8,0.7c-0.7,1.3-1.1,2.7-1.8,3.9
			c-0.2,0.4-0.8,0.5-1.3,0.8c-0.1-0.5-0.5-1-0.4-1.5c0.4-1.5,1.1-2.9,1.6-4.5c-3.3-0.6-4.4-0.1-6,2.8c-0.4,0.7-0.6,1.5-1.1,2.1
			c-0.3,0.3-0.9,0.5-1.3,0.8c-0.1-0.6-0.5-1.1-0.3-1.6c0.3-1,0.9-1.9,1.4-3.1c-2-0.1-3.6-0.1-5.4-0.2c0-0.4-0.1-0.6-0.1-1
			c1.8-0.3,3.7-0.6,5.6-0.9c-0.9-1.5-1.7-2.8-2.5-4.1c0.1-0.2,0.2-0.3,0.3-0.5c0.5,0.1,1.1,0.1,1.6,0.4c0.4,0.3,0.7,0.9,1.1,1.4
			c2.3,3.1,3.1,3.2,7.2,1.4c-1.1-1.4-2.1-2.6-3.1-4c-0.4-0.5-0.5-1.2-0.8-1.8c0.6,0.2,1.4,0.1,1.8,0.5c1.4,1.3,2.8,2.6,3.7,4.1
			c1,1.6,2.3,0.9,3.5,0.7c0.8-0.2,1.5-0.8,1.9-1.5c0.5-0.9,0.7-2,1.1-3.1c0.4-1.1,1.6-2,0.3-3.3c-1.2-1.3-2.2-2.9-4.4-2.4
			c-1.5,0.3-3.1,0.5-4.7,0.6c-0.7,0-1.4-0.2-2.1-0.4c0-0.3,0-0.6,0-0.9c2.2-0.4,4.6-0.8,6.8-1.3c-0.8-2.3-1.7-2.9-4.4-2.6
			c-1.1,0.1-2.1,0.2-3.2,0.1c-0.6-0.1-1.1-0.4-1.6-0.7c0-0.2,0.1-0.5,0.1-0.6c1.7-0.2,3.4-0.4,5.6-0.7c-1.1-2-2.1-3.6-3.2-5.4
			c0.2-0.2,0.4-0.4,0.7-0.6c0.7,0.6,1.4,1.1,1.9,1.7c0.7,0.7,1.1,1.6,2,3c0.5-1.4,0.7-2.5,1.1-3.3c0.3-0.6,0.8-1,1.3-1.5
			c0.2,0.6,0.6,1.2,0.6,1.8c0,0.9-0.1,2-0.5,2.7c-1.3,2.5,0.1,3.9,2.2,5.6c0.5-1.6,0.8-2.9,1.2-4.2c0.2-0.6,0.2-1.3,0.6-1.9
			c0.2-0.4,0.8-0.6,1.2-0.9c0.2,0.5,0.7,1,0.6,1.3c-0.4,2.1-0.7,4.3-1.5,6.3c-0.5,1.4,0.1,2.1,0.8,2.8c0.8,0.9,1.3,2.4,3.1,1.8
			c0.8-0.3,1.7-0.4,2.5-0.5c3.5-0.7,4.6-3.8,2.6-6.7c-1.2-1.7-2.4-3.4-3.3-5.4c2.8,0.2,3.2,3.2,5.4,4.6c0.9-1.5,1.9-2.9,0.5-4.8
			c-0.7-0.9-1.1-2-1.6-3.1c-0.1-0.3,0.1-0.9,0.1-1.4c0.5,0.2,1.1,0.2,1.4,0.6c0.6,0.7,1,1.7,1.7,2.9c0.9-1.7,1.6-3.1,2.3-4.3
			c0.3-0.4,1-0.5,1.5-0.7c0,0.5,0.2,1.1,0.1,1.5c-0.5,1.3-1.1,2.4-1.9,4.1c1.7-0.4,2.9-0.7,4-0.9c0.6-0.1,1.1,0.2,1.7,0.4
			c-0.4,0.4-0.8,0.9-1.2,1.2c-0.9,0.4-1.9,0.7-2.9,0.9c-2.9,0.8-3.3,1.4-3.5,4.6c2.3-0.2,4.6-0.4,6.9-0.5c0.1,0.3,0.1,0.6,0.2,0.9
			c-0.6,0.3-1,0.7-1.6,0.8c-1.3,0.3-2.7,0.3-4.1,0.6c-3.4,0.6-4.5,3.1-2.7,6.1c0.4,0.7,0.9,1.5,1.5,2.2c2.2,2.8,5.1,2.5,6.7-0.7
			c0.7-1.4,1.3-2.7,2.2-4c0.4-0.6,1.2-1,1.8-1.4c-0.1,0.7,0,1.6-0.2,2.3c-0.6,1.3-1.3,2.6-2.1,4c3.6,0.5,4,0.2,5.8-2.5
			c0.6-0.9,1.6-1.6,2.5-2.3c1.2,1.4-0.6,2-0.9,3.1c-0.1,0.4-0.3,0.8-0.6,1.4c1.5-0.2,2.8-0.3,4-0.3c0.4,0,0.8,0.4,1.2,0.6
			c-0.3,0.3-0.6,0.8-1,1c-1.3,0.3-2.5,0.4-4.1,0.8c0.9,1.4,1.6,2.6,2.3,3.8c0.2,0.5,0.1,1.1,0.1,1.7c-0.5-0.2-1.2-0.4-1.6-0.8
			c-0.6-0.6-1.1-1.4-1.5-2.1c-1.8-2.8-2-2.9-5.6-1.8c1.2,1.8,2.3,3.7,3.5,5.7c-0.2,0.2-0.3,0.4-0.5,0.6c-0.6-0.4-1.3-0.6-1.8-1.1
			c-0.9-1.1-1.7-2.3-2.4-3.6c-0.8-1.5-2-1.5-3.5-1.2c-1.4,0.3-2.1,0.8-2.3,2.3c-0.2,1.3-1.1,2.5-1.4,3.8c-0.2,0.9-0.3,2,0.2,2.7
			c0.3,0.5,1.5,0.5,2.4,0.6c2.1,0.1,4.2,0.1,6.3,0.2c0.4,0.1,0.7,0.5,1.1,0.7c0,0.2-0.1,0.4-0.1,0.6c-2.4,0-4.8,0.1-7.3,0.1
			c0.9,3.2,2.1,4.2,4.8,4.5c1.7,0.2,3.5,0.5,5.6,0.8c-1.9,2.4-4.1,0.5-6.1,1.3c1.1,1.7,2.2,3.4,3.4,5.3c-1.8,0.8-2.2-0.6-2.9-1.3
			c-0.7-0.8-1.3-1.7-2.4-3c-0.5,1.7-0.8,2.9-1.3,4c-0.2,0.5-0.9,0.8-1.3,1.1c-0.1-0.5-0.5-1-0.5-1.4c0.2-1.1,0.4-2.1,0.9-3.1
			c1.2-2.8,1-3.7-2.1-5.9c-0.5,1.6-0.9,3.2-1.5,4.7c-0.2,0.5-0.7,1-1.2,1.5c-0.2-0.7-0.7-1.4-0.6-2c0.3-1.7,0.8-3.3,1.5-5
			c0.9-2.1-0.3-3.9-2.6-3.8c-0.9,0-1.8,0-2.6,0.1c-1.1,0.1-2.8,0.1-3.2,0.8c-1,1.6-2,3.5-0.3,5.6c1.1,1.4,2,3,2.8,4.6
			c0.2,0.5,0.1,1.2,0.1,1.7c-0.6-0.3-1.4-0.4-1.6-0.8c-1-1.5-1.9-3.1-2.9-4.8c-1.9,2.8-1.9,4-0.4,6.1c0.8,1.1,1.5,2.3,2.2,3.4
			c-1.3,0.5-1.3,0.5-4.3-2.9c-0.9,1.3-1.7,2.7-2.6,3.8c-0.4,0.5-1.1,0.6-1.6,0.9c0-0.7-0.2-1.4,0.1-1.9
			C246.7,72.8,247.5,71.7,248.4,70.2z M255.4,49.2c0.1-0.2,0.2-0.4,0.3-0.6c-1-1.1-2-2.1-3.4-3.6c-0.6,1.8-1,3.1-1.5,4.8
			C252.6,49.5,254,49.4,255.4,49.2z M257.5,51.2c-0.5,1.5-1,2.7-1.5,4.2c1.7,0.1,3.1,0.1,5,0.1C259.6,53.8,258.7,52.7,257.5,51.2z
			 M262.7,54.5c0.6-1.9,0.9-3.3,1.5-5c-1.9,0.4-3.1,0.7-4.7,1C260.6,51.8,261.5,52.9,262.7,54.5z M263.1,47.7c-1.1-1.4-2-2.5-3-3.8
			c-0.5,1.7-1,3-1.6,4.7C260.2,48.4,261.5,48.1,263.1,47.7z M254.2,44.1c1,1.1,1.7,1.9,2.6,2.9c0.5-1.4,0.8-2.4,1.3-3.7
			C256.7,43.7,255.7,43.8,254.2,44.1z M255.4,50.9c-1.6,0.3-2.5,0.5-3.8,0.7c0.8,1.1,1.4,1.8,2.2,2.8
			C254.4,53.3,254.8,52.4,255.4,50.9z"/>
	</g>
</g>
</svg>
