<?xml version="1.0" encoding="utf-8"?>
<!-- Generator: Adobe Illustrator 21.0.0, SVG Export Plug-In . SVG Version: 6.00 Build 0)  -->
<svg version="1.1" id="Calque_1" xmlns="http://www.w3.org/2000/svg" xmlns:xlink="http://www.w3.org/1999/xlink" x="0px" y="0px"
	 viewBox="0 0 319.3 60.7" style="enable-background:new 0 0 319.3 60.7;" xml:space="preserve">
<style type="text/css">
	.st0{opacity:0.7;}
	.st1{fill:#FFFFFF;}
</style>
<g id="WBVflh_1_" class="st0">
	
		<image style="overflow:visible;opacity:0.3;" width="387" height="389" xlink:href="173B788026FE1C04.png"  transform="matrix(0.24 0 0 0.24 212.3867 18.4)">
	</image>
	<g>
		<g>
			<g>
				<path class="st1" d="M229.1,66.4c-0.9,0.8-1.8,1.6-2.5,2.5c-0.4,0.5-0.5,1.3-0.9,1.8c-0.6,0.7-1.5,1.2-2.3,1.8
					c0-0.9-0.1-1.8-0.1-2.6c0-0.4,0.2-0.7,0.3-1c-1.1-0.6-2-1.2-3-1.7c0.8-0.7,1.6-1.4,2.7-2.4c-0.5-0.4-1.2-0.8-1.7-1.4
					c-0.4-0.4-0.5-1.1-0.7-1.7c0.7-0.2,1.5-0.7,2-0.5c1.2,0.6,2.2,1.6,3.5,2.2c0.9,0.5,2,0.6,3,1c0.2-0.4,0.4-0.7,0.6-1.1
					c-1.7-1.5-3.5-3-5.2-4.6c-0.8-0.8-1.2-1.9-1.8-2.9c1.1,0.2,2.5,0,3.3,0.6c2.1,1.5,3.8,3.4,5.8,5c0.7,0.6,1.9,1.2,2.7,1
					c3.4-1,6.7-2.3,9.9-3.9c-3.2-0.6-6.3-3-9.4,0.1c-0.4,0.4-1.2,0.3-1.8,0.5c0-1,0-1.9,0-2.8c-0.5-0.8-1-1.5-1.6-2.3
					c0.9-0.5,1.7-1.1,2.8-1.7c-0.1-0.3-0.4-0.9-0.3-1.4c0.1-0.7,0.5-1.3,0.8-2c0.6,0.4,1.6,0.6,1.7,1.1c0.9,5.1,5,5,8.7,5.6
					c0.6,0.1,1.1,0.1,2.7,0.2c-1.5-1.3-2.4-2.2-3.3-2.9c-1.4-1.1-3.1-1.9-4.2-3.2c-3.8-4.4-7.9-3.8-12.3-1.4
					c-0.4,0.2-0.9,0.5-1.4,0.6c-0.6,0-1.2-0.2-1.8-0.4c0.3-0.6,0.4-1.4,0.8-1.7c2-1.2,4.1-2.2,6.1-3.8c-2.5-0.1-5-0.3-7.5-0.4
					c0-0.4-0.1-0.9-0.1-1.3c1.2-0.5,2.5-1,3.6-1.5c-0.3-1.1-0.6-2.3-0.9-3.4c1.1-0.2,2.1-0.3,3.3-0.5c0.6-0.5,1.5-1,2.3-1.6
					c0.3,1,0.7,2.1,0.8,3.1c0.2,1.1,0.1,2.2,0.2,3.2c0.3,0,0.7,0.1,1,0.1c0.5-1.7,0.9-3.4,1.5-5c0.6-1.5,0.4-3.9,3.4-3.8
					c-0.7,3.2-1.2,6.2-2,9.1c-0.5,1.9-0.2,3.1,1.4,4.3c2.3,1.6,4.5,3.5,6.9,5.3c0.4-3.6-0.6-5.1-3.6-6.2c-1-0.4-1.9-1.3-2.8-2
					c1.1-0.4,2.2-0.9,3.6-1.4c0.9-2.3,1-2.3,3.8-0.8c0.4-0.4,0.7-0.9,1.2-1.1c0.7-0.4,1.5-0.5,2.2-0.8c-0.1,0.8,0,1.9-0.4,2.3
					c-3.5,3.6-1,6.8,0.2,10c0.3,0.1,0.7,0.1,1,0.2c0.9-4.1,1.9-8.2,2.5-12.3c0.1-0.9-0.6-2.3-1.4-3c-1.5-1.4-3.3-2.5-4.8-3.9
					c-0.5-0.5-0.5-1.6-0.7-2.5c0.8,0.1,1.7-0.1,2.4,0.2c1.2,0.6,2.2,1.6,4,2.9c-0.7-1.5-1.3-2.1-1.4-2.9c-0.1-0.9,0.1-1.9,0.2-2.9
					c0.7,0.4,1.5,0.8,2.2,1.2c0.3,0.2,0.5,0.6,0.7,0.9c3-2.3,3-2.3,4.1,1.3c0.7-0.2,1.5-0.6,2.2-0.6c0.7,0,1.4,0.2,2.1,0.4
					c-0.5,0.6-0.8,1.5-1.4,1.8c-0.8,0.5-1.9,0.6-2.7,1.1c-0.8,0.5-1.3,1.3-2,2c0.2,0.4,0.4,0.7,0.6,1.1c2-0.6,3.9-1.2,5.9-1.7
					c0.9-0.2,1.9,0.1,2.9,0.1c-0.7,0.8-1.3,1.8-2.2,2.2c-1.4,0.7-3,1.3-4.5,1.3c-3.1,0.1-3.9,1.9-4.3,4.5c-0.4,2.5-1,5-1.7,8.2
					c2.7-2.1,4.4-3.7,3.8-6.9c-0.2-1,0.5-2.2,0.7-3.3c0.8,0.6,1.7,1.3,2.7,2.1c0.7-0.1,1.9-0.3,3.5-0.6c-0.6,1.4-0.9,2.2-1.2,3
					c0.2,0.2,0.3,0.4,0.5,0.6c0.7,0.7,1.4,1.3,2,2c-0.9,0.3-2,0.9-2.8,0.7c-2.2-0.6-3.6,0-4.8,1.8c-1,1.5-2.2,2.9-3.4,4.3
					c0.1,0.2,0.3,0.5,0.4,0.7c4.4-1.7,8.9-3.3,13.2-5.3c1-0.5,1.3-2.7,1.7-4.2c0.4-1.6,0.5-3.3,1-4.9c0.2-0.5,1.1-0.9,1.6-1.3
					c0.3,0.6,0.9,1.2,0.8,1.7c-0.2,2.3-0.6,4.6-1,7.2c3-0.7,1.9-5.4,5.8-5c-0.2,1.1-0.3,2.1-0.5,3.4c1.4,0,2.7,0,4,0
					c0.2,0.3,0.3,0.6,0.5,0.8c-1.1,0.9-2.3,1.7-3.6,2.7c0.4,0.4,1.1,0.8,1.4,1.4c0.3,0.7,0.3,1.5,0.4,2.3c-0.8-0.1-1.7,0.1-2.3-0.2
					c-1.5-0.8-2.9-1.8-4.3-2.7c-0.3,0.3-0.5,0.7-0.8,1c1.6,1.7,3.3,3.4,4.9,5.2c0.5,0.5,0.6,1.4,0.9,2.1c-0.9,0-2.1,0.4-2.6,0
					c-1.8-1.5-3.3-3.4-5.1-4.9c-0.8-0.6-2.3-1-3.3-0.7c-2.9,0.8-5.8,1.9-8.9,3c4.4,3.4,7.3,0.2,10.4-2c0.3,0.2,0.5,0.4,0.8,0.7
					c-0.5,1.2-1,2.3-1.5,3.4c1,0.9,2.1,1.8,3.2,2.8c-1,0.4-2,0.9-3.3,1.5c0,0.1,0.1,0.7-0.1,1.2c-0.2,0.7-0.6,1.3-1,1.9
					c-0.6-0.5-1.6-0.8-1.8-1.4c-1-3.6-3.6-4.2-7.3-3.5c2.8,2.5,5.5,5.1,8.5,7.2c0.8,0.5,2.7-0.5,4.1-0.9c1.4-0.4,2.8-1.1,4.2-1.4
					c0.6-0.1,1.3,0.4,2,0.6c-0.4,0.6-0.8,1.4-1.4,1.6c-2.1,0.8-4.2,1.5-6.3,2.2c-0.1,0.4-0.1,0.8-0.2,1.2c1.2,0.4,2.4,0.9,3.6,1.2
					c1.1,0.3,2.3,0.4,3.4,0.6c-0.7,0.8-1.4,1.6-2,2.4c0.2,1.1,0.5,2.3,0.7,3.5c-1.1,0-2.1-0.1-3.5-0.1c-0.5,0.5-1.3,1.4-2.1,2.2
					c-0.2-0.1-0.5-0.2-0.7-0.2c-0.1-2.4-0.2-4.8-0.3-7.3c-0.3,0-0.6,0-0.9,0c-1.6,2.7,0.1,7.1-4.5,9.2c0.4-3.8,0.7-7,1.2-10.1
					c0.4-2.2-0.3-3.5-1.9-4.8c-2.8-2.4-5.5-5-8.9-7.2c0.6,2,1.4,3.9,1.9,5.9c0.6,2.6,2.7,2.7,4.7,3.3c0.6,0.2,1,1,1.4,1.5
					c-0.5,0.4-1,0.8-1.6,1.1c-0.5,0.2-1.1,0.1-1.4,0.1c-0.3,1.5-0.6,2.7-0.8,3.9c-1-0.6-2-1.2-3.2-1.9c0,0-0.3,0.4-0.7,0.6
					c-0.6,0.3-1.3,0.5-2,0.8c0-0.7-0.2-1.5,0-2.1c1.8-4.7,1.7-6-1.3-11c-1.2,4.3-2.3,8.1-3.1,12c-0.1,0.6,0.9,1.6,1.5,2.2
					c1.7,1.6,3.6,3.1,5.2,4.8c0.5,0.5,0.3,1.7,0.4,2.5c-0.8-0.2-1.8-0.2-2.4-0.7c-1.7-1.5-3.3-3.2-4.9-4.8c-0.3,0.2-0.6,0.4-0.9,0.6
					c0.2,0.8,0.3,1.7,0.8,2.3c0.8,1.1,1.9,2.1,2.6,3.2c0.4,0.6,0.2,1.5,0.3,2.3c-0.8-0.1-1.7,0-2.4-0.4c-0.6-0.3-1.1-1-1.7-1.6
					c-0.9,1.4-1.7,2.5-2.4,3.7c-0.3-0.1-0.7-0.3-1-0.4c0-1.4,0.1-2.8,0.1-4.1c-0.3-0.1-0.5-0.3-0.7-0.3c-1.2,0.1-2.3,0.2-3.5,0.3
					c0.8-0.9,1.6-1.9,2.6-2.8c0.7-0.7,1.7-1.1,2.5-1.7c-0.1-0.3-0.2-0.6-0.4-0.9c-1.7,0.4-3.4,1-5.2,1.3c-0.8,0.1-1.6-0.5-2.5-0.7
					c0.6-0.5,1.2-1.5,1.8-1.5c6.4-0.6,8.8-4.6,9.4-10.4c0.2-1.7,0.9-3.4,1.4-5.3c-3.7,2.2-4.9,4.8-4.1,8.4c0.1,0.7-0.2,1.4-0.4,2.1
					c-0.7-0.2-1.4-0.3-2-0.5c-0.9-0.4-1.8-0.9-3-1.6c0-0.5,0-1.3,0-2.3c-0.7-0.1-1.5-0.1-2.2-0.4c-0.5-0.2-1.2-0.9-1.1-1.1
					c0.2-0.5,0.7-1,1.3-1.4c0.3-0.2,0.8-0.1,1.2,0c3.6,0.5,5.4-1.6,7.1-5.3c-2.6,0.9-4.6,1.9-6.6,2.3c-4.5,0.9-6.4,3.7-6.3,8.1
					c0,0.8,0,1.6-0.4,2.3c-0.3,0.5-1,0.7-1.5,1.1c-0.3-0.5-0.9-1.1-0.9-1.6c0-2.1,0.3-4.1,0.4-6.1C229.7,66.8,229.4,66.6,229.1,66.4
					z"/>
			</g>
		</g>
	</g>
</g>
<g class="st0">
	
		<image style="overflow:visible;opacity:0.3;" width="426" height="445" xlink:href="173B788026FE1C05.png"  transform="matrix(0.24 0 0 0.24 24.2267 -34.4)">
	</image>
	<g>
		<path class="st1" d="M71.9,42c-1.5,1.5-2.4,2.6-3.4,3.4c-0.6,0.4-1.5,0.4-2.3,0.5c0.2-0.7,0.3-1.4,0.7-2c0.6-0.9,1.3-1.8,2-2.5
			c2.6-2.6,2.4-5.5,0.9-9c-1.3,1.2-2.3,2.5-3.6,3.4c-1.2,0.9-2.6,1.5-3.9,2.3c-0.2-0.3-0.5-0.7-0.7-1c0.6-0.6,1.2-1.3,1.8-1.9
			c1.7-1.8,3.5-3.5,5-5.4c2.1-2.7,0.7-7.2-2.5-8.4c-0.7-0.3-1.5-0.6-2.2-0.9c-4.3-1.7-8.9,1.4-8.8,6c0.1,2,0.5,3.9,0.5,5.9
			c0,0.6-0.6,1.2-1,1.8c-0.5-0.5-1.3-0.9-1.5-1.5c-0.5-2.1-0.7-4.2-1.1-6.4c-4.4,1.5-5.3,2.9-5.3,7.3c0,1.1,0.3,2.2,0.1,3.2
			c-0.1,0.6-0.7,1.2-1,1.8c-0.5-0.6-1.4-1-1.5-1.7c-0.3-1.4-0.2-2.9-0.4-4.6c-2.4,1.2-4.4,2.3-6.5,3.4c-0.3-0.4-0.5-0.7-0.8-1.1
			c2-1.6,4-3.2,6.1-4.9c-2.1-1.2-3.9-2.2-5.8-3.2c0-0.3,0-0.5,0-0.8c0.7-0.2,1.4-0.6,2.1-0.6c0.7,0.1,1.4,0.6,2.2,0.9
			c4.8,2.1,5.9,1.7,9.5-3.1c-2.2-0.9-4.3-1.7-6.4-2.6c-0.8-0.4-1.4-1.1-2.1-1.6c0.9-0.2,1.8-0.8,2.5-0.6c2.5,0.6,5,1.2,7.2,2.4
			c2.3,1.2,3.4-0.5,4.6-1.5c0.8-0.7,1.3-2,1.3-3.1c0-1.4-0.5-2.9-0.7-4.4c-0.2-1.6,0.6-3.4-1.8-4.1c-2.3-0.7-4.6-1.9-6.9,0.1
			c-1.6,1.4-3.4,2.7-5.2,3.9c-0.8,0.5-1.8,0.7-2.8,1c-0.2-0.4-0.4-0.7-0.6-1.1c2.4-2,4.9-4,7.3-6.1C44.4,3,42.9,2.9,39.9,5
			c-1.2,0.8-2.4,1.7-3.8,2.3c-0.7,0.3-1.6,0.2-2.4,0.3c-0.1-0.3-0.2-0.6-0.3-0.8c1.9-1.4,3.8-2.8,6.2-4.6c-2.7-1.6-5-2.9-7.4-4.3
			c0.1-0.4,0.2-0.8,0.4-1.2C33.8-3.1,35-3,36-2.6c1.3,0.4,2.4,1.2,4.4,2.2c-0.4-2-0.8-3.4-0.9-4.7C39.4-6,39.8-6.9,40-7.8
			c0.6,0.6,1.5,1,1.9,1.7c0.6,1.1,1.2,2.4,1.2,3.6c0.1,3.8,2.7,4.6,6.4,5.2c-0.5-2.2-1-4-1.4-5.8c-0.2-0.9-0.6-1.7-0.6-2.6
			c0-0.6,0.5-1.3,0.8-1.9c0.6,0.4,1.5,0.7,1.6,1.2c0.9,2.8,2,5.6,2.4,8.5c0.3,2,1.5,2.4,2.9,2.8c1.6,0.5,3.2,2,4.9,0.1
			c0.8-0.9,1.8-1.6,2.7-2.3c3.7-3.2,3-7.6-1.4-9.7c-2.5-1.2-5.1-2.5-7.5-4.2c3.5-1.7,6,1.7,9.5,1.8c0-2.4,0.3-4.7-2.6-6
			c-1.4-0.6-2.7-1.6-3.9-2.6c-0.4-0.3-0.5-1.1-0.8-1.7c0.7-0.1,1.5-0.5,2.1-0.3c1.2,0.5,2.3,1.3,3.9,2.3c-0.1-2.6-0.2-4.7-0.1-6.7
			c0-0.7,0.8-1.3,1.3-1.9c0.4,0.6,1,1.1,1.1,1.8c0.3,1.8,0.3,3.6,0.5,6.2c1.8-1.6,2.9-2.8,4.2-3.8c0.6-0.5,1.5-0.5,2.3-0.7
			c-0.2,0.7-0.3,1.6-0.7,2.2c-0.8,1.1-1.8,2.1-2.8,3c-2.9,2.9-3,3.9-1.1,7.9c2.6-1.7,5.2-3.5,7.9-5.2c0.3,0.3,0.5,0.6,0.8,0.9
			c-0.5,0.7-0.8,1.5-1.4,2c-1.4,1.2-3,2.2-4.5,3.4c-3.7,3-3.3,6.7,0.9,9c1,0.6,2.1,1.1,3.2,1.6c4.5,1.8,7.8-0.5,7.6-5.3
			c-0.1-2.1-0.3-4.1-0.1-6.2c0.1-1,0.8-2,1.2-2.9c0.4,0.9,1.1,1.9,1.3,2.8c0.2,2,0.2,4,0.2,6.2c4.7-1.8,4.9-2.4,5.2-6.9
			c0.1-1.5,0.9-3,1.4-4.4c2.4,0.9,0.7,2.8,1,4.3c0.1,0.5,0.2,1.1,0.3,2.1c1.7-1.2,3.1-2.2,4.6-3.1c0.5-0.3,1.2-0.1,1.8-0.1
			c-0.2,0.6-0.2,1.4-0.5,1.8c-1.3,1.2-2.7,2.2-4.4,3.7c2,1.1,3.7,2,5.3,3c0.6,0.4,0.9,1.2,1.3,1.9c-0.8,0.1-1.7,0.3-2.4,0.1
			c-1.1-0.3-2.2-0.9-3.2-1.5c-4-2.2-4.3-2.1-7.9,1.6C89,0.5,91.7,2,94.4,3.6c-0.1,0.4-0.1,0.7-0.2,1.1c-1,0-2,0.2-2.9-0.1
			c-1.8-0.7-3.6-1.6-5.3-2.6c-2-1.2-3.4-0.4-5,1c-1.4,1.3-1.9,2.4-1.2,4.3c0.7,1.7,0.4,3.7,0.9,5.5c0.3,1.2,1,2.6,2,3.1
			c0.7,0.4,2.2-0.4,3.2-0.9c2.6-1.3,5-2.7,7.6-4c0.5-0.2,1.2,0.1,1.8,0.1c0.1,0.2,0.2,0.5,0.3,0.7c-2.8,1.6-5.7,3.3-8.6,5
			c3.2,3.2,5.3,3.6,8.7,2.1c2.2-0.9,4.5-1.7,7.2-2.8c-0.7,4.1-4.5,3.3-6.4,5.6c2.5,1.3,4.9,2.6,7.6,4c-1.6,2.1-3,0.8-4.3,0.4
			c-1.4-0.5-2.7-1.1-4.9-2c0.5,2.4,1,4,1.1,5.7c0.1,0.7-0.5,1.5-0.8,2.2c-0.5-0.5-1.3-0.8-1.5-1.4c-0.5-1.4-0.9-2.8-1-4.3
			c-0.5-4.1-1.3-5-6.4-5.6c0.5,2.3,1.1,4.4,1.4,6.6c0.1,0.8-0.2,1.7-0.4,2.6c-0.7-0.7-1.8-1.2-2-2c-0.7-2.2-1.3-4.5-1.6-6.9
			c-0.4-3.1-3-4.4-5.7-2.8c-1,0.6-2.1,1.2-3,1.9c-1.2,0.9-3.3,2-3.3,3.1c-0.1,2.6,0,5.5,3.4,6.8c2.3,0.9,4.4,2.3,6.4,3.6
			c0.6,0.4,0.9,1.3,1.3,2c-0.9,0.1-1.9,0.5-2.5,0.1c-2.2-1.1-4.4-2.4-6.7-3.8c-0.4,4.6,0.4,6,3.6,7.5c1.7,0.8,3.3,1.7,4.9,2.6
			c-1.2,1.5-1.2,1.5-7.1-0.5c-0.2,2.2-0.2,4.3-0.5,6.3c-0.1,0.8-0.9,1.5-1.3,2.2c-0.4-0.8-1.1-1.5-1.2-2.3
			C71.7,46.2,71.9,44.4,71.9,42z M66.2,12.3c0-0.3-0.1-0.6-0.1-0.9c-1.9-0.6-3.8-1.2-6.4-2c0.5,2.6,0.9,4.4,1.4,6.8
			C63.1,14.6,64.7,13.5,66.2,12.3z M70.1,13.3c0.4,2.2,0.6,3.9,1,6c2.1-1.1,3.7-2,6-3.2C74.3,15,72.5,14.3,70.1,13.3z M78.5,13.7
			c-0.6-2.7-1.1-4.5-1.6-7c-2,1.8-3.3,2.9-4.9,4.4C74.2,11.9,75.9,12.6,78.5,13.7z M74.4,5.4c-2.3-0.9-4-1.6-6.1-2.5
			c0.5,2.4,0.8,4.2,1.3,6.7C71.4,8.1,72.7,6.9,74.4,5.4z M61.4,7.1c1.9,0.6,3.3,1.1,5.1,1.7c-0.3-2-0.6-3.4-0.9-5.3
			C64.1,4.8,63,5.7,61.4,7.1z M67.4,14.3c-1.7,1.4-2.7,2.3-4,3.4c1.7,0.7,2.9,1.2,4.5,1.8C67.8,17.8,67.7,16.5,67.4,14.3z"/>
	</g>
</g>
</svg>
