<?xml version="1.0" encoding="utf-8"?>
<!-- Generator: Adobe Illustrator 21.0.0, SVG Export Plug-In . SVG Version: 6.00 Build 0)  -->
<svg version="1.1" id="Calque_1" xmlns="http://www.w3.org/2000/svg" xmlns:xlink="http://www.w3.org/1999/xlink" x="0px" y="0px"
	 viewBox="0 0 56.7 56.7" style="enable-background:new 0 0 56.7 56.7;" xml:space="preserve">
<style type="text/css">
	.st0{fill:none;stroke:#FFFFFF;stroke-width:1.5;stroke-linecap:round;stroke-linejoin:round;stroke-miterlimit:10;}
	.st1{fill:#FFFFFF;}
</style>
<polyline class="st0" points="26.1,19.4 18.5,19.4 18.5,23.4 20.7,23.4 24.9,34.8 32.4,34.8 40.4,34.8 44.1,23.4 46.4,23.4 
	46.4,19.4 38,19.4 "/>
<polyline class="st0" points="42,37.8 21.5,37.8 13,17.8 7.7,17.8 7.7,21 14.4,20.9 "/>
<circle class="st1" cx="23" cy="42.7" r="2.1"/>
<circle class="st1" cx="40.1" cy="42.7" r="2.1"/>
<polygon class="st1" points="35.6,23.4 35.6,12.5 28.7,12.5 28.7,23.4 26.1,23.4 32.2,30.4 38.3,23.4 "/>
<polygon class="st1" points="14.4,20.9 7.7,20.9 7.7,17.8 13,17.8 "/>
</svg>
