<?xml version="1.0" encoding="utf-8"?>
<!-- Generator: Adobe Illustrator 21.0.0, SVG Export Plug-In . SVG Version: 6.00 Build 0)  -->
<svg version="1.1" id="Calque_1" xmlns="http://www.w3.org/2000/svg" xmlns:xlink="http://www.w3.org/1999/xlink" x="0px" y="0px"
	 viewBox="0 0 56.7 56.7" style="enable-background:new 0 0 56.7 56.7;" xml:space="preserve">
<style type="text/css">
	.st0{fill:#FFFFFF;}
	.st1{fill:#9B9B9B;}
</style>
<g id="tgxvHu_1_">
	<g>
		<g>
			<path class="st0" d="M20,17.6c2.5-3.9,6.7-5.3,10.8-4.3c4.2,1,7.4,4.9,7.7,9.2C38.9,28.1,36,32,30,33.8c0,1.1,0,2.2,0,3.4
				c0.9,0,1.7,0,2.6,0c0,1.3,0,2.5,0,3.7c-0.8,0-1.5,0-2.4,0c0,1-0.1,1.8-0.1,2.7c-1.3,0-2.5,0-3.9,0c0-0.9,0-1.8,0-2.8
				c-0.9,0-1.6,0-2.4,0c0-1.3,0-2.5,0-3.8c0.8,0,1.6,0,2.4,0c0-1.1,0-2.1,0-3.1c0-0.2-0.3-0.5-0.5-0.6c-4-1.5-7-4.3-7.4-8.6
				C18.1,23.6,18.1,20.5,20,17.6z M22,23.4c0,3.5,2.9,6.4,6.5,6.4s6.6-2.9,6.6-6.3c0-3.5-2.9-6.4-6.6-6.4C24.9,17.1,22,19.9,22,23.4
				z"/>
		</g>
	</g>
</g>
<path class="st1" d="M-45.4,24.6c-1.2,0-2.5,0-3.8,0c0-1.1,0-2.2,0-3.5c-1.5,1.4-2.6,2.7-3.9,3.8c-1.3,1-1.5,1.9-0.8,3.5
	c2.6,6.7-2.3,14-9.2,14c-4.3,0-7.4-2.1-9.2-5.9c-1.8-4-1.3-7.9,1.5-11.4s8.3-5.1,13.4-1.7c1.9-1.8,3.7-3.6,5.8-5.5c-1.5,0-2.7,0-4,0
	c0-1.2,0-2.3,0-3.6c3.4,0,6.9,0,10.3,0C-45.4,17.7-45.4,21.2-45.4,24.6z M-63.3,38.3c3.6,0,6.5-2.8,6.6-6.3s-3-6.5-6.6-6.4
	c-3.6,0-6.5,2.9-6.5,6.4C-69.9,35.4-66.9,38.3-63.3,38.3z"/>
</svg>
