<?xml version="1.0" encoding="utf-8"?>
<!-- Generator: Adobe Illustrator 21.0.0, SVG Export Plug-In . SVG Version: 6.00 Build 0)  -->
<svg version="1.1" id="Calque_1" xmlns="http://www.w3.org/2000/svg" xmlns:xlink="http://www.w3.org/1999/xlink" x="0px" y="0px"
	 viewBox="0 0 56.7 56.7" style="enable-background:new 0 0 56.7 56.7;" xml:space="preserve">
<style type="text/css">
	.st0{opacity:0.7;}
	.st1{fill:#FFFFFF;}
	.st2{fill:#A22222;}
	.st3{fill:#9B9B9B;}
</style>
<g class="st0">
	<path class="st1" d="M-16.9-14.4v97.7H92.6v-97.7H-16.9z M60.2,41.7c-0.1,0.2-0.3,0.4-0.5,0.5c0.1-0.9-1.6-1.6-0.3-2.5
		c-0.3-0.1-0.7-0.4-0.9-0.2c-1.1,0.7-1.3,0.5-0.9-0.7c0.1-0.2-0.2-0.7-0.3-0.8c-1-0.4-1.9-0.2-2.4,0.8c-0.5,0.9-0.3,1.3,0.7,1.6
		c1.1,0.3,0.4,0.6-0.1,0.9c-1.7,0.8-1.5,1.1,0.3,1.3c0.7,0.1,0.2,2,1.7,1.8c-0.1,0.2-0.3,0.5-0.4,0.5c-1.3,0-1.8,1.1-2.2,2
		c-0.3,0.6-0.2,1.5-0.3,2.2c-0.6-0.3-1.1-1.7-1.9-0.3c-0.2-0.1-0.4-0.2-0.5-0.4c-0.3-0.3-0.6-0.6-0.8-0.8c-0.2,0.4-0.4,0.9-0.4,1.3
		c-0.1,0.7-0.3,1-0.9,0.4c-0.5-0.6-1-0.7-1.6,0c-0.6,0.7-1,1.5-0.2,2.2c0.3,0.3,1.1,0.4,1.3,0.2c1.2-1,1.5-0.9,0.9,0.6
		c-0.1,0.1,0.1,0.4,0.2,0.6c0,0,0.1,0.1,0.1,0.1c0,0,0,0.1,0.1,0.1c0.1-0.1,0.3-0.2,0.4-0.3c0.1-0.1,0.3-0.2,0.4-0.2
		c0.2-0.1,0.3-0.2,0.5-0.3c0.2-0.1,0.3-0.2,0.5-0.3c0,0.2,0,0.3,0,0.5c0,0.3,0,0.5-0.1,0.7c-0.1,0.3-0.4,0.5-0.7,0.7
		c-4.1,3.6-8.7,6.1-13.8,7.7c-1.8,0.6-2.6-0.9-3.9-1.1c0.1-0.2,0.1-0.5,0.1-0.7c1.3,0.3,1-1.9,2.4-1.5c0.1,0.1,0.4-0.3,0.6-0.5
		c-0.2-0.2-0.4-0.5-0.7-0.6c-0.7-0.3-1.3-0.6,0-0.9c0.7-0.2,1.2-0.7,0.7-1.3c-0.4-0.5-1.1-0.9-1.7-1.1c-0.6-0.2-1.4,0-1.3,0.9
		c0.2,1.7-0.4,1.3-1.3,0.6c-0.2-0.1-0.7,0.2-1,0.2c0.3,0.4,0.5,0.9,0.8,1.3c-0.4,0.2-1.1,0.2-1.2,0.5c-0.2,0.4,0.1,0.9,0.1,1.4
		c0,0.1-0.5,0.3-0.5,0.3c-1.3-1.7-2.9-0.9-4.5-0.8c-0.3-0.4-0.5-0.8-0.8-1.2c-0.2-0.2-0.4-0.3-0.6-0.4c0.3-0.5,1.1-0.9,0.3-1.5
		c-0.2-0.2-0.9,0.4-1.4,0.5c-0.2,0-0.5-0.3-0.5-0.4c0-0.6,0.5-1.4-0.5-1.4c-0.8,0-1.6,0.3-2.2,0.7c-0.5,0.4-0.7,1.1,0.1,1.5
		c0.9,0.4,1.8,0.7,0,1.2c-0.2,0.1-0.3,0.5-0.5,0.7c0.3,0.1,0.5,0.3,0.8,0.4c0.3,0.1,0.6,0,0.9,0.1c0,0,0,0.1,0,0.1
		c0,0.2,0,0.4,0.1,0.5c0.4,0.5,0.9,1,1.3,1.5c-1.5,0-2,2-3.8,1.5C15,60.8,10.8,58.8,7,56c-0.4-0.3-0.8-0.7-1-1.2
		c-0.1-0.2,0.1-0.6,0.2-0.9c0.2,0.1,0.4,0.2,0.6,0.4c0.3,0.3,0.6,0.5,0.9,0.8C7.8,54.7,8,54.3,8,53.9c0-1.2,0.4-1,1-0.4
		c0.6,0.6,1.1,0.5,1.6-0.1c0.7-0.8,0.4-1.6-0.1-2.3C10,50.5,9.5,50.4,8.9,51c-0.9,0.8-1,0.3-0.9-0.6c0.1-0.4-0.2-0.7-0.2-1.1
		c-0.3,0.2-0.7,0.4-1,0.6c-0.3,0.2-0.7,0.5-0.7,0.4c-0.6-0.8-1-0.5-1.5,0.2c-0.1,0.1-0.5-0.1-0.8-0.2c0.5-1.9-0.2-3.2-2-3.9
		c-0.7-0.3-0.4-0.7,0.1-0.6c1.5,0.2,0.9-2.4,2.5-1.9c-0.1-0.3-0.1-0.9-0.2-1c-1-0.4-1.8-0.6-0.1-1.2c1.3-0.5,0.4-1.4-0.1-2
		c-0.6-0.7-1.4-1-2.2-0.4c-0.1,0.1-0.2,0.2-0.1,0.3c0.8,2.5-0.5,0.9-1.4,0.9c-1.4,0,0,1-0.1,1.6c-0.2,0.1-0.4,0.2-0.4,0.3
		c-0.2,0.5-0.4,1-0.5,1.5c-0.1,0.2-0.1,0.4-0.2,0.5C-0.9,44.1-1,44-1.1,43.9c-0.1-0.1-0.1-0.1-0.2-0.2c0,0-0.1-0.1-0.1-0.1
		c-0.1-0.1-0.2-0.1-0.2-0.2c-0.9-0.5-2-0.6-2.5-1.6c-0.1-0.1-0.1-0.2-0.1-0.3c0-0.1,0-0.1-0.1-0.2c-0.5-2.3-1.4-4.4-1.9-6.7
		c-1.2-5.5-0.9-10.9,0.7-16.3c0.4-1.5,0.7-2.9,2.7-2.8c0.4,0,0.8-0.6,1.2-0.9c0.2-0.1,0.5,0,0.7,0.1c-0.1,0.5-0.4,1-0.3,1.4
		c0,0.1,0.2,0.2,0.5,0.3c0.1,0,0.1,0.1,0.2,0.1c0.1,0,0.1,0.1,0.2,0.1c0.1,0,0.1,0.1,0.2,0.1c0,0,0.1,0,0.1,0
		c-0.1,0.1-0.1,0.2-0.2,0.3c-0.2,0.3-0.4,0.6-0.6,1c-0.1,0.2,0,0.5,0.1,0.5c0.3,0.1,0.6,0.1,0.8,0c0.9-0.8,1.6-1.6,1,0.5
		c-0.4,1.2,0.6,1.4,1.2,1.1c0.7-0.3,1.2-1,1.6-1.6c0,0-0.5-0.8-0.9-0.9c-0.9-0.4-0.5-0.7-0.1-1c0.2-0.2,0.4-0.3,0.6-0.5
		C3.6,16,3.8,15.8,4,15.7l0,0l0,0c-0.2-0.1-0.4-0.1-0.7-0.2c-0.2-0.1-0.4-0.1-0.7-0.1c-0.2,0-0.4,0-0.6,0c0.8-1,0.4-1.4-0.2-1.7
		c-0.2-0.1-0.3-0.2-0.5-0.3c-0.1-0.1-0.2-0.1-0.3-0.2c0.1-0.1,0.2-0.2,0.2-0.3c0.1-0.1,0.1-0.1,0.2-0.2c0.1-0.1,0.1-0.1,0.2-0.1
		c0,0,0.1,0,0.1,0c0.8-0.2,1.4-0.4,1.2-1.4c0.3-0.1,0.6-0.3,0.7-0.4c0.1-0.8,0.1-1.6,0.1-2.3c0.7,0.2,1.4,0.7,2,0.6
		C6.1,9,6.5,8,6.7,9.3c0,0.3,0.5,0.6,0.8,0.9c0.2-0.3,0.5-0.7,0.4-1C7.5,7,8.3,8.3,9,8.7c0.3,0.2,0.9-0.1,1.2-0.4
		c0.7-0.7,0.8-1.5,0.2-2.3c-0.3-0.3-1.1-0.5-1.3-0.3c-1.2,1-1.4,0.6-1-0.7C8.1,4.8,8,4.5,7.9,4.3C7.6,4.4,7.2,4.4,7.1,4.6
		C6.7,5.6,6.2,5.8,5.4,5c0,0-0.4,0.4-0.7,0.5C4.5,5.6,4.2,5.7,3.9,5.8C4,5.5,4,5.2,4.1,5C4.2,4.1,4,3,4.5,2.4
		c0.6-0.9,1.7-1.6,2.6-2.3c3.5-2.7,7.4-4.6,11.6-5.9c2.1-0.6,2.1-0.7,2.2-2.8c0.1-1.4-0.4-3.1,1.7-3.5l12.7,4.3c0,1.6-0.3,1.6-2.1,2
		C31-5.3,31.8-6.1,32.6-7c0.1-0.1,0.1-0.2,0-0.3c0-0.1,0-0.2-0.1-0.2c0-0.1-0.1-0.2-0.1-0.2c0,0,0-0.1,0-0.1l0,0
		c-0.1,0-0.1,0-0.2,0.1c-0.2,0.1-0.4,0.1-0.6,0.2c-0.6,0.2-1.4,0.8-1.6,0.6c-2-1.5-3.5,0.1-5.3,0.5c-0.4,0.1-1-0.2-1.5-0.4
		c0,0,0,0,0-0.1c-0.1,0-0.1,0-0.1,0l0.1,0.1c-0.3,0.1-0.6,0.1-0.9,0.2c-0.4,0.2-0.6,0.4-1,0.7c0.2,0.2,0.4,0.4,0.7,0.5
		c1.7,0.8,0.8,0.8-0.2,1.1c-0.2,0.1-0.3,0.4-0.4,0.7c0,0.1-0.1,0.1-0.1,0.2c0,0,0,0.1,0,0.1c0,0.1-0.1,0.1-0.1,0.2
		c-0.2,0-0.4,0-0.6,0c-0.3,0.1-0.6,0.1-0.9,0.2c0.1,0.3,0.2,0.7,0.4,0.9c0.2,0.3,1.7,0.3,0.3,0.9c-0.6,0.3-1.2,0.5-1,1.3
		c0.4,1.1,1.2,1.4,2.2,1.3c0.9-0.1,0.8-0.7,0.7-1.4c-0.1-1,0.4-0.6,1-0.3c0.4,0.2,0.9,0.2,1.3,0.3c-0.1-0.4-0.1-0.8-0.3-1.1
		c-0.7-0.9,0.2-0.6,0.5-0.8c0.3-0.2,0.5-0.7,0.4-0.9c-0.3-1.3,0.2-1,0.8-0.4c0.2,0.2,0.5,0.4,0.8,0.5c0.2,0.1,0.5,0,0.6-0.1
		c0.1-0.2,0.3-0.6,0.2-0.8c-0.2-0.4-0.4-0.7-0.7-1c-0.9-1,0.3-1,0.7-1.5c1-1.5,1.3,0.3,1.9,0.5c0.8,0.2,0.2,0.8-0.1,1.1
		c-0.2,0.3-0.5,0.4-0.6,0.7c-0.2,0.3-0.1,0.7-0.2,1.1c0.4,0,0.9,0.1,1.1-0.1C31.6-4.3,30.8-3,30.5-2c-0.1,0.2,0.5,0.7,0.7,0.7
		c1,0,0.8,0.3,0.3,0.8c-0.2,0.3-0.3,0.7-0.4,1c0.4,0,0.8,0.1,1.1-0.1c0.5-0.2,1.1-0.6,0.9,0.3c-0.2,1,0.1,1.3,1,1.4
		c0.9,0.1,1.7-0.1,2.1-1c0.1-0.2,0.2-0.5,0.2-0.6c-0.5-0.5-1-0.9-1.5-1.3c0.5-0.3,1.1-0.6,1.6-0.8c-0.2-0.2-0.3-0.6-0.5-0.7
		c-0.4-0.2-0.8-0.2-1.2-0.3c0-0.3,0.1-0.7-0.1-0.9c-0.9-0.9-0.6-0.6,0.2-1.6C36-6.3,37.1-6,38.5-5.6C44.1-3.8,48.9-0.9,53,3.3
		c0.5,0.5,1,1.1,1.4,1.7c0.2,0.3,0.2,0.8,0.3,1.1c-0.3-0.2-0.6-0.4-0.9-0.6C53,5,52,5.6,51.3,4.4c-0.3-0.6-0.7,0.3-0.6,0.8
		c0.1,0.9-0.1,1.3-0.9,0.5c-0.5-0.5-1-0.7-1.6-0.1c-0.8,0.8-0.5,1.5,0.1,2.3c0.5,0.7,1,0.6,1.6,0.1c0.6-0.5,0.9-0.4,0.9,0.4
		c0,0.6-0.6,1.3,0.4,1.5c0.3,0.1,0.8-1,1-1c0.9,0.3,1.6,0.6,2.2-0.4c0.2,0.2,0.5,0.5,0.4,0.6c-0.6,1.7,0.4,2.7,1.6,3.7
		c0.1,0.1,0.2,0.2,0.3,0.3c0.1,0.1,0.2,0.2,0.3,0.3c-0.1,0-0.2,0.1-0.4,0.1c-0.2,0.1-0.4,0.1-0.5,0.2c-0.3,0.3-0.6,0.8-0.9,1.1
		c-0.7,0.3-2.1,0.3-0.6,1.4c1.1,0.8,1.2,0.9-0.2,1.3c-0.9,0.3-0.5,1.9,0.7,2.4c1,0.4,1.6,0,1.6-1.2c-0.1-1.5,0.5-0.6,1-0.3
		c0.3,0.2,0.7,0.1,1,0.2c-0.1-0.3-0.1-0.6-0.2-0.8c-0.6-1.1,1.5-1.4,0.7-2.5c0.2,0,0.4,0,0.5,0.1c0.7,0.8,1.6,1.5,1.9,2.5
		C63.9,25.9,63.7,33.9,60.2,41.7z"/>
	<path class="st1" d="M50.5,25.6c-0.2-0.1-0.7-0.1-0.9,0.1c-0.4,0.3-0.6,0.9-1,1.2c-0.3,0.3-0.8,0.3-1.3,0.4
		c-0.1-0.4-0.3-0.8-0.1-1.1c0.4-1,1.2-2.2-0.3-2.6c-1.1-0.3-1.4,1-1.5,2c0,0.1,0,0.2-0.1,0.3c-0.3,0.3-0.5,0.6-0.8,0.9
		c-0.1-0.3-0.1-0.6-0.3-0.9c-0.2-0.4-0.5-1.2-0.7-1.2c-0.6,0.1-1.1,0.4-1.6,0.7c-0.4,0.3-0.6,0.8-1,1.1c-0.1,0.1-0.5,0.1-0.6,0
		c-0.2-0.2-0.3-0.5-0.2-0.7c0.2-0.6,0.6-1.1,0.8-1.7c0.5-1.5,0.1-1.9-1.8-2.1c1.2-1.9,1.1-2.1-0.8-2.7c-0.5-0.2-1-0.2-1.5-0.4
		c-0.3-0.1-0.5-0.3-0.7-0.5c0.3-0.3,0.6-0.7,0.9-0.8c0.4-0.1,0.8,0.2,1.3,0.1c1.4-0.1,1.7-0.8,0.9-2.1c-0.2-0.3-0.3-0.6-0.5-0.9
		c0.3,0,0.6,0,0.8,0.1c1.1,0.4,2.5,1.2,3-0.3c0.3-1.1-1.3-1.3-2.3-1.6c-0.3-0.1-0.6-0.5-0.9-0.8c0.4-0.3,0.8-0.7,1.2-0.7
		C43,11.3,43,11.2,41.9,9c-0.8-1.6-2-1.7-3.4-1.7c-1.2,0-1.5,0.6-1.2,1.6c0.1,0.4,0.4,0.8,0.5,1.2c0.1,0.3-0.1,0.7-0.3,0.8
		c-0.2,0.1-0.7,0.1-0.9-0.1c-0.3-0.2-0.6-0.6-0.9-0.9c-0.5-0.6-1.2-1.2-1.9-0.6c-0.7,0.6-0.3,1.3,0.4,1.9c0.4,0.4,0.8,0.7,1.1,1.1
		c0.1,0.1,0.1,0.4,0,0.5C35.3,13,35,13.1,34.9,13c-0.7-0.5-1.4-0.9-1.9,0c-0.3,0.5,0.1,1.3,0.2,2c0,0.1,0.2,0.2,0.2,0.3
		c0,0.5-0.1,0.9-0.2,1.4c-0.3-0.2-0.7-0.3-0.9-0.6c-0.7-0.7-1.3-1.4-2-2c-0.2-0.2-0.7-0.2-0.9-0.1c-0.3,0.3-0.6,0.8-0.5,1.1
		c0.3,0.9,0.8,1.7,1.3,2.5c0.3,0.5,0.9,1,1.1,1.5c0.1,0.4,0.4,1.9-1.1,0.9c-0.2-0.1-0.8,0.1-0.9,0.2c-0.1,0.6,0,1.2,0,1.7
		c-1.1,0.1-2.2,0.3-2.1-1.6c0.1-1.2-1.1-0.2-1.7-0.3c-0.4-0.8-0.2-1.5,0.5-2.2c0.8-0.7,1.4-1.6,1.9-2.5c0.2-0.3,0-1.2-0.3-1.4
		c-0.3-0.2-1.1-0.1-1.4,0.1c-0.6,0.4-1,1.1-1.5,1.6c-0.3,0.3-0.6,0.5-0.9,0.7c-0.1-0.5-0.3-1-0.2-1.5c0.1-0.4,0.5-0.7,0.7-1
		c0.5-1.1-0.1-1.8-1.3-1.8c-0.4,0-0.8,0.1-1.1,0.2c0.2-0.3,0.3-0.7,0.5-1c0.7-0.7,2.2-1.3,1.1-2.5c-0.9-0.9-1.6,0.3-2.3,0.9
		c-0.3,0.3-0.9,0.2-1.3,0.3c0-0.4-0.1-0.8-0.1-1.2c0.1-0.7,0.6-1.8,0.4-1.9c-0.6-0.5-1.5-0.6-2.3-0.7c-1.3-0.2-1.8,0.9-2.4,1.8
		c-1,1.6-0.8,2,0.9,2.3c0.2,0.1,0.5-0.1,0.6,0c0.1,0,0.2,0.1,0.3,0.1c0.2,0.1,0.4,0.3,0.6,0.4c0,0,0.1,0.1,0.1,0.1
		c-0.1,0.1-0.2,0.3-0.3,0.4c-0.1,0.1-0.2,0.3-0.3,0.4c-0.1,0.1-0.1,0.2-0.2,0.2c-0.2,0.2-0.6,0.2-0.9,0.2c-0.8,0.1-1.9,0.3-1.5,1.4
		c0.3,1,1.4,0.8,2.2,0.5c0.2-0.1,0.4-0.2,0.6-0.2c0.2,0,0.4,0.1,0.6,0.1c0.2,0.1,0.4,0.1,0.6,0.1c-0.1,0.1-0.1,0.1-0.2,0.2
		c-0.2,0.2-0.3,0.3-0.5,0.5c-0.3,0.4-0.8,1.1-0.7,1.2c0.4,0.4,0.9,0.7,1.4,1c0.3,0.1,0.7-0.1,0.9,0c0.2,0.1,0.4,0.3,0.6,0.5
		c0.1,0.1,0.2,0.2,0.2,0.2c0,0,0.1,0.1,0.1,0.1c0,0-0.1,0.1-0.1,0.1c0,0-0.1,0.1-0.1,0.1c-0.1,0.1-0.1,0.1-0.2,0.2
		c-0.1,0.1-0.3,0.2-0.4,0.2c-0.8,0.2-1.7,0.3-2.4,0.5c-0.3,0.1-0.8,0.7-0.7,0.9c0.2,0.4,0.6,1,1,1c1,0.1,2.1,0.1,3.2-0.2
		c0.9-0.3,1.4,0,2,0.6c0.3,0.3,0.6,0.6-0.1,0.8c-2,0.7-0.4,1.2,0.2,1.4c0.7,0.3,1.2,0.1,0.5,1.1c-0.6,0.9-0.9,1.3-1.9,0.4
		c-1.4-1.2-0.8,1.4-1.8,1.2c-0.4-0.1-0.8-0.4-1-0.7c-0.2-0.5-0.1-1.1-0.4-1.5c-0.4-0.9-0.9-1.7-1.4-2.4C17,21,16.5,20.9,16.4,21
		c-0.3,0.2-0.7,0.6-0.7,0.9c0.2,1,0.5,2,0.8,3c0.1,0.2-0.1,0.5-0.1,0.8c-0.3-0.1-0.8,0-0.9-0.2c-0.5-0.6-0.7-1.4-1.2-1.8
		c-0.3-0.3-1.3-0.2-1.6,0.1c-0.4,0.4-0.4,1.1-0.6,1.7c-0.3-0.7-0.6-1.5-0.9-2.2c-0.1-0.1,0-0.3-0.1-0.3c-0.2-0.2-0.4-0.3-0.6-0.5
		c-0.2-0.2-0.4-0.3-0.6-0.5c-0.1,0.1-0.2,0.2-0.2,0.3c0,0.1-0.1,0.1-0.1,0.2c-0.1,0.1-0.2,0.2-0.2,0.3c-0.1,0.2-0.2,0.3-0.2,0.5
		c-0.1,0.4,0.3,0.8,0.3,1.2c0,0.2,0,0.4-0.1,0.6c0,0.1-0.1,0.3-0.1,0.4c0,0.1,0,0.1-0.1,0.2c0,0.1-0.1,0.3-0.1,0.4
		C9.1,26,9,25.9,8.9,25.8c-0.1-0.1-0.2-0.1-0.3-0.2c-0.2-0.1-0.4-0.3-0.6-0.5c-0.3-0.3-0.4-0.8-0.7-1c-0.3-0.2-0.9-0.2-1.1,0
		C5.1,24.9,4.4,26.9,5,28c0.2,0.5,0.5,0.9,0.9,1.3c0.1,0.1,0.2,0.3,0.3,0.4c0.1,0.1,0.2,0.3,0.3,0.4c0.2-0.1,0.3-0.3,0.4-0.4
		c0.4-0.4,0.9-0.8,1.3-1.2c0.3-0.2,0.7-0.2,1.1-0.4c0.1,0.4,0.4,0.8,0.3,1.1c-0.1,0.6-0.6,1.2-0.7,1.8c-0.1,0.3,0.3,0.8,0.6,1
		c0.3,0.1,0.9-0.1,1.1-0.3c0.3-0.6,0.5-1.4,0.7-2.1c0.1-0.2,0.3-0.3,0.5-0.4c0.1-0.1,0.1-0.1,0.2-0.1c0.1,0.1,0.1,0.2,0.2,0.2
		c0.1,0.1,0.1,0.2,0.2,0.2c1.1,2.1,1.1,2.2,2.3,0.4c0.5-0.7,0.9-1.3,1.7-0.8c0.1,0.1-0.3,1-0.5,1.5c-0.4,1-1,2-0.1,2.9
		c0.6,0.6,1.6-0.2,2.4-1.9c0.4-0.8,0.5-1.6,1-2.3c0.2-0.3,1.3-1,1.3-0.1c0,1.2,0.5,1.4,1.2,1c1.1-0.6,1.4,0.1,1.7,0.7
		c0.7,1.1-0.6,0.7-0.9,1c-0.5,0.6-1.3,1.1,0.1,1.5c0.3,0.1,0.6,0.2,0.9,0.3c-0.3,0.1-0.5,0.3-0.8,0.4c-0.7,0.1-1.4,0.2-2.1,0.2
		c-1.2,0-2.3-0.2-3.5-0.1c-0.7,0.1-0.9,1.1-0.3,1.4c0.9,0.5,2,0.7,2.9,1c0.3,0.1,0.5,0.3,0.7,0.4c-0.2,0.3-0.4,0.7-0.6,0.7
		c-0.6,0.1-1.3,0-1.9,0.1c-0.9,0.2-1.3,0.7-0.9,1.6c0.1,0.1,0.1,0.3,0.2,0.4c0.1,0.2,0.3,0.5,0.4,0.7c0.1,0.1,0.2,0.2,0.2,0.4
		c-0.2,0-0.3-0.1-0.5-0.1c-0.4-0.1-0.9-0.2-1.3-0.3c-0.4-0.1-0.9-0.2-1.2,0c-0.3,0.1-0.7,0.5-0.8,0.9c-0.1,0.2,0.2,0.7,0.5,0.8
		c0.7,0.3,1.4,0.4,2.1,0.6c0.3,0.1,0.6,0.6,0.6,0.7c-0.2,0.3-0.5,0.7-0.8,0.8c-0.5,0.2-1.1-0.1-1.6,0.1c-0.6,0.2-1.1,0.6-0.7,1.4
		c0.8,2.2,2.2,3.1,4.4,2.7c0.8-0.1,1.1-0.7,1-1.4c-0.1-0.8-0.6-2.2-0.5-2.2c1.2-0.5,1.5,0.7,2.1,1.3c0.2,0.2,0.3,0.3,0.5,0.3
		c0.3,0.1,0.7,0.2,0.9,0c0.3-0.3,0.6-0.8,0.5-1.1c-0.3-0.6-0.9-1.1-1.3-1.7c-0.3-0.3-0.4-0.7-0.6-1c0.4,0.1,0.7,0.2,1.1,0.2
		c0.5,0,1.3,0.1,1.4-0.2c0.2-0.5,0.1-1.1,0-1.7c-0.1-0.3-0.5-0.5-0.5-0.8c-0.1-0.4,0-0.9,0.2-1.1c0.7-0.7,0.7,0.3,1,0.5
		c0.4,0.5,0.7,1.1,1.2,1.4c0.1,0,0.1,0.1,0.2,0.1c0.1,0.1,0.3,0.1,0.4,0.1c0.2,0,0.3,0.1,0.4,0.1c0.1,0,0.2,0,0.2,0
		c0.2,0,0.3,0.1,0.4,0.1l0,0c0-0.1,0-0.2,0.1-0.3c0-0.1,0.1-0.2,0.1-0.4c0.1-0.4,0.1-0.8,0-1c-0.6-1-1.4-1.9-2-2.8
		c-0.4-0.6,0.1-1.9,0.4-1.7c1.6,1.4,1.3-0.2,1.7-0.9c0.2-0.4,0.9-0.7,1.4-0.7c1.1-0.1,0.3,0.7,0.4,1.1c0.1,0.9,0.2,1.6,1.3,0.8
		c0.7-0.5,0.7,0.2,0.6,0.5c-0.2,0.7-0.5,1.3-0.9,1.9c-0.5,0.9-1.2,1.7-1.7,2.6c-0.1,0.3,0.1,0.9,0.4,1.1c0.3,0.2,0.8,0.1,1.2,0
		c0.3-0.1,0.5-0.4,0.8-0.6c0.8-0.4,0.8-2.2,1.9-1.4c0.9,0.6-0.4,1.4-0.7,2.1c-0.4,1.1,0.3,1.8,1.4,1.7c0.2,0,0.4-0.1,0.7-0.1
		s0.4-0.1,0.7-0.1c-0.1,0.1-0.2,0.2-0.2,0.3c-0.2,0.3-0.5,0.6-0.7,0.9c-0.2,0.2-0.6,0.4-0.7,0.6c-0.2,0.5-0.3,1.1-0.4,1.7
		c0.6,0,1.2,0.1,1.7-0.1c0.4-0.1,0.5-0.7,0.9-0.9c0.4-0.2,0.9-0.3,1.4-0.4c-0.1,0.5-0.1,1-0.2,1.4c-0.1,0.2-0.3,0.4-0.3,0.5
		c-0.4,1.1-0.1,1.5,1.1,1.7c2.2,0.3,3.3-0.4,4.2-2.4c0.4-0.8-0.1-1.2-0.7-1.4c-0.8-0.3-2.1-0.5-2.1-0.7c0-1.4,1.3-0.8,2.1-1.2
		c0.5-0.3,0.7-0.8,1.1-1.3c-0.6-0.2-1.1-0.6-1.7-0.6c-0.6,0-1.2,0.3-1.8,0.5c-0.2,0-0.5-0.1-0.5-0.3c-0.1-0.1,0.1-0.4,0.2-0.5
		c1.5-1.9,1.5-1.9-0.9-2.3c-0.3-0.1-0.7-0.1-0.9-0.3c-0.2-0.2-0.3-0.5-0.5-0.8c0.2-0.1,0.5-0.3,0.7-0.4c1-0.3,2-0.4,3-0.8
		c0.6-0.2,0.5-1.3-0.2-1.5c-0.7-0.2-1.5-0.3-2.2-0.3c-0.8,0-1.7,0.4-2.5,0.3c-0.4,0-0.8-0.6-1.2-1c0.3-0.2,0.7-0.3,0.9-0.6
		c0.2-0.2,0-0.6-0.1-1c-0.1-0.7-1.6,0.1-1.2-1.1c0.2-0.7,0.9-0.8,2.3-0.5c1,0.2,0.9-0.6,0.9-1.2c1.2-0.3,1.5,0.5,1.8,1.5
		c0.3,1,0.8,1.9,1.3,2.8c0.2,0.3,0.8,0.4,1.1,0.3c0.3-0.1,0.7-0.7,0.7-1c-0.1-0.8-0.4-1.6-0.6-2.4c-0.1-0.4-0.1-0.7-0.1-1.1
		c0.5,0.2,0.9,0.3,1.3,0.6c0.2,0.2,0.2,0.6,0.4,0.9c0.9,1.2,1.6,1.1,2.3-0.2c0.2-0.3,0.3-0.7,0.4-1.1c0.2,0.4,0.4,0.7,0.5,1.1
		c0.1,0.3,0.2,0.6,0.2,0.9c0.2,0.8,0.5,1.5,1.4,1.2c0.4-0.1,0.5-1,0.5-1.6c0-0.5-0.4-1-0.4-1.5c0-0.3,0.2-0.7,0.5-0.7
		c0.2-0.1,0.7,0,0.8,0.2c0.4,0.5,0.6,1.1,1.1,1.5c0.2,0.2,0.9,0.3,1.1,0.1C52.3,30.2,52.3,26.7,50.5,25.6z M37.6,26
		c-0.1,0.3-0.9,0.2-1.3,0.3c-0.1-1.6-0.9-1.3-1.9-0.7c-0.2,0.1-0.6,0.1-0.9,0.1c0.3-0.6-1.3-1.2-0.1-1.8c1.2-0.6,1.5-1.1,0.4-1.9
		c0.4-0.4,0.8-1.1,1.1-1c1.4,0.2,2.8,0.7,4.2,1C38.7,23.4,38.2,24.7,37.6,26z"/>
	<path class="st1" d="M24-6.9c0.2-0.2,0.1-0.6,0.2-0.9c-0.3,0.1-0.6,0.1-0.7,0.3c-0.2,0.2-0.2,0.5-0.2,0.8C23.6-6.8,23.9-6.8,24-6.9
		z"/>
</g>
<g id="tgxvHu_1_">
	<g>
		<g>
			<path class="st1" d="M26.2,45.1c-0.8,0-1.5-0.7-1.5-1.5v-1.3h-0.9c-0.8,0-1.5-0.7-1.5-1.5V37c0-0.8,0.7-1.5,1.5-1.5h0.9v-1
				c-4.7-1.9-7.5-5.3-7.9-9.6c-0.3-1.6-0.1-5,1.9-8.1c2.2-3.4,5.6-5.3,9.5-5.3c1,0,1.9,0.1,2.9,0.4c4.8,1.1,8.5,5.6,8.8,10.6
				c0.4,5.9-2.6,10.3-8.5,12.5v0.8h1.1c0.8,0,1.5,0.7,1.5,1.5V41c0,0.8-0.7,1.5-1.5,1.5h-1l0,0c0,0.4,0,0.8,0,1.2
				c0,0.8-0.7,1.5-1.5,1.5h-3.8V45.1z M28.5,18.6c-2.8,0-5,2.2-5,4.8c0,2.7,2.2,4.9,5,4.9s5.1-2.2,5.1-4.8
				C33.6,20.8,31.3,18.6,28.5,18.6z"/>
			<path class="st2" d="M28.3,13c0.8,0,1.7,0.1,2.5,0.3c4.2,1,7.4,4.9,7.7,9.2C38.9,28.1,36,32,30,33.8c0,1.1,0,2.2,0,3.4
				c0.9,0,1.7,0,2.6,0c0,1.3,0,2.5,0,3.7c-0.8,0-1.5,0-2.4,0c0,1-0.1,1.8-0.1,2.7c-1.3,0-2.5,0-3.9,0c0-0.9,0-1.8,0-2.8
				c-0.9,0-1.6,0-2.4,0c0-1.3,0-2.5,0-3.8c0.8,0,1.6,0,2.4,0c0-1.1,0-2.1,0-3.1c0-0.2-0.3-0.5-0.5-0.6c-4-1.5-7-4.3-7.4-8.6
				c-0.2-1.1-0.2-4.2,1.7-7.1C22,14.5,25,13,28.3,13 M28.5,29.8c3.6,0,6.6-2.9,6.6-6.3c0-3.5-2.9-6.4-6.6-6.4
				c-3.6,0-6.5,2.8-6.5,6.3S24.9,29.8,28.5,29.8 M28.3,10L28.3,10c-4.4,0-8.3,2.2-10.8,6c-2.3,3.5-2.4,7.3-2.2,9.1
				c0.4,4.1,2.7,7.5,6.5,9.7c-0.6,0.5-1,1.3-1,2.2v3.8c0,1.5,1,2.7,2.4,2.9c0.1,1.6,1.4,2.9,3,2.9h3.9c1.6,0,2.9-1.2,3-2.7
				c1.4-0.2,2.5-1.5,2.5-3v-3.7c0-0.8-0.3-1.6-0.9-2.1c4.8-2.7,7.2-7.1,6.8-12.8c-0.4-5.6-4.6-10.6-10-11.9
				C30.4,10.1,29.3,10,28.3,10L28.3,10z M28.5,26.8c-1.9,0-3.5-1.5-3.5-3.4s1.5-3.3,3.5-3.3s3.6,1.5,3.6,3.4
				C32.1,25.3,30.4,26.8,28.5,26.8L28.5,26.8z"/>
		</g>
	</g>
</g>
<path class="st3" d="M-45.4,24.6c-1.2,0-2.5,0-3.8,0c0-1.1,0-2.2,0-3.5c-1.5,1.4-2.6,2.7-3.9,3.8c-1.3,1-1.5,1.9-0.8,3.5
	c2.6,6.7-2.3,14-9.2,14c-4.3,0-7.4-2.1-9.2-5.9c-1.8-4-1.3-7.9,1.5-11.4s8.3-5.1,13.4-1.7c1.9-1.8,3.7-3.6,5.8-5.5c-1.5,0-2.7,0-4,0
	c0-1.2,0-2.3,0-3.6c3.4,0,6.9,0,10.3,0C-45.4,17.7-45.4,21.2-45.4,24.6z M-63.3,38.3c3.6,0,6.5-2.8,6.6-6.3s-3-6.5-6.6-6.4
	c-3.6,0-6.5,2.9-6.5,6.4C-69.9,35.4-66.9,38.3-63.3,38.3z"/>
</svg>
