<?xml version="1.0" encoding="utf-8"?>
<!-- Generator: Adobe Illustrator 21.0.0, SVG Export Plug-In . SVG Version: 6.00 Build 0)  -->
<svg version="1.1" id="Calque_1" xmlns="http://www.w3.org/2000/svg" xmlns:xlink="http://www.w3.org/1999/xlink" x="0px" y="0px"
	 viewBox="0 0 319.3 90.1" style="enable-background:new 0 0 319.3 90.1;" xml:space="preserve">
<style type="text/css">
	.st0{opacity:0.3;}
	.st1{fill:#FFFFFF;}
</style>
<g class="st0">
	
		<image style="overflow:visible;opacity:0.3;enable-background:new    ;" width="325" height="325" xlink:href="4A6AC50A912BF54D.png"  transform="matrix(0.2346 -2.485156e-02 2.485156e-02 0.2346 42.662 17.2517)">
	</image>
	<g>
		<path class="st1" d="M58.5,35c-0.2-1.5-0.2-2.5-0.3-3.6c1.1,0.3,2.2,0.7,3.5,1c0-0.2-0.1-0.9,0.2-1.4c0.2-0.5,0.8-0.9,1.3-1.3
			c0.4,0.5,1,0.8,1.1,1.3c0.2,0.9,0.3,1.9,0.1,2.8c-0.3,1.5,0.5,2.1,2.1,2.6c-0.1-1.1-0.3-2.1-0.2-2.9c0.1-0.6,0.8-1.2,1.2-1.8
			c0.5,0.5,1.1,0.9,1.3,1.5c0.3,1,0.3,2,0.3,3c0.3,3.4,2.7,4.5,5.4,2.8c0.5-0.4,1-0.6,1.5-0.9c1.5-0.8,1.7-1.9,0.8-3.2
			c-1.2-1.5-2.4-3-3.5-4.5c-0.4-0.6-0.4-1.5-0.5-2.3c0.7,0.1,1.6,0,2.3,0.4c0.9,0.5,1.4,1.5,2.2,2.3c0.9-1.3,0.8-2.4-0.3-3.4
			c-0.8-0.7-1.6-1.5-2.1-2.5c-0.4-0.7-0.2-1.5-0.2-2.3c0.7,0.2,1.5,0.4,2.2,0.7c0.3,0.1,0.5,0.4,0.5,0.4c0.8-0.8,1.5-1.6,2.3-2.3
			c0.4,1.1,0.9,2.1,1.4,3.3c0.2-0.1,0.6-0.4,1.1-0.4c0.8-0.2,1.7-0.2,2.5-0.3c-0.4,0.6-0.9,1.4-1.4,2.1c-0.4,0.3-0.8,0.6-1.2,0.8
			c-1.5,0.8-2,2-1.6,4c1-0.7,1.8-1.4,2.7-1.9c0.5-0.3,1.2-0.2,1.8-0.3c-0.1,0.6,0,1.5-0.4,1.9c-1,1-2.2,1.8-3.3,2.8
			c-1.2,1-1.5,3.5-0.7,4.8c1.6,2.3,3.1,3.1,5.1,2.2c0.6-0.3,1.1-0.9,1.5-1.5c0.8-1.8,1.4-3.7,2.2-5.5c0.2-0.5,0.9-0.9,1.4-1.4
			c0.3,0.7,0.8,1.4,0.6,1.9c-0.3,1.3-0.9,2.6-1.5,4.1c1.8-0.2,2.9-0.8,3.4-2.5c0.1-0.3,0.1-0.7,0.3-1c0.6-1,1.2-1.9,1.9-2.9
			c0.4,1,0.8,1.9,1.1,2.8c0.9,0.1,1.9,0.2,3,0.3c-0.7,1-1.4,1.9-2.3,3c0.6,0.2,1.5,0.5,2.2,1.1c0.4,0.4,0.7,0.9,1.1,1.4
			c-0.7,0.3-1.4,0.9-1.9,0.8c-1.2-0.3-2.4-1-3.7-1.3c-0.9-0.2-1.9-0.2-2.8-0.3c-0.1,0.3-0.1,0.7-0.3,1c1,0.5,2,0.9,2.9,1.4
			c0.5,0.3,0.9,1,1.4,1.6c-0.8,0.3-1.5,0.9-2.1,0.7c-1.2-0.3-2.6-0.7-3.6-1.5c-2-1.4-3.8-0.6-5.2,0.5c-0.8,0.7-0.9,2.5-1,3.8
			c-0.1,1.4,2.2,2.7,3.7,2.4c2-0.3,4.1-0.6,6-0.8c0.5-0.1,1.1,0.5,1.6,0.7c-0.4,0.5-0.8,1.3-1.3,1.4c-1.5,0.4-3.1,0.4-5.1,0.7
			c1.5,2,2.8,3.3,5.2,2.4c0.8-0.3,1.5-0.6,2.4-0.6c0.6-0.1,1.2,0.3,1.9,0.4c-0.4,0.5-0.8,1.3-1.3,1.7s-1.2,0.4-2.3,0.8
			c1.2,0.8,2.1,1.3,2.8,2c0.4,0.4,0.6,1.1,0.9,1.7c-0.7,0.2-1.4,0.6-2.1,0.4c-0.9-0.2-1.8-0.8-2.9-1.5c-0.2,0.9-0.2,1.5-0.5,2.1
			s-1,1-1.4,1.6c-0.3-0.6-0.6-1.1-0.8-1.7c-0.1-0.4,0-0.9,0.1-1.3c0.6-2.5-0.9-3.7-3.4-5.1c0.4,1.9,0.8,3.2,0.9,4.6
			c0.1,0.7-0.3,1.5-0.6,2.3C87,60.9,86,60.5,85.9,60c-0.5-2.1-1-4.1-1-6.1c0-1.7-0.8-2.7-2-3.3c-0.6-0.2-1.7,0.2-2.5,0.6
			c-3.5,1.9-3.9,4.4-1.1,7.4c0.6,0.5,1.3,1,1.7,1.6c0.4,0.5,0.2,1.2,0.4,1.9c-0.6,0.1-1.4,0.2-1.9,0.1c-0.6-0.2-1.2-0.8-2.1-0.9
			c0.8,0.7,1.6,1.4,2.2,2.2c0.6,0.6,1.3,1.3,1.6,2c0.3,0.5,0,1.4-0.3,1.6s-1.2,0.1-1.6-0.1c-0.6-0.4-1.2-1.2-1.6-1.5
			c-0.9,1.1-1.6,2-2.3,2.8c-0.5-1-0.9-2-1.7-3.4c-0.6,0.7-1.2,1.5-2,2c-0.4,0.2-1,0-1.6,0c0-0.5,0-1.2,0.3-1.5
			c1-1.1,2.2-2.2,3.3-3.2c1.3-1,1.5-2.2,0.9-3.8c-1.3,0.9-2.4,2-3.6,2.6c-0.6,0.4-1.5,0.1-2.3,0.1c0.3-0.6,0.6-1.4,1.1-1.8
			c1.5-1.4,3-2.6,4.6-4c1.2-1,1.3-2.1-0.1-3c-1.3-0.9-2-3.3-4.2-1.9c-0.8,0.5-1.5,1.3-1.8,2.1c-0.6,1.5-0.9,3.1-1.4,4.6
			c-0.2,0.5-1,0.8-1.6,1.2c-0.2-0.6-0.6-1.2-0.5-1.9c0.2-1.2,0.7-2.3,1.1-3.9c-2.3,0.8-4.4,1.1-4.6,3.6c-0.1,0.7-0.3,1.4-0.6,2.1
			c-0.3,0.5-1,0.8-1.5,1.3c-0.3-0.6-0.6-1.1-0.7-1.7c-0.1-0.6,0.2-1.2,0.5-2.3c-1,0.4-1.6,0.8-2.3,0.9c-0.4,0-0.9-0.1-1.3-0.2
			c0.1-0.5,0.1-1.2,0.3-1.5c0.6-0.7,1.5-1.1,2.6-1.8c-0.8-0.4-1.6-0.6-2.1-1.1c-0.5-0.4-0.8-1.1-1.2-1.7c0.8-0.2,1.5-0.7,2.3-0.5
			c1.4,0.3,2.7,1.1,4.2,1.4c1,0.2,2.2-0.2,3.4-0.4c0-0.3,0-0.5,0-0.8c-1.1-0.4-2.3-0.7-3.4-1.3c-0.5-0.3-0.7-1.1-1-1.8
			c0.7-0.2,1.4-0.7,2-0.4c1.8,0.5,3.5,1.4,5.3,1.8c0.8,0.2,2.3-0.1,2.8-0.8c1.4-1.7,0.6-5.1-1.4-6.2c-0.7-0.4-1.9-0.5-2.9-0.4
			c-1.7,0.2-3.4,0.8-5.1,1c-0.5,0.1-1.1-0.5-1.5-0.8c0.4-0.4,0.7-1.2,1.2-1.3c1.1-0.4,2.3-0.5,3.7-0.9c-1.3-1.5-2.4-2.1-4.1-1.8
			c-1,0.2-2-0.1-2.9-0.2C57.7,36.1,58.2,35.3,58.5,35z M81.1,45.7c0.3-2.2-1.9-5.3-3.8-5.5c-1.6-0.1-4.1,2.3-4.3,4.5
			c-0.2,2.4,1.6,5.6,3.3,5.7C78.7,50.4,80.8,48.4,81.1,45.7z"/>
	</g>
</g>
<g class="st0">
	
		<image style="overflow:visible;opacity:0.3;enable-background:new    ;" width="246" height="242" xlink:href="4A6AC50A912BF543.png"  transform="matrix(0.2366 0 0 0.2366 232.1663 50.7573)">
	</image>
	<g>
		<path class="st1" d="M256.7,80.5c0.3,0.2,0.5,0.5,0.8,0.6c1.2,0.6,1.4,1.1,0.9,2.3c-0.2,0.3-0.1,0.8-0.1,1.1c0,0.3,0,0.7,0,1.3
			c-1-1-1.8-1.7-2.4-2.5c-0.2-0.3,0-0.8,0-1.2c0-0.5,0-1,0-1.5c-0.1,0-0.2-0.1-0.3-0.1c-0.2,0.3-0.4,0.6-0.7,0.8
			c-0.3,0.2-0.7,0.5-0.9,0.4c-0.3-0.2-0.5-0.7-0.4-0.9c0.2-0.9,0.6-1.8,0.9-2.7c0.1-0.3,0.4-0.6,0.3-0.8c-0.2-0.6-0.5-1.2-0.8-1.8
			c-0.3,0.5-0.6,0.9-0.9,1.4c-0.2,0.3-0.3,0.7-0.5,1.1c-0.1,0-0.2-0.1-0.3-0.1c0.1-0.6,0.3-1.2,0.3-1.8c0-0.3-0.1-0.7-0.3-0.8
			c-0.2-0.1-0.6,0.1-0.8,0.3c-0.6,0.6-1,1.3-0.7,2.3c0.2,0.6,0.3,1.3,0.2,1.9c0,0.3-0.4,0.7-0.6,1c-0.3-0.2-0.6-0.4-0.9-0.7
			c-0.2-0.3-0.3-0.7-0.5-1c-0.1,0-0.2-0.1-0.4-0.1c-0.2,0.6-0.5,1.1-0.5,1.7c-0.1,0.9-0.5,1.4-1.5,1.6c-0.6,0.1-1.1,0.6-1.7,0.9
			c0-0.2,0-0.5,0.1-0.7c0.1-0.5,0.4-1,0.4-1.6c0.1-1,0.5-1.5,1.5-1.6c0.4,0,0.7-0.2,1.1-0.3c0-0.1,0-0.2-0.1-0.3
			c-0.3-0.1-0.6-0.1-0.9-0.2c-0.3-0.2-0.6-0.6-0.9-0.8c0.3-0.3,0.6-0.8,1-1c0.7-0.3,1.4-0.4,2.1-0.5c1-0.1,1.4-0.8,1.8-1.4
			c0.1-0.2,0.2-0.6,0-0.7c-0.2-0.2-0.5-0.3-0.8-0.2c-0.8,0.1-1.5,0.4-2.3,0.5c-0.1-0.1-0.1-0.2-0.2-0.3c0.2-0.2,0.3-0.4,0.5-0.6
			c0.3-0.2,0.7-0.2,1-0.3c0.4-0.2,0.9-0.5,1.3-0.8c-0.1-0.2-0.3-0.5-0.5-0.6c-0.6-0.1-1.3-0.2-1.9,0c-0.8,0.2-1.5,0.8-2.2,1.1
			c-0.3,0.1-0.8-0.2-1.2-0.3c0.1-0.4,0.2-0.8,0.4-1.1c0.2-0.3,0.5-0.6,0.6-1.2c-0.4,0-0.9-0.1-1.3,0.1c-1.6,0.8-2.1,0.6-2.9-0.9
			c-0.1-0.3-0.6-0.4-0.9-0.6c-0.2-0.1-0.3-0.4-0.4-0.6c0.2-0.1,0.4-0.3,0.6-0.3c0.7,0,1.4-0.1,2.1,0c0.5,0.1,0.9,0.4,1.3,0.6
			c0.3,0.2,0.6,0.4,1,0.8c0-0.5-0.1-0.8,0-1c0.2-0.4,0.3-1.1,0.6-1.2s0.9,0.2,1.2,0.5c0.5,0.5,0.8,1.1,1.1,1.8
			c0.5,1.1,1.4,1.1,2.4,1c-0.4-0.4-0.8-0.8-1.1-1.3c-0.1-0.2-0.1-0.5-0.1-0.8c0.3,0.1,0.5,0.1,0.8,0.2c0.1,0,0.2,0.2,0.3,0.3
			c0.4,0.2,0.8,0.4,1.3,0.5c0.1,0,0.5-0.5,0.4-0.7c-0.2-0.5-0.5-1-0.8-1.2c-0.7-0.5-1.6-0.9-2.4-1.3c-0.5-0.3-1-0.7-0.5-1.3
			c0.3-0.3,1-0.4,1.5-0.6c0.2-0.1,0.5,0.1,0.9,0.1c-0.7-0.8-2.1-1.1-2-2.5c0.1-1,0.2-2.1,0.2-3.1c0.8,0.8,1.7,1.3,2.3,2.1
			c0.3,0.4,0.4,1.2,0.4,1.8c0.1,0.5,0,1,0,1.5c0.1,0,0.2,0.1,0.3,0.1c0.2-0.3,0.4-0.6,0.6-0.8c0.2-0.2,0.6-0.2,0.9-0.3
			c0.1,0.3,0.3,0.6,0.3,0.8c-0.2,0.6-0.3,1.3-0.7,1.8c-0.5,0.8-0.6,1.7-0.1,2.5c0.1,0.3,0.5,0.5,0.7,0.7c0.2-0.3,0.4-0.5,0.5-0.8
			c0.2-0.6,0.3-1.2,0.5-1.9c0.1,0,0.3,0.1,0.4,0.1c-0.1,0.9-0.2,1.7-0.3,2.8c1-0.4,1.5-0.9,1.4-1.8c0-0.8-0.1-1.6,0.1-2.4
			c0.1-0.5,0.6-1,0.9-1.4c0.3,0.4,0.7,0.8,1,1.2c0.1,0.1,0.1,0.3,0.3,0.8c0.5-1.1,0.6-2.2,1.2-2.8s1.7-0.8,2.5-1.1
			c-0.1,0.9-0.1,1.8-0.3,2.6c-0.2,0.9-0.8,1.4-1.8,1.3c-0.7-0.1-1.1,0.2-1.3,1c0.6,0,1.1,0,1.5,0.1s0.7,0.4,1,0.6
			c-0.2,0.4-0.4,0.9-0.7,1c-1.1,0.3-2.2,0.4-3.3,0.6c-0.4,0.1-0.9,0.2-1.2,0.5c-0.2,0.1-0.3,0.7-0.2,0.9c0.1,0.2,0.5,0.4,0.8,0.4
			c0.7,0,1.4-0.1,2.1-0.2c0.1,0.2,0.1,0.3,0.2,0.5c-0.4,0.2-0.8,0.3-1.2,0.5s-0.8,0.4-1.1,0.6c0.3,0.2,0.6,0.5,1,0.6
			c0.7,0.4,1.4,0.3,2.2-0.2c0.5-0.4,1.2-0.6,1.8-0.7c0.4-0.1,0.9,0.1,1.2,0.4c0.1,0.2-0.1,0.8-0.3,1.1c-0.1,0.3-0.4,0.5-0.6,0.7
			c0,0.1,0,0.3,0.1,0.4c0.4,0,0.9,0,1.2-0.2c0.7-0.4,1.5-0.5,1.8,0.2c0.4,1.2,1.3,1.6,2.4,1.7c-0.4,1.3-1.3,0.7-1.9,0.7
			c-0.7,0-1.5,0.2-2.1,0s-1.1-0.9-1.8-1.7c0,0.8,0,1.2-0.1,1.6c-0.1,0.3-0.4,0.8-0.6,0.8c-0.3,0.1-0.9-0.1-1.1-0.3
			c-0.4-0.6-0.6-1.3-1-1.9s-0.9-1.1-1.4-1.6c-0.2-0.1-0.7,0.1-1,0.1c0.1,0.4,0.1,0.8,0.3,1.1c0.2,0.3,0.7,0.5,0.9,0.9
			c0.2,0.3,0.2,0.6,0.3,1c-0.3-0.1-0.6-0.1-0.9-0.2c-0.4-0.3-0.7-0.7-1.1-1c-0.2-0.1-0.5-0.2-0.7-0.2c-0.2,0.1-0.2,0.4-0.2,0.7
			c0.1,0.9,0.3,1.6,1.4,1.8c0.7,0.1,1.3,0.7,1.9,1.2c0.3,0.2,0.5,0.8,0.3,1.1c-0.1,0.3-0.7,0.4-1.1,0.5c-0.3,0.1-0.7-0.1-1-0.1
			C256.8,80.3,256.8,80.4,256.7,80.5z"/>
	</g>
</g>
<g>
	<path class="st1" d="M128.6,83.4c4.3,1,8.6,1.9,13,2.4c4.1,0.5,8.4,0.5,12.5,0.6c5.7,0.2,11.3-0.5,17-0.8c2.7-0.2,5.5-0.7,8.2-1
		c2.1-0.2,4.1-0.4,6.2-0.7c3.8-0.6,7.6-1.1,11.5-1.4c0.6,0,1.1,0,1.7,0c-0.5,1.4-1.1,2.8-1.6,4.2c-0.2,0.6-0.5,0.7-1,0.2
		c-0.9-0.9-1.7-1.8-2.5-2.6c-0.2-0.2-0.3-0.4-0.5-0.5c-0.4-0.3-0.8-0.4-1.1,0.2c-0.4,0.9-0.8,1.9-1.2,2.8c-0.1,0.2-0.2,0.5-0.3,0.7
		c-0.1,0.2-0.2,0.4-0.4,0.5c-0.2-0.2-0.5-0.3-0.7-0.5c-0.9-0.9-1.7-1.9-2.7-2.8c-0.7-0.6-1-0.6-1.4,0.2c-0.5,0.9-0.9,1.9-1.4,2.8
		c-0.1,0.2-0.3,0.4-0.5,0.6c-0.3-0.2-0.6-0.3-0.8-0.5c-0.6-0.6-1.1-1.2-1.6-1.8c-0.2-0.2-0.3-0.3-0.5-0.5c-0.8-0.6-1.1-0.6-1.6,0.2
		c-0.6,1-1.1,2-1.6,3c-0.3,0.6-0.5,0.6-0.9,0.1c-0.8-0.9-1.4-1.8-2.2-2.6c-0.7-0.8-0.8-0.8-1.5,0.1c-0.6,0.8-1,1.7-1.6,2.5
		c-0.8,1.1-0.8,1.1-1.7,0.1c-0.7-0.8-1.3-1.6-2-2.3c-0.5-0.5-0.8-0.5-1.3,0.1c-0.4,0.6-0.7,1.2-1.2,1.7c-0.4,0.5-0.9,1-1.3,1.5
		c-0.4-0.4-0.9-0.9-1.3-1.3c-0.5-0.5-0.8-1.1-1.3-1.6c-0.4-0.5-0.7-0.5-1.2,0.1c-0.8,0.9-1.5,1.8-2.2,2.7c-0.2,0.2-0.4,0.3-0.6,0.5
		c-0.2-0.2-0.5-0.3-0.6-0.6c-0.6-0.8-1.1-1.6-1.7-2.4c-0.4-0.6-0.8-0.6-1.3,0c-0.8,0.9-1.6,1.8-2.4,2.6c-0.4,0.4-0.7,0.4-1,0
		c-0.6-0.8-1-1.6-1.6-2.4c-0.6-0.8-1-0.9-1.8-0.1c-0.8,0.7-1.5,1.4-2.2,2c-0.4,0.3-0.6,0.3-0.9-0.1c-0.5-0.9-1-1.8-1.5-2.6
		c-0.3-0.5-0.7-0.6-1.2-0.2c-0.9,0.6-1.7,1.2-2.5,1.8c-0.7,0.5-1,0.5-1.4-0.2c-0.4-0.7-0.7-1.4-1.1-2c-0.6-0.9-0.7-0.9-1.7-0.3
		c-0.9,0.5-1.6,1.1-2.5,1.5c-0.6,0.4-0.9,0.3-1.1-0.3c-0.3-0.8-0.6-1.5-1-2.3c-0.2-0.3-0.6-0.6-0.9-0.9
		C128.6,83.5,128.6,83.5,128.6,83.4z"/>
</g>
</svg>
