<?xml version="1.0" encoding="utf-8"?>
<!-- Generator: Adobe Illustrator 21.0.0, SVG Export Plug-In . SVG Version: 6.00 Build 0)  -->
<svg version="1.1" id="Calque_1" xmlns="http://www.w3.org/2000/svg" xmlns:xlink="http://www.w3.org/1999/xlink" x="0px" y="0px"
	 viewBox="0 0 56.7 56.7" style="enable-background:new 0 0 56.7 56.7;" xml:space="preserve">
<style type="text/css">
	.st0{opacity:0.7;}
	.st1{fill:#FFFFFF;}
	.st2{fill:#A22222;}
</style>
<g class="st0">
	<path class="st1" d="M-16.9-14.2v97.7H92.6v-97.7H-16.9z M60.2,41.9c-0.1,0.2-0.3,0.4-0.5,0.5c0.1-0.9-1.6-1.6-0.3-2.5
		c-0.3-0.1-0.7-0.4-0.9-0.2c-1.1,0.7-1.3,0.5-0.9-0.7c0.1-0.2-0.2-0.7-0.3-0.8c-1-0.4-1.9-0.2-2.4,0.8c-0.5,0.9-0.3,1.3,0.7,1.6
		c1.1,0.3,0.4,0.6-0.1,0.9c-1.7,0.8-1.5,1.1,0.3,1.3c0.7,0.1,0.2,2,1.7,1.8c-0.1,0.2-0.3,0.5-0.4,0.5c-1.3,0-1.8,1.1-2.2,2
		c-0.3,0.6-0.2,1.5-0.3,2.2c-0.6-0.3-1.1-1.7-1.9-0.3c-0.2-0.1-0.4-0.2-0.5-0.4c-0.3-0.3-0.6-0.6-0.8-0.8c-0.2,0.4-0.4,0.9-0.4,1.3
		c-0.1,0.7-0.3,1-0.9,0.4c-0.5-0.6-1-0.7-1.6,0c-0.6,0.7-1,1.5-0.2,2.2c0.3,0.3,1.1,0.4,1.3,0.2c1.2-1,1.5-0.9,0.9,0.6
		c-0.1,0.1,0.1,0.4,0.2,0.6c0,0,0.1,0.1,0.1,0.1c0,0,0,0.1,0.1,0.1c0.1-0.1,0.3-0.2,0.4-0.3c0.1-0.1,0.3-0.2,0.4-0.2
		c0.2-0.1,0.3-0.2,0.5-0.3c0.2-0.1,0.3-0.2,0.5-0.3c0,0.2,0,0.3,0,0.5c0,0.3,0,0.5-0.1,0.7c-0.1,0.3-0.4,0.5-0.7,0.7
		c-4.1,3.6-8.7,6.1-13.8,7.7c-1.8,0.6-2.6-0.9-3.9-1.1c0.1-0.2,0.1-0.5,0.1-0.7c1.3,0.3,1-1.9,2.4-1.5c0.1,0.1,0.4-0.3,0.6-0.5
		c-0.2-0.2-0.4-0.5-0.7-0.6c-0.7-0.3-1.3-0.6,0-0.9c0.7-0.2,1.2-0.7,0.7-1.3c-0.4-0.5-1.1-0.9-1.7-1.1c-0.6-0.2-1.4,0-1.3,0.9
		c0.2,1.7-0.4,1.3-1.3,0.6c-0.2-0.1-0.7,0.2-1,0.2c0.3,0.4,0.5,0.9,0.8,1.3c-0.4,0.2-1.1,0.2-1.2,0.5c-0.2,0.4,0.1,0.9,0.1,1.4
		c0,0.1-0.5,0.3-0.5,0.3c-1.3-1.7-2.9-0.9-4.5-0.8c-0.3-0.4-0.5-0.8-0.8-1.2c-0.2-0.2-0.4-0.3-0.6-0.4c0.3-0.5,1.1-0.9,0.3-1.5
		c-0.2-0.2-0.9,0.4-1.4,0.5c-0.2,0-0.5-0.3-0.5-0.4c0-0.6,0.5-1.4-0.5-1.4c-0.8,0-1.6,0.3-2.2,0.7c-0.5,0.4-0.7,1.1,0.1,1.5
		c0.9,0.4,1.8,0.7,0,1.2c-0.2,0.1-0.3,0.5-0.5,0.7c0.3,0.1,0.5,0.3,0.8,0.4c0.3,0.1,0.6,0,0.9,0.1c0,0,0,0.1,0,0.1
		c0,0.2,0,0.4,0.1,0.5c0.4,0.5,0.9,1,1.3,1.5c-1.5,0-2,2-3.8,1.5C15,60.9,10.8,59,7,56.1c-0.4-0.3-0.8-0.7-1-1.2
		c-0.1-0.2,0.1-0.6,0.2-0.9c0.2,0.1,0.4,0.2,0.6,0.4c0.3,0.3,0.6,0.5,0.9,0.8C7.8,54.8,8,54.5,8,54.1c0-1.2,0.4-1,1-0.4
		c0.6,0.6,1.1,0.5,1.6-0.1c0.7-0.8,0.4-1.6-0.1-2.3c-0.4-0.7-0.9-0.8-1.5-0.2c-0.9,0.8-1,0.3-0.9-0.6c0.1-0.4-0.2-0.7-0.2-1.1
		c-0.3,0.2-0.7,0.4-1,0.6c-0.3,0.2-0.7,0.5-0.7,0.4c-0.6-0.8-1-0.5-1.5,0.2c-0.1,0.1-0.5-0.1-0.8-0.2c0.5-1.9-0.2-3.2-2-3.9
		c-0.7-0.3-0.4-0.7,0.1-0.6C3.4,46,2.8,43.4,4.4,44c-0.1-0.3-0.1-0.9-0.2-1c-1-0.4-1.8-0.6-0.1-1.2c1.3-0.5,0.4-1.4-0.1-2
		c-0.6-0.7-1.4-1-2.2-0.4c-0.1,0.1-0.2,0.2-0.1,0.3c0.8,2.5-0.5,0.9-1.4,0.9c-1.4,0,0,1-0.1,1.6c-0.2,0.1-0.4,0.2-0.4,0.3
		c-0.2,0.5-0.4,1-0.5,1.5c-0.1,0.2-0.1,0.4-0.2,0.5c-0.1-0.1-0.2-0.3-0.3-0.4C-1.1,44-1.2,44-1.3,43.9c0,0-0.1-0.1-0.1-0.1
		c-0.1-0.1-0.2-0.1-0.2-0.2c-0.9-0.5-2-0.6-2.5-1.6c-0.1-0.1-0.1-0.2-0.1-0.3c0-0.1,0-0.1-0.1-0.2c-0.5-2.3-1.4-4.4-1.9-6.7
		c-1.2-5.5-0.9-10.9,0.7-16.3c0.4-1.5,0.7-2.9,2.7-2.8c0.4,0,0.8-0.6,1.2-0.9c0.2-0.1,0.5,0,0.7,0.1c-0.1,0.5-0.4,1-0.3,1.4
		c0,0.1,0.2,0.2,0.5,0.3c0.1,0,0.1,0.1,0.2,0.1c0.1,0,0.1,0.1,0.2,0.1c0.1,0,0.1,0.1,0.2,0.1c0,0,0.1,0,0.1,0
		c-0.1,0.1-0.1,0.2-0.2,0.3c-0.2,0.3-0.4,0.6-0.6,1c-0.1,0.2,0,0.5,0.1,0.5c0.3,0.1,0.6,0.1,0.8,0c0.9-0.8,1.6-1.6,1,0.5
		c-0.4,1.2,0.6,1.4,1.2,1.1c0.7-0.3,1.2-1,1.6-1.6c0,0-0.5-0.8-0.9-0.9c-0.9-0.4-0.5-0.7-0.1-1c0.2-0.2,0.4-0.3,0.6-0.5
		C3.6,16.2,3.8,16,4,15.8l0,0l0,0c-0.2-0.1-0.4-0.1-0.7-0.2c-0.2-0.1-0.4-0.1-0.7-0.1c-0.2,0-0.4,0-0.6,0c0.8-1,0.4-1.4-0.2-1.7
		c-0.2-0.1-0.3-0.2-0.5-0.3c-0.1-0.1-0.2-0.1-0.3-0.2c0.1-0.1,0.2-0.2,0.2-0.3C1.3,13,1.4,13,1.4,12.9c0.1-0.1,0.1-0.1,0.2-0.1
		c0,0,0.1,0,0.1,0c0.8-0.2,1.4-0.4,1.2-1.4c0.3-0.1,0.6-0.3,0.7-0.4c0.1-0.8,0.1-1.6,0.1-2.3c0.7,0.2,1.4,0.7,2,0.6
		c0.5-0.1,0.8-1.1,1,0.3c0,0.3,0.5,0.6,0.8,0.9c0.2-0.3,0.5-0.7,0.4-1C7.5,7.2,8.3,8.5,9,8.9C9.3,9,9.9,8.8,10.2,8.5
		c0.7-0.7,0.8-1.5,0.2-2.3c-0.3-0.3-1.1-0.5-1.3-0.3c-1.2,1-1.4,0.6-1-0.7C8.1,5,8,4.7,7.9,4.4C7.6,4.5,7.2,4.5,7.1,4.7
		C6.7,5.8,6.2,6,5.4,5.1c0,0-0.4,0.4-0.7,0.5C4.5,5.8,4.2,5.9,3.9,6C4,5.7,4,5.4,4.1,5.2c0.1-0.9-0.1-2,0.4-2.6
		c0.6-0.9,1.7-1.6,2.6-2.3c3.5-2.7,7.4-4.6,11.6-5.9c2.1-0.6,2.1-0.7,2.2-2.8c0.1-1.4-0.4-3.1,1.7-3.5l12.7,4.3c0,1.6-0.3,1.6-2.1,2
		c-2.1,0.4-1.4-0.3-0.6-1.2c0.1-0.1,0.1-0.2,0-0.3c0-0.1,0-0.2-0.1-0.2c0-0.1-0.1-0.2-0.1-0.2c0,0,0-0.1,0-0.1l0,0
		c-0.1,0-0.1,0-0.2,0.1c-0.2,0.1-0.4,0.1-0.6,0.2c-0.6,0.2-1.4,0.8-1.6,0.6c-2-1.5-3.5,0.1-5.3,0.5c-0.4,0.1-1-0.2-1.5-0.4
		c0,0,0,0,0-0.1c-0.1,0-0.1,0-0.1,0l0.1,0.1c-0.3,0.1-0.6,0.1-0.9,0.2c-0.4,0.2-0.6,0.4-1,0.7c0.2,0.2,0.4,0.4,0.7,0.5
		c1.7,0.8,0.8,0.8-0.2,1.1c-0.2,0.1-0.3,0.4-0.4,0.7c0,0.1-0.1,0.1-0.1,0.2c0,0,0,0.1,0,0.1c0,0.1-0.1,0.1-0.1,0.2
		c-0.2,0-0.4,0-0.6,0c-0.3,0.1-0.6,0.1-0.9,0.2C19.8-2.3,20-2,20.2-1.7c0.2,0.3,1.7,0.3,0.3,0.9c-0.6,0.3-1.2,0.5-1,1.3
		c0.4,1.1,1.2,1.4,2.2,1.3c0.9-0.1,0.8-0.7,0.7-1.4c-0.1-1,0.4-0.6,1-0.3c0.4,0.2,0.9,0.2,1.3,0.3c-0.1-0.4-0.1-0.8-0.3-1.1
		c-0.7-0.9,0.2-0.6,0.5-0.8c0.3-0.2,0.5-0.7,0.4-0.9c-0.3-1.3,0.2-1,0.8-0.4c0.2,0.2,0.5,0.4,0.8,0.5c0.2,0.1,0.5,0,0.6-0.1
		c0.1-0.2,0.3-0.6,0.2-0.8c-0.2-0.4-0.4-0.7-0.7-1c-0.9-1,0.3-1,0.7-1.5c1-1.5,1.3,0.3,1.9,0.5c0.8,0.2,0.2,0.8-0.1,1.1
		c-0.2,0.3-0.5,0.4-0.6,0.7c-0.2,0.3-0.1,0.7-0.2,1.1c0.4,0,0.9,0.1,1.1-0.1c1.9-1.6,1.2-0.4,0.8,0.7c-0.1,0.2,0.5,0.7,0.7,0.7
		c1,0,0.8,0.3,0.3,0.8c-0.2,0.3-0.3,0.7-0.4,1c0.4,0,0.8,0.1,1.1-0.1c0.5-0.2,1.1-0.6,0.9,0.3c-0.2,1,0.1,1.3,1,1.4
		c0.9,0.1,1.7-0.1,2.1-1c0.1-0.2,0.2-0.5,0.2-0.6c-0.5-0.5-1-0.9-1.5-1.3c0.5-0.3,1.1-0.6,1.6-0.8c-0.2-0.2-0.3-0.6-0.5-0.7
		c-0.4-0.2-0.8-0.2-1.2-0.3c0-0.3,0.1-0.7-0.1-0.9c-0.9-0.9-0.6-0.6,0.2-1.6c1.1-1.4,2.3-1.1,3.7-0.7C44.1-3.7,48.9-0.7,53,3.4
		c0.5,0.5,1,1.1,1.4,1.7c0.2,0.3,0.2,0.8,0.3,1.1c-0.3-0.2-0.6-0.4-0.9-0.6c-0.8-0.5-1.8,0-2.5-1.2C51,4,50.7,4.8,50.7,5.4
		c0.1,0.9-0.1,1.3-0.9,0.5c-0.5-0.5-1-0.7-1.6-0.1c-0.8,0.8-0.5,1.5,0.1,2.3c0.5,0.7,1,0.6,1.6,0.1c0.6-0.5,0.9-0.4,0.9,0.4
		c0,0.6-0.6,1.3,0.4,1.5c0.3,0.1,0.8-1,1-1c0.9,0.3,1.6,0.6,2.2-0.4c0.2,0.2,0.5,0.5,0.4,0.6c-0.6,1.7,0.4,2.7,1.6,3.7
		c0.1,0.1,0.2,0.2,0.3,0.3c0.1,0.1,0.2,0.2,0.3,0.3c-0.1,0-0.2,0.1-0.4,0.1c-0.2,0.1-0.4,0.1-0.5,0.2c-0.3,0.3-0.6,0.8-0.9,1.1
		c-0.7,0.3-2.1,0.3-0.6,1.4c1.1,0.8,1.2,0.9-0.2,1.3c-0.9,0.3-0.5,1.9,0.7,2.4c1,0.4,1.6,0,1.6-1.2c-0.1-1.5,0.5-0.6,1-0.3
		c0.3,0.2,0.7,0.1,1,0.2c-0.1-0.3-0.1-0.6-0.2-0.8c-0.6-1.1,1.5-1.4,0.7-2.5c0.2,0,0.4,0,0.5,0.1c0.7,0.8,1.6,1.5,1.9,2.5
		C63.9,26.1,63.7,34.1,60.2,41.9z"/>
	<path class="st1" d="M50.5,25.8c-0.2-0.1-0.7-0.1-0.9,0.1c-0.4,0.3-0.6,0.9-1,1.2c-0.3,0.3-0.8,0.3-1.3,0.4
		c-0.1-0.4-0.3-0.8-0.1-1.1c0.4-1,1.2-2.2-0.3-2.6c-1.1-0.3-1.4,1-1.5,2c0,0.1,0,0.2-0.1,0.3c-0.3,0.3-0.5,0.6-0.8,0.9
		c-0.1-0.3-0.1-0.6-0.3-0.9c-0.2-0.4-0.5-1.2-0.7-1.2c-0.6,0.1-1.1,0.4-1.6,0.7c-0.4,0.3-0.6,0.8-1,1.1c-0.1,0.1-0.5,0.1-0.6,0
		c-0.2-0.2-0.3-0.5-0.2-0.7c0.2-0.6,0.6-1.1,0.8-1.7c0.5-1.5,0.1-1.9-1.8-2.1c1.2-1.9,1.1-2.1-0.8-2.7c-0.5-0.2-1-0.2-1.5-0.4
		c-0.3-0.1-0.5-0.3-0.7-0.5c0.3-0.3,0.6-0.7,0.9-0.8c0.4-0.1,0.8,0.2,1.3,0.1c1.4-0.1,1.7-0.8,0.9-2.1c-0.2-0.3-0.3-0.6-0.5-0.9
		c0.3,0,0.6,0,0.8,0.1c1.1,0.4,2.5,1.2,3-0.3c0.3-1.1-1.3-1.3-2.3-1.6c-0.3-0.1-0.6-0.5-0.9-0.8c0.4-0.3,0.8-0.7,1.2-0.7
		c2.4-0.3,2.4-0.4,1.4-2.5c-0.8-1.6-2-1.7-3.4-1.7c-1.2,0-1.5,0.6-1.2,1.6c0.1,0.4,0.4,0.8,0.5,1.2c0.1,0.3-0.1,0.7-0.3,0.8
		c-0.2,0.1-0.7,0.1-0.9-0.1c-0.3-0.2-0.6-0.6-0.9-0.9c-0.5-0.6-1.2-1.2-1.9-0.6c-0.7,0.6-0.3,1.3,0.4,1.9c0.4,0.4,0.8,0.7,1.1,1.1
		c0.1,0.1,0.1,0.4,0,0.5c-0.1,0.1-0.4,0.2-0.6,0.1c-0.7-0.5-1.4-0.9-1.9,0c-0.3,0.5,0.1,1.3,0.2,2c0,0.1,0.2,0.2,0.2,0.3
		c0,0.5-0.1,0.9-0.2,1.4c-0.3-0.2-0.7-0.3-0.9-0.6c-0.7-0.7-1.3-1.4-2-2c-0.2-0.2-0.7-0.2-0.9-0.1c-0.3,0.3-0.6,0.8-0.5,1.1
		c0.3,0.9,0.8,1.7,1.3,2.5c0.3,0.5,0.9,1,1.1,1.5c0.1,0.4,0.4,1.9-1.1,0.9c-0.2-0.1-0.8,0.1-0.9,0.2c-0.1,0.6,0,1.2,0,1.7
		c-1.1,0.1-2.2,0.3-2.1-1.6c0.1-1.2-1.1-0.2-1.7-0.3c-0.4-0.8-0.2-1.5,0.5-2.2c0.8-0.7,1.4-1.6,1.9-2.5c0.2-0.3,0-1.2-0.3-1.4
		c-0.3-0.2-1.1-0.1-1.4,0.1c-0.6,0.4-1,1.1-1.5,1.6c-0.3,0.3-0.6,0.5-0.9,0.7c-0.1-0.5-0.3-1-0.2-1.5c0.1-0.4,0.5-0.7,0.7-1
		c0.5-1.1-0.1-1.8-1.3-1.8c-0.4,0-0.8,0.1-1.1,0.2c0.2-0.3,0.3-0.7,0.5-1c0.7-0.7,2.2-1.3,1.1-2.5c-0.9-0.9-1.6,0.3-2.3,0.9
		c-0.3,0.3-0.9,0.2-1.3,0.3c0-0.4-0.1-0.8-0.1-1.2c0.1-0.7,0.6-1.8,0.4-1.9c-0.6-0.5-1.5-0.6-2.3-0.7c-1.3-0.2-1.8,0.9-2.4,1.8
		c-1,1.6-0.8,2,0.9,2.3c0.2,0.1,0.5-0.1,0.6,0c0.1,0,0.2,0.1,0.3,0.1c0.2,0.1,0.4,0.3,0.6,0.4c0,0,0.1,0.1,0.1,0.1
		c-0.1,0.1-0.2,0.3-0.3,0.4s-0.2,0.3-0.3,0.4c-0.1,0.1-0.1,0.2-0.2,0.2c-0.2,0.2-0.6,0.2-0.9,0.2c-0.8,0.1-1.9,0.3-1.5,1.4
		c0.3,1,1.4,0.8,2.2,0.5c0.2-0.1,0.4-0.2,0.6-0.2c0.2,0,0.4,0.1,0.6,0.1c0.2,0.1,0.4,0.1,0.6,0.1c-0.1,0.1-0.1,0.1-0.2,0.2
		c-0.2,0.2-0.3,0.3-0.5,0.5c-0.3,0.4-0.8,1.1-0.7,1.2c0.4,0.4,0.9,0.7,1.4,1c0.3,0.1,0.7-0.1,0.9,0c0.2,0.1,0.4,0.3,0.6,0.5
		c0.1,0.1,0.2,0.2,0.2,0.2c0,0,0.1,0.1,0.1,0.1c0,0-0.1,0.1-0.1,0.1c0,0-0.1,0.1-0.1,0.1c-0.1,0.1-0.1,0.1-0.2,0.2
		c-0.1,0.1-0.3,0.2-0.4,0.2c-0.8,0.2-1.7,0.3-2.4,0.5c-0.3,0.1-0.8,0.7-0.7,0.9c0.2,0.4,0.6,1,1,1c1,0.1,2.1,0.1,3.2-0.2
		c0.9-0.3,1.4,0,2,0.6c0.3,0.3,0.6,0.6-0.1,0.8c-2,0.7-0.4,1.2,0.2,1.4c0.7,0.3,1.2,0.1,0.5,1.1c-0.6,0.9-0.9,1.3-1.9,0.4
		c-1.4-1.2-0.8,1.4-1.8,1.2c-0.4-0.1-0.8-0.4-1-0.7c-0.2-0.5-0.1-1.1-0.4-1.5c-0.4-0.9-0.9-1.7-1.4-2.4c-0.2-0.2-0.7-0.4-0.8-0.3
		c-0.3,0.2-0.7,0.6-0.7,0.9c0.2,1,0.5,2,0.8,3c0.1,0.2-0.1,0.5-0.1,0.8c-0.3-0.1-0.8,0-0.9-0.2c-0.5-0.6-0.7-1.4-1.2-1.8
		c-0.3-0.3-1.3-0.2-1.6,0.1c-0.4,0.4-0.4,1.1-0.6,1.7c-0.3-0.7-0.6-1.5-0.9-2.2c-0.1-0.1,0-0.3-0.1-0.3c-0.2-0.2-0.4-0.3-0.6-0.5
		c-0.2-0.2-0.4-0.3-0.6-0.5c-0.1,0.1-0.2,0.2-0.2,0.3c0,0.1-0.1,0.1-0.1,0.2c-0.1,0.1-0.2,0.2-0.2,0.3c-0.1,0.2-0.2,0.3-0.2,0.5
		c-0.1,0.4,0.3,0.8,0.3,1.2c0,0.2,0,0.4-0.1,0.6c0,0.1-0.1,0.3-0.1,0.4c0,0.1,0,0.1-0.1,0.2c0,0.1-0.1,0.3-0.1,0.4
		C9.1,26.1,9,26.1,8.9,26c-0.1-0.1-0.2-0.1-0.3-0.2c-0.2-0.1-0.4-0.3-0.6-0.5c-0.3-0.3-0.4-0.8-0.7-1c-0.3-0.2-0.9-0.2-1.1,0
		c-1.1,0.8-1.8,2.8-1.2,3.9c0.2,0.5,0.5,0.9,0.9,1.3c0.1,0.1,0.2,0.3,0.3,0.4c0.1,0.1,0.2,0.3,0.3,0.4c0.2-0.1,0.3-0.3,0.4-0.4
		c0.4-0.4,0.9-0.8,1.3-1.2c0.3-0.2,0.7-0.2,1.1-0.4c0.1,0.4,0.4,0.8,0.3,1.1c-0.1,0.6-0.6,1.2-0.7,1.8c-0.1,0.3,0.3,0.8,0.6,1
		c0.3,0.1,0.9-0.1,1.1-0.3c0.3-0.6,0.5-1.4,0.7-2.1c0.1-0.2,0.3-0.3,0.5-0.4c0.1-0.1,0.1-0.1,0.2-0.1c0.1,0.1,0.1,0.2,0.2,0.2
		c0.1,0.1,0.1,0.2,0.2,0.2c1.1,2.1,1.1,2.2,2.3,0.4c0.5-0.7,0.9-1.3,1.7-0.8c0.1,0.1-0.3,1-0.5,1.5c-0.4,1-1,2-0.1,2.9
		c0.6,0.6,1.6-0.2,2.4-1.9c0.4-0.8,0.5-1.6,1-2.3c0.2-0.3,1.3-1,1.3-0.1c0,1.2,0.5,1.4,1.2,1c1.1-0.6,1.4,0.1,1.7,0.7
		c0.7,1.1-0.6,0.7-0.9,1c-0.5,0.6-1.3,1.1,0.1,1.5c0.3,0.1,0.6,0.2,0.9,0.3c-0.3,0.1-0.5,0.3-0.8,0.4c-0.7,0.1-1.4,0.2-2.1,0.2
		c-1.2,0-2.3-0.2-3.5-0.1c-0.7,0.1-0.9,1.1-0.3,1.4c0.9,0.5,2,0.7,2.9,1c0.3,0.1,0.5,0.3,0.7,0.4C20.2,37.6,20,38,19.7,38
		c-0.6,0.1-1.3,0-1.9,0.1c-0.9,0.2-1.3,0.7-0.9,1.6c0.1,0.1,0.1,0.3,0.2,0.4c0.1,0.2,0.3,0.5,0.4,0.7c0.1,0.1,0.2,0.2,0.2,0.4
		c-0.2,0-0.3-0.1-0.5-0.1c-0.4-0.1-0.9-0.2-1.3-0.3c-0.4-0.1-0.9-0.2-1.2,0c-0.3,0.1-0.7,0.5-0.8,0.9c-0.1,0.2,0.2,0.7,0.5,0.8
		c0.7,0.3,1.4,0.4,2.1,0.6c0.3,0.1,0.6,0.6,0.6,0.7c-0.2,0.3-0.5,0.7-0.8,0.8c-0.5,0.2-1.1-0.1-1.6,0.1c-0.6,0.2-1.1,0.6-0.7,1.4
		c0.8,2.2,2.2,3.1,4.4,2.7c0.8-0.1,1.1-0.7,1-1.4c-0.1-0.8-0.6-2.2-0.5-2.2c1.2-0.5,1.5,0.7,2.1,1.3c0.2,0.2,0.3,0.3,0.5,0.3
		c0.3,0.1,0.7,0.2,0.9,0c0.3-0.3,0.6-0.8,0.5-1.1c-0.3-0.6-0.9-1.1-1.3-1.7c-0.3-0.3-0.4-0.7-0.6-1c0.4,0.1,0.7,0.2,1.1,0.2
		c0.5,0,1.3,0.1,1.4-0.2c0.2-0.5,0.1-1.1,0-1.7c-0.1-0.3-0.5-0.5-0.5-0.8c-0.1-0.4,0-0.9,0.2-1.1c0.7-0.7,0.7,0.3,1,0.5
		c0.4,0.5,0.7,1.1,1.2,1.4c0.1,0,0.1,0.1,0.2,0.1c0.1,0.1,0.3,0.1,0.4,0.1c0.2,0,0.3,0.1,0.4,0.1c0.1,0,0.2,0,0.2,0
		c0.2,0,0.3,0.1,0.4,0.1l0,0c0-0.1,0-0.2,0.1-0.3c0-0.1,0.1-0.2,0.1-0.4c0.1-0.4,0.1-0.8,0-1c-0.6-1-1.4-1.9-2-2.8
		c-0.4-0.6,0.1-1.9,0.4-1.7c1.6,1.4,1.3-0.2,1.7-0.9c0.2-0.4,0.9-0.7,1.4-0.7c1.1-0.1,0.3,0.7,0.4,1.1c0.1,0.9,0.2,1.6,1.3,0.8
		c0.7-0.5,0.7,0.2,0.6,0.5c-0.2,0.7-0.5,1.3-0.9,1.9c-0.5,0.9-1.2,1.7-1.7,2.6c-0.1,0.3,0.1,0.9,0.4,1.1c0.3,0.2,0.8,0.1,1.2,0
		c0.3-0.1,0.5-0.4,0.8-0.6c0.8-0.4,0.8-2.2,1.9-1.4c0.9,0.6-0.4,1.4-0.7,2.1c-0.4,1.1,0.3,1.8,1.4,1.7c0.2,0,0.4-0.1,0.7-0.1
		s0.4-0.1,0.7-0.1c-0.1,0.1-0.2,0.2-0.2,0.3c-0.2,0.3-0.5,0.6-0.7,0.9c-0.2,0.2-0.6,0.4-0.7,0.6c-0.2,0.5-0.3,1.1-0.4,1.7
		c0.6,0,1.2,0.1,1.7-0.1c0.4-0.1,0.5-0.7,0.9-0.9c0.4-0.2,0.9-0.3,1.4-0.4c-0.1,0.5-0.1,1-0.2,1.4c-0.1,0.2-0.3,0.4-0.3,0.5
		c-0.4,1.1-0.1,1.5,1.1,1.7c2.2,0.3,3.3-0.4,4.2-2.4c0.4-0.8-0.1-1.2-0.7-1.4c-0.8-0.3-2.1-0.5-2.1-0.7c0-1.4,1.3-0.8,2.1-1.2
		c0.5-0.3,0.7-0.8,1.1-1.3c-0.6-0.2-1.1-0.6-1.7-0.6c-0.6,0-1.2,0.3-1.8,0.5c-0.2,0-0.5-0.1-0.5-0.3c-0.1-0.1,0.1-0.4,0.2-0.5
		c1.5-1.9,1.5-1.9-0.9-2.3c-0.3-0.1-0.7-0.1-0.9-0.3c-0.2-0.2-0.3-0.5-0.5-0.8c0.2-0.1,0.5-0.3,0.7-0.4c1-0.3,2-0.4,3-0.8
		c0.6-0.2,0.5-1.3-0.2-1.5c-0.7-0.2-1.5-0.3-2.2-0.3c-0.8,0-1.7,0.4-2.5,0.3c-0.4,0-0.8-0.6-1.2-1c0.3-0.2,0.7-0.3,0.9-0.6
		c0.2-0.2,0-0.6-0.1-1c-0.1-0.7-1.6,0.1-1.2-1.1c0.2-0.7,0.9-0.8,2.3-0.5c1,0.2,0.9-0.6,0.9-1.2c1.2-0.3,1.5,0.5,1.8,1.5
		c0.3,1,0.8,1.9,1.3,2.8c0.2,0.3,0.8,0.4,1.1,0.3c0.3-0.1,0.7-0.7,0.7-1c-0.1-0.8-0.4-1.6-0.6-2.4c-0.1-0.4-0.1-0.7-0.1-1.1
		c0.5,0.2,0.9,0.3,1.3,0.6c0.2,0.2,0.2,0.6,0.4,0.9c0.9,1.2,1.6,1.1,2.3-0.2c0.2-0.3,0.3-0.7,0.4-1.1c0.2,0.4,0.4,0.7,0.5,1.1
		c0.1,0.3,0.2,0.6,0.2,0.9c0.2,0.8,0.5,1.5,1.4,1.2c0.4-0.1,0.5-1,0.5-1.6c0-0.5-0.4-1-0.4-1.5c0-0.3,0.2-0.7,0.5-0.7
		c0.2-0.1,0.7,0,0.8,0.2c0.4,0.5,0.6,1.1,1.1,1.5c0.2,0.2,0.9,0.3,1.1,0.1C52.3,30.3,52.3,26.8,50.5,25.8z M37.6,26.2
		c-0.1,0.3-0.9,0.2-1.3,0.3c-0.1-1.6-0.9-1.3-1.9-0.7c-0.2,0.1-0.6,0.1-0.9,0.1c0.3-0.6-1.3-1.2-0.1-1.8c1.2-0.6,1.5-1.1,0.4-1.9
		c0.4-0.4,0.8-1.1,1.1-1c1.4,0.2,2.8,0.7,4.2,1C38.7,23.5,38.2,24.9,37.6,26.2z"/>
	<path class="st1" d="M24-6.8c0.2-0.2,0.1-0.6,0.2-0.9c-0.3,0.1-0.6,0.1-0.7,0.3c-0.2,0.2-0.2,0.5-0.2,0.8C23.6-6.7,23.9-6.6,24-6.8
		z"/>
</g>
<g>
	<path class="st1" d="M24.6,43.9c-4.8,0-8.5-2.3-10.6-6.8c-2.1-4.6-1.5-9,1.7-13c2.1-2.6,5.3-4.1,8.7-4.1c1.9,0,3.9,0.5,5.7,1.5
		c0.4-0.3,1.8-1.8,2.2-2.1h-0.2c-0.8,0-1.5-0.7-1.5-1.5v-3.6c0-0.8,0.7-1.5,1.5-1.5h10.3c0.4,0,0.8,0.2,1.1,0.5s0.4,0.7,0.4,1.1
		c-0.1,3.4-0.1,6.9-0.1,10.3c0,0.8-0.7,1.5-1.5,1.5h-3.8c-0.8,0-1.4-0.6-1.5-1.4c-0.5,0.5-0.9,0.9-1.4,1.3c-0.7,0.6-0.9,0.7-0.4,1.8
		c1.4,3.7,1,7.8-1.3,11.1C31.8,42,28.3,43.9,24.6,43.9z M24.4,27.1c-2.8,0-5,2.2-5,4.9c0,2.6,2.3,4.8,5,4.8c2.8,0,5-2.1,5.1-4.8
		c0-1.2-0.4-2.4-1.3-3.3c-0.9-1-2.3-1.5-3.6-1.5L24.4,27.1z"/>
	<path class="st2" d="M42.4,14.3c-0.1,3.4-0.1,6.9-0.1,10.3c-1.2,0-2.5,0-3.8,0c0-1.1,0-2.2,0-3.5c-1.5,1.4-2.6,2.7-3.9,3.8
		c-1.3,1-1.5,1.9-0.8,3.5c2.6,6.7-2.3,14-9.2,14c-4.3,0-7.4-2.1-9.2-5.9c-1.8-4-1.3-7.9,1.5-11.4c1.7-2.1,4.5-3.6,7.5-3.6
		c1.9,0,3.9,0.6,5.9,1.9c1.9-1.8,3.7-3.6,5.8-5.5c-1.5,0-2.7,0-4,0c0-1.2,0-2.3,0-3.6C35.5,14.3,39,14.3,42.4,14.3 M24.4,38.3
		c3.6,0,6.5-2.8,6.6-6.3c0.1-3.4-2.9-6.4-6.4-6.4c-0.1,0-0.1,0-0.2,0c-3.6,0-6.5,2.9-6.5,6.4C17.9,35.4,20.9,38.3,24.4,38.3
		 M42.4,11.3H32.1c-1.7,0-3,1.3-3,3v3.6c0,0.6,0.2,1.3,0.6,1.7c-1.7-0.7-3.5-1.1-5.3-1.1c-3.8,0-7.5,1.8-9.8,4.7
		c-3.5,4.3-4.1,9.5-1.9,14.5c0,0,0,0,0,0.1c2.3,4.9,6.6,7.6,11.9,7.6c4.2,0,8.1-2.1,10.5-5.7c2.5-3.7,3-8.3,1.5-12.4v-0.1l0,0
		c0.1-0.1,0.1-0.1,0.2-0.2c0.5,0.4,1.1,0.6,1.8,0.6h3.8c1.7,0,3-1.3,3-3c0-3.4,0-6.9,0.1-10.2c0-0.8-0.3-1.6-0.8-2.2
		C44,11.6,43.2,11.3,42.4,11.3L42.4,11.3z M36.4,26.8L36.4,26.8L36.4,26.8L36.4,26.8z M24.4,35.3c-1.8,0-3.5-1.6-3.5-3.3
		c0-1.9,1.6-3.4,3.5-3.4h0.1h0.1c0.9,0,1.8,0.4,2.5,1.1c0.6,0.6,0.9,1.4,0.9,2.2C27.9,33.8,26.4,35.3,24.4,35.3L24.4,35.3z"/>
</g>
</svg>
