<?xml version="1.0" encoding="utf-8"?>
<!-- Generator: Adobe Illustrator 21.0.0, SVG Export Plug-In . SVG Version: 6.00 Build 0)  -->
<svg version="1.1" id="Calque_1" xmlns="http://www.w3.org/2000/svg" xmlns:xlink="http://www.w3.org/1999/xlink" x="0px" y="0px"
	 viewBox="0 0 56.7 56.7" style="enable-background:new 0 0 56.7 56.7;" xml:space="preserve">
<style type="text/css">
	.st0{fill:#FFFFFF;}
</style>
<g>
	<path class="st0" d="M42.3,24.6c-1.2,0-2.5,0-3.8,0c0-1.1,0-2.2,0-3.5c-1.5,1.4-2.6,2.7-3.9,3.8c-1.3,1-1.5,1.9-0.8,3.5
		c2.6,6.7-2.3,14-9.2,14c-4.3,0-7.4-2.1-9.2-5.9c-1.8-4-1.3-7.9,1.5-11.4s8.3-5.1,13.4-1.7c1.9-1.8,3.7-3.6,5.8-5.5
		c-1.5,0-2.7,0-4,0c0-1.2,0-2.3,0-3.6c3.4,0,6.9,0,10.3,0C42.3,17.7,42.3,21.2,42.3,24.6z M24.4,38.3c3.6,0,6.5-2.8,6.6-6.3
		s-3-6.5-6.6-6.4c-3.6,0-6.5,2.9-6.5,6.4C17.9,35.4,20.9,38.3,24.4,38.3z"/>
</g>
</svg>
